<svg xmlns="http://www.w3.org/2000/svg" width="40" height="40" viewBox="0 0 40 40">
    <g fill="none" fill-rule="evenodd">
        <path fill="#2F6EB7" d="M20-.085c-11.045 0-20 8.954-20 20 0 11.045 8.955 20 20 20 11.046 0 20-8.955 20-20 0-11.046-8.954-20-20-20z"/>
        <path fill="#FFF" d="M25.194 13.235l-1.883.002c-1.476 0-1.762.7-1.762 1.73v2.27h3.521l-.459 3.556H21.55v9.122h-3.671v-9.122h-3.07v-3.556h3.07v-2.622c0-3.043 1.858-4.7 4.572-4.7 1.3 0 2.418.097 2.744.14v3.18z"/>
    </g>
</svg>
