<?xml version="1.0" encoding="UTF-8"?>
<svg width="56px" height="41px" viewBox="0 0 56 41" version="1.1" xmlns="http://www.w3.org/2000/svg" xmlns:xlink="http://www.w3.org/1999/xlink">
    <title>83DD3072-71D0-4B0E-80F0-2DB30E20FDF6</title>
    <g id="Desktop-HD" stroke="none" stroke-width="1" fill="none" fill-rule="evenodd">
        <g id="ych-home-desktop-hd-b" transform="translate(-629.000000, -504.000000)" stroke="#FFFFFF" stroke-width="3.2">
            <g id="div/info/default" transform="translate(0.000000, 165.000000)">
                <g id="stack-buttons" transform="translate(483.000000, 312.000000)">
                    <g id="btn-email" transform="translate(126.000000, 0.000000)">
                        <path d="M48.9488474,53.9693408 C48.6563632,54.139545 48.3263769,54.2258817 47.9988801,54.2258817 C47.6689002,54.2258817 47.3389459,54.1370822 47.0464169,53.9693408 L23.199959,40.0741372 C22.8474779,39.8669343 22.4,40.118537 22.4,40.5255482 L22.4,61.6285255 C22.4,63.8214847 24.2024036,65.6 26.4248177,65.6 L69.5726864,65.6 C71.7951005,65.6 73.6,63.8214847 73.6,61.6285255 L73.6,40.5255482 C73.6,40.1210061 73.1525221,39.8693718 72.800041,40.0741372 L48.9535831,53.9693408 L48.9488474,53.9693408 Z M73.337971,33.0687295 C73.5105584,32.9615019 73.6156105,32.7700204 73.598104,32.5657744 C73.4255166,30.4620073 71.6896088,28.8 69.5860699,28.8 L26.4139302,28.8 C24.30783,28.8 22.5744643,30.4595237 22.4018962,32.5657744 C22.384389,32.7700204 22.4894417,32.9640574 22.6620291,33.0687295 L46.9419554,47.7032043 C47.594769,48.0989319 48.4077284,48.0989319 49.060542,47.7032043 L73.337971,33.0687295 Z" id="icn-email-white"></path>
                    </g>
                </g>
            </g>
        </g>
    </g>
</svg>