<?xml version="1.0" encoding="UTF-8"?>
<svg width="67px" height="66px" viewBox="0 0 67 66" version="1.1" xmlns="http://www.w3.org/2000/svg" xmlns:xlink="http://www.w3.org/1999/xlink">
    <title>38E7FC74-0C46-400C-BBB1-C7F1D1924E3C</title>
    <g id="Desktop-HD" stroke="none" stroke-width="1" fill="none" fill-rule="evenodd">
        <g id="ych-home-desktop-hd-b" transform="translate(-877.000000, -492.000000)" fill="#FFFFFF" stroke="#FFFFFF" stroke-width="1.6">
            <g id="div/info/default" transform="translate(0.000000, 165.000000)">
                <g id="stack-buttons" transform="translate(483.000000, 312.000000)">
                    <g id="btn-callback" transform="translate(378.000000, 0.000000)">
                        <g id="icn-callback-white" transform="translate(17.600000, 16.000000)">
                            <path d="M31.999344,63.99396 C35.989984,63.99396 39.880624,63.26896 43.568144,61.83772 C43.98064,61.678344 44.183768,61.215848 44.024392,60.80332 C43.865016,60.390792 43.399392,60.184568 42.989992,60.347072 C39.486872,61.706432 35.789992,62.393952 31.999592,62.393952 C15.237192,62.393952 1.599592,48.756352 1.599592,31.997152 C1.599592,22.703552 5.887112,13.913152 13.137192,8.165952 L13.137192,13.509712 C13.137192,13.950336 13.496568,14.309712 13.937192,14.309712 C14.377816,14.309712 14.737192,13.950336 14.737192,13.509712 L14.737192,6.540992 C14.737192,6.528488 14.730944,6.51912 14.730944,6.506616 C14.727816,6.431616 14.712192,6.359744 14.687192,6.284744 C14.671568,6.240992 14.655944,6.203496 14.634064,6.165992 C14.61844,6.140992 14.61532,6.112864 14.599696,6.087864 C14.587192,6.06912 14.56532,6.059744 14.549696,6.040992 C14.509064,5.987864 14.462192,5.94724 14.405944,5.906616 C14.380944,5.887864 14.355944,5.86912 14.330944,5.856616 C14.262192,5.815992 14.187192,5.790992 14.109072,5.77224 C14.09344,5.769112 14.074696,5.765992 14.059072,5.762864 C14.01844,5.756616 13.980944,5.737864 13.9372,5.737864 L6.96536,5.737864 C6.524736,5.737864 6.16536,6.09724 6.16536,6.537864 C6.16536,6.978488 6.524736,7.337864 6.96536,7.337864 L11.6216,7.337864 C4.30912,13.390984 0,22.441064 0,31.997064 C0,49.641064 14.355992,63.99396 32,63.99396 L31.999344,63.99396 Z" id="Fill-1"></path>
                            <path d="M31.999344,0 C28.271184,0 24.614944,0.637864 21.140144,1.891 C20.72452,2.041 20.508896,2.500376 20.658896,2.91596 C20.808896,3.331544 21.265144,3.547208 21.683856,3.397208 C24.983856,2.203448 28.455696,1.600328 31.999856,1.600328 C48.762256,1.600328 62.399856,15.237928 62.399856,31.997128 C62.399856,41.037928 58.302976,49.672328 51.368656,55.421928 L51.368656,50.128168 C51.368656,49.687544 51.00928,49.328168 50.568656,49.328168 C50.128032,49.328168 49.768656,49.687544 49.768656,50.128168 L49.768656,56.950008 C49.762408,56.987504 49.768656,57.028128 49.768656,57.065632 L49.768656,57.09688 C49.768656,57.100008 49.771784,57.103128 49.771784,57.106256 C49.774904,57.19376 49.790528,57.278128 49.824904,57.362504 C49.837408,57.4 49.856152,57.434376 49.874904,57.468752 C49.890528,57.49688 49.896784,57.528128 49.915528,57.556248 C49.928032,57.571872 49.943656,57.575 49.956152,57.590624 C50.103024,57.775 50.318656,57.9 50.571776,57.9 L57.543616,57.9 C57.98424,57.9 58.343616,57.540624 58.343616,57.1 C58.343616,56.659376 57.98424,56.3 57.543616,56.3 L52.806096,56.3 C59.846744,50.25 63.999696,41.3312 63.999696,31.9968 C63.999696,14.3528 49.643696,0 31.999696,0 L31.999344,0 Z" id="Fill-2"></path>
                            <path d="M27.315344,26.00676 C28.102848,24.74428 28.130944,23.15988 27.396592,21.86924 L24.684112,17.11924 C23.609072,15.23484 21.240352,14.513 19.293472,15.46924 C16.346592,16.91924 14.899712,19.21924 15.109072,22.11924 C15.071576,23.43796 14.821568,46.64084 40.871472,48.82884 C40.946472,48.841344 41.618344,48.95384 42.518352,48.95384 C44.140192,48.95384 46.505872,48.588216 47.462112,46.61944 L48.358992,45.08816 C49.443392,43.23816 48.88712,40.85688 47.090272,39.66632 L43.008992,36.9632 C41.699632,36.09448 39.974592,36.05072 38.687152,36.816328 L35.249632,38.428808 C35.024632,38.560056 34.75588,38.566312 34.524632,38.44756 C34.337128,38.350688 34.137128,38.253808 33.924632,38.14756 C31.665272,37.02884 28.252792,35.3382 25.731032,29.77236 C25.627904,29.54736 25.643536,29.294232 25.802904,29.028608 L27.315344,26.00676 Z M24.277824,30.43492 C27.034064,36.51932 30.905984,38.43492 33.218624,39.58212 C33.424872,39.68212 33.615496,39.778992 33.796752,39.872744 C34.518624,40.244616 35.368592,40.219616 35.996752,39.844616 L39.434272,38.232136 C40.265552,37.741512 41.321792,37.766512 42.124912,38.300888 L46.206192,41.004008 C47.293712,41.72588 47.634352,43.166488 46.978064,44.285288 L46.053104,45.869688 C45.078064,47.872808 41.187504,47.263448 41.078064,47.247848 C15.887664,45.126008 16.662064,23.082248 16.706064,22.144648 L16.706064,22.044648 C16.531064,19.797768 17.637344,18.069608 19.999824,16.910248 C20.356072,16.735248 20.7342,16.650872 21.109184,16.650872 C21.987344,16.650872 22.834144,17.110248 23.296704,17.916472 L26.009184,22.666472 C26.452936,23.4446 26.434184,24.403992 25.924808,25.228952 L24.418568,28.253912 C24.006064,28.90704 23.952944,29.722632 24.277944,30.435192 L24.277824,30.43492 Z" id="Fill-3"></path>
                        </g>
                    </g>
                </g>
            </g>
        </g>
    </g>
</svg>