<?xml version="1.0" encoding="UTF-8"?>
<svg width="61px" height="56px" viewBox="0 0 61 56" version="1.1" xmlns="http://www.w3.org/2000/svg" xmlns:xlink="http://www.w3.org/1999/xlink">
    <title>C13AA2F1-44BB-4E2C-9D4C-047B2206A8CA</title>
    <g id="Desktop-HD" stroke="none" stroke-width="1" fill="none" fill-rule="evenodd">
        <g id="ych-home-desktop-hd-b" transform="translate(-501.000000, -497.000000)" fill="#FFFFFF" stroke="#FFFFFF" stroke-width="0.836">
            <g id="div/info/default" transform="translate(0.000000, 165.000000)">
                <g id="btn-chat" transform="translate(483.000000, 312.000000)">
                    <path d="M37.1584012,20.8057413 C33.2301145,20.8057413 30.0376258,24.1008194 30.0376258,28.1261755 L30.0376258,41.7633042 L23.7967555,41.7633042 C21.2570094,41.7633042 19.2,43.8578181 19.2,46.4479244 L19.2,62.8719839 C19.2,65.4594746 21.2544993,67.5617045 23.7967555,67.5617045 L25.4150355,67.5617045 L25.8434845,74.0700577 C25.869293,74.7137458 26.4267908,75.2245872 27.0797917,75.1990851 C27.3946731,75.1863131 27.6966503,75.050937 27.9108682,74.8184944 L35.0369295,67.5588731 L49.5057741,67.5588731 C52.0455195,67.5588731 54.1154801,65.4592588 54.1154801,62.8691525 L54.1154801,59.3825464 L61.6776285,67.9957451 C61.9925099,68.3559013 62.4983975,68.4938354 62.952655,68.3482376 L62.9578153,68.3482376 L62.9603988,68.3456808 C63.4146563,68.189869 63.7372948,67.7811802 63.776014,67.3061072 L63.776014,67.303557 L64.7206714,56.3402341 L71.2970646,56.3402341 C75.2227744,56.3402341 78.4,53.0732737 78.4,49.0505333 L78.4,28.1204342 C78.4,24.0974322 75.2253513,20.8 71.2970646,20.8 L71.2944811,20.8 L37.1584012,20.8057413 Z M37.1584012,23.1812369 L71.3000643,23.1812369 C73.8888365,23.1812369 76.005247,25.3830561 76.005247,28.1263717 L76.005247,49.0538551 C76.005247,51.7971706 73.8914134,53.9657716 71.3000643,53.9657716 L63.6136971,53.9657716 C62.9942551,53.9759921 62.4780203,54.458755 62.4264167,55.0692315 L61.6263288,64.3160613 L52.9204426,54.3898271 C52.6958973,54.1267362 52.3681051,53.9734746 52.0196582,53.9658109 L37.1556921,53.9658109 C34.5643431,53.9658109 32.4350482,51.7946597 32.4350482,49.0513441 L32.4350482,28.1238607 C32.4350482,25.3805451 34.566986,23.1787259 37.1556921,23.1787259 L37.1584012,23.1812369 Z M23.7989359,44.1394537 L30.0398063,44.1394537 L30.0398063,49.0564707 C30.0398063,53.0794727 33.23507,56.3461715 37.1605816,56.3461715 L51.4622595,56.3461715 L51.7151967,56.6475812 L51.7151967,62.8749526 C51.7151967,64.185307 50.7163588,65.1917278 49.5058203,65.1917278 L34.5202785,65.1917278 C34.1950697,65.1993915 33.8879322,65.3373256 33.665944,65.5723185 L28.0651307,71.2761105 L27.7373451,66.3156744 C27.696049,65.6949774 27.1746869,65.2020137 26.5474878,65.194363 L23.7986849,65.194363 C22.5856356,65.194363 21.6022597,64.1904925 21.6022597,62.8775878 L21.6022597,46.4535283 C21.6022597,45.1406236 22.5882125,44.1444691 23.7986849,44.1444691 L23.7989359,44.1394537 Z" id="icn-chat-white"></path>
                </g>
            </g>
        </g>
    </g>
</svg>