<?xml version="1.0" encoding="UTF-8"?>
<svg width="61px" height="56px" viewBox="0 0 61 56" version="1.1" xmlns="http://www.w3.org/2000/svg" xmlns:xlink="http://www.w3.org/1999/xlink">
    <title>icn-chat-white</title>
    <g id="icn-chat-white" stroke="none" stroke-width="1" fill="none" fill-rule="evenodd">
        <g transform="translate(1.000000, 0.000000)" fill="#FFFFFF" fill-rule="nonzero" stroke="#FFFFFF" stroke-width="0.836">
            <path d="M18.1584012,0.8057413 C14.2301145,0.8057413 11.0376258,4.1008194 11.0376258,8.1261755 L11.0376258,21.7633042 L4.7967555,21.7633042 C2.2570094,21.7633042 0.2,23.8578181 0.2,26.4479244 L0.2,42.8719839 C0.2,45.4594746 2.2544993,47.5617045 4.7967555,47.5617045 L6.4150355,47.5617045 L6.8434845,54.0700577 C6.869293,54.7137458 7.4267908,55.2245872 8.0797917,55.1990851 C8.3946731,55.1863131 8.6966503,55.050937 8.9108682,54.8184944 L16.0369295,47.5588731 L30.5057741,47.5588731 C33.0455195,47.5588731 35.1154801,45.4592588 35.1154801,42.8691525 L35.1154801,39.3825464 L42.6776285,47.9957451 C42.9925099,48.3559013 43.4983975,48.4938354 43.952655,48.3482376 L43.9578153,48.3482376 L43.9603988,48.3456808 C44.4146563,48.189869 44.7372948,47.7811802 44.776014,47.3061072 L44.776014,47.303557 L45.7206714,36.3402341 L52.2970646,36.3402341 C56.2227744,36.3402341 59.4,33.0732737 59.4,29.0505333 L59.4,8.1204342 C59.4,4.0974322 56.2253513,0.8 52.2970646,0.8 L52.2944811,0.8 L18.1584012,0.8057413 Z M18.1584012,3.1812369 L52.3000643,3.1812369 C54.8888365,3.1812369 57.005247,5.3830561 57.005247,8.1263717 L57.005247,29.0538551 C57.005247,31.7971706 54.8914134,33.9657716 52.3000643,33.9657716 L44.6136971,33.9657716 C43.9942551,33.9759921 43.4780203,34.458755 43.4264167,35.0692315 L42.6263288,44.3160613 L33.9204426,34.3898271 C33.6958973,34.1267362 33.3681051,33.9734746 33.0196582,33.9658109 L18.1556921,33.9658109 C15.5643431,33.9658109 13.4350482,31.7946597 13.4350482,29.0513441 L13.4350482,8.1238607 C13.4350482,5.3805451 15.566986,3.1787259 18.1556921,3.1787259 L18.1584012,3.1812369 Z M4.7989359,24.1394537 L11.0398063,24.1394537 L11.0398063,29.0564707 C11.0398063,33.0794727 14.23507,36.3461715 18.1605816,36.3461715 L32.4622595,36.3461715 L32.7151967,36.6475812 L32.7151967,42.8749526 C32.7151967,44.185307 31.7163588,45.1917278 30.5058203,45.1917278 L15.5202785,45.1917278 C15.1950697,45.1993915 14.8879322,45.3373256 14.665944,45.5723185 L9.0651307,51.2761105 L8.7373451,46.3156744 C8.696049,45.6949774 8.1746869,45.2020137 7.5474878,45.194363 L4.7986849,45.194363 C3.5856356,45.194363 2.6022597,44.1904925 2.6022597,42.8775878 L2.6022597,26.4535283 C2.6022597,25.1406236 3.5882125,24.1444691 4.7986849,24.1444691 L4.7989359,24.1394537 Z"></path>
        </g>
    </g>
</svg>