<?xml version="1.0" encoding="UTF-8"?>
<svg width="44px" height="60px" viewBox="0 0 44 60" version="1.1" xmlns="http://www.w3.org/2000/svg" xmlns:xlink="http://www.w3.org/1999/xlink">
    <title>4B65E573-BB7F-483D-A528-2E21D62813AD</title>
    <g id="Desktop-HD" stroke="none" stroke-width="1" fill="none" fill-rule="evenodd">
        <g id="ych-home-desktop-hd-b" transform="translate(-760.000000, -493.000000)" fill="#FFFFFF" stroke="#FFFFFF" stroke-width="0.8">
            <g id="div/info/default" transform="translate(0.000000, 165.000000)">
                <g id="stack-buttons" transform="translate(483.000000, 312.000000)">
                    <g id="btn-call" transform="translate(252.000000, 0.000000)">
                        <path d="M39.3076442,37.3486598 C40.4997473,35.4422462 40.5422783,33.049716 39.4306353,31.1007793 L35.3245534,23.9280207 C33.6971857,21.0824741 30.1114787,19.9924564 27.1643422,21.4364308 C22.7034317,23.6260098 20.5131822,27.099135 20.830106,31.4782929 C20.7733455,33.4696319 20.3948899,68.5072441 59.8285594,71.8112432 C59.9420924,71.8301249 60.9591549,72 62.3215636,72 C64.776663,72 68.3577681,71.4478879 69.8052994,68.4749289 L71.1629731,66.1626127 C72.8045097,63.369012 71.9624396,59.7731495 69.2424176,57.9753391 L63.0642818,53.8934807 C61.0822065,52.5816662 58.4708857,52.5155862 56.5219924,53.671696 L51.3183637,56.1066286 C50.9777645,56.3048202 50.5709347,56.3142671 50.2208775,56.1349452 C49.9370388,55.9886632 49.634284,55.8423691 49.312613,55.6819288 C45.8924524,53.9926007 40.7267286,51.4396423 36.9093537,43.0349208 C36.7532412,42.6951586 36.7769045,42.3129215 37.0181517,41.9118148 L39.3076442,37.3486598 Z M34.7095251,44.0354225 C38.8818498,53.2231978 44.7430619,56.1158581 48.2438764,57.8481925 C48.5560893,57.999198 48.844651,58.14548 49.1190316,58.2870506 C50.2117827,58.8485976 51.4984423,58.8108462 52.4493346,58.2445758 L57.6529633,55.8096432 C58.9113334,55.0687742 60.5102421,55.1065256 61.7259844,55.9134624 L67.9041203,59.9953208 C69.5503798,61.0853869 70.0660318,63.2607834 69.0725601,64.9502323 L67.6723796,67.3427626 C66.1963893,70.3675828 60.3069604,69.447416 60.141293,69.4238592 C22.0087184,66.2197653 23.180985,32.9324874 23.2475911,31.5166604 L23.2475911,31.3656549 C22.9826806,27.9727438 24.6573386,25.3631281 28.2335996,23.6124314 C28.7728786,23.3481718 29.3452789,23.2207595 29.91292,23.2207595 C31.2422559,23.2207595 32.5241197,23.9144423 33.2243311,25.1318844 L37.330413,32.304643 C38.0021533,33.4796587 37.973767,34.9283928 37.2026868,36.1741273 L34.9225797,40.7419816 C34.2981419,41.7282405 34.2177302,42.9598288 34.7097068,44.0358332 L34.7095251,44.0354225 Z" id="icn-phone-white" transform="translate(46.400000, 46.400000) rotate(-105.000000) translate(-46.400000, -46.400000) "></path>
                    </g>
                </g>
            </g>
        </g>
    </g>
</svg>