<?xml version="1.0" encoding="UTF-8"?>
<svg width="65px" height="65px" viewBox="0 0 65 65" version="1.1" xmlns="http://www.w3.org/2000/svg" xmlns:xlink="http://www.w3.org/1999/xlink">
    <title>icon-phone</title>
    <g id="icon-phone" stroke="none" stroke-width="1" fill="none" fill-rule="evenodd">
        <g transform="translate(1.000000, 1.000000)" fill="#FFFFFF" fill-rule="nonzero" id="icn-phone" stroke="#FFFFFF" stroke-width="0.8">
            <path d="M24.3076442,22.3486598 C25.4997473,20.4422462 25.5422783,18.049716 24.4306353,16.1007793 L20.3245534,8.92802068 C18.6971857,6.08247408 15.1114787,4.99245638 12.1643422,6.43643078 C7.7034317,8.62600978 5.5131822,12.099135 5.830106,16.4782929 C5.7733455,18.4696319 5.3948899,53.5072441 44.8285594,56.8112432 C44.9420924,56.8301249 45.9591549,57 47.3215636,57 C49.776663,57 53.3577681,56.4478879 54.8052994,53.4749289 L56.1629731,51.1626127 C57.8045097,48.369012 56.9624396,44.7731495 54.2424176,42.9753391 L48.0642818,38.8934807 C46.0822065,37.5816662 43.4708857,37.5155862 41.5219924,38.671696 L36.3183637,41.1066286 C35.9777645,41.3048202 35.5709347,41.3142671 35.2208775,41.1349452 C34.9370388,40.9886632 34.634284,40.8423691 34.312613,40.6819288 C30.8924524,38.9926007 25.7267286,36.4396423 21.9093537,28.0349208 C21.7532412,27.6951586 21.7769045,27.3129215 22.0181517,26.9118148 L24.3076442,22.3486598 Z M19.7095251,29.0354225 C23.8818498,38.2231978 29.7430619,41.1158581 33.2438764,42.8481925 C33.5560893,42.999198 33.844651,43.14548 34.1190316,43.2870506 C35.2117827,43.8485976 36.4984423,43.8108462 37.4493346,43.2445758 L42.6529633,40.8096432 C43.9113334,40.0687742 45.5102421,40.1065256 46.7259844,40.9134624 L52.9041203,44.9953208 C54.5503798,46.0853869 55.0660318,48.2607834 54.0725601,49.9502323 L52.6723796,52.3427626 C51.1963893,55.3675828 45.3069604,54.447416 45.141293,54.4238592 C7.0087184,51.2197653 8.180985,17.9324874 8.2475911,16.5166604 L8.2475911,16.3656549 C7.9826806,12.9727438 9.6573386,10.3631281 13.2335996,8.61243138 C13.7728786,8.34817178 14.3452789,8.22075948 14.91292,8.22075948 C16.2422559,8.22075948 17.5241197,8.91444228 18.2243311,10.1318844 L22.330413,17.304643 C23.0021533,18.4796587 22.973767,19.9283928 22.2026868,21.1741273 L19.9225797,25.7419816 C19.2981419,26.7282405 19.2177302,27.9598288 19.7097068,29.0358332 L19.7095251,29.0354225 Z" transform="translate(31.400000, 31.400000) rotate(-105.000000) translate(-31.400000, -31.400000) "></path>
        </g>
    </g>
</svg>