<?xml version="1.0" encoding="UTF-8"?>
<svg width="61px" height="56px" viewBox="0 0 61 56" version="1.1" xmlns="http://www.w3.org/2000/svg" xmlns:xlink="http://www.w3.org/1999/xlink">
    <title>icon-chat</title>
    <g id="icon-chat" stroke="none" stroke-width="1" fill="none" fill-rule="evenodd">
        <path d="M19.1584012,0.8057413 C15.2301145,0.8057413 12.0376258,4.1008194 12.0376258,8.1261755 L12.0376258,21.7633042 L5.7967555,21.7633042 C3.2570094,21.7633042 1.2,23.8578181 1.2,26.4479244 L1.2,42.8719839 C1.2,45.4594746 3.2544993,47.5617045 5.7967555,47.5617045 L7.4150355,47.5617045 L7.8434845,54.0700577 C7.869293,54.7137458 8.4267908,55.2245872 9.0797917,55.1990851 C9.3946731,55.1863131 9.6966503,55.050937 9.9108682,54.8184944 L17.0369295,47.5588731 L31.5057741,47.5588731 C34.0455195,47.5588731 36.1154801,45.4592588 36.1154801,42.8691525 L36.1154801,39.3825464 L43.6776285,47.9957451 C43.9925099,48.3559013 44.4983975,48.4938354 44.952655,48.3482376 L44.9578153,48.3482376 L44.9603988,48.3456808 C45.4146563,48.189869 45.7372948,47.7811802 45.776014,47.3061072 L45.776014,47.303557 L46.7206714,36.3402341 L53.2970646,36.3402341 C57.2227744,36.3402341 60.4,33.0732737 60.4,29.0505333 L60.4,8.1204342 C60.4,4.0974322 57.2253513,0.8 53.2970646,0.8 L53.2944811,0.8 L19.1584012,0.8057413 Z M19.1584012,3.1812369 L53.3000643,3.1812369 C55.8888365,3.1812369 58.005247,5.3830561 58.005247,8.1263717 L58.005247,29.0538551 C58.005247,31.7971706 55.8914134,33.9657716 53.3000643,33.9657716 L45.6136971,33.9657716 C44.9942551,33.9759921 44.4780203,34.458755 44.4264167,35.0692315 L43.6263288,44.3160613 L34.9204426,34.3898271 C34.6958973,34.1267362 34.3681051,33.9734746 34.0196582,33.9658109 L19.1556921,33.9658109 C16.5643431,33.9658109 14.4350482,31.7946597 14.4350482,29.0513441 L14.4350482,8.1238607 C14.4350482,5.3805451 16.566986,3.1787259 19.1556921,3.1787259 L19.1584012,3.1812369 Z M5.7989359,24.1394537 L12.0398063,24.1394537 L12.0398063,29.0564707 C12.0398063,33.0794727 15.23507,36.3461715 19.1605816,36.3461715 L33.4622595,36.3461715 L33.7151967,36.6475812 L33.7151967,42.8749526 C33.7151967,44.185307 32.7163588,45.1917278 31.5058203,45.1917278 L16.5202785,45.1917278 C16.1950697,45.1993915 15.8879322,45.3373256 15.665944,45.5723185 L10.0651307,51.2761105 L9.7373451,46.3156744 C9.696049,45.6949774 9.1746869,45.2020137 8.5474878,45.194363 L5.7986849,45.194363 C4.5856356,45.194363 3.6022597,44.1904925 3.6022597,42.8775878 L3.6022597,26.4535283 C3.6022597,25.1406236 4.5882125,24.1444691 5.7986849,24.1444691 L5.7989359,24.1394537 Z" stroke="#FFFFFF" stroke-width="0.836" fill="#FFFFFF" fill-rule="nonzero"></path>
    </g>
</svg>