<?xml version="1.0" encoding="UTF-8"?>
<svg width="34px" height="25px" viewBox="0 0 34 25" version="1.1" xmlns="http://www.w3.org/2000/svg" xmlns:xlink="http://www.w3.org/1999/xlink">
    <title>icon-email</title>
    <g id="icon-email" stroke="none" stroke-width="1" fill="none" fill-rule="evenodd">
        <path d="M17.5930296,16.730838 C17.410227,16.8372156 17.2039855,16.8911761 16.9993001,16.8911761 C16.7930626,16.8911761 16.5868412,16.8356764 16.4040106,16.730838 L1.49997437,8.04633575 C1.27967369,7.91683394 1,8.07408562 1,8.32846762 L1,21.5178284 C1,22.8884279 2.12650225,24 3.51551106,24 L30.482929,24 C31.8719378,24 33,22.8884279 33,21.5178284 L33,8.32846762 C33,8.07562881 32.7203263,7.91835737 32.5000256,8.04633575 L17.5959894,16.730838 L17.5930296,16.730838 Z M32.8362319,3.66795594 C32.944099,3.60093869 33.0097565,3.48126275 32.998815,3.353609 C32.8909479,2.03875456 31.8060055,1 30.4912937,1 L3.50870637,1 C2.19239375,1 1.10904019,2.03720231 1.00118512,3.353609 C0.990243125,3.48126275 1.05590106,3.60253587 1.16376819,3.66795594 L16.3387221,12.8145027 C16.7467306,13.0618324 17.2548302,13.0618324 17.6628387,12.8145027 L32.8362319,3.66795594 Z" id="icn-email" stroke="#FFFFFF" stroke-width="2"></path>
    </g>
</svg>