<?xml version="1.0" encoding="UTF-8"?>
<svg width="77px" height="77px" viewBox="0 0 77 77" version="1.1" xmlns="http://www.w3.org/2000/svg" xmlns:xlink="http://www.w3.org/1999/xlink">
    <title>whatsapp</title>
    <g id="whatsapp" stroke="none" stroke-width="1" fill="none" fill-rule="evenodd">
        <g transform="translate(-12.000000, -13.004000)" fill-rule="nonzero">
            <path d="M101.992,76.12 C101.992,76.678 101.975,77.89 101.941,78.825 C101.897116,81.030296 101.717442,83.2307954 101.403,85.414 C101.035212,87.3281814 100.414083,89.1848426 99.556,90.935 C97.6644344,94.6633111 94.6332775,97.6913153 90.903,99.579 C89.1428571,100.439199 87.27567,101.060362 85.351,101.426 C83.1840722,101.734574 81.0003638,101.9109 78.812,101.954 C77.876,101.987 76.664,102.004 76.112,102.004 L25.889,101.996 C25.331,101.996 24.12,101.979 23.184,101.945 C20.9787075,101.901048 18.7782122,101.721374 16.595,101.407 C14.6808247,101.039189 12.8241665,100.418061 11.074,99.56 C7.3423419,97.6699758 4.31102419,94.6386581 2.421,90.907 C1.56212519,89.1466801 0.94230772,87.2794926 0.578,85.355 C0.269527108,83.188061 0.0932012534,81.0043587 0.05,78.816 C0.0202449522,77.91629 0.00357652287,77.0161948 0,76.116 L0.008,25.892 C0.008,25.334 0.025,24.122 0.059,23.187 C0.102937275,20.9817067 0.282610511,18.7812105 0.597,16.598 C0.964753062,14.6838096 1.58588358,12.8271439 2.444,11.077 C4.33442399,7.34612711 7.36569022,4.31556151 11.097,2.426 C12.8571247,1.56553329 14.724303,0.944037339 16.649,0.578 C18.8159275,0.269423841 20.999636,0.0930974776 23.188,0.05 C24.124,0.017 25.336,0 25.888,0 L76.116,0.012 C76.675,0.012 77.886,0.029 78.821,0.063 C81.0262925,0.106952438 83.2267878,0.286625599 85.41,0.601 C87.3241904,0.968753062 89.1808561,1.58988358 90.931,2.448 C94.6593525,4.33950848 97.6873724,7.37068113 99.575,11.101 C100.4356,12.8610703 101.057102,14.7282668 101.423,16.653 C101.731424,18.8199445 101.907749,21.0036437 101.951,23.192 C101.984,24.128 102.001,25.34 102.001,25.892 L101.993,76.115 L101.992,76.12 Z" id="Path"></path>
            <path d="M78.02,24.135 C65.0459503,11.1573749 44.4644442,9.80080885 29.8992756,20.9632719 C15.334107,32.125735 11.2934537,52.352247 20.452,68.254 L15.263,87.202 L34.653,82.117 C40.0161892,85.0371039 46.0253803,86.567335 52.132,86.568 L52.147,86.568 C66.9387617,86.5675551 80.2743117,77.6583709 85.9371912,63.9935251 C91.6000707,50.3286793 88.4754923,34.5982162 78.02,24.135 Z M52.1501458,83.3918733 L52.1369616,83.3918733 C46.1555657,83.392758 40.2839678,81.7853071 35.1371029,78.737869 L33.9175693,78.0138396 L21.2761698,81.3285539 L24.6502127,69.00687 L23.8558679,67.7433892 C15.7604662,54.8420897 17.4184144,38.0980994 27.886718,27.0349318 C38.3550215,15.9717642 54.9819298,13.3918563 68.3105222,20.7625876 C81.6391147,28.1333189 88.2930942,43.5875921 84.4878633,58.3354487 C80.6826324,73.0833053 67.382103,83.3889311 52.1512444,83.3907742 L52.1501458,83.3918733 Z" id="Shape" fill="#FFFFFF"></path>
        </g>
        <path d="M57.2636149,44.5416642 C56.3496149,44.0846642 51.8566149,41.8736642 51.0186149,41.5686642 C50.1806149,41.2636642 49.5716149,41.1116642 48.9626149,42.0256642 C48.3536149,42.9396642 46.6016149,44.9986642 46.0686149,45.6076642 C45.5356149,46.2166642 45.0026149,46.2936642 44.0886149,45.8366642 C41.3940937,44.7634091 38.9072237,43.2287846 36.7396149,41.3016642 C34.7415107,39.4548149 33.0282225,37.3219665 31.6556149,34.9726642 C31.1226149,34.0576642 31.5986149,33.5636642 32.0556149,33.1076642 C32.4666149,32.6986642 32.9696149,32.0406642 33.4266149,31.5076642 C33.8025405,31.0459495 34.1103377,30.5327297 34.3406149,29.9836642 C34.5871621,29.4717301 34.5585763,28.8699242 34.2646149,28.3836642 C34.0366149,27.9266642 32.2086149,23.4296642 31.4466149,21.6006642 C30.7046149,19.8186642 29.9466149,20.0596642 29.3906149,20.0326642 C28.806961,20.0077856 28.2227881,19.9971157 27.6386149,20.0006642 C26.7024378,20.0251735 25.8190258,20.4395107 25.2016149,21.1436642 C23.111894,23.122204 21.9505635,25.8883483 22.0016149,28.7656642 C22.0016149,33.2656642 25.2766149,37.6066642 25.7336149,38.2166642 C26.1906149,38.8266642 32.1776149,48.0546642 41.3456149,52.0166642 C43.0471554,52.7496692 44.7862476,53.392232 46.5556149,53.9416642 C48.4200644,54.5080812 50.3908919,54.6320283 52.3116149,54.3036642 C54.0676149,54.0416642 57.7186149,52.0936642 58.4806149,49.9596642 C59.0783824,48.5947019 59.2636625,47.0846517 59.0136149,45.6156642 C58.7846149,45.2346642 58.1756149,45.0056642 57.2616149,44.5486642" id="Path" stroke="#FFFFFF" stroke-width="3"></path>
    </g>
</svg>