<?xml version="1.0" encoding="UTF-8"?>
<svg width="67px" height="66px" viewBox="0 0 67 66" version="1.1" xmlns="http://www.w3.org/2000/svg" xmlns:xlink="http://www.w3.org/1999/xlink">
    <title>icon-callback</title>
    <g id="icon-callback" stroke="none" stroke-width="1" fill="none" fill-rule="evenodd">
        <g transform="translate(1.000000, 1.000000)" fill="#FFFFFF" fill-rule="nonzero" stroke="#FFFFFF" stroke-width="1.6">
            <path d="M32.599344,63.99396 C36.589984,63.99396 40.480624,63.26896 44.168144,61.83772 C44.58064,61.678344 44.783768,61.215848 44.624392,60.80332 C44.465016,60.390792 43.999392,60.184568 43.589992,60.347072 C40.086872,61.706432 36.389992,62.393952 32.599592,62.393952 C15.837192,62.393952 2.199592,48.756352 2.199592,31.997152 C2.199592,22.703552 6.487112,13.913152 13.737192,8.165952 L13.737192,13.509712 C13.737192,13.950336 14.096568,14.309712 14.537192,14.309712 C14.977816,14.309712 15.337192,13.950336 15.337192,13.509712 L15.337192,6.540992 C15.337192,6.528488 15.330944,6.51912 15.330944,6.506616 C15.327816,6.431616 15.312192,6.359744 15.287192,6.284744 C15.271568,6.240992 15.255944,6.203496 15.234064,6.165992 C15.21844,6.140992 15.21532,6.112864 15.199696,6.087864 C15.187192,6.06912 15.16532,6.059744 15.149696,6.040992 C15.109064,5.987864 15.062192,5.94724 15.005944,5.906616 C14.980944,5.887864 14.955944,5.86912 14.930944,5.856616 C14.862192,5.815992 14.787192,5.790992 14.709072,5.77224 C14.69344,5.769112 14.674696,5.765992 14.659072,5.762864 C14.61844,5.756616 14.580944,5.737864 14.5372,5.737864 L7.56536,5.737864 C7.124736,5.737864 6.76536,6.09724 6.76536,6.537864 C6.76536,6.978488 7.124736,7.337864 7.56536,7.337864 L12.2216,7.337864 C4.90912,13.390984 0.6,22.441064 0.6,31.997064 C0.6,49.641064 14.955992,63.99396 32.6,63.99396 L32.599344,63.99396 Z" id="Fill-1"></path>
            <path d="M32.599344,0 C28.871184,0 25.214944,0.637864 21.740144,1.891 C21.32452,2.041 21.108896,2.500376 21.258896,2.91596 C21.408896,3.331544 21.865144,3.547208 22.283856,3.397208 C25.583856,2.203448 29.055696,1.600328 32.599856,1.600328 C49.362256,1.600328 62.999856,15.237928 62.999856,31.997128 C62.999856,41.037928 58.902976,49.672328 51.968656,55.421928 L51.968656,50.128168 C51.968656,49.687544 51.60928,49.328168 51.168656,49.328168 C50.728032,49.328168 50.368656,49.687544 50.368656,50.128168 L50.368656,56.950008 C50.362408,56.987504 50.368656,57.028128 50.368656,57.065632 L50.368656,57.09688 C50.368656,57.100008 50.371784,57.103128 50.371784,57.106256 C50.374904,57.19376 50.390528,57.278128 50.424904,57.362504 C50.437408,57.4 50.456152,57.434376 50.474904,57.468752 C50.490528,57.49688 50.496784,57.528128 50.515528,57.556248 C50.528032,57.571872 50.543656,57.575 50.556152,57.590624 C50.703024,57.775 50.918656,57.9 51.171776,57.9 L58.143616,57.9 C58.58424,57.9 58.943616,57.540624 58.943616,57.1 C58.943616,56.659376 58.58424,56.3 58.143616,56.3 L53.406096,56.3 C60.446744,50.25 64.599696,41.3312 64.599696,31.9968 C64.599696,14.3528 50.243696,0 32.599696,0 L32.599344,0 Z" id="Fill-2"></path>
            <path d="M27.915344,26.00676 C28.702848,24.74428 28.730944,23.15988 27.996592,21.86924 L25.284112,17.11924 C24.209072,15.23484 21.840352,14.513 19.893472,15.46924 C16.946592,16.91924 15.499712,19.21924 15.709072,22.11924 C15.671576,23.43796 15.421568,46.64084 41.471472,48.82884 C41.546472,48.841344 42.218344,48.95384 43.118352,48.95384 C44.740192,48.95384 47.105872,48.588216 48.062112,46.61944 L48.958992,45.08816 C50.043392,43.23816 49.48712,40.85688 47.690272,39.66632 L43.608992,36.9632 C42.299632,36.09448 40.574592,36.05072 39.287152,36.816328 L35.849632,38.428808 C35.624632,38.560056 35.35588,38.566312 35.124632,38.44756 C34.937128,38.350688 34.737128,38.253808 34.524632,38.14756 C32.265272,37.02884 28.852792,35.3382 26.331032,29.77236 C26.227904,29.54736 26.243536,29.294232 26.402904,29.028608 L27.915344,26.00676 Z M24.877824,30.43492 C27.634064,36.51932 31.505984,38.43492 33.818624,39.58212 C34.024872,39.68212 34.215496,39.778992 34.396752,39.872744 C35.118624,40.244616 35.968592,40.219616 36.596752,39.844616 L40.034272,38.232136 C40.865552,37.741512 41.921792,37.766512 42.724912,38.300888 L46.806192,41.004008 C47.893712,41.72588 48.234352,43.166488 47.578064,44.285288 L46.653104,45.869688 C45.678064,47.872808 41.787504,47.263448 41.678064,47.247848 C16.487664,45.126008 17.262064,23.082248 17.306064,22.144648 L17.306064,22.044648 C17.131064,19.797768 18.237344,18.069608 20.599824,16.910248 C20.956072,16.735248 21.3342,16.650872 21.709184,16.650872 C22.587344,16.650872 23.434144,17.110248 23.896704,17.916472 L26.609184,22.666472 C27.052936,23.4446 27.034184,24.403992 26.524808,25.228952 L25.018568,28.253912 C24.606064,28.90704 24.552944,29.722632 24.877944,30.435192 L24.877824,30.43492 Z" id="Fill-3"></path>
        </g>
    </g>
</svg>