<svg xmlns="http://www.w3.org/2000/svg" width="40" height="40" viewBox="0 0 40 40">
    <defs>
        <radialGradient id="a" cx="86.292%" cy="16.455%" r="103.202%" fx="86.292%" fy="16.455%">
            <stop offset="0%" stop-color="#C2349D"/>
            <stop offset="100%" stop-color="#F38A37"/>
        </radialGradient>
    </defs>
    <g fill="none" fill-rule="evenodd">
        <path fill="url(#a)" d="M20 0C8.954 0 0 8.954 0 20c0 11.045 8.954 20 20 20s20-8.955 20-20C40 8.954 31.046 0 20 0z" transform="translate(0 -.085)"/>
        <path fill="#FFF" d="M19.375 10.58c2.837 0 3.173.01 4.293.062 1.036.047 1.599.22 1.973.365.496.193.85.423 1.222.795.372.372.602.726.795 1.222.145.374.318.937.366 1.973.05 1.12.062 1.456.062 4.293s-.011 3.173-.062 4.294c-.048 1.036-.22 1.598-.366 1.973-.193.496-.423.85-.795 1.221a3.292 3.292 0 0 1-1.222.795c-.374.146-.937.319-1.973.366-1.12.051-1.456.062-4.293.062s-3.173-.011-4.293-.062c-1.036-.047-1.599-.22-1.973-.366a3.292 3.292 0 0 1-1.222-.795 3.292 3.292 0 0 1-.795-1.221c-.145-.375-.318-.937-.366-1.973-.05-1.12-.062-1.457-.062-4.294 0-2.837.011-3.173.062-4.293.048-1.036.22-1.599.366-1.973.193-.496.423-.85.795-1.222a3.292 3.292 0 0 1 1.222-.795c.374-.145.937-.318 1.973-.365 1.12-.051 1.456-.062 4.293-.062m0-1.915c-2.886 0-3.247.012-4.38.064-1.132.052-1.904.231-2.58.494a5.208 5.208 0 0 0-1.882 1.226 5.208 5.208 0 0 0-1.225 1.881c-.263.676-.442 1.449-.494 2.58-.052 1.133-.064 1.495-.064 4.38 0 2.886.012 3.248.064 4.38.052 1.132.231 1.904.494 2.58a5.208 5.208 0 0 0 1.225 1.882c.591.59 1.183.954 1.882 1.225.676.263 1.448.443 2.58.494 1.133.052 1.494.064 4.38.064s3.247-.012 4.38-.064c1.132-.051 1.904-.23 2.58-.494a5.208 5.208 0 0 0 1.882-1.225c.59-.59.954-1.183 1.225-1.882.263-.676.442-1.448.494-2.58.052-1.132.064-1.494.064-4.38 0-2.885-.012-3.247-.064-4.38-.052-1.131-.231-1.904-.494-2.58a5.208 5.208 0 0 0-1.225-1.881 5.208 5.208 0 0 0-1.882-1.226c-.676-.263-1.448-.442-2.58-.494-1.133-.052-1.494-.064-4.38-.064"/>
        <path fill="#FFF" d="M19.718 14.15a5.484 5.484 0 1 0 0 10.967 5.484 5.484 0 0 0 0-10.968zm0 9.043a3.56 3.56 0 1 1 0-7.12 3.56 3.56 0 0 1 0 7.12zM26.573 13.464a1.371 1.371 0 1 1-2.742 0 1.371 1.371 0 0 1 2.742 0"/>
    </g>
</svg>
