<svg xmlns="http://www.w3.org/2000/svg" width="40" height="40" viewBox="0 0 40 40">
    <g fill="none" fill-rule="evenodd">
        <path fill="#00679E" d="M0 19.915c0 11.045 8.955 20 20 20 11.046 0 20-8.955 20-20 0-11.046-8.954-20-20-20-11.045 0-20 8.954-20 20z"/>
        <path fill="#ECECEC" d="M15 28.915h-4v-14h4zM13 12.915c-1.071 0-2-.857-2-2 0-1.071.857-2 2-2 1.071 0 2 .857 2 2s-.929 2-2 2zM30 28.827h-4.156V22.27c0-1.595 0-3.545-2.211-3.545s-2.477 1.684-2.477 3.456v6.734H17V15.27h3.891v1.86h.089c.53-1.063 1.945-2.215 3.98-2.215 4.244 0 5.04 2.836 5.04 6.469v7.443z"/>
    </g>
</svg>
