<svg xmlns="http://www.w3.org/2000/svg" width="40" height="40" viewBox="0 0 40 40">
    <g fill="none" fill-rule="evenodd">
        <path fill="#4A90E2" d="M20-.085c-11.046 0-20 8.954-20 20 0 11.045 8.954 20 20 20s20-8.955 20-20c0-11.046-8.954-20-20-20"/>
        <path fill="#FFF" d="M27.953 15.837c.007.176.012.352.012.53 0 5.422-4.128 11.675-11.675 11.675-2.317 0-4.474-.68-6.29-1.843.321.038.648.056.979.056a8.23 8.23 0 0 0 5.096-1.756 4.107 4.107 0 0 1-3.834-2.849 4.14 4.14 0 0 0 1.854-.071 4.104 4.104 0 0 1-3.291-4.022v-.053a4.083 4.083 0 0 0 1.858.514 4.103 4.103 0 0 1-1.27-5.479 11.65 11.65 0 0 0 8.458 4.288 4.104 4.104 0 0 1 6.991-3.742 8.21 8.21 0 0 0 2.607-.996 4.123 4.123 0 0 1-1.804 2.27c.83-.1 1.62-.32 2.356-.646a8.352 8.352 0 0 1-2.047 2.124"/>
    </g>
</svg>
