<?xml version="1.0" encoding="UTF-8"?>
<svg xmlns="http://www.w3.org/2000/svg" xmlns:xlink="http://www.w3.org/1999/xlink" width="300px" height="300px" viewBox="0 0 454 454" version="1.1">
  <title>icon</title>
  <g id="icon" stroke="none" stroke-width="1" fill="none" fill-rule="evenodd">
    <g transform="translate(-10.000000, 99.000000)">
      <path d="M-2.69675538e-14,214.251065 C-2.69675538e-14,214.251065 63.5758374,160.622829 209.506883,192.583436 C355.44552,224.540248 387.952656,204.493231 387.952656,204.493231 C387.952656,204.493231 357.612662,240.249184 203.730367,208.827516 C49.851867,177.413439 -2.69675538e-14,214.251065 -2.69675538e-14,214.251065" id="Fill-34" fill="#0089BF"></path>
      <path d="M65.0370455,28.4195493 C45.2670893,48.1933009 38.0027974,77.1441986 41.9689338,109.017513 C44.4510899,99.9959756 47.7909942,91.3425872 51.8482189,83.0953008 C53.5675105,64.5740133 60.3497935,48.2502311 72.6125557,35.9912642 C84.4578299,24.1535806 100.550096,17.0942375 119.549597,15.3028342 C127.960083,11.1545213 136.795648,7.74250542 146.010748,5.22619116 C140.408818,4.52405219 134.852431,4.12174553 129.398519,4.12174553 C103.187861,4.12174553 80.9281584,12.5246411 65.0370455,28.4195493" id="Fill-35" fill="#0089BF"></path>
      <path d="M228.005399,86.2795959 L280.039589,34.2454051 C270.482909,26.3131324 259.916666,19.5574169 248.572377,14.1870026 C239.945556,10.1070058 230.851908,6.86198519 221.412883,4.48989407 C209.818102,1.58645454 197.688176,0 185.182512,0 C171.621741,0 158.48605,1.82176598 146.014543,5.22619116 C136.795648,7.74630076 127.960083,11.1545213 119.549597,15.3066296 C109.051671,20.4872766 99.2369065,26.8520715 90.3216392,34.2567911 L142.492462,86.4276144 C154.641364,77.9526073 169.416646,72.9731136 185.353303,72.9731136 C201.195076,72.9731136 215.890655,77.8994724 228.005399,86.2795959" id="Fill-36" fill="#FFDA1A"></path>
      <path d="M110.296544,148.022281 C110.296544,132.449978 115.044522,117.978324 123.166562,105.988827 L70.881878,53.7003476 C63.4354096,62.6649544 57.0440473,72.5366488 51.8482189,83.0990962 C47.7909942,91.3387919 44.4586806,99.9959756 41.9689338,109.013717 C38.4961924,121.606675 36.6326776,134.856227 36.6326776,148.549834 C36.6326776,158.808654 37.7257372,168.813186 39.7069077,178.483727 C58.0422232,173.568754 82.2944828,169.401464 113.21896,168.558897 C111.355446,162.023312 110.296544,155.149941 110.296544,148.022281" id="Fill-37" fill="#FFDA1A"></path>
      <path d="M304.30703,27.4403501 C288.412122,11.5454419 266.148624,3.14254632 239.945556,3.14254632 C233.84264,3.14254632 227.622069,3.60937385 221.333181,4.49368942 C230.76841,6.85818985 239.865854,10.1070058 248.481289,14.1870026 C268.053887,15.7772525 284.616776,22.8973212 296.73152,35.0120649 C308.732404,47.0167437 310.311267,63.6062002 312.205145,81.637888 C314.353311,85.8279498 321.461993,89.4487097 323.207852,93.8589015 C324.908167,93.6273854 321.465789,94.0828269 323.211648,93.8589015 C323.534252,67.9328944 320.953417,44.0829414 304.30703,27.4403501" id="Fill-38" fill="#0089BF"></path>
      <path d="M323.211648,94.5838125 C321.465789,90.1812114 319.522572,85.8734939 317.378201,81.6834322 C312.375936,71.9255981 306.345131,62.7750194 299.399648,54.417668 L268.505534,85.3079874 C284.962153,82.757515 303.062157,90.0256022 309.935528,96.4359413 C314.618985,95.7110302 312.671973,96.0412253 317.894368,95.3087236 C319.632637,95.0696168 321.416449,94.83051 323.211648,94.5838125" id="Fill-39" fill="#FFDA1A"></path>
      <path d="M148.56122,167.568312 C186.628539,158.854198 299.824727,132.859875 331.052832,129.436473 C368.490123,125.333704 384.954333,137.638215 384.954333,137.638215 C384.954333,137.638215 366.300209,112.55098 330.779567,117.902417 C295.251335,123.250059 150.307079,156.918572 150.307079,156.918572 C150.307079,156.918572 252.967388,110.266181 287.254542,113.215165 C287.254542,113.215165 298.81137,114.642215 309.56738,118.718416 C309.56738,118.718416 294.370815,95.3277003 267.689534,103.411787 C241.004458,111.492078 176.76823,135.212989 176.76823,135.212989 C176.76823,135.212989 235.505002,99.0091857 245.30838,103.218224 L252.231091,106.603673 C252.231091,106.603673 249.980451,98.6106744 238.252832,97.5100241 C236.355159,97.3316429 232.537041,98.4133164 227.512004,100.31858 L214.141,98.3943397 C214.141,98.3943397 196.261126,105.988827 183.516355,111.73498 C165.359421,106.326612 143.88915,110.653307 143.88915,110.653307 C156.51247,111.533827 162.763404,117.887236 164.964705,120.752722 C151.859376,127.614707 146.496552,131.789587 133.785939,142.048407 C133.785939,142.048407 143.259122,135.782291 151.013014,132.64354 L151.161032,137.945638 C145.866525,140.803534 142.594937,142.602528 142.594937,142.602528 C142.594937,142.602528 135.638068,144.416703 134.575371,153.457216 C125.269183,155.047466 125.940959,163.507292 125.940959,163.507292 C123.060292,164.289133 121.329614,165.970472 120.247941,167.799828 C129.227729,167.43927 138.689526,167.321615 148.56122,167.568312" id="Fill-40" fill="#CBCCCB"></path>
      <path d="M402.633054,161.476782 L368.444579,166.520797 C370.061396,165.79209 387.341606,151.13826 389.683334,149.149499 C389.622608,149.187452 389.622608,149.187452 389.554292,149.251973 C389.554292,149.251973 414.432784,143.566545 427.154783,145.817185 L402.633054,161.476782 Z M460.553826,135.531798 C460.553826,135.531798 456.526964,134.639892 452.025684,134.563985 C406.826911,132.905419 240.837463,158.072357 172.270746,168.854934 C189.653429,170.304756 207.825545,172.965294 226.2102,177.3641 C226.259539,177.379281 226.308879,177.390667 226.365809,177.402053 C242.651638,179.979093 258.683179,183.40629 276.494736,187.129524 C326.160631,197.517386 338.226036,198.906482 369.097378,191.258861 C385.064398,187.292724 409.791076,173.098131 429.948158,160.315406 L429.974725,160.29643 L429.989906,160.285044 C448.776868,148.363862 463.590103,137.679964 463.590103,137.679964 C463.590103,136.750104 462.504634,136.047965 460.553826,135.531798 L460.553826,135.531798 Z" id="Fill-41" fill="#CBCCCB"></path>
    </g>
  </g>
</svg>
