<?xml version="1.0" encoding="UTF-8"?>
<svg width="105px" height="77px" viewBox="0 0 105 77" version="1.1" xmlns="http://www.w3.org/2000/svg" xmlns:xlink="http://www.w3.org/1999/xlink">
    <title>ISWAN-logo</title>
    <defs>
        <polygon id="path-1" points="0.219375 0.01125 85.299 0.01125 85.299 62.854875 0.219375 62.854875"></polygon>
    </defs>
    <g id="Mobile" stroke="none" stroke-width="1" fill="none" fill-rule="evenodd">
        <g id="ych_home-3" transform="translate(-170.000000, -1640.000000)">
            <g id="div/footer/default" transform="translate(3.000000, 1601.000000)">
                <g id="ISWAN-logo" transform="translate(167.000000, 39.000000)">
                    <path d="M70.537125,31.717875 C70.537125,31.717875 82.957125,30.697875 89.109,32.734875 C89.109,32.734875 89.34675,25.315125 84.988875,17.000625 C84.988875,17.000625 80.88375,24.48075 70.537125,31.717875" id="Fill-1" fill="#142F47"></path>
                    <g id="Group-5" transform="translate(18.915000, 0.000000)">
                        <mask id="mask-2" fill="white">
                            <use xlink:href="#path-1"></use>
                        </mask>
                        <g id="Clip-3"></g>
                        <path d="M72.423375,35.473125 C72.423375,35.473125 81.57525,38.9115 83.72025,43.06425 C83.72025,43.06425 81.045375,53.938125 62.564625,62.854875 C62.564625,62.854875 61.42575,58.917 58.579125,56.611875 C58.579125,56.611875 71.682,48.484125 72.423375,35.473125" id="Fill-2" fill="#142F47" mask="url(#mask-2)"></path>
                        <path d="M70.12125,34.79325 C70.12125,34.79325 59.64375,32.07225 48.567375,33.790875 C48.567375,33.790875 36.92025,43.701 0.219375,54.608625 C0.219375,54.608625 39.170625,42.2865 57.142875,55.34325 C57.142875,55.34325 70.057875,46.88475 70.12125,34.79325 Z M68.1285,0.01125 C90.93825,24.078375 84.444375,40.759875 84.444375,40.759875 C80.014125,35.187375 72.4785,33.35325 72.4785,33.35325 C72.85575,24.255 67.240875,14.711625 67.240875,14.711625 C70.791,7.561125 68.1285,0.01125 68.1285,0.01125 L68.1285,0.01125 Z" id="Fill-4" fill="#142F47" mask="url(#mask-2)"></path>
                    </g>
                    <polyline id="Fill-83" fill="#142F47" points="2.428875 76.300875 0 76.300875 3.847875 58.316625 6.276375 58.316625 2.428875 76.300875"></polyline>
                    <path d="M18.0045,61.291125 C17.022,60.663 15.7395,60.144 14.374875,60.144 C12.682875,60.144 11.2365,61.126875 11.2365,62.710125 C11.2365,66.121125 17.076375,65.902125 17.076375,71.1975 C17.076375,74.908875 13.801875,76.546125 10.690875,76.546125 C8.752875,76.546125 7.19775,75.94575 6.269625,75.318 L7.279125,73.326 C7.988625,73.789875 9.2715,74.52675 10.744875,74.52675 C12.519,74.52675 14.484,73.68075 14.484,71.443125 C14.484,67.5405 8.6985,67.950375 8.6985,63.010875 C8.6985,60.062625 11.017875,58.097625 14.5935,58.125 C16.066875,58.125 17.458875,58.534875 18.523125,59.1075 L18.0045,61.291125" id="Fill-84" fill="#142F47"></path>
                    <path d="M34.264875,76.38225 L32.491125,76.38225 L31.453875,68.41425 C31.263,67.077 31.099125,65.957625 31.017,64.783875 L30.962625,64.783875 C30.52575,65.875875 30.061875,66.885375 29.325,68.30475 L25.258875,76.38225 L23.403375,76.38225 L20.865,58.316625 L23.403375,58.316625 L24.685875,69.04125 C24.822,70.405875 24.9585,71.57925 25.04025,72.753 L25.095375,72.753 C25.5045,71.633625 25.99575,70.56975 26.6235,69.286875 L30.471,61.59075 L30.034875,58.316625 L32.409,58.316625 L33.745875,69.069 C33.90975,70.432875 34.046625,71.551125 34.15575,72.753 L34.2105,72.753 C34.564875,71.606625 35.056125,70.515 35.6565,69.286875 L40.896375,58.316625 L43.46175,58.316625 L34.264875,76.38225" id="Fill-85" fill="#142F47"></path>
                    <path d="M48.375375,64.183875 C48.222,63.39225 48.15525,62.819625 48.02475,61.83675 L47.99775,61.83675 C47.660625,62.65575 47.29425,63.39225 46.929375,64.183875 L44.39625,69.505125 L49.28175,69.505125 L48.375375,64.183875 Z M50.682375,76.300875 L49.735125,71.606625 L43.321875,71.606625 L40.939125,76.300875 L38.374125,76.300875 L47.67525,58.2345 L49.421625,58.2345 L53.139,76.300875 L50.682375,76.300875 L50.682375,76.300875 Z" id="Fill-86" fill="#142F47"></path>
                    <path d="M70.009125,76.300875 L67.77075,76.300875 L61.6845,64.238625 C61.27575,63.446625 60.97575,62.7645 60.59325,61.945875 L60.53925,61.945875 C60.42975,62.737875 60.238875,63.583125 60.102375,64.210875 L57.509625,76.300875 L55.081125,76.300875 L58.929375,58.316625 L61.303125,58.316625 L67.198125,69.859875 C67.662,70.761 68.043375,71.551125 68.45325,72.39825 L68.481,72.39825 C68.643375,71.606625 68.780625,70.705875 68.9445,69.914625 L71.455875,58.316625 L73.883625,58.316625 L70.009125,76.300875" id="Fill-87" fill="#142F47"></path>
                </g>
            </g>
        </g>
    </g>
</svg>