<?xml version="1.0" encoding="UTF-8"?>
<svg width="196px" height="98px" viewBox="0 0 196 98" version="1.1" xmlns="http://www.w3.org/2000/svg" xmlns:xlink="http://www.w3.org/1999/xlink">
    <title>logo-strap-free</title>
    <g id="logo-strap-free" stroke="none" stroke-width="1" fill="none" fill-rule="evenodd">
        <path d="M11.367,82.044 L11.367,89.527 L7.884,89.527 L7.884,81.986 L1.407,70.558 L5.236,70.558 L8.229,76.056 C8.718,76.919 9.295,78.013 9.726,78.878 L9.784,78.878 C10.188,78.013 10.734,76.949 11.194,76.085 L14.188,70.558 L17.843,70.558" id="Fill-3" fill="#CBCCCB"></path>
        <path d="M23.57,83.281 L21.613,83.339 C19.742,83.396 18.906,84.03 18.906,85.18 C18.906,86.302 19.684,87.082 21.124,87.082 C22.333,87.082 23.109,86.62 23.57,86.216 L23.57,83.281 Z M24.434,89.527 L23.858,88.319 C22.967,89.125 21.728,89.816 19.915,89.816 C17.411,89.816 15.453,88.118 15.453,85.44 C15.453,82.62 17.67,81.093 21.152,80.978 L23.57,80.891 L23.57,80.547 C23.57,78.906 22.419,78.243 20.98,78.243 C19.483,78.243 18.332,78.732 17.468,79.252 L16.346,77.093 C18.159,75.883 19.857,75.597 21.671,75.597 C25.04,75.597 27.083,76.977 27.083,80.547 L27.083,85.929 C27.083,87.886 27.139,88.894 27.341,89.527 L24.434,89.527 Z" id="Fill-4" fill="#CBCCCB"></path>
        <path d="M36.408,89.815 C31.976,89.815 29.701,86.621 29.701,82.792 C29.701,78.647 32.695,75.595 36.754,75.595 C38.596,75.595 39.863,76.056 40.64,76.546 L40.583,79.366 C39.633,78.647 38.568,78.244 37.156,78.244 C34.825,78.244 33.156,80.086 33.156,82.619 C33.156,84.951 34.423,87.022 37.128,87.022 C38.423,87.022 39.402,86.621 40.351,86.073 L41.216,88.347 C40.122,89.095 38.28,89.815 36.408,89.815" id="Fill-5" fill="#CBCCCB"></path>
        <path d="M52.177,89.527 L52.177,81.583 C52.177,80.057 51.948,78.619 50.106,78.619 C48.925,78.619 47.716,79.28 46.796,80.057 L46.796,89.527 L43.34,89.527 L43.34,69.148 L46.796,69.148 L46.796,77.38 C48.062,76.343 49.558,75.594 51.314,75.594 C53.415,75.594 55.66,76.603 55.66,80.604 L55.66,89.527" id="Fill-6" fill="#CBCCCB"></path>
        <path d="M63.374,89.815 C60.956,89.815 60.006,88.463 60.006,86.621 L60.006,78.504 L57.589,78.504 L57.589,75.913 L60.006,75.913 L60.006,72.776 L63.461,71.739 L63.461,75.913 L67.691,75.913 L66.684,78.504 L63.461,78.504 L63.461,85.353 C63.461,86.419 63.863,86.908 64.756,86.908 C65.62,86.908 66.512,86.506 67.03,86.16 L67.951,88.347 C66.541,89.355 64.698,89.815 63.374,89.815" id="Fill-7" fill="#CBCCCB"></path>
        <path d="M82.003,89.815 C75.957,89.815 72.445,85.642 72.445,80.231 C72.445,74.79 76.476,70.385 82.721,70.385 C84.736,70.385 86.521,70.788 87.643,71.423 L87.615,74.589 C86.032,73.638 84.506,73.235 82.808,73.235 C78.404,73.235 76.216,76.43 76.216,80 C76.216,83.829 78.633,86.794 82.549,86.794 C84.276,86.794 85.774,86.304 87.213,85.526 L88.162,88.032 C86.061,89.297 84.047,89.815 82.003,89.815" id="Fill-8" fill="#CBCCCB"></path>
        <path d="M98.207,79.107 C97.631,78.762 97.027,78.675 96.595,78.675 C95.79,78.675 94.897,79.049 93.976,79.883 L93.976,89.527 L90.523,89.527 L90.523,75.913 L93.429,75.913 L93.803,77.352 C95.214,76.115 96.279,75.595 97.574,75.595 C98.235,75.595 98.955,75.798 99.474,76.172" id="Fill-9" fill="#CBCCCB"></path>
        <path d="M106.089,78.187 C104.419,78.187 103.412,79.683 103.412,81.18 L108.709,81.18 C108.65,79.712 107.845,78.187 106.089,78.187 M103.498,83.627 C103.556,85.642 105.226,87.051 107.326,87.051 C108.621,87.051 109.687,86.736 110.867,86.101 L111.702,88.319 C110.176,89.383 108.362,89.815 106.75,89.815 C102.001,89.815 99.986,86.361 99.986,82.705 C99.986,78.82 102.289,75.595 106.176,75.595 C109.859,75.595 112.276,78.387 112.276,82.62 L112.276,83.627" id="Fill-10" fill="#CBCCCB"></path>
        <polyline id="Fill-11" fill="#CBCCCB" points="129.37 89.614 126.75 89.614 123.67 80.344 123.613 80.344 120.533 89.614 117.913 89.614 112.99 75.912 116.502 75.912 119.41 85.124 119.468 85.124 122.461 75.912 125.109 75.912 128.131 85.152 128.218 85.152 131.067 75.912 134.378 75.912"></polyline>
        <polyline id="Fill-12" fill="#FFDA1A" points="152.257 89.527 152.257 81.41 143.074 81.41 143.074 89.527 139.592 89.527 139.592 70.558 143.074 70.558 143.074 78.388 152.257 78.388 152.257 70.558 155.74 70.558 155.74 89.527"></polyline>
        <path d="M164.779,78.187 C163.109,78.187 162.102,79.683 162.102,81.18 L167.399,81.18 C167.34,79.712 166.534,78.187 164.779,78.187 M162.188,83.627 C162.245,85.642 163.915,87.051 166.016,87.051 C167.312,87.051 168.375,86.736 169.557,86.101 L170.392,88.319 C168.866,89.383 167.051,89.815 165.44,89.815 C160.691,89.815 158.677,86.361 158.677,82.705 C158.677,78.82 160.979,75.595 164.864,75.595 C168.549,75.595 170.967,78.387 170.967,82.62 L170.967,83.627" id="Fill-13" fill="#FFDA1A"></path>
        <path d="M176.694,89.815 C174.421,89.815 173.557,88.52 173.557,86.821 L173.557,69.147 L177.011,69.147 L177.011,85.297 C177.011,86.304 177.212,86.708 177.932,86.708 C178.162,86.708 178.45,86.677 178.94,86.563 L179.37,89.126 C178.364,89.672 177.472,89.815 176.694,89.815" id="Fill-14" fill="#FFDA1A"></path>
        <path d="M186.366,78.445 C185.704,78.445 185.244,78.532 184.782,78.647 L184.782,86.736 C185.359,86.937 185.848,87.082 186.567,87.082 C188.986,87.082 190.367,85.325 190.367,82.676 C190.367,79.798 188.611,78.445 186.366,78.445 M186.74,89.816 C186.049,89.816 185.388,89.7 184.782,89.499 L184.782,96.321 L181.328,96.321 L181.328,76.517 C182.738,76.028 184.408,75.595 186.625,75.595 C191.46,75.595 193.964,78.272 193.964,82.505 C193.964,86.793 190.884,89.816 186.74,89.816" id="Fill-15" fill="#FFDA1A"></path>
        <path d="M48.7,58.308 C48.7,58.308 65.451,44.178 103.901,52.599 C142.353,61.019 150.918,55.737 150.918,55.737 C150.918,55.737 142.924,65.158 102.379,56.879 C61.835,48.602 48.7,58.308 48.7,58.308" id="Fill-34" fill="#0089BF"></path>
        <path d="M65.836,9.345 C60.627,14.555 58.713,22.183 59.758,30.581 C60.412,28.204 61.292,25.924 62.361,23.751 C62.814,18.871 64.601,14.57 67.832,11.34 C70.953,8.221 75.193,6.361 80.199,5.889 C82.415,4.796 84.743,3.897 87.171,3.234 C85.695,3.049 84.231,2.943 82.794,2.943 C75.888,2.943 70.023,5.157 65.836,9.345" id="Fill-35" fill="#0089BF"></path>
        <path d="M108.775,24.59 L122.485,10.88 C119.967,8.79 117.183,7.01 114.194,5.595 C111.921,4.52 109.525,3.665 107.038,3.04 C103.983,2.275 100.787,1.857 97.492,1.857 C93.919,1.857 90.458,2.337 87.172,3.234 C84.743,3.898 82.415,4.796 80.199,5.89 C77.433,7.255 74.847,8.932 72.498,10.883 L86.244,24.629 C89.445,22.396 93.338,21.084 97.537,21.084 C101.711,21.084 105.583,22.382 108.775,24.59" id="Fill-36" fill="#FFDA1A"></path>
        <path d="M77.761,40.858 C77.761,36.755 79.012,32.942 81.152,29.783 L67.376,16.006 C65.414,18.368 63.73,20.969 62.361,23.752 C61.292,25.923 60.414,28.204 59.758,30.58 C58.843,33.898 58.352,37.389 58.352,40.997 C58.352,43.7 58.64,46.336 59.162,48.884 C63.993,47.589 70.383,46.491 78.531,46.269 C78.04,44.547 77.761,42.736 77.761,40.858" id="Fill-37" fill="#FFDA1A"></path>
        <path d="M128.879,9.087 C124.691,4.899 118.825,2.685 111.921,2.685 C110.313,2.685 108.674,2.808 107.017,3.041 C109.503,3.664 111.9,4.52 114.17,5.595 C119.327,6.014 123.691,7.89 126.883,11.082 C130.045,14.245 130.461,18.616 130.96,23.367 C131.526,24.471 133.399,25.425 133.859,26.587 C134.307,26.526 133.4,26.646 133.86,26.587 C133.945,19.756 133.265,13.472 128.879,9.087" id="Fill-38" fill="#0089BF"></path>
        <path d="M133.86,26.778 C133.4,25.618 132.888,24.483 132.323,23.379 C131.005,20.808 129.416,18.397 127.586,16.195 L119.446,24.334 C123.782,23.662 128.551,25.577 130.362,27.266 C131.596,27.075 131.083,27.162 132.459,26.969 C132.917,26.906 133.387,26.843 133.86,26.778" id="Fill-39" fill="#FFDA1A"></path>
        <path d="M87.843,46.008 C97.873,43.712 127.698,36.863 135.926,35.961 C145.79,34.88 150.128,38.122 150.128,38.122 C150.128,38.122 145.213,31.512 135.854,32.922 C126.493,34.331 88.303,43.202 88.303,43.202 C88.303,43.202 115.352,30.91 124.386,31.687 C124.386,31.687 127.431,32.063 130.265,33.137 C130.265,33.137 126.261,26.974 119.231,29.104 C112.2,31.233 95.275,37.483 95.275,37.483 C95.275,37.483 110.751,27.944 113.334,29.053 L115.158,29.945 C115.158,29.945 114.565,27.839 111.475,27.549 C110.975,27.502 109.969,27.787 108.645,28.289 L105.122,27.782 C105.122,27.782 100.411,29.783 97.053,31.297 C92.269,29.872 86.612,31.012 86.612,31.012 C89.938,31.244 91.585,32.918 92.165,33.673 C88.712,35.481 87.299,36.581 83.95,39.284 C83.95,39.284 86.446,37.633 88.489,36.806 L88.528,38.203 C87.133,38.956 86.271,39.43 86.271,39.43 C86.271,39.43 84.438,39.908 84.158,42.29 C81.706,42.709 81.883,44.938 81.883,44.938 C81.124,45.144 80.668,45.587 80.383,46.069 C82.749,45.974 85.242,45.943 87.843,46.008" id="Fill-40" fill="#CBCCCB"></path>
        <path d="M154.786,44.403 L145.778,45.732 C146.204,45.54 150.757,41.679 151.374,41.155 C151.358,41.165 151.358,41.165 151.34,41.182 C151.34,41.182 157.895,39.684 161.247,40.277 L154.786,44.403 Z M170.047,37.567 C170.047,37.567 168.986,37.332 167.8,37.312 C155.891,36.875 112.156,43.506 94.09,46.347 C98.67,46.729 103.458,47.43 108.302,48.589 C108.315,48.593 108.328,48.596 108.343,48.599 C112.634,49.278 116.858,50.181 121.551,51.162 C134.637,53.899 137.816,54.265 145.95,52.25 C150.157,51.205 156.672,47.465 161.983,44.097 L161.99,44.092 L161.994,44.089 C166.944,40.948 170.847,38.133 170.847,38.133 C170.847,37.888 170.561,37.703 170.047,37.567 L170.047,37.567 Z" id="Fill-41" fill="#CBCCCB"></path>
    </g>
</svg>