<?xml version="1.0" standalone="no"?>
<!DOCTYPE svg PUBLIC "-//W3C//DTD SVG 20010904//EN"
 "http://www.w3.org/TR/2001/REC-SVG-20010904/DTD/svg10.dtd">
<svg version="1.0" xmlns="http://www.w3.org/2000/svg"
 width="262.000000pt" height="262.000000pt" viewBox="0 0 262.000000 262.000000"
 preserveAspectRatio="xMidYMid meet">
<metadata>
Created by potrace 1.11, written by Peter Selinger 2001-2013
</metadata>
<g transform="translate(0.000000,262.000000) scale(0.100000,-0.100000)"
fill="#000000" stroke="none">
<path d="M0 1310 l0 -1310 1310 0 1310 0 0 1310 0 1310 -1310 0 -1310 0 0
-1310z m2610 0 l0 -1300 -1300 0 -1300 0 0 1300 0 1300 1300 0 1300 0 0 -1300z"/>
<path d="M1957 2235 c16 -80 9 -246 -14 -309 l-21 -58 34 -72 c66 -144 113
-320 109 -411 -1 -31 3 -39 24 -47 126 -50 213 -101 276 -163 19 -19 37 -30
40 -25 10 16 21 136 19 192 -10 183 -87 403 -209 594 -49 77 -163 226 -220
289 l-46 50 8 -40z"/>
<path d="M1846 1799 c-59 -100 -260 -302 -381 -382 l-40 -27 190 0 c120 0 223
-6 280 -15 50 -8 94 -15 99 -15 14 0 -4 144 -29 239 -24 88 -82 231 -94 231
-4 0 -15 -14 -25 -31z"/>
<path d="M1430 1339 c-31 -4 -74 -25 -130 -62 -213 -138 -653 -333 -1002 -443
-48 -15 -86 -29 -84 -31 1 -2 45 6 97 17 52 11 112 23 134 26 22 2 47 6 55 9
8 2 40 7 70 11 30 4 66 8 80 10 160 20 413 22 536 5 155 -23 318 -77 396 -132
26 -19 33 -20 55 -8 77 42 293 299 293 350 0 10 4 20 9 23 19 12 50 196 33
196 -5 0 -55 7 -113 16 -109 18 -352 25 -429 13z"/>
<path d="M2060 1290 c0 -27 1 -21 -21 -101 -23 -82 -61 -164 -116 -246 -43
-66 -169 -195 -237 -243 -25 -19 -46 -36 -46 -40 0 -4 9 -15 21 -26 26 -23 89
-130 89 -150 0 -18 3 -18 53 7 291 149 544 391 601 574 12 41 -123 150 -270
216 -76 34 -74 34 -74 9z"/>
<path d="M178 793 c7 -3 16 -2 19 1 4 3 -2 6 -13 5 -11 0 -14 -3 -6 -6z"/>
</g>
</svg>
