<?xml version="1.0" standalone="no"?>
<!DOCTYPE svg PUBLIC "-//W3C//DTD SVG 1.1//EN" "http://www.w3.org/Graphics/SVG/1.1/DTD/svg11.dtd" >
<svg xmlns="http://www.w3.org/2000/svg" xmlns:xlink="http://www.w3.org/1999/xlink" version="1.1">
<metadata>
Created by FontForge 20170910 at Thu Dec  7 00:12:44 2006
 By Jimmy Wärting
Copyright (c) JT Types Ltd, 2006. All rights reserved.
</metadata>
<defs>
<font id="BlissPro-Bold" horiz-adv-x="542" >
  <font-face 
    font-family="Bliss Pro"
    font-weight="700"
    font-stretch="normal"
    units-per-em="1000"
    panose-1="2 0 8 3 5 0 0 2 0 4"
    ascent="800"
    descent="-200"
    x-height="473"
    cap-height="659"
    bbox="-178 -241 1203 953"
    underline-thickness="50"
    underline-position="-200"
    unicode-range="U+0020-FB02"
  />
<missing-glyph horiz-adv-x="550" 
d="M50 0v659h450v-659h-450zM101 48h348v563h-348v-563zM231 222q-29 29 -29 60q0 25 20.5 48.5t44.5 38.5t44.5 37.5t20.5 47.5q0 21 -15.5 34t-39.5 13q-41 0 -85 -39l-27 35q49 51 117 51q48 0 77 -25.5t29 -65.5q0 -31 -20.5 -59t-45.5 -45t-45.5 -35.5t-20.5 -32.5
q0 -16 17 -35zM255 107q-16 0 -27 11t-11 28t11 28.5t27 11.5t26.5 -11.5t10.5 -28.5t-10.5 -28t-26.5 -11z" />
    <glyph glyph-name="fi" unicode="fi" horiz-adv-x="584" 
d="M94 0v380h-70v93h70v66q0 81 43.5 125t117.5 44q54 0 99 -21l-24 -95q-37 13 -58 13q-58 0 -58 -65v-67h123l-29 -93h-94v-380h-120zM405 0v473h120v-473h-120zM465 550q-31 0 -52 20.5t-21 50.5t21 51t52 21q32 0 53 -20.5t21 -51.5q0 -29 -21.5 -50t-52.5 -21z" />
    <glyph glyph-name="fl" unicode="fl" horiz-adv-x="631" 
d="M94 0v380h-70v93h70v66q0 81 43.5 125t117.5 44q54 0 99 -21l-24 -95q-37 13 -58 13q-58 0 -58 -65v-67h123l-29 -93h-94v-380h-120zM407 107v601h119v-569q0 -43 35 -43q15 0 30 6l23 -92q-40 -17 -88 -17q-119 0 -119 114z" />
    <glyph glyph-name=".notdef" horiz-adv-x="550" 
d="M50 0v659h450v-659h-450zM101 48h348v563h-348v-563zM231 222q-29 29 -29 60q0 25 20.5 48.5t44.5 38.5t44.5 37.5t20.5 47.5q0 21 -15.5 34t-39.5 13q-41 0 -85 -39l-27 35q49 51 117 51q48 0 77 -25.5t29 -65.5q0 -31 -20.5 -59t-45.5 -45t-45.5 -35.5t-20.5 -32.5
q0 -16 17 -35zM255 107q-16 0 -27 11t-11 28t11 28.5t27 11.5t26.5 -11.5t10.5 -28.5t-10.5 -28t-26.5 -11z" />
    <glyph glyph-name=".null" horiz-adv-x="0" 
 />
    <glyph glyph-name="nonmarkingreturn" horiz-adv-x="333" 
 />
    <glyph glyph-name="space" unicode=" " horiz-adv-x="216" 
 />
    <glyph glyph-name="exclam" unicode="!" horiz-adv-x="269" 
d="M99 194q-16 84 -20 157t-4 261v47h119v-48q0 -188 -4.5 -261t-20.5 -156h-70zM134 -9q-28 0 -47 20t-19 49t19 48.5t47 19.5t47.5 -19.5t19.5 -48.5t-19.5 -49t-47.5 -20z" />
    <glyph glyph-name="quotedbl" unicode="&#x22;" horiz-adv-x="395" 
d="M65 474l-13 234h112l-11 -234h-88zM245 474l-12 234h111l-10 -234h-89z" />
    <glyph glyph-name="numbersign" unicode="#" horiz-adv-x="715" 
d="M117 0l36 166h-110v93h130l30 141h-110v93h131l36 166h112l-36 -166h112l36 166h113l-36 -166h110v-93h-130l-31 -141h111v-93h-131l-35 -166h-113l36 166h-113l-35 -166h-113zM285 259h113l30 141h-112z" />
    <glyph glyph-name="dollar" unicode="$" horiz-adv-x="545" 
d="M211 -86v103q-83 9 -150 53l47 89q72 -47 138 -47q101 0 101 70q0 32 -27.5 57t-67 45t-79 43t-67 62.5t-27.5 91.5q0 61 40 108t114 56v98h87v-96q68 -7 116 -33v-100q-78 40 -149 40q-39 0 -62 -16.5t-23 -47.5t27.5 -55.5t67 -44t78.5 -42t66.5 -62t27.5 -92.5
q0 -71 -45 -117.5t-126 -58.5v-104h-87z" />
    <glyph glyph-name="percent" unicode="%" horiz-adv-x="889" 
d="M214 312q-71 0 -115.5 45.5t-44.5 131.5q0 85 44.5 130.5t115.5 45.5t115.5 -45.5t44.5 -130.5q0 -86 -44.5 -131.5t-115.5 -45.5zM214 384q32 0 48.5 28.5t16.5 76.5t-16.5 76t-48.5 28t-49 -28t-17 -76t17 -76.5t49 -28.5zM675 -10q-71 0 -115.5 45.5t-44.5 131.5
q0 85 44.5 130.5t115.5 45.5t115.5 -45.5t44.5 -130.5q0 -86 -44.5 -131.5t-115.5 -45.5zM675 62q32 0 48.5 28.5t16.5 76.5t-16.5 76t-48.5 28t-49 -28t-17 -76t17 -76.5t49 -28.5zM187 0l416 659h97l-415 -659h-98z" />
    <glyph glyph-name="ampersand" unicode="&#x26;" horiz-adv-x="763" 
d="M497 66q-97 -76 -223 -76q-98 0 -159 54t-61 138q0 122 137 186q-27 31 -39.5 47t-24 43.5t-11.5 57.5q0 63 52.5 106t140.5 43t140 -42t52 -108q0 -101 -134 -170q60 -66 138 -141q59 63 83 142l101 -25q-37 -112 -107 -184q56 -48 105 -48q13 0 27 4l22 -88
q-28 -11 -68 -11q-83 0 -171 72zM292 86q67 0 125 46q-83 75 -162 165q-78 -41 -78 -107q0 -45 32 -74.5t83 -29.5zM299 416q81 43 81 100q0 26 -18.5 44.5t-53.5 18.5q-34 0 -51.5 -17.5t-17.5 -42.5q0 -43 60 -103z" />
    <glyph glyph-name="quotesingle" unicode="'" horiz-adv-x="215" 
d="M64 474l-12 234h111l-10 -234h-89z" />
    <glyph glyph-name="parenleft" unicode="(" horiz-adv-x="348" 
d="M243 -236q-97 105 -133.5 226t-36.5 278t36.5 278.5t133.5 228.5l80 -60q-68 -87 -96.5 -185t-28.5 -262t28 -262t96 -182z" />
    <glyph glyph-name="parenright" unicode=")" horiz-adv-x="348" 
d="M26 -176q68 84 96 182t28 262t-28 262.5t-97 184.5l80 60q97 -107 133.5 -228.5t36.5 -278.5t-36.5 -278t-133.5 -226z" />
    <glyph glyph-name="asterisk" unicode="*" horiz-adv-x="488" 
d="M201 330q-2 33 10 91.5t13 69.5q-10 -7 -33 -29t-47 -41t-47 -31l-43 74q28 18 86 37.5t65 22.5q-3 1 -62 21.5t-88 38.5l43 74q30 -15 76.5 -56.5t49.5 -43.5q-1 7 -12.5 66.5t-9.5 93.5h85q2 -33 -10 -92t-13 -68q1 1 49 42.5t79 57.5l42 -75q-28 -18 -86 -37t-65 -22
q7 -3 65 -22.5t86 -37.5l-43 -75q-30 15 -76 56t-52 45q0 -3 12.5 -64.5t10.5 -95.5h-85z" />
    <glyph glyph-name="plus" unicode="+" horiz-adv-x="550" 
d="M219 0v201h-179v99h179v196h111v-196h181v-99h-181v-201h-111z" />
    <glyph glyph-name="comma" unicode="," horiz-adv-x="263" 
d="M34 -122q46 78 46 155q0 31 -6 66l110 19q7 -29 7 -63q0 -113 -88 -210z" />
    <glyph glyph-name="hyphen" unicode="-" horiz-adv-x="366" 
d="M52 198v100h263v-100h-263z" />
    <glyph glyph-name="period" unicode="." horiz-adv-x="263" 
d="M131 -9q-27 0 -46.5 20t-19.5 49t19.5 48.5t46.5 19.5q28 0 47.5 -19.5t19.5 -48.5t-19.5 -49t-47.5 -20z" />
    <glyph glyph-name="slash" unicode="/" horiz-adv-x="397" 
d="M13 -35l252 731h119l-252 -731h-119z" />
    <glyph glyph-name="zero" unicode="0" horiz-adv-x="572" 
d="M286 -10q-112 0 -175 87t-63 251q0 163 63 250t175 87t175 -87t63 -250q0 -164 -63 -251t-175 -87zM286 91q59 0 85 59t26 178t-26 177.5t-85 58.5t-85 -58.5t-26 -177.5t26 -178t85 -59z" />
    <glyph glyph-name="one" unicode="1" horiz-adv-x="445" 
d="M223 0v540l-153 -69l-40 93l220 100h91v-664h-118z" />
    <glyph glyph-name="two" unicode="2" horiz-adv-x="537" 
d="M28 0q6 78 33.5 141t63 100t76.5 70.5t74.5 56t56 51.5t22.5 61q0 43 -29 63.5t-73 20.5q-76 0 -170 -45l-32 93q110 53 220 53q103 0 157 -47.5t54 -125.5q0 -52 -26.5 -95.5t-66.5 -75.5t-81.5 -62.5t-76.5 -71t-46 -85.5h303v-102h-459z" />
    <glyph glyph-name="three" unicode="3" horiz-adv-x="556" 
d="M33 27l34 95q69 -31 147 -31q149 0 149 102q0 65 -69 83q-28 8 -81 8h-87v96h70q147 0 147 96q0 41 -25.5 64.5t-75.5 23.5q-74 0 -159 -45l-32 93q102 53 206 53t158.5 -51t54.5 -126q0 -100 -101 -143v-2q57 -11 89 -50.5t32 -97.5q0 -91 -68 -148t-200 -57
q-106 0 -189 37z" />
    <glyph glyph-name="four" unicode="4" horiz-adv-x="588" 
d="M39 161v80l326 423h86v-405h98v-98h-98v-161h-118v161h-294zM172 257q6 0 38 1t45 1h78v94q0 15 6 129z" />
    <glyph glyph-name="five" unicode="5" horiz-adv-x="529" 
d="M34 26l33 94q63 -29 132 -29q66 0 107 29t41 85q0 69 -61 92q-38 15 -120 15h-82v347h395l-30 -102h-248v-150h26q74 0 126 -20q60 -24 90.5 -70.5t30.5 -104.5q0 -99 -67.5 -160.5t-203.5 -61.5q-99 0 -169 36z" />
    <glyph glyph-name="six" unicode="6" horiz-adv-x="565" 
d="M298 -10q-109 0 -179.5 79t-70.5 233q0 157 81 260t217 103q81 0 147 -31l-31 -93q-53 27 -110 27q-70 0 -119 -48.5t-61 -145.5q71 48 155 48q86 0 143 -55t57 -149q0 -104 -64 -166t-165 -62zM300 87q48 0 74 30t26 84q0 59 -28.5 91t-76.5 32q-30 0 -64 -13t-56 -32
q2 -92 37.5 -142t87.5 -50z" />
    <glyph glyph-name="seven" unicode="7" horiz-adv-x="499" 
d="M77 0q68 332 243 557h-274l-30 102h468v-42q-210 -244 -281 -617h-126z" />
    <glyph glyph-name="eight" unicode="8" horiz-adv-x="574" 
d="M283 -10q-111 0 -173 50t-62 133q0 58 31.5 101t83.5 65v2q-96 54 -96 145q0 78 61 128.5t163 50.5q100 0 156.5 -50.5t56.5 -119.5q0 -98 -100 -150v-2q122 -47 122 -159q0 -86 -63.5 -140t-179.5 -54zM290 83q47 0 78.5 24t31.5 67q0 27 -12 47.5t-37.5 34.5
t-43.5 20.5t-51 16.5q-33 -14 -57 -42t-24 -65q0 -49 33 -76t82 -27zM309 386q69 36 69 98q0 38 -25 63t-69 25q-40 0 -65.5 -23t-25.5 -58q0 -43 31 -66t85 -39z" />
    <glyph glyph-name="nine" unicode="9" horiz-adv-x="559" 
d="M213 -10q-87 0 -157 33l30 96q62 -32 125 -32q155 0 174 194h-1q-61 -47 -144 -47q-86 0 -144 51.5t-58 152.5q0 102 64 164.5t164 62.5q112 0 178.5 -77.5t66.5 -233.5q0 -174 -75.5 -269t-222.5 -95zM267 331q70 0 120 56q-1 80 -34.5 130.5t-89.5 50.5
q-46 0 -73.5 -33t-27.5 -87q0 -56 27.5 -86.5t77.5 -30.5z" />
    <glyph glyph-name="colon" unicode=":" horiz-adv-x="263" 
d="M131 314q-27 0 -46.5 20t-19.5 48q0 29 19.5 49t46.5 20q28 0 47.5 -20t19.5 -49q0 -28 -19.5 -48t-47.5 -20zM131 -9q-27 0 -46.5 20t-19.5 49t19.5 48.5t46.5 19.5q28 0 47.5 -19.5t19.5 -48.5t-19.5 -49t-47.5 -20z" />
    <glyph glyph-name="semicolon" unicode=";" horiz-adv-x="263" 
d="M123 314q-28 0 -47 19.5t-19 48.5t19 49t47 20t47.5 -20t19.5 -49q0 -28 -19.5 -48t-47.5 -20zM34 -122q46 78 46 155q0 31 -6 66l110 19q7 -29 7 -63q0 -113 -88 -210z" />
    <glyph glyph-name="less" unicode="&#x3c;" horiz-adv-x="543" 
d="M46 213v94l428 177v-101l-324 -122v-2l324 -122v-101z" />
    <glyph glyph-name="equal" unicode="=" horiz-adv-x="550" 
d="M40 99v99h471v-99h-471zM40 301v99h471v-99h-471z" />
    <glyph glyph-name="greater" unicode="&#x3e;" horiz-adv-x="543" 
d="M69 36v101l324 122v2l-324 122v101l428 -177v-94z" />
    <glyph glyph-name="question" unicode="?" horiz-adv-x="482" 
d="M138 192q-31 37 -31 84q0 33 19 61t45.5 47.5t53.5 38t46 39.5t19 44q0 28 -18.5 43t-50.5 15q-64 0 -127 -56l-54 77q93 80 201 80q87 0 134.5 -41t47.5 -105q0 -38 -20.5 -70.5t-49.5 -54.5t-58 -41.5t-49.5 -40.5t-20.5 -43t14 -40zM194 -9q-28 0 -47 20t-19 49
t19 48.5t47 19.5t47.5 -19.5t19.5 -48.5t-19.5 -49t-47.5 -20z" />
    <glyph glyph-name="at" unicode="@" horiz-adv-x="777" 
d="M486 -46l21 -67q-71 -27 -161 -27q-137 0 -225 91t-88 240q0 171 107 275t264 104q150 0 245 -87t95 -233q0 -108 -46.5 -164.5t-123.5 -56.5q-86 0 -103 82h-1q-15 -31 -53 -56t-87 -25q-54 0 -95 39t-41 120q0 98 61.5 160.5t155.5 62.5q85 0 154 -42l-20 -155
q-5 -35 -5 -55q0 -61 43 -61q38 0 60 38.5t22 105.5q0 112 -67 185t-196 73q-124 0 -206.5 -82.5t-82.5 -221.5q0 -127 68 -197.5t173 -70.5q79 0 132 25zM458 252l9 71q-26 16 -58 16q-50 0 -84.5 -40.5t-34.5 -106.5q0 -89 62 -89q38 0 67.5 36.5t38.5 112.5z" />
    <glyph glyph-name="A" unicode="A" horiz-adv-x="632" 
d="M8 0l255 662h96l265 -662h-130l-64 165h-235l-62 -165h-125zM230 263h163l-46 131q-21 59 -33 102h-2q-7 -26 -34 -103z" />
    <glyph glyph-name="B" unicode="B" horiz-adv-x="567" 
d="M80 0v659h193q100 0 152.5 -48.5t52.5 -118.5q0 -44 -21 -80.5t-59 -55.5v-2q57 -14 90.5 -57.5t33.5 -101.5q0 -82 -61 -138.5t-170 -56.5h-211zM200 99h77q123 0 123 96q0 42 -29.5 66t-80.5 24h-90v-186zM200 384h57q49 0 75.5 24t26.5 64q0 39 -26 63.5t-77 24.5h-56
v-176z" />
    <glyph glyph-name="C" unicode="C" horiz-adv-x="627" 
d="M561 137l33 -95q-95 -52 -209 -52q-158 0 -245.5 91.5t-87.5 240.5q0 146 96 244.5t252 98.5q100 0 173 -32v-112q-81 43 -170 43q-105 0 -164 -68.5t-59 -170.5q0 -105 59.5 -169.5t159.5 -64.5q82 0 162 46z" />
    <glyph glyph-name="D" unicode="D" horiz-adv-x="696" 
d="M80 0v659h205q172 0 266 -88t94 -237q0 -151 -100 -242.5t-271 -91.5h-194zM200 102h76q123 0 181.5 64.5t58.5 165.5q0 106 -62 165.5t-180 59.5h-74v-455z" />
    <glyph glyph-name="E" unicode="E" horiz-adv-x="502" 
d="M80 0v659h364l-33 -102h-211v-172h211v-102h-211v-181h245v-102h-365z" />
    <glyph glyph-name="F" unicode="F" horiz-adv-x="480" 
d="M80 0v659h367l-33 -102h-214v-172h210v-102h-210v-283h-120z" />
    <glyph glyph-name="G" unicode="G" horiz-adv-x="708" 
d="M636 320v-277q-106 -53 -240 -53q-159 0 -251.5 91.5t-92.5 236.5q0 152 100 249.5t262 97.5q99 0 191 -33v-112q-88 44 -182 44q-116 0 -179.5 -65t-63.5 -173t60 -171.5t165 -63.5q67 0 110 20v209h121z" />
    <glyph glyph-name="H" unicode="H" horiz-adv-x="715" 
d="M80 0v659h120v-272h315v272h121v-659h-121v285h-315v-285h-120z" />
    <glyph glyph-name="I" unicode="I" horiz-adv-x="280" 
d="M80 0v659h120v-659h-120z" />
    <glyph glyph-name="J" unicode="J" horiz-adv-x="329" 
d="M-31 -169l24 97q24 -12 60 -12q46 0 61 25t15 72v646h120v-662q0 -83 -46 -132.5t-140 -49.5q-52 0 -94 16z" />
    <glyph glyph-name="K" unicode="K" horiz-adv-x="599" 
d="M80 0v659h120v-281h3l226 281h139l-265 -320l280 -339h-147l-233 289h-3v-289h-120z" />
    <glyph glyph-name="L" unicode="L" horiz-adv-x="452" 
d="M80 0v659h120v-557h234v-102h-354z" />
    <glyph glyph-name="M" unicode="M" horiz-adv-x="821" 
d="M80 0v659h109l173 -249q41 -60 55 -85h2q26 46 54 89l158 245h110v-659h-121v372q0 61 2 87h-2q-11 -22 -45 -74l-130 -202h-55l-144 207q-37 54 -45 68h-2q1 -26 1 -83v-375h-120z" />
    <glyph glyph-name="N" unicode="N" horiz-adv-x="749" 
d="M669 0h-109l-286 376q-10 13 -74 100h-2q2 -26 2 -102v-374h-120v659h119l276 -361q54 -73 73 -102h2q-2 70 -2 111v352h121v-659z" />
    <glyph glyph-name="O" unicode="O" horiz-adv-x="768" 
d="M384 -10q-146 0 -239 93t-93 244q0 150 92.5 244t239.5 94q146 0 239 -94.5t93 -243.5q0 -150 -93.5 -243.5t-238.5 -93.5zM384 91q92 0 148 63t56 173q0 109 -55 173t-149 64q-93 0 -148.5 -63t-55.5 -174q0 -110 55.5 -173t148.5 -63z" />
    <glyph glyph-name="P" unicode="P" horiz-adv-x="545" 
d="M80 0v659h159q91 0 148 -28q107 -53 107 -188q0 -63 -30.5 -114.5t-95.5 -78.5q-59 -23 -140 -23h-28v-227h-120zM200 325h36q48 0 77 15q55 27 55 103q0 70 -52 101q-29 17 -82 17h-34v-236z" />
    <glyph glyph-name="Q" unicode="Q" horiz-adv-x="768" 
d="M285 3q-106 28 -169.5 114.5t-63.5 209.5q0 150 92.5 244t239.5 94q146 0 239 -94.5t93 -243.5q0 -136 -76 -225t-201 -106q51 -58 134 -58q37 0 66 11l28 -92q-43 -20 -108 -20q-161 0 -274 166zM384 91q92 0 148 63t56 173q0 109 -55 173t-149 64q-93 0 -148.5 -63
t-55.5 -174q0 -110 55.5 -173t148.5 -63z" />
    <glyph glyph-name="R" unicode="R" horiz-adv-x="589" 
d="M80 0v659h180q85 0 141 -27q98 -46 98 -161q0 -64 -35 -107.5t-94 -62.5v-2q29 -16 82 -107l110 -192h-138l-95 167q-45 83 -72 90h-57v-257h-120zM200 355h54q42 0 73 17q46 26 46 87q0 57 -44 83q-28 19 -74 19h-55v-206z" />
    <glyph glyph-name="S" unicode="S" horiz-adv-x="533" 
d="M48 47l47 92q69 -48 149 -48q46 0 78 19t32 59q0 35 -29.5 62t-71 47t-83.5 43.5t-71.5 64.5t-29.5 97q0 76 57.5 129t156.5 53q95 0 161 -33v-110q-81 42 -157 42q-39 0 -64.5 -17t-25.5 -54q0 -33 29.5 -58.5t71.5 -45t83.5 -43.5t71 -66.5t29.5 -100.5
q0 -86 -66 -137.5t-169 -51.5q-118 0 -199 57z" />
    <glyph glyph-name="T" unicode="T" horiz-adv-x="536" 
d="M206 0v557h-192v102h521l-33 -102h-176v-557h-120z" />
    <glyph glyph-name="U" unicode="U" horiz-adv-x="696" 
d="M348 -10q-188 0 -248 128q-25 50 -25 128v413h120v-405q0 -53 18 -89q36 -74 135 -74t135 74q18 36 18 90v404h120v-413q0 -79 -25 -129q-61 -127 -248 -127z" />
    <glyph glyph-name="V" unicode="V" horiz-adv-x="649" 
d="M274 -4l-267 663h131l138 -358q11 -31 29.5 -82t18.5 -52h2q28 83 49 135l137 357h130l-267 -663h-101z" />
    <glyph glyph-name="W" unicode="W" horiz-adv-x="944" 
d="M240 -4l-233 663h136l121 -379q10 -30 32 -111h2q13 46 34 110l89 265l-41 115h122l127 -373q27 -76 37 -116h3q22 88 30 114l114 375h124l-222 -663h-102l-99 279q-27 76 -36 110h-3q-14 -51 -35 -109l-100 -280h-100z" />
    <glyph glyph-name="X" unicode="X" horiz-adv-x="633" 
d="M11 0l236 331l-217 328h136l156 -237l167 237h132l-231 -325l221 -334h-134l-162 243l-172 -243h-132z" />
    <glyph glyph-name="Y" unicode="Y" horiz-adv-x="586" 
d="M232 0v261l-225 398h132l154 -291h2l153 291h130l-225 -399v-260h-121z" />
    <glyph glyph-name="Z" unicode="Z" horiz-adv-x="570" 
d="M26 0l327 557h-281l-31 102h503l-321 -557h324v-102h-521z" />
    <glyph glyph-name="bracketleft" unicode="[" horiz-adv-x="304" 
d="M68 -235v1008h213v-91h-101v-826h101v-91h-213z" />
    <glyph glyph-name="backslash" unicode="\" horiz-adv-x="401" 
d="M267 -35l-253 731h120l252 -731h-119z" />
    <glyph glyph-name="bracketright" unicode="]" horiz-adv-x="304" 
d="M23 -235v91h101v826h-101v91h214v-1008h-214z" />
    <glyph glyph-name="asciicircum" unicode="^" horiz-adv-x="521" 
d="M58 287l153 372h98l153 -372h-100l-101 268h-2l-100 -268h-101z" />
    <glyph glyph-name="underscore" unicode="_" horiz-adv-x="442" 
d="M0 -130v64h442v-64h-442z" />
    <glyph glyph-name="grave" unicode="`" horiz-adv-x="384" 
d="M161 531l-97 147h130l58 -147h-91z" />
    <glyph glyph-name="a" unicode="a" horiz-adv-x="492" 
d="M344 0l-18 45q-60 -55 -136 -55q-68 0 -112.5 42t-44.5 109q0 88 80 129q46 24 122 27l81 3v15q0 79 -91 79q-62 0 -124 -33l-39 77q85 47 183 47q190 0 190 -172v-192q0 -89 9 -121h-100zM316 220l-64 -2q-45 -1 -69 -15q-29 -16 -29 -54q0 -31 19 -48t51 -17
q49 0 92 35v101z" />
    <glyph glyph-name="b" unicode="b" horiz-adv-x="533" 
d="M216 -10q-92 0 -155 33v685h119v-237q47 14 92 14q98 0 162.5 -62t64.5 -171q0 -122 -79.5 -192t-203.5 -70zM235 89q64 0 102.5 43t38.5 113q0 63 -33 102t-91 39q-34 0 -72 -15v-274q25 -8 55 -8z" />
    <glyph glyph-name="c" unicode="c" horiz-adv-x="448" 
d="M274 -10q-112 0 -175.5 68.5t-63.5 174.5q0 109 71.5 180.5t178.5 71.5q77 0 127 -32v-101q-51 37 -115 37q-65 0 -102.5 -43t-37.5 -110q0 -72 36 -111t98 -39q51 0 110 32l35 -82q-67 -46 -162 -46z" />
    <glyph glyph-name="d" unicode="d" horiz-adv-x="538" 
d="M304 -10q-119 0 -194 64t-75 178q0 112 73 182.5t186 70.5q36 0 64 -6v229h120v-683q-72 -35 -174 -35zM302 89q35 0 56 8v283q-32 7 -57 7q-64 0 -104 -41t-40 -112q0 -68 39.5 -106.5t105.5 -38.5z" />
    <glyph glyph-name="e" unicode="e" horiz-adv-x="493" 
d="M459 204h-303q2 -55 38.5 -87.5t95.5 -32.5q62 0 119 32l36 -82q-71 -44 -167 -44q-121 0 -181.5 70.5t-60.5 175.5q0 109 57 179t156 70t154.5 -67.5t55.5 -185.5v-28zM155 287h183q-1 45 -24 76t-67 31q-42 0 -66.5 -31t-25.5 -76z" />
    <glyph glyph-name="f" unicode="f" horiz-adv-x="346" 
d="M94 0v380h-70v93h70v66q0 81 43.5 125t117.5 44q54 0 99 -21l-24 -95q-37 13 -58 13q-58 0 -58 -65v-67h123l-29 -93h-94v-380h-120z" />
    <glyph glyph-name="g" unicode="g" horiz-adv-x="504" 
d="M234 -237q-103 0 -161.5 38t-58.5 101q0 38 23.5 68t61.5 46q-31 19 -31 59q0 50 57 89q-37 22 -58 61t-21 86q0 71 51 122.5t142 51.5q58 0 94 -21q6 -2 12 2q41 41 114 41q18 0 32 -2l-24 -86q-18 5 -35 5q-22 0 -35 -8q42 -45 42 -112q0 -79 -54.5 -127t-141.5 -48
q-32 0 -58 8q-12 -20 -12 -35q0 -20 23 -31t57.5 -14.5t75 -11.5t75 -19t57.5 -38t23 -69q0 -68 -66 -112t-184 -44zM250 -153q54 0 87 16.5t33 42.5q0 30 -36.5 43.5t-95 20.5t-79.5 15q-38 -28 -38 -62q0 -35 35 -55.5t94 -20.5zM242 219q37 0 60.5 23t23.5 64
q0 37 -23.5 63t-61.5 26q-36 0 -59 -23t-23 -65q0 -37 22.5 -62.5t60.5 -25.5z" />
    <glyph glyph-name="h" unicode="h" horiz-adv-x="543" 
d="M61 0v708h119v-287q76 64 157 64q65 0 108 -39.5t43 -132.5v-313h-119v276q0 50 -15.5 77.5t-57.5 27.5q-56 0 -116 -50v-331h-119z" />
    <glyph glyph-name="i" unicode="i" horiz-adv-x="238" 
d="M59 0v473h120v-473h-120zM119 550q-31 0 -52 20.5t-21 50.5t21 51t52 21q32 0 53 -20.5t21 -51.5q0 -29 -21.5 -50t-52.5 -21z" />
    <glyph glyph-name="j" unicode="j" horiz-adv-x="252" 
d="M-61 -220l22 98q23 -11 51 -11q33 0 47 19t14 62v525h120v-543q0 -79 -43.5 -123t-119.5 -44q-52 0 -91 17zM133 550q-31 0 -52 20.5t-21 50.5t21 51t52 21q32 0 53 -20.5t21 -51.5q0 -29 -21.5 -50t-52.5 -21z" />
    <glyph glyph-name="k" unicode="k" horiz-adv-x="493" 
d="M61 0v708h119v-399h2l155 164h136l-194 -206l210 -267h-139l-168 219h-2v-219h-119z" />
    <glyph glyph-name="l" unicode="l" horiz-adv-x="285" 
d="M61 107v601h119v-569q0 -43 35 -43q15 0 30 6l23 -92q-40 -17 -88 -17q-119 0 -119 114z" />
    <glyph glyph-name="m" unicode="m" horiz-adv-x="833" 
d="M55 0v473h100l12 -53q83 65 159 65q90 0 126 -73q87 73 170 73q69 0 113 -41.5t44 -129.5v-314h-119v281q0 48 -15 74t-57 26q-55 0 -112 -47q1 -5 1 -18v-316h-120v280q0 49 -14 75t-56 26q-54 0 -113 -47v-334h-119z" />
    <glyph glyph-name="n" unicode="n" horiz-adv-x="537" 
d="M55 0v473h102l12 -53q83 65 162 65q65 0 108.5 -39.5t43.5 -132.5v-313h-120v276q0 50 -15.5 77.5t-57.5 27.5q-56 0 -116 -50v-331h-119z" />
    <glyph glyph-name="o" unicode="o" 
d="M271 -10q-105 0 -170.5 70t-65.5 178q0 107 65.5 177t170.5 70t171 -70t66 -177t-66 -177.5t-171 -70.5zM271 86q55 0 84.5 42t29.5 110t-29.5 109.5t-84.5 41.5t-84.5 -41.5t-29.5 -109.5t29.5 -110t84.5 -42z" />
    <glyph glyph-name="p" unicode="p" horiz-adv-x="528" 
d="M55 -237v692q87 30 179 30q125 0 192 -66t67 -181q0 -110 -68 -179t-178 -69q-37 0 -73 11v-238h-119zM174 101q32 -12 64 -12q65 0 99 39.5t34 109.5q0 74 -37.5 111.5t-103.5 37.5q-27 0 -56 -8v-278z" />
    <glyph glyph-name="q" unicode="q" horiz-adv-x="534" 
d="M247 -10q-87 0 -149.5 61t-62.5 174q0 121 76.5 190.5t195.5 69.5q101 0 172 -30v-692h-119v256q-48 -29 -113 -29zM277 89q45 0 83 26v263q-32 9 -60 9q-68 0 -105.5 -43t-37.5 -114q0 -64 32.5 -102.5t87.5 -38.5z" />
    <glyph glyph-name="r" unicode="r" horiz-adv-x="364" 
d="M55 0v473h101l13 -53q65 65 130 65q39 0 67 -19l-42 -101q-26 16 -54 16q-42 0 -96 -47v-334h-119z" />
    <glyph glyph-name="s" unicode="s" horiz-adv-x="420" 
d="M21 36l37 87q61 -39 129 -39q83 0 83 50q0 22 -23 37t-55.5 26t-65 26t-55.5 45t-23 74q0 64 48.5 103.5t130.5 39.5q75 0 139 -23v-101q-71 30 -134 30q-67 0 -67 -43q0 -20 23 -34t55.5 -25.5t65 -27t55.5 -47t23 -77.5q0 -74 -54.5 -110.5t-137.5 -36.5q-99 0 -174 46
z" />
    <glyph glyph-name="t" unicode="t" horiz-adv-x="386" 
d="M236 -10q-63 0 -99 34t-36 93v263h-85v93h85v110l119 35v-145h143l-29 -93h-114v-234q0 -32 11 -46t35 -14q38 0 72 23l36 -82q-55 -37 -138 -37z" />
    <glyph glyph-name="u" unicode="u" horiz-adv-x="535" 
d="M213 -10q-42 0 -82 21.5t-60 71.5q-16 38 -16 99v291h119v-279q0 -38 10 -59q18 -43 71 -43q59 0 97 42v339h120v-356q0 -88 8 -117h-102l-18 49q-66 -59 -147 -59z" />
    <glyph glyph-name="v" unicode="v" horiz-adv-x="486" 
d="M198 -3l-193 476h121l117 -322h2l115 322h120l-192 -476h-90z" />
    <glyph glyph-name="w" unicode="w" horiz-adv-x="748" 
d="M178 -3l-171 476h121l100 -321h2l100 321h93l104 -321h2l98 321h118l-175 -476h-88l-104 321h-2l-106 -321h-92z" />
    <glyph glyph-name="x" unicode="x" horiz-adv-x="494" 
d="M7 0l177 238l-171 235h125l111 -154l112 154h124l-173 -235l175 -238h-125l-114 158l-116 -158h-125z" />
    <glyph glyph-name="y" unicode="y" horiz-adv-x="518" 
d="M513 473l-181 -488q-27 -71 -55.5 -117.5t-60 -68t-58.5 -29t-64 -7.5q-56 0 -106 22l30 94q35 -19 71 -19q42 0 73.5 32.5t58.5 110.5l-213 470h127l140 -334h2l113 334h123z" />
    <glyph glyph-name="z" unicode="z" horiz-adv-x="415" 
d="M15 0l219 380h-181l-24 93h379l-217 -380h213v-93h-389z" />
    <glyph glyph-name="braceleft" unicode="{" horiz-adv-x="362" 
d="M300 -227q-99 5 -139.5 50.5t-40.5 122.5v218q0 39 -17 53.5t-48 15.5v80q31 1 48 15.5t17 53.5v218q0 77 40.5 122.5t139.5 50.5l21 -105q-46 -5 -66.5 -26t-20.5 -64v-181q0 -113 -77 -123v-2q77 -10 77 -123v-181q0 -43 20.5 -64t66.5 -26z" />
    <glyph glyph-name="bar" unicode="|" horiz-adv-x="282" 
d="M83 -236v1016h117v-1016h-117z" />
    <glyph glyph-name="braceright" unicode="}" horiz-adv-x="362" 
d="M42 -122q46 5 66.5 26t20.5 64v181q0 113 77 123v2q-77 10 -77 123v181q0 43 -20.5 64t-66.5 26l21 105q99 -5 139.5 -50.5t40.5 -122.5v-218q0 -39 17 -53.5t48 -15.5v-80q-31 -1 -48 -15.5t-17 -53.5v-218q0 -77 -40.5 -122.5t-139.5 -50.5z" />
    <glyph glyph-name="asciitilde" unicode="~" horiz-adv-x="550" 
d="M81 198l-57 76q71 71 152 71q40 0 105 -28.5t97 -28.5q45 0 91 42l58 -76q-71 -71 -153 -71q-40 0 -105 28.5t-97 28.5q-25 0 -45 -9.5t-46 -32.5z" />
    <glyph glyph-name="exclamdown" unicode="&#xa1;" horiz-adv-x="269" 
d="M134 347q-28 0 -47 20t-19 49t19 49t47 20t47.5 -20t19.5 -49t-19.5 -49t-47.5 -20zM75 -183v49q0 187 4 259.5t20 156.5h70q16 -83 20.5 -156t4.5 -261v-48h-119z" />
    <glyph glyph-name="cent" unicode="&#xa2;" horiz-adv-x="545" 
d="M243 0v106q-80 18 -123.5 78.5t-43.5 142.5q0 81 47 144t123 81v107h86v-97q64 -1 107 -29v-94q-48 33 -115 33q-57 0 -94.5 -38t-37.5 -102q0 -63 35 -100.5t94 -37.5q57 0 110 28l30 -86q-59 -31 -132 -34v-102h-86z" />
    <glyph glyph-name="sterling" unicode="&#xa3;" horiz-adv-x="545" 
d="M60 0v76q91 28 91 211h-71v98h71v60q0 52 14.5 92.5t37 64t52.5 38.5t56.5 20t54.5 5q67 0 134 -26l-26 -96q-40 21 -91 21q-52 0 -83 -33t-31 -100v-46h188l-31 -98h-157q-2 -149 -59 -198v-2q64 11 123 11h163v-98h-436z" />
    <glyph glyph-name="currency" unicode="&#xa4;" horiz-adv-x="545" 
d="M458 68l-66 67q-55 -34 -120 -34t-119 34l-68 -69l-71 72l69 67q-37 56 -37 122q0 65 35 119l-68 67l71 72l67 -69q56 37 121 37q66 0 122 -37l65 67l71 -71l-67 -66q35 -54 35 -119q0 -67 -36 -122l68 -66zM272 183q58 0 98.5 42t40.5 102q0 59 -40.5 101t-98.5 42
t-98.5 -42t-40.5 -101q0 -60 40.5 -102t98.5 -42z" />
    <glyph glyph-name="yen" unicode="&#xa5;" horiz-adv-x="545" 
d="M213 0v112h-156v75h156v74h-156v75h120l-153 323h128l120 -290h1l119 290h129l-154 -323h121v-75h-156v-74h156v-75h-156v-112h-119z" />
    <glyph glyph-name="brokenbar" unicode="&#xa6;" horiz-adv-x="282" 
d="M83 -236v364h117v-364h-117zM83 416v364h117v-364h-117z" />
    <glyph glyph-name="section" unicode="&#xa7;" horiz-adv-x="558" 
d="M64 -109l46 85q72 -44 144 -44q107 0 107 72q0 33 -30 57t-72.5 41t-85.5 38t-73 58.5t-30 90.5q0 92 78 143q-54 49 -54 121q0 77 53 124t140 47q100 0 170 -36l-2 -103q-79 42 -156 42q-38 0 -63 -17t-25 -48q0 -34 30.5 -58t74.5 -42t87.5 -39t74 -60t30.5 -95
q0 -45 -22.5 -82.5t-60.5 -59.5q54 -47 54 -113q0 -89 -62.5 -133t-161.5 -44q-117 0 -191 55zM362 169q42 29 42 75q0 21 -10.5 39t-33.5 33.5t-42.5 25.5t-54.5 26t-53 25q-38 -28 -38 -74q0 -22 10.5 -40.5t33.5 -34t42.5 -25.5t53 -25.5t50.5 -24.5z" />
    <glyph glyph-name="dieresis" unicode="&#xa8;" horiz-adv-x="384" 
d="M96 544q-25 0 -43 18t-18 43q0 26 18 44t43 18q26 0 44 -18t18 -44q0 -25 -18 -43t-44 -18zM287 544q-25 0 -43 18t-18 43q0 26 17.5 44t43.5 18q25 0 43 -18t18 -44q0 -25 -18 -43t-43 -18z" />
    <glyph glyph-name="copyright" unicode="&#xa9;" horiz-adv-x="770" 
d="M385 -10q-146 0 -239 96t-93 241t93 241t239 96q145 0 238 -96t93 -241t-93 -241t-238 -96zM385 51q114 0 188 77.5t74 198.5t-74 198.5t-188 77.5t-188.5 -77.5t-74.5 -198.5t74.5 -198.5t188.5 -77.5zM486 213l24 -56q-58 -32 -118 -32q-84 0 -135 55.5t-51 142.5
q0 86 53.5 145t139.5 59q59 0 99 -22v-68q-46 26 -97 26q-55 0 -88.5 -38t-33.5 -99q0 -63 32 -100.5t86 -37.5q48 0 89 25z" />
    <glyph glyph-name="ordfeminine" unicode="&#xaa;" horiz-adv-x="368" 
d="M28 132v71h312v-71h-312zM250 270l-12 29q-41 -36 -94 -36q-49 0 -81 29.5t-32 79.5q0 52 38.5 80t108.5 30l50 2v8q0 22 -16.5 33.5t-42.5 11.5q-47 0 -89 -22l-32 60q57 36 134 36q137 0 137 -125v-131q0 -58 8 -85h-77zM228 359v60l-41 -1q-63 -2 -63 -41
q0 -18 12.5 -29t34.5 -11q30 0 57 22z" />
    <glyph glyph-name="guillemotleft" unicode="&#xab;" horiz-adv-x="605" 
d="M293 402l-124 -161l124 -161l-86 -48l-170 209l170 209zM540 402l-124 -161l124 -161l-86 -48l-170 209l170 209z" />
    <glyph glyph-name="logicalnot" unicode="&#xac;" horiz-adv-x="550" 
d="M399 45v200h-359v99h471v-299h-112z" />
    <glyph glyph-name="registered" unicode="&#xae;" horiz-adv-x="574" 
d="M285 180q-104 0 -171 69.5t-67 173.5t67 173t171 69q103 0 172 -69.5t69 -172.5t-69.5 -173t-171.5 -70zM285 227q81 0 133.5 56.5t52.5 139.5t-52.5 139t-133.5 56t-133 -56t-52 -139t52 -139.5t133 -56.5zM202 296v261h78q25 0 43 -5q49 -16 49 -66q0 -28 -17.5 -46
t-44.5 -24v-2q17 -8 78 -118h-57q-3 6 -10 18q-14 25 -20.5 36.5t-15 25.5t-13.5 19.5t-9 6.5h-11v-106h-50zM252 441h14q53 0 53 40q0 27 -21 33q-11 4 -31 4h-15v-77z" />
    <glyph glyph-name="macron" unicode="&#xaf;" horiz-adv-x="384" 
d="M49 569v90h285v-90h-285z" />
    <glyph glyph-name="degree" unicode="&#xb0;" horiz-adv-x="370" 
d="M184 353q-68 0 -111.5 43.5t-43.5 109.5t44.5 109.5t111.5 43.5t111.5 -43.5t44.5 -109.5t-44.5 -109.5t-112.5 -43.5zM185 427q32 0 53 22t21 56t-21 56.5t-53 22.5t-53 -22.5t-21 -56.5t21 -56t53 -22z" />
    <glyph glyph-name="plusminus" unicode="&#xb1;" horiz-adv-x="550" 
d="M219 148v137h-179v99h179v137h111v-137h181v-99h-181v-137h-111zM40 0v99h471v-99h-471z" />
    <glyph glyph-name="twosuperior" unicode="&#xb2;" horiz-adv-x="349" 
d="M22 402q2 51 21.5 92t46.5 66t54 45t45.5 38.5t18.5 35.5q0 38 -49 38q-36 0 -101 -29l-24 73q78 37 147 37q63 0 96 -29t33 -78q0 -30 -15 -55t-37.5 -43t-45.5 -34t-42.5 -35.5t-25.5 -40.5h169v-81h-291z" />
    <glyph glyph-name="threesuperior" unicode="&#xb3;" horiz-adv-x="348" 
d="M15 422l25 71q43 -20 91 -20q70 0 70 48q0 28 -29 38q-16 6 -51 6h-49v69h38q30 0 49 7q29 12 29 40q0 39 -50 39q-37 0 -90 -22l-23 71q73 29 136 29q61 0 95 -28t34 -72q0 -64 -66 -91v-2q38 -7 59 -30.5t21 -60.5q0 -52 -43.5 -85t-124.5 -33q-67 0 -121 26z" />
    <glyph glyph-name="acute" unicode="&#xb4;" horiz-adv-x="384" 
d="M131 531l58 147h129l-96 -147h-91z" />
    <glyph glyph-name="mu" unicode="&#xb5;" horiz-adv-x="578" 
d="M358 212v261h119v-309q0 -38 10 -51.5t32 -13.5q15 0 28 6l23 -95q-36 -17 -78 -17q-43 0 -70.5 23.5t-34.5 65.5h-2q-40 -92 -126 -92q-53 0 -81 34h-2q4 -56 4 -129v-132h-119v710h119v-286q0 -44 22 -69.5t61 -25.5q38 0 66.5 30.5t28.5 89.5z" />
    <glyph glyph-name="paragraph" unicode="&#xb6;" horiz-adv-x="632" 
d="M266 -160v364q-96 8 -154.5 70t-58.5 157q0 98 65 163t171 65h262v-819h-96v742h-93v-742h-96z" />
    <glyph glyph-name="periodcentered" unicode="&#xb7;" horiz-adv-x="263" 
d="M131 182q-27 0 -46.5 20t-19.5 49t19.5 48.5t46.5 19.5q28 0 47.5 -19.5t19.5 -48.5t-19.5 -49t-47.5 -20z" />
    <glyph glyph-name="cedilla" unicode="&#xb8;" horiz-adv-x="384" 
d="M84 -201l17 55q24 -8 48 -8q48 0 48 32q0 20 -20 27t-61 7l27 88h88l-15 -49q84 -7 84 -74q0 -40 -36 -64.5t-105 -24.5q-40 0 -75 11z" />
    <glyph glyph-name="onesuperior" unicode="&#xb9;" horiz-adv-x="349" 
d="M176 402v297l-116 -43l-31 75l165 65h75v-394h-93z" />
    <glyph glyph-name="ordmasculine" unicode="&#xba;" horiz-adv-x="392" 
d="M31 132v71h330v-71h-330zM196 263q-75 0 -122 49t-47 125t47 125t122 49t122 -49t47 -125t-47 -125t-122 -49zM196 339q35 0 55.5 27.5t20.5 70.5t-20.5 70.5t-55.5 27.5t-55.5 -27.5t-20.5 -70.5t20.5 -70.5t55.5 -27.5z" />
    <glyph glyph-name="guillemotright" unicode="&#xbb;" horiz-adv-x="605" 
d="M65 80l124 161l-124 161l86 48l170 -209l-170 -209zM312 80l124 161l-124 161l86 48l170 -209l-170 -209z" />
    <glyph glyph-name="onequarter" unicode="&#xbc;" horiz-adv-x="943" 
d="M205 0l415 659h98l-416 -659h-97zM206 270v297l-116 -43l-31 75l165 65h75v-394h-93zM521 84v57l193 253h89v-240h53v-70h-53v-84h-93v84h-189zM620 153q17 1 66 1h24v27q0 47 3 96z" />
    <glyph glyph-name="onehalf" unicode="&#xbd;" horiz-adv-x="943" 
d="M187 0l415 659h98l-416 -659h-97zM191 270v297l-116 -43l-31 75l165 65h75v-394h-93zM575 0q2 51 21.5 92t46.5 66t54 45t45.5 38.5t18.5 35.5q0 38 -49 38q-36 0 -101 -29l-24 73q78 37 147 37q63 0 96 -29t33 -78q0 -30 -15 -55t-37.5 -43t-45.5 -34t-42.5 -35.5
t-25.5 -40.5h169v-81h-291z" />
    <glyph glyph-name="threequarters" unicode="&#xbe;" horiz-adv-x="943" 
d="M233 0l415 659h98l-416 -659h-97zM536 84v57l193 253h89v-240h53v-70h-53v-84h-93v84h-189zM635 153q17 1 66 1h24v27q0 47 3 96zM65 289l25 71q43 -20 91 -20q70 0 70 48q0 28 -29 38q-16 6 -51 6h-49v69h38q30 0 49 7q29 12 29 40q0 39 -50 39q-37 0 -90 -22l-23 71
q73 29 136 29q61 0 95 -28t34 -72q0 -64 -66 -91v-2q38 -7 59 -30.5t21 -60.5q0 -52 -43.5 -85t-124.5 -33q-67 0 -121 26z" />
    <glyph glyph-name="questiondown" unicode="&#xbf;" horiz-adv-x="473" 
d="M268 347q-27 0 -46.5 20t-19.5 49t19.5 49t46.5 20q28 0 47.5 -20t19.5 -49t-19.5 -49t-47.5 -20zM369 -32l54 -77q-93 -80 -201 -80q-87 0 -134.5 41t-47.5 105q0 47 31 86t67.5 61t67.5 49.5t31 53.5q0 21 -13 40l101 37q31 -37 31 -84q0 -40 -29 -74t-63 -54t-63 -47
t-29 -55t18.5 -43t50.5 -15q63 0 128 56z" />
    <glyph glyph-name="Agrave" unicode="&#xc0;" horiz-adv-x="632" 
d="M8 0l255 662h96l265 -662h-130l-64 165h-235l-62 -165h-125zM230 263h163l-46 131q-21 59 -33 102h-2q-7 -26 -34 -103zM281 696l-97 147h130l58 -147h-91z" />
    <glyph glyph-name="Aacute" unicode="&#xc1;" horiz-adv-x="632" 
d="M8 0l255 662h96l265 -662h-130l-64 165h-235l-62 -165h-125zM230 263h163l-46 131q-21 59 -33 102h-2q-7 -26 -34 -103zM251 696l58 147h129l-96 -147h-91z" />
    <glyph glyph-name="Acircumflex" unicode="&#xc2;" horiz-adv-x="632" 
d="M8 0l255 662h96l265 -662h-130l-64 165h-235l-62 -165h-125zM230 263h163l-46 131q-21 59 -33 102h-2q-7 -26 -34 -103zM163 696l100 147h96l101 -147h-94l-55 79l-54 -79h-94z" />
    <glyph glyph-name="Atilde" unicode="&#xc3;" horiz-adv-x="632" 
d="M8 0l255 662h96l265 -662h-130l-64 165h-235l-62 -165h-125zM230 263h163l-46 131q-21 59 -33 102h-2q-7 -26 -34 -103zM155 720v39q0 39 23 61t59 22q32 0 75.5 -22t55.5 -22q14 0 18 8.5t4 29.5h78v-40q0 -39 -23 -60.5t-59 -21.5q-31 0 -75 21.5t-56 21.5
q-14 0 -18 -8.5t-4 -28.5h-78z" />
    <glyph glyph-name="Adieresis" unicode="&#xc4;" horiz-adv-x="632" 
d="M8 0l255 662h96l265 -662h-130l-64 165h-235l-62 -165h-125zM230 263h163l-46 131q-21 59 -33 102h-2q-7 -26 -34 -103zM216 701q-25 0 -43 18t-18 43t18 43.5t43 18.5q26 0 44 -18t18 -44q0 -25 -18 -43t-44 -18zM407 701q-25 0 -43 17.5t-18 43.5t18 44t43 18t43 -18.5
t18 -43.5t-18 -43t-43 -18z" />
    <glyph glyph-name="Aring" unicode="&#xc5;" horiz-adv-x="632" 
d="M8 0l252 653q-31 10 -49 34t-18 57q0 44 32.5 70.5t84.5 26.5t84.5 -26.5t32.5 -70.5q0 -67 -65 -89l262 -655h-130l-64 165h-235l-62 -165h-125zM230 263h163l-46 132q-24 66 -33 103h-2q-8 -31 -34 -104zM310 698q19 0 30 12t11 34q0 45 -41 45q-18 0 -29.5 -12
t-11.5 -33t11.5 -33.5t29.5 -12.5z" />
    <glyph glyph-name="AE" unicode="&#xc6;" horiz-adv-x="840" 
d="M7 0l356 659h418l-33 -102h-253l30 -172h224v-102h-207l31 -181h209v-102h-313l-28 165h-218l-89 -165h-127zM277 263h148l-23 154q-7 44 -11 77h-1q-5 -12 -39 -83z" />
    <glyph glyph-name="Ccedilla" unicode="&#xc7;" horiz-adv-x="627" 
d="M246 -201l17 55q24 -8 47 -8q49 0 49 32q0 20 -20 27t-61 7l26 86q-121 21 -186.5 108.5t-65.5 215.5q0 146 96 244.5t252 98.5q100 0 173 -32v-112q-81 43 -170 43q-105 0 -164 -68.5t-59 -170.5q0 -105 59.5 -169.5t159.5 -64.5q82 0 162 46l33 -95q-94 -52 -204 -52
l-13 -39q84 -7 84 -74q0 -40 -35.5 -64.5t-104.5 -24.5q-42 0 -75 11z" />
    <glyph glyph-name="Egrave" unicode="&#xc8;" horiz-adv-x="502" 
d="M80 0v659h364l-33 -102h-211v-172h211v-102h-211v-181h245v-102h-365zM216 696l-97 147h130l58 -147h-91z" />
    <glyph glyph-name="Eacute" unicode="&#xc9;" horiz-adv-x="502" 
d="M80 0v659h364l-33 -102h-211v-172h211v-102h-211v-181h245v-102h-365zM196 696l58 147h129l-96 -147h-91z" />
    <glyph glyph-name="Ecircumflex" unicode="&#xca;" horiz-adv-x="502" 
d="M80 0v659h364l-33 -102h-211v-172h211v-102h-211v-181h245v-102h-365zM107 696l100 147h96l101 -147h-94l-55 79l-54 -79h-94z" />
    <glyph glyph-name="Edieresis" unicode="&#xcb;" horiz-adv-x="502" 
d="M80 0v659h364l-33 -102h-211v-172h211v-102h-211v-181h245v-102h-365zM163 701q-25 0 -43 18t-18 43t18 43.5t43 18.5t43.5 -18t18.5 -44q0 -25 -18 -43t-44 -18zM354 701q-26 0 -43.5 17.5t-17.5 43.5t18 44t43 18t43 -18.5t18 -43.5t-18 -43t-43 -18z" />
    <glyph glyph-name="Igrave" unicode="&#xcc;" horiz-adv-x="280" 
d="M80 0v659h120v-659h-120zM109 696l-97 147h130l58 -147h-91z" />
    <glyph glyph-name="Iacute" unicode="&#xcd;" horiz-adv-x="280" 
d="M80 0v659h120v-659h-120zM76 696l58 147h129l-96 -147h-91z" />
    <glyph glyph-name="Icircumflex" unicode="&#xce;" horiz-adv-x="280" 
d="M80 0v659h120v-659h-120zM-9 696l100 147h96l101 -147h-94l-55 79l-54 -79h-94z" />
    <glyph glyph-name="Idieresis" unicode="&#xcf;" horiz-adv-x="280" 
d="M80 0v659h120v-659h-120zM44 701q-25 0 -43 18t-18 43t18 43.5t43 18.5q26 0 44 -18t18 -44q0 -25 -18 -43t-44 -18zM235 701q-25 0 -43 17.5t-18 43.5t18 44t43 18t43 -18.5t18 -43.5t-18 -43t-43 -18z" />
    <glyph glyph-name="Eth" unicode="&#xd0;" horiz-adv-x="696" 
d="M80 0v285h-72v98h72v276h205q172 0 266 -88t94 -237q0 -151 -100 -242.5t-271 -91.5h-194zM200 102h76q123 0 181.5 64.5t58.5 165.5q0 106 -62 165.5t-180 59.5h-74v-174h151v-98h-151v-183z" />
    <glyph glyph-name="Ntilde" unicode="&#xd1;" horiz-adv-x="749" 
d="M669 0h-109l-286 376q-10 13 -74 100h-2q2 -26 2 -102v-374h-120v659h119l276 -361q54 -73 73 -102h2q-2 70 -2 111v352h121v-659zM218 720v39q0 39 23 61t59 22q32 0 75.5 -22t55.5 -22q14 0 18 8.5t4 29.5h78v-40q0 -39 -23 -60.5t-59 -21.5q-31 0 -75 21.5t-56 21.5
q-14 0 -18 -8.5t-4 -28.5h-78z" />
    <glyph glyph-name="Ograve" unicode="&#xd2;" horiz-adv-x="768" 
d="M384 -10q-146 0 -239 93t-93 244q0 150 92.5 244t239.5 94q146 0 239 -94.5t93 -243.5q0 -150 -93.5 -243.5t-238.5 -93.5zM384 91q92 0 148 63t56 173q0 109 -55 173t-149 64q-93 0 -148.5 -63t-55.5 -174q0 -110 55.5 -173t148.5 -63zM345 696l-97 147h130l58 -147h-91
z" />
    <glyph glyph-name="Oacute" unicode="&#xd3;" horiz-adv-x="768" 
d="M384 -10q-146 0 -239 93t-93 244q0 150 92.5 244t239.5 94q146 0 239 -94.5t93 -243.5q0 -150 -93.5 -243.5t-238.5 -93.5zM384 91q92 0 148 63t56 173q0 109 -55 173t-149 64q-93 0 -148.5 -63t-55.5 -174q0 -110 55.5 -173t148.5 -63zM336 696l58 147h129l-96 -147h-91
z" />
    <glyph glyph-name="Ocircumflex" unicode="&#xd4;" horiz-adv-x="768" 
d="M384 -10q-146 0 -239 93t-93 244q0 150 92.5 244t239.5 94q146 0 239 -94.5t93 -243.5q0 -150 -93.5 -243.5t-238.5 -93.5zM384 91q92 0 148 63t56 173q0 109 -55 173t-149 64q-93 0 -148.5 -63t-55.5 -174q0 -110 55.5 -173t148.5 -63zM236 696l100 147h96l101 -147h-94
l-55 79l-54 -79h-94z" />
    <glyph glyph-name="Otilde" unicode="&#xd5;" horiz-adv-x="768" 
d="M384 -10q-146 0 -239 93t-93 244q0 150 92.5 244t239.5 94q146 0 239 -94.5t93 -243.5q0 -150 -93.5 -243.5t-238.5 -93.5zM384 91q92 0 148 63t56 173q0 109 -55 173t-149 64q-93 0 -148.5 -63t-55.5 -174q0 -110 55.5 -173t148.5 -63zM229 720v39q0 39 23 61t59 22
q32 0 75.5 -22t55.5 -22q14 0 18 8.5t4 29.5h78v-40q0 -39 -23 -60.5t-59 -21.5q-31 0 -75 21.5t-56 21.5q-14 0 -18 -8.5t-4 -28.5h-78z" />
    <glyph glyph-name="Odieresis" unicode="&#xd6;" horiz-adv-x="768" 
d="M384 -10q-146 0 -239 93t-93 244q0 150 92.5 244t239.5 94q146 0 239 -94.5t93 -243.5q0 -150 -93.5 -243.5t-238.5 -93.5zM384 91q92 0 148 63t56 173q0 109 -55 173t-149 64q-93 0 -148.5 -63t-55.5 -174q0 -110 55.5 -173t148.5 -63zM291 701q-25 0 -43 18t-18 43
t18 43.5t43 18.5t43.5 -18t18.5 -44q0 -25 -18 -43t-44 -18zM482 701q-26 0 -43.5 17.5t-17.5 43.5t18 44t43 18t43 -18.5t18 -43.5t-18 -43t-43 -18z" />
    <glyph glyph-name="multiply" unicode="&#xd7;" horiz-adv-x="595" 
d="M117 -5l-71 71l181 182l-182 182l71 71l182 -182l181 181l71 -71l-180 -181l180 -180l-71 -72l-181 181z" />
    <glyph glyph-name="Oslash" unicode="&#xd8;" horiz-adv-x="775" 
d="M152 -33l-75 56l59 72q-81 94 -81 232q0 150 93 244t239 94q97 0 172 -47l59 73l74 -56l-59 -73q87 -93 87 -235q0 -150 -93.5 -243.5t-239.5 -93.5q-101 0 -178 48zM559 468l-283 -345q46 -33 111 -33q93 0 150 63.5t57 173.5q0 83 -35 141zM212 192l282 342
q-47 31 -107 31q-92 0 -149 -63.5t-57 -174.5q0 -79 31 -135z" />
    <glyph glyph-name="Ugrave" unicode="&#xd9;" horiz-adv-x="696" 
d="M348 -10q-188 0 -248 128q-25 50 -25 128v413h120v-405q0 -53 18 -89q36 -74 135 -74t135 74q18 36 18 90v404h120v-413q0 -79 -25 -129q-61 -127 -248 -127zM312 696l-97 147h130l58 -147h-91z" />
    <glyph glyph-name="Uacute" unicode="&#xda;" horiz-adv-x="696" 
d="M348 -10q-188 0 -248 128q-25 50 -25 128v413h120v-405q0 -53 18 -89q36 -74 135 -74t135 74q18 36 18 90v404h120v-413q0 -79 -25 -129q-61 -127 -248 -127zM296 696l58 147h129l-96 -147h-91z" />
    <glyph glyph-name="Ucircumflex" unicode="&#xdb;" horiz-adv-x="696" 
d="M348 -10q-188 0 -248 128q-25 50 -25 128v413h120v-405q0 -53 18 -89q36 -74 135 -74t135 74q18 36 18 90v404h120v-413q0 -79 -25 -129q-61 -127 -248 -127zM202 696l100 147h96l101 -147h-94l-55 79l-54 -79h-94z" />
    <glyph glyph-name="Udieresis" unicode="&#xdc;" horiz-adv-x="696" 
d="M348 -10q-188 0 -248 128q-25 50 -25 128v413h120v-405q0 -53 18 -89q36 -74 135 -74t135 74q18 36 18 90v404h120v-413q0 -79 -25 -129q-61 -127 -248 -127zM256 701q-25 0 -43 18t-18 43t18 43.5t43 18.5q26 0 44 -18t18 -44q0 -25 -18 -43t-44 -18zM447 701
q-25 0 -43 17.5t-18 43.5t18 44t43 18t43 -18.5t18 -43.5t-18 -43t-43 -18z" />
    <glyph glyph-name="Yacute" unicode="&#xdd;" horiz-adv-x="586" 
d="M232 0v261l-225 398h132l154 -291h2l153 291h130l-225 -399v-260h-121zM234 696l58 147h129l-96 -147h-91z" />
    <glyph glyph-name="Thorn" unicode="&#xde;" horiz-adv-x="545" 
d="M80 0v659h120v-107h39q91 0 148 -28q107 -54 107 -188q0 -63 -30.5 -114.5t-95.5 -78.5q-55 -23 -140 -23h-28v-120h-120zM200 218h36q47 0 77 14q55 28 55 104q0 70 -52 100q-28 18 -82 18h-34v-236z" />
    <glyph glyph-name="germandbls" unicode="&#xdf;" horiz-adv-x="614" 
d="M55 -141v616q0 68 21 116.5t56.5 72.5t71 34t74.5 10q97 0 161.5 -57.5t64.5 -174.5q0 -17 -1 -25q-93 -21 -93 -71q0 -21 17.5 -39t43 -34t50.5 -35.5t42.5 -52t17.5 -74.5q0 -78 -55.5 -116.5t-134.5 -38.5q-93 0 -159 42l37 87q58 -35 116 -35q79 0 79 56
q0 23 -17.5 42.5t-43 35.5t-50.5 34t-42.5 46.5t-17.5 64.5q0 90 94 130q-1 53 -28 86t-79 33q-48 0 -77 -29.5t-29 -93.5v-630h-119z" />
    <glyph glyph-name="agrave" unicode="&#xe0;" horiz-adv-x="492" 
d="M344 0l-18 45q-60 -55 -136 -55q-68 0 -112.5 42t-44.5 109q0 88 80 129q46 24 122 27l81 3v15q0 79 -91 79q-62 0 -124 -33l-39 77q85 47 183 47q190 0 190 -172v-192q0 -89 9 -121h-100zM316 220l-64 -2q-45 -1 -69 -15q-29 -16 -29 -54q0 -31 19 -48t51 -17
q49 0 92 35v101zM216 531l-97 147h130l58 -147h-91z" />
    <glyph glyph-name="aacute" unicode="&#xe1;" horiz-adv-x="492" 
d="M344 0l-18 45q-60 -55 -136 -55q-68 0 -112.5 42t-44.5 109q0 88 80 129q46 24 122 27l81 3v15q0 79 -91 79q-62 0 -124 -33l-39 77q85 47 183 47q190 0 190 -172v-192q0 -89 9 -121h-100zM316 220l-64 -2q-45 -1 -69 -15q-29 -16 -29 -54q0 -31 19 -48t51 -17
q49 0 92 35v101zM186 531l58 147h129l-96 -147h-91z" />
    <glyph glyph-name="acircumflex" unicode="&#xe2;" horiz-adv-x="492" 
d="M344 0l-18 45q-60 -55 -136 -55q-68 0 -112.5 42t-44.5 109q0 88 80 129q46 24 122 27l81 3v15q0 79 -91 79q-62 0 -124 -33l-39 77q85 47 183 47q190 0 190 -172v-192q0 -89 9 -121h-100zM316 220l-64 -2q-45 -1 -69 -15q-29 -16 -29 -54q0 -31 19 -48t51 -17
q49 0 92 35v101zM98 531l100 147h96l101 -147h-94l-55 79l-54 -79h-94z" />
    <glyph glyph-name="atilde" unicode="&#xe3;" horiz-adv-x="492" 
d="M344 0l-18 45q-60 -55 -136 -55q-68 0 -112.5 42t-44.5 109q0 88 80 129q46 24 122 27l81 3v15q0 79 -91 79q-62 0 -124 -33l-39 77q85 47 183 47q190 0 190 -172v-192q0 -89 9 -121h-100zM316 220l-64 -2q-45 -1 -69 -15q-29 -16 -29 -54q0 -31 19 -48t51 -17
q49 0 92 35v101zM90 547v39q0 39 23 61t59 22q32 0 75.5 -22t55.5 -22q14 0 18 8.5t4 29.5h78v-39q0 -39 -23 -61t-59 -22q-31 0 -75 22t-56 22q-14 0 -18 -8.5t-4 -29.5h-78z" />
    <glyph glyph-name="adieresis" unicode="&#xe4;" horiz-adv-x="492" 
d="M344 0l-18 45q-60 -55 -136 -55q-68 0 -112.5 42t-44.5 109q0 88 80 129q46 24 122 27l81 3v15q0 79 -91 79q-62 0 -124 -33l-39 77q85 47 183 47q190 0 190 -172v-192q0 -89 9 -121h-100zM316 220l-64 -2q-45 -1 -69 -15q-29 -16 -29 -54q0 -31 19 -48t51 -17
q49 0 92 35v101zM151 544q-25 0 -43 18t-18 43q0 26 18 44t43 18q26 0 44 -18t18 -44q0 -25 -18 -43t-44 -18zM342 544q-26 0 -43.5 18t-17.5 43q0 26 17.5 44t43.5 18q25 0 43 -18t18 -44q0 -25 -18 -43t-43 -18z" />
    <glyph glyph-name="aring" unicode="&#xe5;" horiz-adv-x="492" 
d="M344 0l-18 45q-60 -55 -136 -55q-68 0 -112.5 42t-44.5 109q0 88 80 129q46 24 122 27l81 3v15q0 79 -91 79q-62 0 -124 -33l-39 77q85 47 183 47q190 0 190 -172v-192q0 -89 9 -121h-100zM316 220l-64 -2q-45 -1 -69 -15q-29 -16 -29 -54q0 -31 19 -48t51 -17
q49 0 92 35v101zM247 523q-52 0 -84.5 26t-32.5 71t32.5 71t84.5 26t84.5 -26t32.5 -71t-32.5 -71t-84.5 -26zM247 574q18 0 29.5 12.5t11.5 33.5t-11.5 33.5t-29.5 12.5q-19 0 -30 -12t-11 -34t11 -34t30 -12z" />
    <glyph glyph-name="ae" unicode="&#xe6;" horiz-adv-x="778" 
d="M199 -10q-74 0 -120 41t-46 110q0 78 56.5 114t144.5 36h89v24q0 40 -26 59.5t-70 19.5q-65 0 -126 -34l-39 78q85 47 181 47q108 0 147 -71h2q53 71 148 71q94 0 148 -66.5t54 -186.5v-24h-300q1 -58 36 -91t95 -33q63 0 120 32l35 -82q-71 -44 -166 -44q-122 0 -185 78
q-69 -78 -178 -78zM225 84q66 0 114 52q-11 31 -13 72h-84q-88 0 -88 -61q0 -30 19.5 -46.5t51.5 -16.5zM441 291h180q-2 43 -24 73t-65 30q-42 0 -65.5 -29.5t-25.5 -73.5z" />
    <glyph glyph-name="ccedilla" unicode="&#xe7;" horiz-adv-x="448" 
d="M144 -201l17 55q24 -8 47 -8q49 0 49 32q0 15 -12 22.5t-26.5 9t-42.5 2.5l26 86q-80 21 -123.5 84t-43.5 151q0 109 71.5 180.5t178.5 71.5q77 0 127 -32v-101q-51 37 -115 37q-65 0 -102.5 -43t-37.5 -110q0 -72 36 -111t98 -39q51 0 110 32l35 -82q-27 -19 -69 -32
t-78 -13h-1l-13 -40q84 -7 84 -74q0 -40 -35.5 -64.5t-104.5 -24.5q-42 0 -75 11z" />
    <glyph glyph-name="egrave" unicode="&#xe8;" horiz-adv-x="493" 
d="M459 204h-303q2 -55 38.5 -87.5t95.5 -32.5q62 0 119 32l36 -82q-71 -44 -167 -44q-121 0 -181.5 70.5t-60.5 175.5q0 109 57 179t156 70t154.5 -67.5t55.5 -185.5v-28zM155 287h183q-1 45 -24 76t-67 31q-42 0 -66.5 -31t-25.5 -76zM221 531l-97 147h130l58 -147h-91z
" />
    <glyph glyph-name="eacute" unicode="&#xe9;" horiz-adv-x="493" 
d="M459 204h-303q2 -55 38.5 -87.5t95.5 -32.5q62 0 119 32l36 -82q-71 -44 -167 -44q-121 0 -181.5 70.5t-60.5 175.5q0 109 57 179t156 70t154.5 -67.5t55.5 -185.5v-28zM155 287h183q-1 45 -24 76t-67 31q-42 0 -66.5 -31t-25.5 -76zM191 531l58 147h129l-96 -147h-91z
" />
    <glyph glyph-name="ecircumflex" unicode="&#xea;" horiz-adv-x="493" 
d="M459 204h-303q2 -55 38.5 -87.5t95.5 -32.5q62 0 119 32l36 -82q-71 -44 -167 -44q-121 0 -181.5 70.5t-60.5 175.5q0 109 57 179t156 70t154.5 -67.5t55.5 -185.5v-28zM155 287h183q-1 45 -24 76t-67 31q-42 0 -66.5 -31t-25.5 -76zM103 531l100 147h96l101 -147h-94
l-55 79l-54 -79h-94z" />
    <glyph glyph-name="edieresis" unicode="&#xeb;" horiz-adv-x="493" 
d="M459 204h-303q2 -55 38.5 -87.5t95.5 -32.5q62 0 119 32l36 -82q-71 -44 -167 -44q-121 0 -181.5 70.5t-60.5 175.5q0 109 57 179t156 70t154.5 -67.5t55.5 -185.5v-28zM155 287h183q-1 45 -24 76t-67 31q-42 0 -66.5 -31t-25.5 -76zM156 544q-25 0 -43 18t-18 43
q0 26 18 44t43 18q26 0 44 -18t18 -44q0 -25 -18 -43t-44 -18zM347 544q-25 0 -43 18t-18 43q0 26 17.5 44t43.5 18q25 0 43 -18t18 -44q0 -25 -18 -43t-43 -18z" />
    <glyph glyph-name="igrave" unicode="&#xec;" horiz-adv-x="238" 
d="M89 531l-97 147h130l58 -147h-91zM59 0v473h120v-473h-120z" />
    <glyph glyph-name="iacute" unicode="&#xed;" horiz-adv-x="238" 
d="M59 531l58 147h129l-96 -147h-91zM59 0v473h120v-473h-120z" />
    <glyph glyph-name="icircumflex" unicode="&#xee;" horiz-adv-x="238" 
d="M59 0v473h120v-473h-120zM-29 531l100 147h96l101 -147h-94l-55 79l-54 -79h-94z" />
    <glyph glyph-name="idieresis" unicode="&#xef;" horiz-adv-x="238" 
d="M24 544q-25 0 -43 18t-18 43q0 26 18 44t43 18q26 0 44 -18t18 -44q0 -25 -18 -43t-44 -18zM215 544q-25 0 -43 18t-18 43q0 26 17.5 44t43.5 18q25 0 43 -18t18 -44q0 -25 -18 -43t-43 -18zM59 0v473h120v-473h-120z" />
    <glyph glyph-name="eth" unicode="&#xf0;" horiz-adv-x="553" 
d="M477 654l-91 -41q121 -107 121 -320q0 -157 -66.5 -230t-172.5 -73q-103 0 -168 67.5t-65 173.5q0 110 57.5 178t157.5 68q48 0 89 -20t66 -51h2q-25 108 -114 160l-137 -63l-25 54l86 37q-42 16 -121 18l22 96q131 -4 215 -56l118 56zM272 85q55 0 84 40t29 109
q0 68 -31 108t-85 40q-55 0 -83.5 -41t-28.5 -109t30.5 -107.5t84.5 -39.5z" />
    <glyph glyph-name="ntilde" unicode="&#xf1;" horiz-adv-x="537" 
d="M55 0v473h102l12 -53q83 65 162 65q65 0 108.5 -39.5t43.5 -132.5v-313h-120v276q0 50 -15.5 77.5t-57.5 27.5q-56 0 -116 -50v-331h-119zM101 547v39q0 39 23 61t59 22q32 0 75.5 -22t55.5 -22q14 0 18 8.5t4 29.5h78v-39q0 -39 -23 -61t-59 -22q-31 0 -75 22t-56 22
q-14 0 -18 -8.5t-4 -29.5h-78z" />
    <glyph glyph-name="ograve" unicode="&#xf2;" 
d="M271 -10q-105 0 -170.5 70t-65.5 178q0 107 65.5 177t170.5 70t171 -70t66 -177t-66 -177.5t-171 -70.5zM271 86q55 0 84.5 42t29.5 110t-29.5 109.5t-84.5 41.5t-84.5 -41.5t-29.5 -109.5t29.5 -110t84.5 -42zM238 531l-97 147h130l58 -147h-91z" />
    <glyph glyph-name="oacute" unicode="&#xf3;" 
d="M271 -10q-105 0 -170.5 70t-65.5 178q0 107 65.5 177t170.5 70t171 -70t66 -177t-66 -177.5t-171 -70.5zM271 86q55 0 84.5 42t29.5 110t-29.5 109.5t-84.5 41.5t-84.5 -41.5t-29.5 -109.5t29.5 -110t84.5 -42zM214 531l58 147h129l-96 -147h-91z" />
    <glyph glyph-name="ocircumflex" unicode="&#xf4;" 
d="M271 -10q-105 0 -170.5 70t-65.5 178q0 107 65.5 177t170.5 70t171 -70t66 -177t-66 -177.5t-171 -70.5zM271 86q55 0 84.5 42t29.5 110t-29.5 109.5t-84.5 41.5t-84.5 -41.5t-29.5 -109.5t29.5 -110t84.5 -42zM122 531l100 147h96l101 -147h-94l-55 79l-54 -79h-94z" />
    <glyph glyph-name="otilde" unicode="&#xf5;" 
d="M271 -10q-105 0 -170.5 70t-65.5 178q0 107 65.5 177t170.5 70t171 -70t66 -177t-66 -177.5t-171 -70.5zM271 86q55 0 84.5 42t29.5 110t-29.5 109.5t-84.5 41.5t-84.5 -41.5t-29.5 -109.5t29.5 -110t84.5 -42zM114 547v39q0 39 23 61t59 22q32 0 75.5 -22t55.5 -22
q14 0 18 8.5t4 29.5h78v-39q0 -39 -23 -61t-59 -22q-31 0 -75 22t-56 22q-14 0 -18 -8.5t-4 -29.5h-78z" />
    <glyph glyph-name="odieresis" unicode="&#xf6;" 
d="M271 -10q-105 0 -170.5 70t-65.5 178q0 107 65.5 177t170.5 70t171 -70t66 -177t-66 -177.5t-171 -70.5zM271 86q55 0 84.5 42t29.5 110t-29.5 109.5t-84.5 41.5t-84.5 -41.5t-29.5 -109.5t29.5 -110t84.5 -42zM175 544q-25 0 -43 18t-18 43q0 26 18 44t43 18
q26 0 44 -18t18 -44q0 -25 -18 -43t-44 -18zM366 544q-26 0 -43.5 18t-17.5 43q0 26 17.5 44t43.5 18q25 0 43 -18t18 -44q0 -25 -18 -43t-43 -18z" />
    <glyph glyph-name="divide" unicode="&#xf7;" horiz-adv-x="550" 
d="M278 360q-25 0 -43 18t-18 44t18 44t43 18q26 0 43.5 -18t17.5 -44t-17.5 -44t-43.5 -18zM40 201v99h471v-99h-471zM278 16q-25 0 -43 18t-18 44t18 44t43 18q26 0 43.5 -18t17.5 -44t-17.5 -44t-43.5 -18z" />
    <glyph glyph-name="oslash" unicode="&#xf8;" 
d="M106 -27l-50 39l41 52q-62 70 -62 174q0 107 65.5 177t170.5 70q68 0 124 -35l37 48l51 -39l-38 -48q63 -71 63 -173q0 -107 -66 -177.5t-171 -70.5q-69 0 -125 35zM208 105q26 -21 63 -21q55 0 86 43t31 111q0 44 -14 80zM169 158l165 212q-27 21 -63 21q-55 0 -86 -43
t-31 -110q0 -47 15 -80z" />
    <glyph glyph-name="ugrave" unicode="&#xf9;" horiz-adv-x="535" 
d="M213 -10q-42 0 -82 21.5t-60 71.5q-16 38 -16 99v291h119v-279q0 -38 10 -59q18 -43 71 -43q59 0 97 42v339h120v-356q0 -88 8 -117h-102l-18 49q-66 -59 -147 -59zM233 531l-97 147h130l58 -147h-91z" />
    <glyph glyph-name="uacute" unicode="&#xfa;" horiz-adv-x="535" 
d="M213 -10q-42 0 -82 21.5t-60 71.5q-16 38 -16 99v291h119v-279q0 -38 10 -59q18 -43 71 -43q59 0 97 42v339h120v-356q0 -88 8 -117h-102l-18 49q-66 -59 -147 -59zM207 531l58 147h129l-96 -147h-91z" />
    <glyph glyph-name="ucircumflex" unicode="&#xfb;" horiz-adv-x="535" 
d="M213 -10q-42 0 -82 21.5t-60 71.5q-16 38 -16 99v291h119v-279q0 -38 10 -59q18 -43 71 -43q59 0 97 42v339h120v-356q0 -88 8 -117h-102l-18 49q-66 -59 -147 -59zM118 531l100 147h96l101 -147h-94l-55 79l-54 -79h-94z" />
    <glyph glyph-name="udieresis" unicode="&#xfc;" horiz-adv-x="535" 
d="M213 -10q-42 0 -82 21.5t-60 71.5q-16 38 -16 99v291h119v-279q0 -38 10 -59q18 -43 71 -43q59 0 97 42v339h120v-356q0 -88 8 -117h-102l-18 49q-66 -59 -147 -59zM171 544q-25 0 -43 18t-18 43q0 26 18 44t43 18q26 0 44 -18t18 -44q0 -25 -18 -43t-44 -18zM362 544
q-26 0 -43.5 18t-17.5 43q0 26 17.5 44t43.5 18q25 0 43 -18t18 -44q0 -25 -18 -43t-43 -18z" />
    <glyph glyph-name="yacute" unicode="&#xfd;" horiz-adv-x="518" 
d="M513 473l-181 -488q-27 -71 -55.5 -117.5t-60 -68t-58.5 -29t-64 -7.5q-56 0 -106 22l30 94q35 -19 71 -19q42 0 73.5 32.5t58.5 110.5l-213 470h127l140 -334h2l113 334h123zM207 531l58 147h129l-96 -147h-91z" />
    <glyph glyph-name="thorn" unicode="&#xfe;" horiz-adv-x="533" 
d="M61 -237v945h119v-231q32 8 75 8q116 0 180 -65.5t64 -175.5q0 -111 -67.5 -182.5t-180.5 -71.5q-35 0 -71 11v-238h-119zM180 101q28 -12 64 -12q64 0 98 40.5t34 110.5q0 72 -37.5 109.5t-101.5 37.5q-31 0 -57 -9v-277z" />
    <glyph glyph-name="ydieresis" unicode="&#xff;" horiz-adv-x="518" 
d="M513 473l-181 -488q-27 -71 -55.5 -117.5t-60 -68t-58.5 -29t-64 -7.5q-56 0 -106 22l30 94q35 -19 71 -19q42 0 73.5 32.5t58.5 110.5l-213 470h127l140 -334h2l113 334h123zM172 544q-25 0 -43 18t-18 43q0 26 18 44t43 18q26 0 44 -18t18 -44q0 -25 -18 -43t-44 -18z
M363 544q-25 0 -43 18t-18 43q0 26 17.5 44t43.5 18q25 0 43 -18t18 -44q0 -25 -18 -43t-43 -18z" />
    <glyph glyph-name="Amacron" unicode="&#x100;" horiz-adv-x="632" 
d="M8 0l255 662h96l265 -662h-130l-64 165h-235l-62 -165h-125zM230 263h163l-46 131q-21 59 -33 102h-2q-7 -26 -34 -103zM169 704v91h285v-91h-285z" />
    <glyph glyph-name="amacron" unicode="&#x101;" horiz-adv-x="492" 
d="M344 0l-18 45q-60 -55 -136 -55q-68 0 -112.5 42t-44.5 109q0 88 80 129q46 24 122 27l81 3v15q0 79 -91 79q-62 0 -124 -33l-39 77q85 47 183 47q190 0 190 -172v-192q0 -89 9 -121h-100zM316 220l-64 -2q-45 -1 -69 -15q-29 -16 -29 -54q0 -31 19 -48t51 -17
q49 0 92 35v101zM104 569v90h285v-90h-285z" />
    <glyph glyph-name="Abreve" unicode="&#x102;" horiz-adv-x="632" 
d="M8 0l255 662h96l265 -662h-130l-64 165h-235l-62 -165h-125zM230 263h163l-46 131q-21 59 -33 102h-2q-7 -26 -34 -103zM376 833h82q-4 -65 -44 -102.5t-103 -37.5t-102.5 37.5t-43.5 102.5h83q3 -30 19.5 -48t44.5 -18t44.5 18t19.5 48z" />
    <glyph glyph-name="abreve" unicode="&#x103;" horiz-adv-x="492" 
d="M344 0l-18 45q-60 -55 -136 -55q-68 0 -112.5 42t-44.5 109q0 88 80 129q46 24 122 27l81 3v15q0 79 -91 79q-62 0 -124 -33l-39 77q85 47 183 47q190 0 190 -172v-192q0 -89 9 -121h-100zM316 220l-64 -2q-45 -1 -69 -15q-29 -16 -29 -54q0 -31 19 -48t51 -17
q49 0 92 35v101zM311 680h82q-4 -65 -43.5 -102t-103.5 -37q-63 0 -102.5 37t-43.5 102h83q3 -30 19.5 -47.5t44.5 -17.5t44.5 17.5t19.5 47.5z" />
    <glyph glyph-name="Aogonek" unicode="&#x104;" horiz-adv-x="632" 
d="M8 0l255 662h96l265 -662q-57 -16 -90.5 -47t-33.5 -62q0 -35 34 -35q16 0 37 6l13 -64q-40 -12 -79 -12q-49 0 -76.5 23t-27.5 62q0 69 92 132l-63 162h-235l-62 -165h-125zM230 263h163l-46 131q-21 59 -33 102h-2q-7 -26 -34 -103z" />
    <glyph glyph-name="aogonek" unicode="&#x105;" horiz-adv-x="492" 
d="M444 -1q-97 -47 -97 -108q0 -35 35 -35q15 0 36 6l14 -64q-42 -12 -79 -12q-50 0 -77.5 23t-27.5 62q0 70 94 133l-16 41q-60 -55 -136 -55q-68 0 -112.5 42t-44.5 109q0 88 80 129q46 24 122 27l81 3v15q0 79 -91 79q-62 0 -124 -33l-39 77q85 47 183 47q190 0 190 -172
v-196q0 -86 9 -118zM224 84q49 0 92 35v101l-64 -2q-45 -1 -69 -15q-29 -16 -29 -54q0 -31 19 -48t51 -17z" />
    <glyph glyph-name="Cacute" unicode="&#x106;" horiz-adv-x="627" 
d="M561 137l33 -95q-95 -52 -209 -52q-158 0 -245.5 91.5t-87.5 240.5q0 146 96 244.5t252 98.5q100 0 173 -32v-112q-81 43 -170 43q-105 0 -164 -68.5t-59 -170.5q0 -105 59.5 -169.5t159.5 -64.5q82 0 162 46zM288 696l58 147h129l-96 -147h-91z" />
    <glyph glyph-name="cacute" unicode="&#x107;" horiz-adv-x="448" 
d="M274 -10q-112 0 -175.5 68.5t-63.5 174.5q0 109 71.5 180.5t178.5 71.5q77 0 127 -32v-101q-51 37 -115 37q-65 0 -102.5 -43t-37.5 -110q0 -72 36 -111t98 -39q51 0 110 32l35 -82q-67 -46 -162 -46zM193 531l58 147h129l-96 -147h-91z" />
    <glyph glyph-name="Ccircumflex" unicode="&#x108;" horiz-adv-x="627" 
d="M561 137l33 -95q-95 -52 -209 -52q-158 0 -245.5 91.5t-87.5 240.5q0 146 96 244.5t252 98.5q100 0 173 -32v-112q-81 43 -170 43q-105 0 -164 -68.5t-59 -170.5q0 -105 59.5 -169.5t159.5 -64.5q82 0 162 46zM202 696l100 147h96l101 -147h-94l-55 79l-54 -79h-94z" />
    <glyph glyph-name="ccircumflex" unicode="&#x109;" horiz-adv-x="448" 
d="M274 -10q-112 0 -175.5 68.5t-63.5 174.5q0 109 71.5 180.5t178.5 71.5q77 0 127 -32v-101q-51 37 -115 37q-65 0 -102.5 -43t-37.5 -110q0 -72 36 -111t98 -39q51 0 110 32l35 -82q-67 -46 -162 -46zM105 531l100 147h96l101 -147h-94l-55 79l-54 -79h-94z" />
    <glyph glyph-name="Cdotaccent" unicode="&#x10a;" horiz-adv-x="627" 
d="M561 137l33 -95q-95 -52 -209 -52q-158 0 -245.5 91.5t-87.5 240.5q0 146 96 244.5t252 98.5q100 0 173 -32v-112q-81 43 -170 43q-105 0 -164 -68.5t-59 -170.5q0 -105 59.5 -169.5t159.5 -64.5q82 0 162 46zM365 705q-31 0 -52.5 21t-21.5 51q0 29 21.5 50t52.5 21
q32 0 52.5 -20t20.5 -51q0 -30 -21 -51t-52 -21z" />
    <glyph glyph-name="cdotaccent" unicode="&#x10b;" horiz-adv-x="448" 
d="M274 -10q-112 0 -175.5 68.5t-63.5 174.5q0 109 71.5 180.5t178.5 71.5q77 0 127 -32v-101q-51 37 -115 37q-65 0 -102.5 -43t-37.5 -110q0 -72 36 -111t98 -39q51 0 110 32l35 -82q-67 -46 -162 -46zM254 550q-31 0 -52.5 20.5t-21.5 50.5t21.5 51t52.5 21t52 -20.5
t21 -51.5q0 -30 -21 -50.5t-52 -20.5z" />
    <glyph glyph-name="Ccaron" unicode="&#x10c;" horiz-adv-x="627" 
d="M561 137l33 -95q-95 -52 -209 -52q-158 0 -245.5 91.5t-87.5 240.5q0 146 96 244.5t252 98.5q100 0 173 -32v-112q-81 43 -170 43q-105 0 -164 -68.5t-59 -170.5q0 -105 59.5 -169.5t159.5 -64.5q82 0 162 46zM303 696l-101 147h95l55 -79l54 79h93l-100 -147h-96z" />
    <glyph glyph-name="ccaron" unicode="&#x10d;" horiz-adv-x="448" 
d="M274 -10q-112 0 -175.5 68.5t-63.5 174.5q0 109 71.5 180.5t178.5 71.5q77 0 127 -32v-101q-51 37 -115 37q-65 0 -102.5 -43t-37.5 -110q0 -72 36 -111t98 -39q51 0 110 32l35 -82q-67 -46 -162 -46zM206 531l-101 147h95l55 -78l54 78h93l-100 -147h-96z" />
    <glyph glyph-name="Dcaron" unicode="&#x10e;" horiz-adv-x="696" 
d="M80 0v659h205q172 0 266 -88t94 -237q0 -151 -100 -242.5t-271 -91.5h-194zM200 102h76q123 0 181.5 64.5t58.5 165.5q0 106 -62 165.5t-180 59.5h-74v-455zM253 696l-101 147h95l55 -79l54 79h93l-100 -147h-96z" />
    <glyph glyph-name="dcaron" unicode="&#x10f;" horiz-adv-x="545" 
d="M304 -10q-119 0 -194 64t-75 178q0 112 73 182.5t186 70.5q36 0 64 -6v229h120v-683q-72 -35 -174 -35zM302 89q35 0 56 8v283q-32 7 -57 7q-64 0 -104 -41t-40 -112q0 -68 39.5 -106.5t105.5 -38.5zM513 513l36 196h118l-64 -196h-90z" />
    <glyph glyph-name="Dcroat" unicode="&#x110;" horiz-adv-x="696" 
d="M80 0v285h-72v98h72v276h205q172 0 266 -88t94 -237q0 -151 -100 -242.5t-271 -91.5h-194zM200 102h76q123 0 181.5 64.5t58.5 165.5q0 106 -62 165.5t-180 59.5h-74v-174h151v-98h-151v-183z" />
    <glyph glyph-name="dcroat" unicode="&#x111;" horiz-adv-x="545" 
d="M292 -10q-111 0 -184 64t-73 179q0 112 73.5 181.5t188.5 69.5q36 0 61 -5v72h-134v88h134v69h120v-69h56v-88h-56v-523q-74 -38 -186 -38zM300 89q32 0 58 8v286q-25 7 -57 7q-66 0 -106.5 -40t-40.5 -111q0 -66 40.5 -108t105.5 -42z" />
    <glyph glyph-name="Emacron" unicode="&#x112;" horiz-adv-x="502" 
d="M80 0v659h364l-33 -102h-211v-172h211v-102h-211v-181h245v-102h-365zM116 704v91h285v-91h-285z" />
    <glyph glyph-name="emacron" unicode="&#x113;" horiz-adv-x="493" 
d="M459 204h-303q2 -55 38.5 -87.5t95.5 -32.5q62 0 119 32l36 -82q-71 -44 -167 -44q-121 0 -181.5 70.5t-60.5 175.5q0 109 57 179t156 70t154.5 -67.5t55.5 -185.5v-28zM155 287h183q-1 45 -24 76t-67 31q-42 0 -66.5 -31t-25.5 -76zM109 569v90h285v-90h-285z" />
    <glyph glyph-name="Ebreve" unicode="&#x114;" horiz-adv-x="502" 
d="M80 0v659h364l-33 -102h-211v-172h211v-102h-211v-181h245v-102h-365zM317 833h82q-4 -65 -44 -102.5t-103 -37.5t-102.5 37.5t-43.5 102.5h83q3 -30 19.5 -48t44.5 -18t44.5 18t19.5 48z" />
    <glyph glyph-name="ebreve" unicode="&#x115;" horiz-adv-x="493" 
d="M459 204h-303q2 -55 38.5 -87.5t95.5 -32.5q62 0 119 32l36 -82q-71 -44 -167 -44q-121 0 -181.5 70.5t-60.5 175.5q0 109 57 179t156 70t154.5 -67.5t55.5 -185.5v-28zM155 287h183q-1 45 -24 76t-67 31q-42 0 -66.5 -31t-25.5 -76zM316 680h82q-4 -65 -43.5 -102
t-103.5 -37q-63 0 -102.5 37t-43.5 102h83q3 -30 19.5 -47.5t44.5 -17.5t44.5 17.5t19.5 47.5z" />
    <glyph glyph-name="Edotaccent" unicode="&#x116;" horiz-adv-x="502" 
d="M80 0v659h364l-33 -102h-211v-172h211v-102h-211v-181h245v-102h-365zM252 705q-31 0 -52.5 21t-21.5 51q0 29 21.5 50t52.5 21q32 0 52.5 -20t20.5 -51q0 -30 -21 -51t-52 -21z" />
    <glyph glyph-name="edotaccent" unicode="&#x117;" horiz-adv-x="493" 
d="M459 204h-303q2 -55 38.5 -87.5t95.5 -32.5q62 0 119 32l36 -82q-71 -44 -167 -44q-121 0 -181.5 70.5t-60.5 175.5q0 109 57 179t156 70t154.5 -67.5t55.5 -185.5v-28zM155 287h183q-1 45 -24 76t-67 31q-42 0 -66.5 -31t-25.5 -76zM252 550q-31 0 -52.5 20.5
t-21.5 50.5t21.5 51t52.5 21t52 -20.5t21 -51.5q0 -30 -21 -50.5t-52 -20.5z" />
    <glyph glyph-name="Eogonek" unicode="&#x118;" horiz-adv-x="502" 
d="M80 0v659h364l-33 -102h-211v-172h211v-102h-211v-181h245v-102h-20q-46 -22 -73.5 -50.5t-27.5 -58.5q0 -35 35 -35q15 0 37 6l13 -64q-42 -12 -79 -12q-50 0 -77.5 23t-27.5 62q0 68 88 129h-233z" />
    <glyph glyph-name="eogonek" unicode="&#x119;" horiz-adv-x="493" 
d="M205 -129q0 66 73 118v2q-4 -1 -14 -1q-115 4 -172 73.5t-57 172.5q0 109 57 179t156 70t154.5 -67.5t55.5 -185.5v-28h-303q2 -55 38 -87.5t95 -32.5q63 0 120 32l36 -82q-57 -30 -99 -67.5t-42 -75.5q0 -35 35 -35q16 0 37 6l13 -64q-41 -12 -79 -12q-49 0 -76.5 23
t-27.5 62zM154 287h183q-2 45 -24.5 76t-66.5 31q-43 0 -67.5 -31t-24.5 -76z" />
    <glyph glyph-name="Ecaron" unicode="&#x11a;" horiz-adv-x="502" 
d="M80 0v659h364l-33 -102h-211v-172h211v-102h-211v-181h245v-102h-365zM209 696l-101 147h95l55 -79l54 79h93l-100 -147h-96z" />
    <glyph glyph-name="ecaron" unicode="&#x11b;" horiz-adv-x="493" 
d="M459 204h-303q2 -55 38.5 -87.5t95.5 -32.5q62 0 119 32l36 -82q-71 -44 -167 -44q-121 0 -181.5 70.5t-60.5 175.5q0 109 57 179t156 70t154.5 -67.5t55.5 -185.5v-28zM155 287h183q-1 45 -24 76t-67 31q-42 0 -66.5 -31t-25.5 -76zM204 531l-101 147h95l55 -78l54 78
h93l-100 -147h-96z" />
    <glyph glyph-name="Gcircumflex" unicode="&#x11c;" horiz-adv-x="708" 
d="M636 320v-277q-106 -53 -240 -53q-159 0 -251.5 91.5t-92.5 236.5q0 152 100 249.5t262 97.5q99 0 191 -33v-112q-88 44 -182 44q-116 0 -179.5 -65t-63.5 -173t60 -171.5t165 -63.5q67 0 110 20v209h121zM227 696l100 147h96l101 -147h-94l-55 79l-54 -79h-94z" />
    <glyph glyph-name="gcircumflex" unicode="&#x11d;" horiz-adv-x="504" 
d="M234 -237q-103 0 -161.5 38t-58.5 101q0 38 23.5 68t61.5 46q-31 19 -31 59q0 50 57 89q-37 22 -58 61t-21 86q0 71 51 122.5t142 51.5q58 0 94 -21q6 -2 12 2q41 41 114 41q18 0 32 -2l-24 -86q-18 5 -35 5q-22 0 -35 -8q42 -45 42 -112q0 -79 -54.5 -127t-141.5 -48
q-32 0 -58 8q-12 -20 -12 -35q0 -20 23 -31t57.5 -14.5t75 -11.5t75 -19t57.5 -38t23 -69q0 -68 -66 -112t-184 -44zM250 -153q54 0 87 16.5t33 42.5q0 30 -36.5 43.5t-95 20.5t-79.5 15q-38 -28 -38 -62q0 -35 35 -55.5t94 -20.5zM242 219q37 0 60.5 23t23.5 64
q0 37 -23.5 63t-61.5 26q-36 0 -59 -23t-23 -65q0 -37 22.5 -62.5t60.5 -25.5zM95 531l100 147h96l101 -147h-94l-55 79l-54 -79h-94z" />
    <glyph glyph-name="Gbreve" unicode="&#x11e;" horiz-adv-x="708" 
d="M636 320v-277q-106 -53 -240 -53q-159 0 -251.5 91.5t-92.5 236.5q0 152 100 249.5t262 97.5q99 0 191 -33v-112q-88 44 -182 44q-116 0 -179.5 -65t-63.5 -173t60 -171.5t165 -63.5q67 0 110 20v209h121zM433 833h82q-4 -65 -44 -102.5t-103 -37.5t-102.5 37.5
t-43.5 102.5h83q3 -30 19.5 -48t44.5 -18t44.5 18t19.5 48z" />
    <glyph glyph-name="gbreve" unicode="&#x11f;" horiz-adv-x="504" 
d="M234 -237q-103 0 -161.5 38t-58.5 101q0 38 23.5 68t61.5 46q-31 19 -31 59q0 50 57 89q-37 22 -58 61t-21 86q0 71 51 122.5t142 51.5q58 0 94 -21q6 -2 12 2q41 41 114 41q18 0 32 -2l-24 -86q-18 5 -35 5q-22 0 -35 -8q42 -45 42 -112q0 -79 -54.5 -127t-141.5 -48
q-32 0 -58 8q-12 -20 -12 -35q0 -20 23 -31t57.5 -14.5t75 -11.5t75 -19t57.5 -38t23 -69q0 -68 -66 -112t-184 -44zM250 -153q54 0 87 16.5t33 42.5q0 30 -36.5 43.5t-95 20.5t-79.5 15q-38 -28 -38 -62q0 -35 35 -55.5t94 -20.5zM242 219q37 0 60.5 23t23.5 64
q0 37 -23.5 63t-61.5 26q-36 0 -59 -23t-23 -65q0 -37 22.5 -62.5t60.5 -25.5zM308 680h82q-4 -65 -43.5 -102t-103.5 -37q-63 0 -102.5 37t-43.5 102h83q3 -30 19.5 -47.5t44.5 -17.5t44.5 17.5t19.5 47.5z" />
    <glyph glyph-name="Gdotaccent" unicode="&#x120;" horiz-adv-x="708" 
d="M636 320v-277q-106 -53 -240 -53q-159 0 -251.5 91.5t-92.5 236.5q0 152 100 249.5t262 97.5q99 0 191 -33v-112q-88 44 -182 44q-116 0 -179.5 -65t-63.5 -173t60 -171.5t165 -63.5q67 0 110 20v209h121zM375 705q-31 0 -52.5 21t-21.5 51q0 29 21.5 50t52.5 21
q32 0 52.5 -20t20.5 -51q0 -30 -21 -51t-52 -21z" />
    <glyph glyph-name="gdotaccent" unicode="&#x121;" horiz-adv-x="504" 
d="M234 -237q-103 0 -161.5 38t-58.5 101q0 38 23.5 68t61.5 46q-31 19 -31 59q0 50 57 89q-37 22 -58 61t-21 86q0 71 51 122.5t142 51.5q58 0 94 -21q6 -2 12 2q41 41 114 41q18 0 32 -2l-24 -86q-18 5 -35 5q-22 0 -35 -8q42 -45 42 -112q0 -79 -54.5 -127t-141.5 -48
q-32 0 -58 8q-12 -20 -12 -35q0 -20 23 -31t57.5 -14.5t75 -11.5t75 -19t57.5 -38t23 -69q0 -68 -66 -112t-184 -44zM250 -153q54 0 87 16.5t33 42.5q0 30 -36.5 43.5t-95 20.5t-79.5 15q-38 -28 -38 -62q0 -35 35 -55.5t94 -20.5zM242 219q37 0 60.5 23t23.5 64
q0 37 -23.5 63t-61.5 26q-36 0 -59 -23t-23 -65q0 -37 22.5 -62.5t60.5 -25.5zM244 550q-31 0 -52.5 20.5t-21.5 50.5t21.5 51t52.5 21t52 -20.5t21 -51.5q0 -30 -21 -50.5t-52 -20.5z" />
    <glyph glyph-name="Gcommaaccent" unicode="&#x122;" horiz-adv-x="705" 
d="M633 320v-277q-106 -53 -240 -53q-159 0 -251.5 91.5t-92.5 236.5q0 152 100 249.5t262 97.5q99 0 191 -33v-112q-88 44 -182 44q-116 0 -179.5 -65t-63.5 -173t60 -171.5t165 -63.5q67 0 110 20v209h121zM298 -237l-29 72q74 15 74 61q0 25 -20 52h102q23 -34 23 -72
q0 -95 -150 -113z" />
    <glyph glyph-name="gcommaaccent" unicode="&#x123;" horiz-adv-x="504" 
d="M291 531h-102q-23 34 -23 72q0 95 150 113l28 -72q-73 -15 -73 -61q0 -25 20 -52zM234 -237q-103 0 -161.5 38t-58.5 101q0 38 23.5 68t61.5 46q-31 19 -31 59q0 50 57 89q-37 22 -58 61t-21 86q0 71 51 122.5t142 51.5q58 0 94 -21q6 -2 12 2q41 41 114 41q18 0 32 -2
l-24 -86q-18 5 -35 5q-22 0 -35 -8q42 -45 42 -112q0 -79 -54.5 -127t-141.5 -48q-32 0 -58 8q-12 -20 -12 -35q0 -20 23 -31t57.5 -14.5t75 -11.5t75 -19t57.5 -38t23 -69q0 -68 -66 -112t-184 -44zM250 -153q54 0 87 16.5t33 42.5q0 30 -36.5 43.5t-95 20.5t-79.5 15
q-38 -28 -38 -62q0 -35 35 -55.5t94 -20.5zM242 219q37 0 60.5 23t23.5 64q0 37 -23.5 63t-61.5 26q-36 0 -59 -23t-23 -65q0 -37 22.5 -62.5t60.5 -25.5z" />
    <glyph glyph-name="Hcircumflex" unicode="&#x124;" horiz-adv-x="715" 
d="M80 0v659h120v-272h315v272h121v-659h-121v285h-315v-285h-120zM210 696l100 147h96l101 -147h-94l-55 79l-54 -79h-94z" />
    <glyph glyph-name="hcircumflex" unicode="&#x125;" horiz-adv-x="543" 
d="M62 0v708h119v-287q76 64 157 64q65 0 108 -39.5t43 -132.5v-313h-119v276q0 50 -15.5 77.5t-57.5 27.5q-56 0 -116 -50v-331h-119zM-27 726l100 147h96l101 -147h-94l-55 79l-54 -79h-94z" />
    <glyph glyph-name="Hbar" unicode="&#x126;" horiz-adv-x="715" 
d="M80 0v477h-66v92h66v90h120v-90h315v90h121v-90h65v-92h-65v-477h-121v285h-315v-285h-120zM200 387h315v90h-315v-90z" />
    <glyph glyph-name="hbar" unicode="&#x127;" horiz-adv-x="537" 
d="M55 0v544h-57v91h57v73h119v-73h126v-91h-126v-123q78 64 157 64q65 0 108.5 -39.5t43.5 -132.5v-313h-120v276q0 50 -15.5 77.5t-57.5 27.5q-56 0 -116 -50v-331h-119z" />
    <glyph glyph-name="Itilde" unicode="&#x128;" horiz-adv-x="280" 
d="M80 0v659h120v-659h-120zM-17 720v39q0 39 23 61t59 22q32 0 75.5 -22t55.5 -22q14 0 18 8.5t4 29.5h78v-40q0 -39 -23 -60.5t-59 -21.5q-31 0 -75 21.5t-56 21.5q-14 0 -18 -8.5t-4 -28.5h-78z" />
    <glyph glyph-name="itilde" unicode="&#x129;" horiz-adv-x="238" 
d="M-37 547v39q0 39 23 61t59 22q32 0 75.5 -22t55.5 -22q14 0 18 8.5t4 29.5h78v-39q0 -39 -23 -61t-59 -22q-31 0 -75 22t-56 22q-14 0 -18 -8.5t-4 -29.5h-78zM59 0v473h120v-473h-120z" />
    <glyph glyph-name="imacron" unicode="&#x12b;" horiz-adv-x="238" 
d="M-23 569v90h285v-90h-285zM59 0v473h120v-473h-120z" />
    <glyph glyph-name="Ibreve" unicode="&#x12c;" horiz-adv-x="280" 
d="M80 0v659h120v-659h-120zM203 833h82q-4 -65 -44 -102.5t-103 -37.5t-102.5 37.5t-43.5 102.5h83q3 -30 19.5 -48t44.5 -18t44.5 18t19.5 48z" />
    <glyph glyph-name="Iogonek" unicode="&#x12e;" horiz-adv-x="280" 
d="M80 3v656h120v-659q-87 -45 -87 -107q0 -37 36 -37q15 0 36 6l13 -64q-39 -12 -76 -12q-51 0 -79 24t-28 68q0 69 65 125z" />
    <glyph glyph-name="iogonek" unicode="&#x12f;" horiz-adv-x="238" 
d="M-6 -122q0 67 65 125v470h120v-473q-41 -22 -63.5 -50t-22.5 -57q0 -37 35 -37q16 0 37 6l13 -64q-39 -12 -77 -12q-51 0 -79 24t-28 68zM119 550q-31 0 -52 20.5t-21 50.5t21 51t52 21q32 0 53 -20.5t21 -51.5q0 -29 -21.5 -50t-52.5 -21z" />
    <glyph glyph-name="Idotaccent" unicode="&#x130;" horiz-adv-x="280" 
d="M80 0v659h120v-659h-120zM141 705q-31 0 -52.5 21t-21.5 51q0 29 21.5 50t52.5 21q32 0 52.5 -20t20.5 -51q0 -30 -21 -51t-52 -21z" />
    <glyph glyph-name="dotlessi" unicode="&#x131;" horiz-adv-x="238" 
d="M59 0v473h120v-473h-120z" />
    <glyph glyph-name="IJ" unicode="&#x132;" horiz-adv-x="609" 
d="M80 0v659h120v-659h-120zM249 -169l24 97q24 -12 60 -12q46 0 61 25t15 72v646h120v-662q0 -83 -46 -132.5t-140 -49.5q-52 0 -94 16z" />
    <glyph glyph-name="ij" unicode="&#x133;" horiz-adv-x="490" 
d="M59 0v473h120v-473h-120zM119 550q-31 0 -52 20.5t-21 50.5t21 51t52 21q32 0 53 -20.5t21 -51.5q0 -29 -21.5 -50t-52.5 -21zM177 -220l22 98q23 -11 51 -11q33 0 47 19t14 62v525h120v-543q0 -79 -43.5 -123t-119.5 -44q-52 0 -91 17zM371 550q-31 0 -52 20.5t-21 50.5
t21 51t52 21q32 0 53 -20.5t21 -51.5q0 -29 -21.5 -50t-52.5 -21z" />
    <glyph glyph-name="Jcircumflex" unicode="&#x134;" horiz-adv-x="329" 
d="M-31 -169l24 97q24 -12 60 -12q46 0 61 25t15 72v646h120v-662q0 -83 -46 -132.5t-140 -49.5q-52 0 -94 16zM38 696l100 147h96l101 -147h-94l-55 79l-54 -79h-94z" />
    <glyph glyph-name="jcircumflex" unicode="&#x135;" horiz-adv-x="252" 
d="M-61 -215l22 85q34 -12 53 -12q35 0 47 22.5t12 66.5v526h120v-537q0 -86 -45.5 -129t-107.5 -43q-53 0 -101 21zM-22 531l99 147h96l101 -147h-94l-55 79l-54 -79h-93z" />
    <glyph glyph-name="Kcommaaccent" unicode="&#x136;" horiz-adv-x="599" 
d="M80 0v659h120v-281h3l226 281h139l-265 -320l280 -339h-147l-233 289h-3v-289h-120zM212 -237l-29 72q74 15 74 61q0 25 -20 52h102q23 -34 23 -72q0 -95 -150 -113z" />
    <glyph glyph-name="kcommaaccent" unicode="&#x137;" horiz-adv-x="493" 
d="M61 0v708h119v-399h2l155 164h136l-194 -206l210 -267h-139l-168 219h-2v-219h-119zM165 -237l-29 72q74 15 74 61q0 25 -20 52h102q23 -34 23 -72q0 -95 -150 -113z" />
    <glyph glyph-name="Lacute" unicode="&#x139;" horiz-adv-x="452" 
d="M80 0v659h120v-557h234v-102h-354zM86 696l58 147h129l-96 -147h-91z" />
    <glyph glyph-name="lacute" unicode="&#x13a;" horiz-adv-x="285" 
d="M64 732l50 127h125l-83 -127h-92zM61 107v601h119v-569q0 -43 35 -43q15 0 30 6l23 -92q-40 -17 -88 -17q-119 0 -119 114z" />
    <glyph glyph-name="Lcommaaccent" unicode="&#x13b;" horiz-adv-x="452" 
d="M80 0v659h120v-557h234v-102h-354zM170 -237l-29 72q74 15 74 61q0 25 -20 52h102q23 -34 23 -72q0 -95 -150 -113z" />
    <glyph glyph-name="lcommaaccent" unicode="&#x13c;" horiz-adv-x="285" 
d="M56 107v601h119v-569q0 -43 35 -43q15 0 30 6l23 -92q-40 -17 -88 -17q-119 0 -119 114zM76 -237l-29 72q74 15 74 61q0 25 -20 52h102q23 -34 23 -72q0 -95 -150 -113z" />
    <glyph glyph-name="Lcaron" unicode="&#x13d;" horiz-adv-x="452" 
d="M80 0v659h120v-557h234v-102h-354zM269 513l36 196h118l-64 -196h-90z" />
    <glyph glyph-name="lcaron" unicode="&#x13e;" horiz-adv-x="285" 
d="M61 107v601h119v-569q0 -43 35 -43q15 0 30 6l23 -92q-40 -17 -88 -17q-119 0 -119 114zM215 513l36 196h118l-64 -196h-90z" />
    <glyph glyph-name="Ldot" unicode="&#x13f;" horiz-adv-x="452" 
d="M80 0v659h120v-557h234v-102h-354zM362 283q-27 0 -46.5 20t-19.5 49t19.5 48.5t46.5 19.5q28 0 47.5 -19.5t19.5 -48.5t-19.5 -49t-47.5 -20z" />
    <glyph glyph-name="ldot" unicode="&#x140;" horiz-adv-x="332" 
d="M61 107v601h119v-569q0 -43 35 -43q15 0 30 6l23 -92q-40 -17 -88 -17q-119 0 -119 114zM286 275q-27 0 -46.5 20t-19.5 49t19.5 48.5t46.5 19.5q28 0 47.5 -19.5t19.5 -48.5t-19.5 -49t-47.5 -20z" />
    <glyph glyph-name="Lslash" unicode="&#x141;" horiz-adv-x="453" 
d="M20 184v111l60 36v328h121v-258l138 83v-111l-138 -83v-188h234v-102h-355v219z" />
    <glyph glyph-name="lslash" unicode="&#x142;" horiz-adv-x="313" 
d="M26 224v112l62 38v334h120v-263l69 39v-111l-69 -41v-193q0 -24 8.5 -33t26.5 -9q15 0 29 6l24 -93q-40 -17 -89 -17q-119 0 -119 114v154z" />
    <glyph glyph-name="Nacute" unicode="&#x143;" horiz-adv-x="749" 
d="M669 0h-109l-286 376q-10 13 -74 100h-2q2 -26 2 -102v-374h-120v659h119l276 -361q54 -73 73 -102h2q-2 70 -2 111v352h121v-659zM319 696l58 147h129l-96 -147h-91z" />
    <glyph glyph-name="nacute" unicode="&#x144;" horiz-adv-x="537" 
d="M55 0v473h102l12 -53q83 65 162 65q65 0 108.5 -39.5t43.5 -132.5v-313h-120v276q0 50 -15.5 77.5t-57.5 27.5q-56 0 -116 -50v-331h-119zM197 531l58 147h129l-96 -147h-91z" />
    <glyph glyph-name="Ncommaaccent" unicode="&#x145;" horiz-adv-x="749" 
d="M669 0h-109l-286 376q-10 13 -74 100h-2q2 -26 2 -102v-374h-120v659h119l276 -361q54 -73 73 -102h2q-2 70 -2 111v352h121v-659zM301 -237l-29 72q74 15 74 61q0 25 -20 52h102q23 -34 23 -72q0 -95 -150 -113z" />
    <glyph glyph-name="ncommaaccent" unicode="&#x146;" horiz-adv-x="537" 
d="M55 0v473h102l12 -53q83 65 162 65q65 0 108.5 -39.5t43.5 -132.5v-313h-120v276q0 50 -15.5 77.5t-57.5 27.5q-56 0 -116 -50v-331h-119zM182 -237l-29 72q74 15 74 61q0 25 -20 52h102q23 -34 23 -72q0 -95 -150 -113z" />
    <glyph glyph-name="Ncaron" unicode="&#x147;" horiz-adv-x="749" 
d="M669 0h-109l-286 376q-10 13 -74 100h-2q2 -26 2 -102v-374h-120v659h119l276 -361q54 -73 73 -102h2q-2 70 -2 111v352h121v-659zM329 696l-101 147h95l55 -79l54 79h93l-100 -147h-96z" />
    <glyph glyph-name="ncaron" unicode="&#x148;" horiz-adv-x="537" 
d="M55 0v473h102l12 -53q83 65 162 65q65 0 108.5 -39.5t43.5 -132.5v-313h-120v276q0 50 -15.5 77.5t-57.5 27.5q-56 0 -116 -50v-331h-119zM209 531l-101 147h95l55 -78l54 78h93l-100 -147h-96z" />
    <glyph glyph-name="Eng" unicode="&#x14a;" horiz-adv-x="754" 
d="M80 0v659h119l281 -361q51 -66 74 -102h2q-2 35 -2 111v352h121v-678q0 -85 -46 -133t-132 -48q-55 0 -98 17l25 97q25 -13 60 -13q42 0 56 24t14 70v20l-280 361q-10 13 -74 100h-2q2 -26 2 -102v-374h-120z" />
    <glyph glyph-name="eng" unicode="&#x14b;" horiz-adv-x="537" 
d="M229 -178l22 98q23 -11 51 -11q33 0 47 19t14 62v286q0 50 -15.5 77.5t-57.5 27.5q-56 0 -116 -50v-331h-119v473h102l12 -53q83 65 162 65q65 0 108.5 -39.5t43.5 -132.5v-341q0 -79 -43.5 -123t-119.5 -44q-52 0 -91 17z" />
    <glyph glyph-name="Omacron" unicode="&#x14c;" horiz-adv-x="768" 
d="M384 -10q-146 0 -239 93t-93 244q0 150 92.5 244t239.5 94q146 0 239 -94.5t93 -243.5q0 -150 -93.5 -243.5t-238.5 -93.5zM384 91q92 0 148 63t56 173q0 109 -55 173t-149 64q-93 0 -148.5 -63t-55.5 -174q0 -110 55.5 -173t148.5 -63zM244 704v91h285v-91h-285z" />
    <glyph glyph-name="omacron" unicode="&#x14d;" 
d="M271 -10q-105 0 -170.5 70t-65.5 178q0 107 65.5 177t170.5 70t171 -70t66 -177t-66 -177.5t-171 -70.5zM271 86q55 0 84.5 42t29.5 110t-29.5 109.5t-84.5 41.5t-84.5 -41.5t-29.5 -109.5t29.5 -110t84.5 -42zM128 569v90h285v-90h-285z" />
    <glyph glyph-name="Obreve" unicode="&#x14e;" horiz-adv-x="768" 
d="M384 -10q-146 0 -239 93t-93 244q0 150 92.5 244t239.5 94q146 0 239 -94.5t93 -243.5q0 -150 -93.5 -243.5t-238.5 -93.5zM384 91q92 0 148 63t56 173q0 109 -55 173t-149 64q-93 0 -148.5 -63t-55.5 -174q0 -110 55.5 -173t148.5 -63zM450 833h82q-4 -65 -44 -102.5
t-103 -37.5t-102.5 37.5t-43.5 102.5h83q3 -30 19.5 -48t44.5 -18t44.5 18t19.5 48z" />
    <glyph glyph-name="obreve" unicode="&#x14f;" 
d="M271 -10q-105 0 -170.5 70t-65.5 178q0 107 65.5 177t170.5 70t171 -70t66 -177t-66 -177.5t-171 -70.5zM271 86q55 0 84.5 42t29.5 110t-29.5 109.5t-84.5 41.5t-84.5 -41.5t-29.5 -109.5t29.5 -110t84.5 -42zM335 680h82q-4 -65 -43.5 -102t-103.5 -37q-63 0 -102.5 37
t-43.5 102h83q3 -30 19.5 -47.5t44.5 -17.5t44.5 17.5t19.5 47.5z" />
    <glyph glyph-name="Ohungarumlaut" unicode="&#x150;" horiz-adv-x="768" 
d="M384 -10q-146 0 -239 93t-93 244q0 150 92.5 244t239.5 94q146 0 239 -94.5t93 -243.5q0 -150 -93.5 -243.5t-238.5 -93.5zM384 91q92 0 148 63t56 173q0 109 -55 173t-149 64q-93 0 -148.5 -63t-55.5 -174q0 -110 55.5 -173t148.5 -63zM258 696l58 147h130l-97 -147h-91
zM431 696l58 147h130l-97 -147h-91z" />
    <glyph glyph-name="ohungarumlaut" unicode="&#x151;" 
d="M271 -10q-105 0 -170.5 70t-65.5 178q0 107 65.5 177t170.5 70t171 -70t66 -177t-66 -177.5t-171 -70.5zM271 86q55 0 84.5 42t29.5 110t-29.5 109.5t-84.5 41.5t-84.5 -41.5t-29.5 -109.5t29.5 -110t84.5 -42zM149 531l58 147h130l-97 -147h-91zM322 531l58 147h130
l-97 -147h-91z" />
    <glyph glyph-name="OE" unicode="&#x152;" horiz-adv-x="916" 
d="M858 0h-247q-51 0 -124.5 -5t-99.5 -5q-127 0 -210 64q-122 89 -122 270q0 89 34 161.5t97 118.5q84 61 208 61q24 0 95 -3t130 -3h238l-33 -102h-210v-172h211v-102h-211v-181h244v-102zM396 91q56 0 97 11v449q-46 13 -103 13q-83 0 -133 -48q-74 -63 -74 -189
q0 -136 83 -196q52 -40 130 -40z" />
    <glyph glyph-name="oe" unicode="&#x153;" horiz-adv-x="844" 
d="M268 -10q-103 0 -168 70.5t-65 177.5t64.5 177t165.5 70q118 0 175 -90h2q53 90 159 90q94 0 151 -68t57 -185v-28h-303q2 -55 38.5 -87.5t95.5 -32.5q63 0 120 32l35 -82q-71 -44 -166 -44q-124 0 -186 91h-2q-58 -91 -173 -91zM271 85q54 0 83.5 42t29.5 111
q0 68 -29.5 110t-83.5 42q-55 0 -84.5 -42t-29.5 -110t29.5 -110.5t84.5 -42.5zM505 287h183q-1 45 -23.5 76t-67.5 31q-42 0 -66.5 -31t-25.5 -76z" />
    <glyph glyph-name="Racute" unicode="&#x154;" horiz-adv-x="589" 
d="M80 0v659h180q85 0 141 -27q98 -46 98 -161q0 -64 -35 -107.5t-94 -62.5v-2q29 -16 82 -107l110 -192h-138l-95 167q-45 83 -72 90h-57v-257h-120zM200 355h54q42 0 73 17q46 26 46 87q0 57 -44 83q-28 19 -74 19h-55v-206zM202 696l58 147h129l-96 -147h-91z" />
    <glyph glyph-name="racute" unicode="&#x155;" horiz-adv-x="364" 
d="M55 0v473h101l13 -53q65 65 130 65q39 0 67 -19l-42 -101q-26 16 -54 16q-42 0 -96 -47v-334h-119zM134 531l58 147h129l-96 -147h-91z" />
    <glyph glyph-name="Rcommaaccent" unicode="&#x156;" horiz-adv-x="589" 
d="M80 0v659h180q85 0 141 -27q98 -46 98 -161q0 -64 -35 -107.5t-94 -62.5v-2q29 -16 82 -107l110 -192h-138l-95 167q-45 83 -72 90h-57v-257h-120zM200 355h54q42 0 73 17q46 26 46 87q0 57 -44 83q-28 19 -74 19h-55v-206zM217 -237l-29 72q74 15 74 61q0 25 -20 52h102
q23 -34 23 -72q0 -95 -150 -113z" />
    <glyph glyph-name="rcommaaccent" unicode="&#x157;" horiz-adv-x="364" 
d="M55 0v473h101l13 -53q65 65 130 65q39 0 67 -19l-42 -101q-26 16 -54 16q-42 0 -96 -47v-334h-119zM48 -237l-29 72q74 15 74 61q0 25 -20 52h102q23 -34 23 -72q0 -95 -150 -113z" />
    <glyph glyph-name="Rcaron" unicode="&#x158;" horiz-adv-x="589" 
d="M80 0v659h180q85 0 141 -27q98 -46 98 -161q0 -64 -35 -107.5t-94 -62.5v-2q29 -16 82 -107l110 -192h-138l-95 167q-45 83 -72 90h-57v-257h-120zM200 355h54q42 0 73 17q46 26 46 87q0 57 -44 83q-28 19 -74 19h-55v-206zM214 696l-101 147h95l55 -79l54 79h93
l-100 -147h-96z" />
    <glyph glyph-name="rcaron" unicode="&#x159;" horiz-adv-x="364" 
d="M56 0v473h101l13 -53q65 65 130 65q39 0 67 -19l-42 -101q-26 16 -54 16q-42 0 -96 -47v-334h-119zM144 531l-101 147h95l55 -78l54 78h93l-100 -147h-96z" />
    <glyph glyph-name="Sacute" unicode="&#x15a;" horiz-adv-x="530" 
d="M48 47l47 92q69 -48 149 -48q46 0 78 19t32 59q0 35 -29.5 62t-71 47t-83.5 43.5t-71.5 64.5t-29.5 97q0 76 57.5 129t156.5 53q95 0 161 -33v-110q-81 42 -157 42q-39 0 -64.5 -17t-25.5 -54q0 -33 29.5 -58.5t71.5 -45t83.5 -43.5t71 -66.5t29.5 -100.5
q0 -86 -66 -137.5t-169 -51.5q-118 0 -199 57zM216 696l58 147h129l-96 -147h-91z" />
    <glyph glyph-name="sacute" unicode="&#x15b;" horiz-adv-x="420" 
d="M21 36l37 87q61 -39 129 -39q83 0 83 50q0 22 -23 37t-55.5 26t-65 26t-55.5 45t-23 74q0 64 48.5 103.5t130.5 39.5q75 0 139 -23v-101q-71 30 -134 30q-67 0 -67 -43q0 -20 23 -34t55.5 -25.5t65 -27t55.5 -47t23 -77.5q0 -74 -54.5 -110.5t-137.5 -36.5q-99 0 -174 46
zM163 531l58 147h129l-96 -147h-91z" />
    <glyph glyph-name="Scircumflex" unicode="&#x15c;" horiz-adv-x="530" 
d="M48 47l47 92q69 -48 149 -48q46 0 78 19t32 59q0 35 -29.5 62t-71 47t-83.5 43.5t-71.5 64.5t-29.5 97q0 76 57.5 129t156.5 53q95 0 161 -33v-110q-81 42 -157 42q-39 0 -64.5 -17t-25.5 -54q0 -33 29.5 -58.5t71.5 -45t83.5 -43.5t71 -66.5t29.5 -100.5
q0 -86 -66 -137.5t-169 -51.5q-118 0 -199 57zM120 696l100 147h96l101 -147h-94l-55 79l-54 -79h-94z" />
    <glyph glyph-name="scircumflex" unicode="&#x15d;" horiz-adv-x="420" 
d="M21 36l37 87q61 -39 129 -39q83 0 83 50q0 22 -23 37t-55.5 26t-65 26t-55.5 45t-23 74q0 64 48.5 103.5t130.5 39.5q75 0 139 -23v-101q-71 30 -134 30q-67 0 -67 -43q0 -20 23 -34t55.5 -25.5t65 -27t55.5 -47t23 -77.5q0 -74 -54.5 -110.5t-137.5 -36.5q-99 0 -174 46
zM65 531l100 147h96l101 -147h-94l-55 79l-54 -79h-94z" />
    <glyph glyph-name="Scedilla" unicode="&#x15e;" horiz-adv-x="526" 
d="M146 -201l17 55q24 -8 47 -8q49 0 49 32q0 20 -20 27t-61 7l25 80q-89 9 -155 55l47 92q69 -48 149 -48q46 0 78 19t32 59q0 35 -29.5 62t-71 47t-83.5 43.5t-71.5 64.5t-29.5 97q0 76 57.5 129t156.5 53q95 0 161 -33v-110q-81 42 -157 42q-39 0 -64.5 -17t-25.5 -54
q0 -33 29.5 -58.5t71.5 -45t83.5 -43.5t71 -66.5t29.5 -100.5q0 -77 -53 -126.5t-139 -59.5l-13 -42q85 -7 85 -74q0 -40 -36 -64.5t-105 -24.5q-40 0 -75 11z" />
    <glyph glyph-name="scedilla" unicode="&#x15f;" horiz-adv-x="420" 
d="M91 -201l17 55q24 -8 47 -8q49 0 49 32q0 15 -12 22.5t-27 9t-43 2.5l25 81q-71 8 -126 43l37 87q61 -39 129 -39q83 0 83 50q0 22 -23 37t-55.5 26t-65 26t-55.5 45t-23 74q0 64 48.5 103.5t130.5 39.5q75 0 139 -23v-101q-71 30 -134 30q-67 0 -67 -43q0 -20 23 -34
t55.5 -25.5t65 -27t55.5 -47t23 -77.5q0 -65 -42 -101t-110 -43l-13 -42q84 -7 84 -74q0 -40 -35.5 -64.5t-104.5 -24.5q-42 0 -75 11z" />
    <glyph glyph-name="Scaron" unicode="&#x160;" horiz-adv-x="530" 
d="M48 47l47 92q69 -48 149 -48q46 0 78 19t32 59q0 35 -29.5 62t-71 47t-83.5 43.5t-71.5 64.5t-29.5 97q0 76 57.5 129t156.5 53q95 0 161 -33v-110q-81 42 -157 42q-39 0 -64.5 -17t-25.5 -54q0 -33 29.5 -58.5t71.5 -45t83.5 -43.5t71 -66.5t29.5 -100.5
q0 -86 -66 -137.5t-169 -51.5q-118 0 -199 57zM215 696l-101 147h95l55 -79l54 79h93l-100 -147h-96z" />
    <glyph glyph-name="scaron" unicode="&#x161;" horiz-adv-x="420" 
d="M21 36l37 87q61 -39 129 -39q83 0 83 50q0 22 -23 37t-55.5 26t-65 26t-55.5 45t-23 74q0 64 48.5 103.5t130.5 39.5q75 0 139 -23v-101q-71 30 -134 30q-67 0 -67 -43q0 -20 23 -34t55.5 -25.5t65 -27t55.5 -47t23 -77.5q0 -74 -54.5 -110.5t-137.5 -36.5q-99 0 -174 46
zM165 531l-101 147h95l55 -78l54 78h93l-100 -147h-96z" />
    <glyph glyph-name="Tcommaaccent" unicode="&#x162;" horiz-adv-x="536" 
d="M206 0v557h-192v102h521l-33 -102h-176v-557h-120zM191 -237l-29 72q74 15 74 61q0 25 -20 52h102q23 -34 23 -72q0 -95 -150 -113z" />
    <glyph glyph-name="tcommaaccent" unicode="&#x163;" horiz-adv-x="386" 
d="M236 -10q-63 0 -99 34t-36 93v263h-85v93h85v110l119 35v-145h143l-29 -93h-114v-234q0 -32 11 -46t35 -14q38 0 72 23l36 -82q-55 -37 -138 -37zM120 -237l-29 72q74 15 74 61q0 25 -20 52h102q23 -34 23 -72q0 -95 -150 -113z" />
    <glyph glyph-name="Tcaron" unicode="&#x164;" horiz-adv-x="536" 
d="M206 0v557h-192v102h521l-33 -102h-176v-557h-120zM220 696l-101 147h95l55 -79l54 79h93l-100 -147h-96z" />
    <glyph glyph-name="tcaron" unicode="&#x165;" horiz-adv-x="386" 
d="M236 -10q-63 0 -99 34t-36 93v263h-85v93h85v110l119 35v-145h143l-29 -93h-114v-234q0 -32 11 -46t35 -14q38 0 72 23l36 -82q-55 -37 -138 -37zM262 513l36 196h118l-64 -196h-90z" />
    <glyph glyph-name="Tbar" unicode="&#x166;" horiz-adv-x="536" 
d="M206 0v260h-118v98h118v199h-192v102h521l-33 -102h-176v-199h118v-98h-118v-260h-120z" />
    <glyph glyph-name="tbar" unicode="&#x167;" horiz-adv-x="386" 
d="M16 202v91h85v87h-85v93h85v110l119 35v-145h143l-29 -93h-114v-87h93v-91h-93v-56q0 -32 11 -46t35 -14q37 0 73 24l35 -81q-56 -39 -138 -39q-63 0 -99 34t-36 93v85h-85z" />
    <glyph glyph-name="Utilde" unicode="&#x168;" horiz-adv-x="696" 
d="M348 -10q-188 0 -248 128q-25 50 -25 128v413h120v-405q0 -53 18 -89q36 -74 135 -74t135 74q18 36 18 90v404h120v-413q0 -79 -25 -129q-61 -127 -248 -127zM193 720v39q0 39 23 61t59 22q32 0 75.5 -22t55.5 -22q14 0 18 8.5t4 29.5h78v-40q0 -39 -23 -60.5t-59 -21.5
q-31 0 -75 21.5t-56 21.5q-14 0 -18 -8.5t-4 -28.5h-78z" />
    <glyph glyph-name="utilde" unicode="&#x169;" horiz-adv-x="535" 
d="M213 -10q-42 0 -82 21.5t-60 71.5q-16 38 -16 99v291h119v-279q0 -38 10 -59q18 -43 71 -43q59 0 97 42v339h120v-356q0 -88 8 -117h-102l-18 49q-66 -59 -147 -59zM110 547v39q0 39 23 61t59 22q32 0 75.5 -22t55.5 -22q14 0 18 8.5t4 29.5h78v-39q0 -39 -23 -61
t-59 -22q-31 0 -75 22t-56 22q-14 0 -18 -8.5t-4 -29.5h-78z" />
    <glyph glyph-name="Umacron" unicode="&#x16a;" horiz-adv-x="696" 
d="M348 -10q-188 0 -248 128q-25 50 -25 128v413h120v-405q0 -53 18 -89q36 -74 135 -74t135 74q18 36 18 90v404h120v-413q0 -79 -25 -129q-61 -127 -248 -127zM208 704v91h285v-91h-285z" />
    <glyph glyph-name="umacron" unicode="&#x16b;" horiz-adv-x="535" 
d="M213 -10q-42 0 -82 21.5t-60 71.5q-16 38 -16 99v291h119v-279q0 -38 10 -59q18 -43 71 -43q59 0 97 42v339h120v-356q0 -88 8 -117h-102l-18 49q-66 -59 -147 -59zM124 569v90h285v-90h-285z" />
    <glyph glyph-name="Ubreve" unicode="&#x16c;" horiz-adv-x="696" 
d="M348 -10q-188 0 -248 128q-25 50 -25 128v413h120v-405q0 -53 18 -89q36 -74 135 -74t135 74q18 36 18 90v404h120v-413q0 -79 -25 -129q-61 -127 -248 -127zM414 833h82q-4 -65 -44 -102.5t-103 -37.5t-102.5 37.5t-43.5 102.5h83q3 -30 19.5 -48t44.5 -18t44.5 18
t19.5 48z" />
    <glyph glyph-name="ubreve" unicode="&#x16d;" horiz-adv-x="535" 
d="M213 -10q-42 0 -82 21.5t-60 71.5q-16 38 -16 99v291h119v-279q0 -38 10 -59q18 -43 71 -43q59 0 97 42v339h120v-356q0 -88 8 -117h-102l-18 49q-66 -59 -147 -59zM330 680h82q-4 -65 -43.5 -102t-103.5 -37q-63 0 -102.5 37t-43.5 102h83q3 -30 19.5 -47.5t44.5 -17.5
t44.5 17.5t19.5 47.5z" />
    <glyph glyph-name="Uring" unicode="&#x16e;" horiz-adv-x="696" 
d="M348 -10q-188 0 -248 128q-25 50 -25 128v413h120v-405q0 -53 18 -89q36 -74 135 -74t135 74q18 36 18 90v404h120v-413q0 -79 -25 -129q-61 -127 -248 -127zM351 653q-52 0 -84.5 26.5t-32.5 70.5q0 45 32.5 71.5t84.5 26.5t84.5 -26.5t32.5 -71.5q0 -44 -32.5 -70.5
t-84.5 -26.5zM351 705q18 0 29.5 12t11.5 33t-11.5 33.5t-29.5 12.5q-19 0 -30 -12t-11 -34q0 -45 41 -45z" />
    <glyph glyph-name="uring" unicode="&#x16f;" horiz-adv-x="535" 
d="M213 -10q-42 0 -82 21.5t-60 71.5q-16 38 -16 99v291h119v-279q0 -38 10 -59q18 -43 71 -43q59 0 97 42v339h120v-356q0 -88 8 -117h-102l-18 49q-66 -59 -147 -59zM267 523q-52 0 -84.5 26t-32.5 71t32.5 71t84.5 26t84.5 -26t32.5 -71t-32.5 -71t-84.5 -26zM267 574
q18 0 29.5 12.5t11.5 33.5t-11.5 33.5t-29.5 12.5q-19 0 -30 -12t-11 -34t11 -34t30 -12z" />
    <glyph glyph-name="Uhungarumlaut" unicode="&#x170;" horiz-adv-x="696" 
d="M348 -10q-188 0 -248 128q-25 50 -25 128v413h120v-405q0 -53 18 -89q36 -74 135 -74t135 74q18 36 18 90v404h120v-413q0 -79 -25 -129q-61 -127 -248 -127zM211 696l58 147h130l-97 -147h-91zM384 696l58 147h130l-97 -147h-91z" />
    <glyph glyph-name="uhungarumlaut" unicode="&#x171;" horiz-adv-x="535" 
d="M213 -10q-42 0 -82 21.5t-60 71.5q-16 38 -16 99v291h119v-279q0 -38 10 -59q18 -43 71 -43q59 0 97 42v339h120v-356q0 -88 8 -117h-102l-18 49q-66 -59 -147 -59zM129 531l58 147h130l-97 -147h-91zM302 531l58 147h130l-97 -147h-91z" />
    <glyph glyph-name="Uogonek" unicode="&#x172;" horiz-adv-x="696" 
d="M444 -138l13 -64q-41 -12 -79 -12q-49 0 -76.5 23t-27.5 62q0 63 73 117v2q-188 0 -247 128q-25 50 -25 128v413h120v-405q0 -53 18 -89q36 -74 135 -74t135 74q18 36 18 90v404h120v-413q0 -79 -25 -129q-30 -67 -107 -103q-45 -21 -80.5 -55.5t-35.5 -67.5
q0 -35 34 -35q16 0 37 6z" />
    <glyph glyph-name="uogonek" unicode="&#x173;" horiz-adv-x="535" 
d="M377 4l-17 45q-66 -59 -147 -59q-42 0 -82 21.5t-60 71.5q-16 38 -16 99v291h119v-279q0 -38 10 -59q18 -43 71 -43q59 0 97 42v339h120v-343q0 -102 8 -131q-46 -22 -73 -50t-27 -58q0 -35 35 -35q16 0 37 6l13 -64q-42 -12 -79 -12q-49 0 -76.5 23t-27.5 62
q0 70 95 133z" />
    <glyph glyph-name="Wcircumflex" unicode="&#x174;" horiz-adv-x="944" 
d="M240 -4l-233 663h136l121 -379q10 -30 32 -111h2q13 46 34 110l89 265l-41 115h122l127 -373q27 -76 37 -116h3q22 88 30 114l114 375h124l-222 -663h-102l-99 279q-27 76 -36 110h-3q-14 -51 -35 -109l-100 -280h-100zM328 696l100 147h96l101 -147h-94l-55 79l-54 -79
h-94z" />
    <glyph glyph-name="wcircumflex" unicode="&#x175;" horiz-adv-x="748" 
d="M178 -3l-171 476h121l100 -321h2l100 321h93l104 -321h2l98 321h118l-175 -476h-88l-104 321h-2l-106 -321h-92zM228 531l100 147h96l101 -147h-94l-55 79l-54 -79h-94z" />
    <glyph glyph-name="Ycircumflex" unicode="&#x176;" horiz-adv-x="586" 
d="M232 0v261l-225 398h132l154 -291h2l153 291h130l-225 -399v-260h-121zM146 696l100 147h96l101 -147h-94l-55 79l-54 -79h-94z" />
    <glyph glyph-name="ycircumflex" unicode="&#x177;" horiz-adv-x="518" 
d="M513 473l-181 -488q-27 -71 -55.5 -117.5t-60 -68t-58.5 -29t-64 -7.5q-56 0 -106 22l30 94q35 -19 71 -19q42 0 73.5 32.5t58.5 110.5l-213 470h127l140 -334h2l113 334h123zM119 531l100 147h96l101 -147h-94l-55 79l-54 -79h-94z" />
    <glyph glyph-name="Ydieresis" unicode="&#x178;" horiz-adv-x="586" 
d="M232 0v261l-225 398h132l154 -291h2l153 291h130l-225 -399v-260h-121zM199 701q-25 0 -43 18t-18 43t18 43.5t43 18.5t43.5 -18t18.5 -44q0 -25 -18 -43t-44 -18zM390 701q-26 0 -43.5 17.5t-17.5 43.5t18 44t43 18t43 -18.5t18 -43.5t-18 -43t-43 -18z" />
    <glyph glyph-name="Zacute" unicode="&#x179;" horiz-adv-x="570" 
d="M26 0l327 557h-281l-31 102h503l-321 -557h324v-102h-521zM237 696l58 147h129l-96 -147h-91z" />
    <glyph glyph-name="zacute" unicode="&#x17a;" horiz-adv-x="415" 
d="M15 0l219 380h-181l-24 93h379l-217 -380h213v-93h-389zM157 531l58 147h129l-96 -147h-91z" />
    <glyph glyph-name="Zdotaccent" unicode="&#x17b;" horiz-adv-x="570" 
d="M26 0l327 557h-281l-31 102h503l-321 -557h324v-102h-521zM297 705q-31 0 -52.5 21t-21.5 51q0 29 21.5 50t52.5 21q32 0 52.5 -20t20.5 -51q0 -30 -21 -51t-52 -21z" />
    <glyph glyph-name="zdotaccent" unicode="&#x17c;" horiz-adv-x="415" 
d="M15 0l219 380h-181l-24 93h379l-217 -380h213v-93h-389zM218 550q-31 0 -52.5 20.5t-21.5 50.5t21.5 51t52.5 21t52 -20.5t21 -51.5q0 -30 -21 -50.5t-52 -20.5z" />
    <glyph glyph-name="Zcaron" unicode="&#x17d;" horiz-adv-x="570" 
d="M26 0l327 557h-281l-31 102h503l-321 -557h324v-102h-521zM246 696l-101 147h95l55 -79l54 79h93l-100 -147h-96z" />
    <glyph glyph-name="zcaron" unicode="&#x17e;" horiz-adv-x="415" 
d="M15 0l219 380h-181l-24 93h379l-217 -380h213v-93h-389zM170 531l-101 147h95l55 -78l54 78h93l-100 -147h-96z" />
    <glyph glyph-name="florin" unicode="&#x192;" horiz-adv-x="545" 
d="M310 299l-23 -261q-9 -98 -50 -147q-51 -61 -148 -61q-71 0 -130 30l45 96q35 -20 73 -20q44 0 66 28q19 25 22 69l24 266h-97v94h106l9 107q7 91 46 139q50 69 153 69q71 0 130 -30l-45 -96q-36 20 -74 20q-44 0 -67 -31q-17 -24 -21 -67l-10 -111h126l-28 -94h-107z
" />
    <glyph glyph-name="Aringacute" unicode="&#x1fa;" horiz-adv-x="632" 
d="M8 0l252 653q-31 10 -49 34t-18 57q0 39 24.5 64t66.5 31l45 114h130l-85 -126q53 -27 53 -83q0 -67 -65 -89l262 -655h-130l-64 165h-235l-62 -165h-125zM230 263h163l-46 132q-24 66 -33 103h-2q-8 -31 -34 -104zM310 698q19 0 30 12t11 34q0 45 -41 45
q-18 0 -29.5 -12t-11.5 -33t11.5 -33.5t29.5 -12.5z" />
    <glyph glyph-name="aringacute" unicode="&#x1fb;" horiz-adv-x="492" 
d="M247 516q-52 0 -84.5 26t-32.5 71q0 37 23 62t62 32l52 135h130l-94 -142q60 -24 60 -87q0 -45 -32 -71t-84 -26zM247 567q18 0 29.5 12.5t11.5 33.5t-11.5 33.5t-29.5 12.5q-19 0 -30 -12t-11 -34t11 -34t30 -12zM190 -10q-68 0 -112.5 42t-44.5 109q0 88 80 129
q46 24 122 27l81 3v15q0 79 -91 79q-62 0 -124 -33l-39 77q85 47 183 47q190 0 190 -172v-196q0 -85 9 -117h-100l-18 45q-60 -55 -136 -55zM224 84q49 0 92 35v101l-64 -2q-45 -1 -69 -15q-29 -16 -29 -54q0 -31 19 -48t51 -17z" />
    <glyph glyph-name="AEacute" unicode="&#x1fc;" horiz-adv-x="840" 
d="M7 0l356 659h418l-33 -102h-253l30 -172h224v-102h-207l31 -181h209v-102h-313l-28 165h-218l-89 -165h-127zM277 263h148l-23 154q-7 44 -11 77h-1q-5 -12 -39 -83zM440 696l58 147h129l-96 -147h-91z" />
    <glyph glyph-name="aeacute" unicode="&#x1fd;" horiz-adv-x="777" 
d="M199 -10q-74 0 -120 41t-46 110q0 78 56.5 114t144.5 36h89v24q0 40 -26 59.5t-70 19.5q-65 0 -126 -34l-39 78q85 47 181 47q108 0 147 -71h2q53 71 148 71q94 0 148 -66.5t54 -186.5v-24h-300q1 -58 36 -91t95 -33q63 0 120 32l35 -82q-71 -44 -166 -44q-122 0 -185 78
q-69 -78 -178 -78zM225 84q66 0 114 52q-11 31 -13 72h-84q-88 0 -88 -61q0 -30 19.5 -46.5t51.5 -16.5zM441 291h180q-2 43 -24 73t-65 30q-42 0 -65.5 -29.5t-25.5 -73.5zM343 531l58 147h129l-96 -147h-91z" />
    <glyph glyph-name="Oslashacute" unicode="&#x1fe;" horiz-adv-x="775" 
d="M152 -33l-75 56l59 72q-81 94 -81 232q0 150 93 244t239 94q97 0 172 -47l59 73l74 -56l-59 -73q87 -93 87 -235q0 -150 -93.5 -243.5t-239.5 -93.5q-101 0 -178 48zM559 468l-283 -345q46 -33 111 -33q93 0 150 63.5t57 173.5q0 83 -35 141zM212 192l282 342
q-47 31 -107 31q-92 0 -149 -63.5t-57 -174.5q0 -79 31 -135zM337 696l58 147h129l-96 -147h-91z" />
    <glyph glyph-name="oslashacute" unicode="&#x1ff;" 
d="M214 531l58 147h129l-96 -147h-91zM106 -27l-50 39l41 52q-62 70 -62 174q0 107 65.5 177t170.5 70q68 0 124 -35l37 48l51 -39l-38 -48q63 -71 63 -173q0 -107 -66 -177.5t-171 -70.5q-69 0 -125 35zM208 105q26 -21 63 -21q55 0 86 43t31 111q0 44 -14 80zM169 158
l165 212q-27 21 -63 21q-55 0 -86 -43t-31 -110q0 -47 15 -80z" />
    <glyph glyph-name="Scommaaccent" unicode="&#x218;" horiz-adv-x="530" 
d="M48 47l47 92q69 -48 149 -48q46 0 78 19t32 59q0 35 -29.5 62t-71 47t-83.5 43.5t-71.5 64.5t-29.5 97q0 76 57.5 129t156.5 53q95 0 161 -33v-110q-81 42 -157 42q-39 0 -64.5 -17t-25.5 -54q0 -33 29.5 -58.5t71.5 -45t83.5 -43.5t71 -66.5t29.5 -100.5
q0 -86 -66 -137.5t-169 -51.5q-118 0 -199 57zM177 -237l-29 72q74 15 74 61q0 25 -20 52h102q23 -34 23 -72q0 -95 -150 -113z" />
    <glyph glyph-name="scommaaccent" unicode="&#x219;" horiz-adv-x="420" 
d="M21 36l37 87q61 -39 129 -39q83 0 83 50q0 22 -23 37t-55.5 26t-65 26t-55.5 45t-23 74q0 64 48.5 103.5t130.5 39.5q75 0 139 -23v-101q-71 30 -134 30q-67 0 -67 -43q0 -20 23 -34t55.5 -25.5t65 -27t55.5 -47t23 -77.5q0 -74 -54.5 -110.5t-137.5 -36.5q-99 0 -174 46
zM129 -237l-29 72q74 15 74 61q0 25 -20 52h102q23 -34 23 -72q0 -95 -150 -113z" />
    <glyph glyph-name="circumflex" unicode="&#x2c6;" horiz-adv-x="384" 
d="M43 531l100 147h96l101 -147h-94l-55 79l-54 -79h-94z" />
    <glyph glyph-name="caron" unicode="&#x2c7;" horiz-adv-x="384" 
d="M144 531l-101 147h95l55 -78l54 78h93l-100 -147h-96z" />
    <glyph glyph-name="breve" unicode="&#x2d8;" horiz-adv-x="384" 
d="M256 680h82q-4 -65 -43.5 -102t-103.5 -37q-63 0 -102.5 37t-43.5 102h83q3 -30 19.5 -47.5t44.5 -17.5t44.5 17.5t19.5 47.5z" />
    <glyph glyph-name="dotaccent" unicode="&#x2d9;" horiz-adv-x="384" 
d="M192 550q-31 0 -52.5 20.5t-21.5 50.5t21.5 51t52.5 21t52 -20.5t21 -51.5q0 -30 -21 -50.5t-52 -20.5z" />
    <glyph glyph-name="ring" unicode="&#x2da;" horiz-adv-x="384" 
d="M192 523q-52 0 -84.5 26t-32.5 71t32.5 71t84.5 26t84.5 -26t32.5 -71t-32.5 -71t-84.5 -26zM192 574q18 0 29.5 12.5t11.5 33.5t-11.5 33.5t-29.5 12.5q-19 0 -30 -12t-11 -34t11 -34t30 -12z" />
    <glyph glyph-name="ogonek" unicode="&#x2db;" horiz-adv-x="384" 
d="M262 -138l13 -64q-41 -12 -79 -12q-49 0 -76.5 23t-27.5 62q0 73 107 142l93 -13q-101 -49 -101 -109q0 -35 34 -35q16 0 37 6z" />
    <glyph glyph-name="tilde" unicode="&#x2dc;" horiz-adv-x="384" 
d="M35 547v39q0 39 23 61t59 22q32 0 75.5 -22t55.5 -22q14 0 18 8.5t4 29.5h78v-39q0 -39 -23 -61t-59 -22q-31 0 -75 22t-56 22q-14 0 -18 -8.5t-4 -29.5h-78z" />
    <glyph glyph-name="hungarumlaut" unicode="&#x2dd;" horiz-adv-x="384" 
d="M72 531l58 147h130l-97 -147h-91zM245 531l58 147h130l-97 -147h-91z" />
    <glyph glyph-name="uni0315" unicode="&#x315;" horiz-adv-x="384" 
d="M119 513l36 196h118l-64 -196h-90z" />
    <glyph glyph-name="uni0326" unicode="&#x326;" horiz-adv-x="384" 
d="M131 -237l-29 72q74 15 74 61q0 25 -20 52h102q23 -34 23 -72q0 -95 -150 -113z" />
    <glyph glyph-name="Alphatonos" unicode="&#x386;" horiz-adv-x="634" 
d="M14 473l37 186h118l-61 -186h-94zM9 0l256 662h95l265 -662h-130l-64 165h-235l-62 -165h-125zM231 263h163l-46 131q-8 25 -33 102h-2q-7 -26 -34 -103z" />
    <glyph glyph-name="Epsilontonos" unicode="&#x388;" horiz-adv-x="636" 
d="M1 473l38 186h117l-60 -186h-95zM212 0v659h365l-33 -102h-211v-172h211v-102h-211v-181h245v-102h-366z" />
    <glyph glyph-name="Etatonos" unicode="&#x389;" horiz-adv-x="836" 
d="M1 473l38 186h117l-60 -186h-95zM199 0v659h121v-272h315v272h120v-659h-120v285h-315v-285h-121z" />
    <glyph glyph-name="Iotatonos" unicode="&#x38a;" horiz-adv-x="414" 
d="M212 0v659h121v-659h-121zM1 473l38 186h117l-60 -186h-95z" />
    <glyph glyph-name="Omicrontonos" unicode="&#x38c;" horiz-adv-x="855" 
d="M1 473l38 186h117l-60 -186h-95zM471 -10q-146 0 -239 93t-93 244q0 150 93 244t239 94q147 0 240 -94.5t93 -243.5q0 -150 -93.5 -243.5t-239.5 -93.5zM471 91q93 0 148.5 63t55.5 173q0 109 -55 173t-149 64q-92 0 -147.5 -63t-55.5 -174q0 -110 55.5 -173t147.5 -63z
" />
    <glyph glyph-name="Upsilontonos" unicode="&#x38e;" horiz-adv-x="788" 
d="M1 473l38 186h117l-60 -186h-95zM422 0v178q0 93 -58 206t-179 275h134q128 -166 162 -295h3q25 121 162 295h132q-60 -81 -93.5 -130.5t-71 -115t-54 -123.5t-16.5 -116v-174h-121z" />
    <glyph glyph-name="Omegatonos" unicode="&#x38f;" horiz-adv-x="843" 
d="M1 473l38 186h117l-60 -186h-95zM142 0v102h47q41 0 87 -11l1 3q-60 46 -96 112.5t-36 145.5q0 130 86 221.5t237 91.5t237 -91.5t86 -221.5q0 -79 -35.5 -145.5t-95.5 -112.5v-3q46 11 88 11h46v-102h-270v81q71 56 105 119t34 146q0 96 -52 157t-143 61t-142.5 -61
t-51.5 -157q0 -82 34 -145.5t104 -119.5v-81h-270z" />
    <glyph glyph-name="iotadieresistonos" unicode="&#x390;" horiz-adv-x="288" 
d="M182 -7q-126 0 -126 121v359h120v-336q0 -41 40 -41q17 0 33 7l24 -94q-37 -16 -91 -16zM25 548q-24 0 -39.5 16t-15.5 40t15.5 40t39.5 16q23 0 39 -16t16 -40t-16 -40t-39 -16zM82 531l44 167h89l-68 -167h-65zM257 548q-24 0 -39.5 16t-15.5 40t15.5 40t39.5 16
q23 0 39 -16t16 -40t-16 -40t-39 -16z" />
    <glyph glyph-name="Alpha" unicode="&#x391;" horiz-adv-x="634" 
d="M9 0l255 662h96l265 -662h-130l-64 165h-235l-62 -165h-125zM231 263h163l-46 131q-21 59 -33 102h-2q-7 -26 -34 -103z" />
    <glyph glyph-name="Beta" unicode="&#x392;" horiz-adv-x="569" 
d="M81 0v659h193q100 0 152.5 -48.5t52.5 -118.5q0 -44 -21 -80.5t-59 -55.5v-2q57 -14 90.5 -57.5t33.5 -101.5q0 -82 -61 -138.5t-170 -56.5h-211zM201 99h77q123 0 123 96q0 42 -29.5 66t-80.5 24h-90v-186zM201 384h57q49 0 75.5 24t26.5 64q0 39 -26 63.5t-77 24.5h-56
v-176z" />
    <glyph glyph-name="Gamma" unicode="&#x393;" horiz-adv-x="458" 
d="M81 0v659h374l-33 -102h-220v-557h-121z" />
    <glyph glyph-name="Epsilon" unicode="&#x395;" horiz-adv-x="505" 
d="M81 0v659h364l-33 -102h-211v-172h211v-102h-211v-181h245v-102h-365z" />
    <glyph glyph-name="Zeta" unicode="&#x396;" horiz-adv-x="571" 
d="M27 0l327 557h-281l-31 102h503l-321 -557h324v-102h-521z" />
    <glyph glyph-name="Eta" unicode="&#x397;" horiz-adv-x="718" 
d="M81 0v659h120v-272h315v272h121v-659h-121v285h-315v-285h-120z" />
    <glyph glyph-name="Theta" unicode="&#x398;" horiz-adv-x="766" 
d="M383 -10q-146 0 -239 93t-93 244q0 150 93 244t239 94q147 0 239.5 -94.5t92.5 -243.5q0 -150 -93 -243.5t-239 -93.5zM383 91q93 0 150 63t57 173q0 109 -56.5 173t-150.5 64q-92 0 -149 -63t-57 -174q0 -110 57 -173t149 -63zM523 381v-97h-285v97h285z" />
    <glyph glyph-name="Iota" unicode="&#x399;" horiz-adv-x="282" 
d="M81 0v659h120v-659h-120z" />
    <glyph glyph-name="Kappa" unicode="&#x39a;" horiz-adv-x="599" 
d="M81 0v659h120v-281h3l226 281h139l-265 -320l280 -339h-147l-233 289h-3v-289h-120z" />
    <glyph glyph-name="Lambda" unicode="&#x39b;" horiz-adv-x="638" 
d="M9 0l258 662h98l263 -662h-131l-144 391q-4 12 -34 105h-2q-7 -30 -33 -103l-146 -393h-129z" />
    <glyph glyph-name="Mu" unicode="&#x39c;" horiz-adv-x="823" 
d="M81 0v659h109l173 -249q41 -60 55 -85h2q26 46 54 89l158 245h110v-659h-121v372q0 61 2 87h-2q-11 -22 -45 -74l-130 -202h-55l-144 207q-37 54 -45 68h-2q1 -26 1 -83v-375h-120z" />
    <glyph glyph-name="Nu" unicode="&#x39d;" horiz-adv-x="751" 
d="M670 0h-109l-286 376q-10 13 -74 100h-2q2 -26 2 -102v-374h-120v659h119l276 -361q54 -73 73 -102h2q-2 70 -2 111v352h121v-659z" />
    <glyph glyph-name="Xi" unicode="&#x39e;" horiz-adv-x="554" 
d="M38 0v102h477v-102h-477zM105 285v102h341v-102h-341zM51 557v102h463l-34 -102h-429z" />
    <glyph glyph-name="Omicron" unicode="&#x39f;" horiz-adv-x="766" 
d="M385 -10q-146 0 -239 93t-93 244q0 150 92.5 244t239.5 94q146 0 239 -94.5t93 -243.5q0 -150 -93.5 -243.5t-238.5 -93.5zM385 91q92 0 148 63t56 173q0 109 -55 173t-149 64q-93 0 -148.5 -63t-55.5 -174q0 -110 55.5 -173t148.5 -63z" />
    <glyph glyph-name="Pi" unicode="&#x3a0;" horiz-adv-x="689" 
d="M81 0v659h527v-659h-121v557h-285v-557h-121z" />
    <glyph glyph-name="Rho" unicode="&#x3a1;" horiz-adv-x="543" 
d="M81 0v659h159q91 0 148 -28q107 -53 107 -188q0 -63 -30.5 -114.5t-95.5 -78.5q-59 -23 -140 -23h-28v-227h-120zM201 325h36q49 0 77 15q55 27 55 103q0 70 -52 101q-29 17 -82 17h-34v-236z" />
    <glyph glyph-name="Sigma" unicode="&#x3a3;" horiz-adv-x="546" 
d="M18 0l202 346l-193 313h482l-33 -102h-251l124 -208l-140 -247h285v-102h-476z" />
    <glyph glyph-name="Tau" unicode="&#x3a4;" horiz-adv-x="539" 
d="M207 0v557h-192v102h521l-33 -102h-176v-557h-120z" />
    <glyph glyph-name="Upsilon" unicode="&#x3a5;" horiz-adv-x="614" 
d="M248 0v178q0 93 -58 206.5t-180 274.5h135q127 -168 162 -295h3q23 121 161 295h133q-121 -162 -178.5 -269.5t-57.5 -215.5v-174h-120z" />
    <glyph glyph-name="Phi" unicode="&#x3a6;" horiz-adv-x="794" 
d="M337 -20v60q-133 14 -209.5 89.5t-76.5 196.5q0 122 77.5 199t208.5 91v58h120v-58q131 -14 208.5 -91t77.5 -199q0 -121 -76.5 -196.5t-209.5 -89.5v-60h-120zM337 144v369q-77 -11 -119.5 -59.5t-42.5 -127.5q0 -77 41 -124.5t121 -57.5zM457 144q80 10 121 57.5
t41 124.5q0 79 -42.5 127.5t-119.5 59.5v-369z" />
    <glyph glyph-name="Chi" unicode="&#x3a7;" horiz-adv-x="631" 
d="M12 0l236 331l-217 328h136l156 -237l167 237h132l-231 -325l221 -334h-134l-162 243l-172 -243h-132z" />
    <glyph glyph-name="Psi" unicode="&#x3a8;" horiz-adv-x="777" 
d="M328 0v204q-135 11 -194 92.5t-59 246.5q0 66 5 116h118q-4 -76 -4 -109q0 -116 31 -175t103 -62v346h121v-346q72 3 103 61.5t31 175.5q0 58 -4 109h119q5 -67 5 -116q0 -165 -59.5 -246.5t-194.5 -92.5v-204h-121z" />
    <glyph glyph-name="uni03A9" unicode="&#x3a9;" horiz-adv-x="750" 
d="M431 0v81q70 56 104 119.5t34 145.5q0 96 -51.5 157t-142.5 61t-143 -61t-52 -157q0 -83 34 -146t105 -119v-81h-270v102h46q42 0 88 -11v3q-60 46 -95.5 112.5t-35.5 145.5q0 130 86 221.5t237 91.5t237 -91.5t86 -221.5q0 -79 -36 -145.5t-96 -112.5l1 -3q46 11 87 11
h47v-102h-270z" />
    <glyph glyph-name="Iotadieresis" unicode="&#x3aa;" horiz-adv-x="282" 
d="M81 0v659h120v-659h-120zM45 701q-25 0 -43 18t-18 43t18 43.5t43 18.5t43.5 -18t18.5 -44q0 -25 -18 -43t-44 -18zM236 701q-26 0 -43.5 17.5t-17.5 43.5t18 44t43 18t43 -18.5t18 -43.5t-18 -43t-43 -18z" />
    <glyph glyph-name="Upsilondieresis" unicode="&#x3ab;" horiz-adv-x="614" 
d="M248 0v178q0 93 -58 206.5t-180 274.5h135q127 -168 162 -295h3q23 121 161 295h133q-121 -162 -178.5 -269.5t-57.5 -215.5v-174h-120zM213 701q-25 0 -43 18t-18 43t18 43.5t43 18.5t43.5 -18t18.5 -44q0 -25 -18 -43t-44 -18zM404 701q-26 0 -43.5 17.5t-17.5 43.5
t18 44t43 18t43 -18.5t18 -43.5t-18 -43t-43 -18z" />
    <glyph glyph-name="alphatonos" unicode="&#x3ac;" horiz-adv-x="594" 
d="M224 -10q-83 0 -135.5 67.5t-52.5 180.5q0 108 52 177.5t135 69.5q118 0 164 -135h2q16 65 46 131l98 -43q-58 -114 -91 -203q1 -4 9 -32t13 -40q24 -63 64 -63q16 0 26 5l25 -99q-27 -11 -62 -11q-62 0 -97 56q-17 27 -31 79h-2q-18 -58 -60.5 -99t-102.5 -41zM237 88
q76 0 108 154q-41 145 -105 145q-37 0 -61 -41t-24 -108q0 -66 23 -108t59 -42zM426 698l-116 -167h-94l72 167h138z" />
    <glyph glyph-name="epsilontonos" unicode="&#x3ad;" horiz-adv-x="469" 
d="M404 698l-116 -167h-94l72 167h138zM260 -10q-107 0 -164 43.5t-57 107.5q0 82 83 105v2q-73 26 -73 100q0 60 53 98.5t144 38.5q92 0 165 -28v-96q-75 33 -155 33q-42 0 -66 -14.5t-24 -40.5q0 -24 25.5 -39.5t78.5 -15.5q29 0 79 2v-86q-22 3 -77 3q-116 0 -116 -59
q0 -63 110 -63q75 0 153 39l36 -78q-93 -52 -195 -52z" />
    <glyph glyph-name="etatonos" unicode="&#x3ae;" horiz-adv-x="597" 
d="M107 0v329q0 50 -33 50q-14 0 -28 -6l-24 96q39 16 78 16q85 0 107 -73h2q89 73 175 73q64 0 107 -39.5t43 -132.5v-550h-119v513q0 50 -15.5 77.5t-57.5 27.5q-56 0 -116 -50v-331h-119zM478 698l-116 -167h-94l72 167h138z" />
    <glyph glyph-name="iotatonos" unicode="&#x3af;" horiz-adv-x="288" 
d="M182 -7q-126 0 -126 121v359h120v-336q0 -41 40 -41q17 0 33 7l24 -94q-37 -16 -91 -16zM274 698l-116 -167h-94l72 167h138z" />
    <glyph glyph-name="upsilondieresistonos" unicode="&#x3b0;" horiz-adv-x="582" 
d="M8 469q41 16 84 16q111 0 111 -128q0 -20 -4 -63t-4 -65q0 -143 102 -143q57 0 86 46.5t29 128.5q0 46 -17 105.5t-50 106.5h123q66 -97 66 -218q0 -119 -62 -192t-177 -73q-105 0 -162 57t-57 160q0 27 3.5 68.5t3.5 58.5q0 44 -30 44q-9 0 -21 -5zM161 548
q-24 0 -39.5 16t-15.5 40t15.5 40t39.5 16q23 0 39 -16t16 -40t-16 -40t-39 -16zM218 531l44 167h89l-68 -167h-65zM393 548q-24 0 -39.5 16t-15.5 40t15.5 40t39.5 16q23 0 39 -16t16 -40t-16 -40t-39 -16z" />
    <glyph glyph-name="alpha" unicode="&#x3b1;" horiz-adv-x="594" 
d="M224 -10q-83 0 -135.5 67.5t-52.5 180.5q0 108 52 177.5t135 69.5q118 0 164 -135h2q16 65 46 131l98 -43q-58 -114 -91 -203q1 -4 9 -32t13 -40q24 -63 64 -63q16 0 26 5l25 -99q-27 -11 -62 -11q-62 0 -97 56q-17 27 -31 79h-2q-18 -58 -60.5 -99t-102.5 -41zM237 88
q76 0 108 154q-41 145 -105 145q-37 0 -61 -41t-24 -108q0 -66 23 -108t59 -42z" />
    <glyph glyph-name="beta" unicode="&#x3b2;" horiz-adv-x="559" 
d="M66 -237v733q0 106 58.5 159t152.5 53q102 0 159 -57t57 -134q0 -59 -26.5 -99t-70.5 -56v-2q56 -13 90.5 -58.5t34.5 -106.5q0 -92 -61.5 -148.5t-158.5 -56.5q-66 0 -114 28h-2v-255h-119zM185 120q46 -32 104 -32q49 0 80 30t31 82q0 49 -33.5 79t-98.5 30
q-15 0 -24 -1v96q6 -1 17 -1q52 0 81.5 27t29.5 78q0 43 -25.5 72.5t-68.5 29.5q-42 0 -67.5 -30t-25.5 -83v-377z" />
    <glyph glyph-name="gamma" unicode="&#x3b3;" horiz-adv-x="569" 
d="M301 143h3q43 198 173 342q14 -13 41 -39t41 -39q-78 -92 -132 -196t-84 -251v-197h-127q0 102 13 193q-4 117 -20.5 211t-51.5 156.5t-82 62.5q-15 0 -35 -6l-26 92q33 13 73 13q56 0 97.5 -29.5t65 -80.5t35.5 -108t16 -124z" />
    <glyph glyph-name="delta" unicode="&#x3b4;" horiz-adv-x="547" 
d="M198 434v2q-39 32 -59.5 61.5t-20.5 69.5q0 64 49.5 102.5t125.5 38.5q110 0 216 -47l-36 -93q-98 43 -170 43q-65 0 -65 -45q0 -23 28 -48.5t67.5 -52.5t79.5 -59.5t68 -81.5t28 -107q0 -93 -65 -160t-175 -67q-105 0 -169 63t-64 156q0 81 44 138.5t118 86.5zM389 213
q0 51 -28 87.5t-79 73.5q-59 -20 -92 -62t-33 -99t30 -92t83 -35t86 35.5t33 91.5z" />
    <glyph glyph-name="epsilon" unicode="&#x3b5;" horiz-adv-x="470" 
d="M260 -10q-107 0 -164 43.5t-57 107.5q0 82 83 105v2q-73 26 -73 100q0 60 53 98.5t144 38.5q92 0 165 -28v-96q-75 33 -155 33q-42 0 -66 -14.5t-24 -40.5q0 -24 25.5 -39.5t78.5 -15.5q29 0 79 2v-86q-22 3 -77 3q-116 0 -116 -59q0 -63 110 -63q75 0 153 39l36 -78
q-93 -52 -195 -52z" />
    <glyph glyph-name="zeta" unicode="&#x3b6;" horiz-adv-x="466" 
d="M279 -143q2 3 10 14.5t11 17t9 16t9 17.5t5.5 16t2.5 16q0 19 -16 32.5t-41 22.5t-55.5 18.5t-61 25t-55.5 37t-41 59.5t-16 88q0 120 70.5 219.5t189.5 161.5v3q-108 -30 -221 -35l-26 95q165 0 383 27l6 -68q-280 -166 -280 -384q0 -53 29.5 -85t72 -46t85 -27t72 -40
t29.5 -73q0 -72 -75 -176z" />
    <glyph glyph-name="eta" unicode="&#x3b7;" horiz-adv-x="597" 
d="M107 0v329q0 50 -33 50q-14 0 -28 -6l-24 96q39 16 78 16q85 0 107 -73h2q89 73 175 73q64 0 107 -39.5t43 -132.5v-550h-119v513q0 50 -15.5 77.5t-57.5 27.5q-56 0 -116 -50v-331h-119z" />
    <glyph glyph-name="theta" unicode="&#x3b8;" horiz-adv-x="549" 
d="M274 -10q-117 0 -176 91.5t-59 267.5q0 359 236 359q117 0 176 -91.5t59 -267.5q0 -359 -236 -359zM274 87q57 0 83.5 54t29.5 168h-225q2 -113 28 -167.5t84 -54.5zM162 402h224q-3 106 -29.5 157.5t-81.5 51.5q-56 0 -82.5 -51.5t-30.5 -157.5z" />
    <glyph glyph-name="iota" unicode="&#x3b9;" horiz-adv-x="288" 
d="M182 -7q-126 0 -126 121v359h120v-336q0 -41 40 -41q17 0 33 7l24 -94q-37 -16 -91 -16z" />
    <glyph glyph-name="kappa" unicode="&#x3ba;" horiz-adv-x="560" 
d="M180 0h-119v473h119v-204h2q59 67 146.5 126t165.5 90l37 -104q-92 -31 -202 -113l206 -268h-138l-154 204q-29 -24 -63 -62v-142z" />
    <glyph glyph-name="lambda" unicode="&#x3bb;" horiz-adv-x="518" 
d="M9 0l215 473q-29 83 -50.5 110t-57.5 27q-28 0 -62 -16l-31 91q51 23 104 23q81 0 124 -48.5t88 -174.5l175 -485h-125l-111 334h-2l-140 -334h-127z" />
    <glyph glyph-name="uni03BC" unicode="&#x3bc;" horiz-adv-x="581" 
d="M359 212v261h119v-309q0 -38 10 -51.5t32 -13.5q14 0 28 6l23 -95q-36 -17 -78 -17q-43 0 -70.5 23.5t-34.5 65.5h-2q-40 -92 -126 -92q-53 0 -81 34h-2q4 -56 4 -129v-132h-119v710h119v-286q0 -44 22 -69.5t61 -25.5q38 0 66.5 30.5t28.5 89.5z" />
    <glyph glyph-name="nu" unicode="&#x3bd;" horiz-adv-x="500" 
d="M174 -3l-167 476h121l115 -346h2q96 96 96 216q0 63 -27 130h128q22 -61 22 -125q0 -91 -51 -174t-154 -177h-85z" />
    <glyph glyph-name="xi" unicode="&#x3be;" horiz-adv-x="470" 
d="M289 -142q42 55 42 87q0 28 -29.5 45.5t-71.5 28.5t-84 26t-71.5 49.5t-29.5 86.5q0 55 34.5 96t96.5 61v2q-93 26 -93 103q0 102 168 174v3q-107 -24 -177 -27l-26 96q239 0 392 19l7 -68q-241 -79 -241 -178q0 -74 126 -74q14 0 65 3v-95q-27 4 -68 4q-68 0 -114.5 -25
t-46.5 -74q0 -33 29.5 -53t71.5 -31.5t84 -25t71.5 -44t29.5 -77.5q0 -64 -70 -161z" />
    <glyph glyph-name="omicron" unicode="&#x3bf;" horiz-adv-x="545" 
d="M272 -10q-105 0 -170.5 70t-65.5 178q0 107 65.5 177t170.5 70t171 -70t66 -177t-66 -177.5t-171 -70.5zM272 86q55 0 84.5 42t29.5 110t-29.5 109.5t-84.5 41.5t-84.5 -41.5t-29.5 -109.5t29.5 -110t84.5 -42z" />
    <glyph glyph-name="pi" unicode="&#x3c0;" horiz-adv-x="641" 
d="M112 0v380h-89v93h596l-28 -93h-89v-240q0 -41 33 -41q13 0 25 5l23 -96q-37 -15 -81 -15q-120 0 -120 119v268h-151v-380h-119z" />
    <glyph glyph-name="rho" unicode="&#x3c1;" horiz-adv-x="551" 
d="M62 -237v485q0 115 57.5 176t160.5 61q108 0 172 -65.5t64 -179.5q0 -110 -64.5 -180t-167.5 -70q-57 0 -101 26h-2v-253h-119zM181 115q40 -28 89 -28q61 0 92 43.5t31 111.5q0 71 -31.5 108.5t-79.5 37.5q-101 0 -101 -140v-133z" />
    <glyph glyph-name="sigmafinal" unicode="&#x3c2;" horiz-adv-x="447" 
d="M246 -141q47 64 47 94q0 23 -19 41.5t-47.5 30t-62 29.5t-62 40t-47.5 63t-19 96q0 106 65.5 169t168.5 63q84 0 136 -32v-101q-51 37 -124 37q-61 0 -92.5 -36t-31.5 -92q0 -47 26 -78.5t63.5 -48.5l75 -34t63.5 -46t26 -73q0 -70 -72 -172z" />
    <glyph glyph-name="sigma" unicode="&#x3c3;" horiz-adv-x="584" 
d="M432 381v-2q52 -69 52 -159q0 -99 -61.5 -164.5t-163.5 -65.5t-162.5 65t-60.5 170q0 116 67 182t184 66h301l-29 -97h-51q-39 0 -76 5zM157 223q0 -63 26 -100t77 -37q52 0 78.5 39t26.5 104q0 82 -49 149h-16q-74 0 -108.5 -42.5t-34.5 -112.5z" />
    <glyph glyph-name="tau" unicode="&#x3c4;" horiz-adv-x="459" 
d="M303 -10q-71 0 -113.5 35t-42.5 102v253h-130v93h437l-29 -93h-158v-238q0 -56 57 -56q40 0 72 21l35 -82q-55 -35 -128 -35z" />
    <glyph glyph-name="upsilon" unicode="&#x3c5;" horiz-adv-x="582" 
d="M8 469q41 16 84 16q111 0 111 -128q0 -20 -4 -63t-4 -65q0 -143 102 -143q57 0 86 46.5t29 128.5q0 46 -17 105.5t-50 106.5h123q66 -97 66 -218q0 -119 -62 -192t-177 -73q-105 0 -162 57t-57 160q0 27 3.5 68.5t3.5 58.5q0 44 -30 44q-9 0 -21 -5z" />
    <glyph glyph-name="phi" unicode="&#x3c6;" horiz-adv-x="706" 
d="M294 -237v227q-116 13 -187 81.5t-71 166.5q0 99 71 167.5t187 81.5v221h118v-221q116 -13 187 -81.5t71 -166.5q0 -99 -71 -167.5t-187 -81.5v-227h-118zM294 85v307q-60 -8 -99.5 -50.5t-39.5 -103.5t39.5 -103t99.5 -50zM412 85q60 8 99.5 50.5t39.5 103.5t-39.5 103
t-99.5 50v-307z" />
    <glyph glyph-name="chi" unicode="&#x3c7;" horiz-adv-x="536" 
d="M127 -237h-127l209 377q-42 138 -67.5 191t-63.5 53q-14 0 -31 -5l-26 92q33 13 74 13q65 0 106.5 -53t80.5 -181h2l118 223h125l-194 -349q58 -174 72 -204q30 -60 67 -62q16 0 30 6l27 -92q-33 -13 -74 -13q-69 0 -111 58t-83 198h-2z" />
    <glyph glyph-name="psi" unicode="&#x3c8;" horiz-adv-x="723" 
d="M417 -237h-118v227q-117 6 -182 63.5t-65 162.5q0 23 5 66.5t5 68.5q0 61 -25 122h117q27 -53 27 -123q0 -20 -4 -60.5t-4 -64.5q0 -61 31.5 -98.5t94.5 -41.5v623h118v-623q71 5 110 52.5t39 128.5q0 121 -61 207h123q60 -93 60 -216q0 -116 -72 -187.5t-199 -78.5v-228
z" />
    <glyph glyph-name="omega" unicode="&#x3c9;" horiz-adv-x="769" 
d="M386 124h-2q-15 -63 -57.5 -98.5t-103.5 -35.5q-84 0 -135.5 62t-51.5 157q0 150 105 273l115 -22q-103 -122 -103 -246q0 -60 22.5 -92.5t61.5 -32.5q43 0 66.5 43t23.5 118q0 64 -6 105h127q-6 -41 -6 -105q0 -75 24 -118t66 -43q39 0 61.5 32.5t22.5 92.5
q0 125 -102 246l114 22q106 -124 106 -273q0 -95 -52 -157t-136 -62q-61 0 -103.5 35.5t-56.5 98.5z" />
    <glyph glyph-name="iotadieresis" unicode="&#x3ca;" horiz-adv-x="288" 
d="M182 -7q-126 0 -126 121v359h120v-336q0 -41 40 -41q17 0 33 7l24 -94q-37 -16 -91 -16zM28 544q-25 0 -43 18t-18 43q0 26 18 44t43 18q26 0 44 -18t18 -44q0 -25 -18 -43t-44 -18zM219 544q-25 0 -43 18t-18 43q0 26 17.5 44t43.5 18q25 0 43 -18t18 -44q0 -25 -18 -43
t-43 -18z" />
    <glyph glyph-name="upsilondieresis" unicode="&#x3cb;" horiz-adv-x="582" 
d="M8 469q41 16 84 16q111 0 111 -128q0 -20 -4 -63t-4 -65q0 -143 102 -143q57 0 86 46.5t29 128.5q0 46 -17 105.5t-50 106.5h123q66 -97 66 -218q0 -119 -62 -192t-177 -73q-105 0 -162 57t-57 160q0 27 3.5 68.5t3.5 58.5q0 44 -30 44q-9 0 -21 -5zM176 544
q-25 0 -43 18t-18 43q0 26 18 44t43 18q26 0 44 -18t18 -44q0 -25 -18 -43t-44 -18zM367 544q-25 0 -43 18t-18 43q0 26 17.5 44t43.5 18q25 0 43 -18t18 -44q0 -25 -18 -43t-43 -18z" />
    <glyph glyph-name="omicrontonos" unicode="&#x3cc;" horiz-adv-x="545" 
d="M272 -10q-105 0 -170.5 70t-65.5 178q0 107 65.5 177t170.5 70t171 -70t66 -177t-66 -177.5t-171 -70.5zM272 86q55 0 84.5 42t29.5 110t-29.5 109.5t-84.5 41.5t-84.5 -41.5t-29.5 -109.5t29.5 -110t84.5 -42zM431 698l-116 -167h-94l72 167h138z" />
    <glyph glyph-name="upsilontonos" unicode="&#x3cd;" horiz-adv-x="582" 
d="M421 698l-116 -167h-94l72 167h138zM8 469q41 16 84 16q111 0 111 -128q0 -20 -4 -63t-4 -65q0 -143 102 -143q57 0 86 46.5t29 128.5q0 46 -17 105.5t-50 106.5h123q66 -97 66 -218q0 -119 -62 -192t-177 -73q-105 0 -162 57t-57 160q0 27 3.5 68.5t3.5 58.5
q0 44 -30 44q-9 0 -21 -5z" />
    <glyph glyph-name="omegatonos" unicode="&#x3ce;" horiz-adv-x="799" 
d="M400 124h-2q-15 -63 -57.5 -98.5t-103.5 -35.5q-84 0 -135.5 62t-51.5 157q0 150 105 273l115 -22q-103 -122 -103 -246q0 -60 22.5 -92.5t61.5 -32.5q43 0 66.5 43t23.5 118q0 64 -6 105h127q-6 -41 -6 -105q0 -75 24 -118t66 -43q39 0 61.5 32.5t22.5 92.5
q0 125 -102 246l114 22q106 -124 106 -273q0 -95 -52 -157t-136 -62q-61 0 -103.5 35.5t-56.5 98.5zM562 698l-116 -167h-94l72 167h138z" />
    <glyph glyph-name="uni0400" unicode="&#x400;" horiz-adv-x="505" 
d="M81 0v659h364l-33 -102h-211v-172h211v-102h-211v-181h245v-102h-365zM218 696l-97 147h130l58 -147h-91z" />
    <glyph glyph-name="afii10023" unicode="&#x401;" horiz-adv-x="505" 
d="M81 0v659h364l-33 -102h-211v-172h211v-102h-211v-181h245v-102h-365zM164 701q-25 0 -43 18t-18 43t18 43.5t43 18.5q26 0 44 -18t18 -44q0 -25 -18 -43t-44 -18zM355 701q-25 0 -43 17.5t-18 43.5t18 44t43 18t43 -18.5t18 -43.5t-18 -43t-43 -18z" />
    <glyph glyph-name="afii10051" unicode="&#x402;" horiz-adv-x="732" 
d="M207 0v561h-192v98h556l-31 -98h-212v-166q48 4 77 4q279 0 279 -212q0 -84 -52 -139t-143 -55q-51 0 -88 14l25 95q27 -9 49 -9q40 0 64 26t24 71q0 60 -41 83.5t-120 23.5q-34 0 -74 -4v-293h-121z" />
    <glyph glyph-name="afii10052" unicode="&#x403;" horiz-adv-x="458" 
d="M81 0v659h374l-33 -102h-220v-557h-121zM214 696l58 147h129l-96 -147h-91z" />
    <glyph glyph-name="afii10053" unicode="&#x404;" horiz-adv-x="634" 
d="M378 -10q-159 0 -242 90t-83 242t89.5 247.5t248.5 95.5q104 0 177 -32v-110q-79 42 -174 42q-93 0 -148 -50t-66 -133h322v-97h-323q7 -91 61 -143t150 -52q86 0 166 46l35 -94q-96 -52 -213 -52z" />
    <glyph glyph-name="afii10054" unicode="&#x405;" horiz-adv-x="536" 
d="M49 47l47 92q69 -48 149 -48q46 0 78 19t32 59q0 35 -29.5 62t-71 47t-83.5 43.5t-71.5 64.5t-29.5 97q0 76 57.5 129t156.5 53q95 0 161 -33v-110q-81 42 -157 42q-39 0 -64.5 -17t-25.5 -54q0 -33 29.5 -58.5t71 -45t83.5 -43.5t71.5 -66.5t29.5 -100.5
q0 -86 -66 -137.5t-169 -51.5q-118 0 -199 57z" />
    <glyph glyph-name="afii10055" unicode="&#x406;" horiz-adv-x="282" 
d="M81 0v659h120v-659h-120z" />
    <glyph glyph-name="afii10056" unicode="&#x407;" horiz-adv-x="282" 
d="M81 0v659h120v-659h-120zM45 701q-25 0 -43 18t-18 43t18 43.5t43 18.5t43.5 -18t18.5 -44q0 -25 -18 -43t-44 -18zM236 701q-26 0 -43.5 17.5t-17.5 43.5t18 44t43 18t43 -18.5t18 -43.5t-18 -43t-43 -18z" />
    <glyph glyph-name="afii10057" unicode="&#x408;" horiz-adv-x="331" 
d="M-30 -169l24 97q24 -12 60 -12q46 0 61 25t15 72v646h120v-662q0 -83 -46 -132.5t-140 -49.5q-52 0 -94 16z" />
    <glyph glyph-name="afii10058" unicode="&#x409;" horiz-adv-x="917" 
d="M560 99h47q74 0 108 27t34 82q0 59 -40 85q-35 23 -110 23h-39v-217zM51 -5q-24 0 -34 3v111q9 -2 20 -2q44 0 72 43q78 119 115 509h336v-244h37q121 0 187 -40q87 -50 87 -165q0 -97 -64 -153.5t-203 -56.5h-165v561h-116q-14 -154 -47 -290.5t-80 -203.5
q-51 -72 -145 -72z" />
    <glyph glyph-name="afii10059" unicode="&#x40a;" horiz-adv-x="974" 
d="M81 0v659h121v-272h292v272h121v-244h39q121 0 187 -40q86 -50 86 -165q0 -97 -63.5 -153.5t-202.5 -56.5h-167v285h-292v-285h-121zM615 99h49q142 0 142 109q0 59 -40 85q-35 23 -110 23h-41v-217z" />
    <glyph glyph-name="afii10060" unicode="&#x40b;" horiz-adv-x="764" 
d="M207 0v561h-192v98h552l-31 -98h-208v-163q54 4 80 4q105 0 169.5 -26.5t92.5 -93.5q18 -40 18 -113v-169h-121v161q0 50 -11 75q-15 38 -51.5 51.5t-94.5 13.5q-37 0 -82 -5v-296h-121z" />
    <glyph glyph-name="afii10061" unicode="&#x40c;" horiz-adv-x="625" 
d="M271 696l58 147h129l-96 -147h-91zM81 0v659h121v-277h59q33 0 56.5 22.5t34.5 50.5t27.5 72.5t29.5 69.5q39 68 115 68q37 0 64 -9v-107q-21 8 -40 8q-31 0 -47 -27q-10 -16 -26.5 -60t-36 -79.5t-46.5 -51.5v-2q40 -15 75 -82l133 -255h-139l-101 212q-34 72 -66 72
h-92v-284h-121z" />
    <glyph glyph-name="uni040D" unicode="&#x40d;" horiz-adv-x="748" 
d="M81 0v659h121v-352q0 -41 -2 -111h2q19 29 73 102l273 361h119v-659h-121v374q0 76 3 102h-2q-9 -11 -34 -45t-41 -55l-282 -376h-109zM342 696l-97 147h130l58 -147h-91z" />
    <glyph glyph-name="afii10062" unicode="&#x40e;" horiz-adv-x="603" 
d="M148 -9q-30 0 -53 5v102q22 -5 41 -5q39 0 61.5 21.5t52.5 76.5l-237 468h134l165 -346h2l148 346h132l-232 -496q-43 -93 -94 -132.5t-120 -39.5zM305 685q-88 0 -135.5 47t-45.5 123h100q0 -37 19.5 -59.5t61.5 -22.5t62 22.5t20 59.5h100q2 -75 -46.5 -122.5
t-135.5 -47.5z" />
    <glyph glyph-name="afii10145" unicode="&#x40f;" horiz-adv-x="692" 
d="M81 0v659h121v-552h288v552h121v-659h-207v-187h-116v187h-207z" />
    <glyph glyph-name="afii10017" unicode="&#x410;" horiz-adv-x="634" 
d="M9 0l255 662h96l265 -662h-130l-64 165h-235l-62 -165h-125zM231 263h163l-46 131q-21 59 -33 102h-2q-7 -26 -34 -103z" />
    <glyph glyph-name="afii10018" unicode="&#x411;" horiz-adv-x="569" 
d="M202 99h58q73 0 107 25t34 78q0 61 -42 84q-35 20 -107 20h-50v-207zM81 0v659h417l-32 -98h-264v-157h48q118 0 180 -33q93 -49 93 -166q0 -205 -266 -205h-176z" />
    <glyph glyph-name="afii10019" unicode="&#x412;" horiz-adv-x="569" 
d="M81 0v659h193q100 0 152.5 -48.5t52.5 -118.5q0 -44 -21 -80.5t-59 -55.5v-2q57 -14 90.5 -57.5t33.5 -101.5q0 -82 -61 -138.5t-170 -56.5h-211zM201 99h77q123 0 123 96q0 42 -29.5 66t-80.5 24h-90v-186zM201 384h57q49 0 75.5 24t26.5 64q0 39 -26 63.5t-77 24.5h-56
v-176z" />
    <glyph glyph-name="afii10020" unicode="&#x413;" horiz-adv-x="458" 
d="M81 0v659h374l-33 -102h-220v-557h-121z" />
    <glyph glyph-name="afii10021" unicode="&#x414;" horiz-adv-x="701" 
d="M25 -187v290h41q125 153 187 556h331v-556h87v-290h-116v187h-414v-187h-116zM463 103v458h-116q-41 -290 -148 -456v-2h264z" />
    <glyph glyph-name="afii10022" unicode="&#x415;" horiz-adv-x="505" 
d="M81 0v659h364l-33 -102h-211v-172h211v-102h-211v-181h245v-102h-365z" />
    <glyph glyph-name="afii10024" unicode="&#x416;" horiz-adv-x="915" 
d="M25 0l118 241q21 43 39 64t40 28v2q-27 17 -44.5 53.5t-30.5 80.5t-24 62q-15 26 -45 26q-23 0 -42 -7v106q27 9 61 9q75 0 114 -68q15 -28 33 -91t40 -95.5t64 -32.5h51v281h117v-281h52q42 0 64 32.5t40 95.5t33 91q37 68 113 68q34 0 61 -9v-106q-19 7 -41 7
q-31 0 -46 -26q-10 -18 -23 -62t-30.5 -80.5t-44.5 -53.5v-2q41 -14 78 -92l119 -241h-136l-92 209q-19 41 -33 56.5t-30 15.5h-84v-281h-117v281h-83q-16 0 -30 -15.5t-33 -56.5l-93 -209h-135z" />
    <glyph glyph-name="afii10025" unicode="&#x417;" horiz-adv-x="529" 
d="M227 -10q-96 0 -173 32v104q75 -35 164 -35q65 0 101 26.5t36 75.5q0 94 -148 94q-47 0 -75 -2v99q22 -2 61 -2q147 0 147 93q0 42 -28.5 65.5t-86.5 23.5q-75 0 -152 -40l-32 93q90 48 200 48t167.5 -51.5t57.5 -126.5q0 -107 -110 -148v-2q60 -11 92.5 -50t32.5 -98
q0 -89 -65 -144t-189 -55z" />
    <glyph glyph-name="afii10026" unicode="&#x418;" horiz-adv-x="748" 
d="M81 0v659h121v-352q0 -41 -2 -111h2q19 29 73 102l273 361h119v-659h-121v374q0 76 3 102h-2q-9 -11 -34 -45t-41 -55l-282 -376h-109z" />
    <glyph glyph-name="afii10027" unicode="&#x419;" horiz-adv-x="748" 
d="M81 0v659h121v-352q0 -41 -2 -111h2q19 29 73 102l273 361h119v-659h-121v374q0 76 3 102h-2q-9 -11 -34 -45t-41 -55l-282 -376h-109zM377 685q-88 0 -135.5 47t-45.5 123h100q0 -37 19.5 -59.5t61.5 -22.5t62 22.5t20 59.5h100q2 -75 -46.5 -122.5t-135.5 -47.5z" />
    <glyph glyph-name="afii10028" unicode="&#x41a;" horiz-adv-x="625" 
d="M81 0v659h121v-277h59q33 0 56.5 22.5t34.5 50.5t27.5 72.5t29.5 69.5q39 68 115 68q37 0 64 -9v-107q-21 8 -40 8q-31 0 -47 -27q-10 -16 -26.5 -60t-36 -79.5t-46.5 -51.5v-2q40 -15 75 -82l133 -255h-139l-101 212q-34 72 -66 72h-92v-284h-121z" />
    <glyph glyph-name="afii10029" unicode="&#x41b;" horiz-adv-x="653" 
d="M51 -5q-24 0 -34 3v111q9 -2 20 -2q44 0 72 43q78 119 115 509h348v-659h-120v561h-129q-14 -154 -47 -290.5t-80 -203.5q-51 -72 -145 -72z" />
    <glyph glyph-name="afii10030" unicode="&#x41c;" horiz-adv-x="823" 
d="M81 0v659h109l173 -249q41 -60 55 -85h2q26 46 54 89l158 245h110v-659h-121v372q0 61 2 87h-2q-11 -22 -45 -74l-130 -202h-55l-144 207q-37 54 -45 68h-2q1 -26 1 -83v-375h-120z" />
    <glyph glyph-name="afii10031" unicode="&#x41d;" horiz-adv-x="718" 
d="M81 0v659h120v-272h315v272h121v-659h-121v285h-315v-285h-120z" />
    <glyph glyph-name="afii10032" unicode="&#x41e;" horiz-adv-x="770" 
d="M385 -10q-146 0 -239 93t-93 244q0 150 92.5 244t239.5 94q146 0 239 -94.5t93 -243.5q0 -150 -93.5 -243.5t-238.5 -93.5zM385 91q92 0 148 63t56 173q0 109 -55 173t-149 64q-93 0 -148.5 -63t-55.5 -174q0 -110 55.5 -173t148.5 -63z" />
    <glyph glyph-name="afii10033" unicode="&#x41f;" horiz-adv-x="689" 
d="M81 0v659h527v-659h-121v557h-285v-557h-121z" />
    <glyph glyph-name="afii10034" unicode="&#x420;" horiz-adv-x="543" 
d="M81 0v659h159q91 0 148 -28q107 -53 107 -188q0 -63 -30.5 -114.5t-95.5 -78.5q-59 -23 -140 -23h-28v-227h-120zM201 325h36q49 0 77 15q55 27 55 103q0 70 -52 101q-29 17 -82 17h-34v-236z" />
    <glyph glyph-name="afii10035" unicode="&#x421;" horiz-adv-x="629" 
d="M566 137l33 -95q-95 -52 -209 -52q-158 0 -245.5 91.5t-87.5 240.5q0 146 96 244.5t252 98.5q100 0 173 -32v-112q-81 43 -170 43q-105 0 -164 -68.5t-59 -170.5q0 -105 59.5 -169.5t159.5 -64.5q82 0 162 46z" />
    <glyph glyph-name="afii10036" unicode="&#x422;" horiz-adv-x="539" 
d="M207 0v557h-192v102h521l-33 -102h-176v-557h-120z" />
    <glyph glyph-name="afii10037" unicode="&#x423;" horiz-adv-x="603" 
d="M148 -9q-30 0 -53 5v102q22 -5 41 -5q39 0 61.5 21.5t52.5 76.5l-237 468h134l165 -346h2l148 346h132l-232 -496q-43 -93 -94 -132.5t-120 -39.5z" />
    <glyph glyph-name="afii10038" unicode="&#x424;" horiz-adv-x="782" 
d="M331 -18v90q-134 11 -206 76t-72 183q0 116 73.5 183t204.5 78v82h121v-82q131 -11 204 -78.5t73 -182.5q0 -119 -72 -183.5t-205 -75.5v-90h-121zM331 176v313q-156 -16 -156 -158q0 -143 156 -155zM452 176q77 7 115.5 44.5t38.5 110.5q0 142 -154 158v-313z" />
    <glyph glyph-name="afii10039" unicode="&#x425;" horiz-adv-x="635" 
d="M12 0l236 331l-217 328h136l156 -237l167 237h132l-231 -325l221 -334h-134l-162 243l-172 -243h-132z" />
    <glyph glyph-name="afii10040" unicode="&#x426;" horiz-adv-x="720" 
d="M81 0v659h121v-556h280v556h120v-556h88v-290h-117v187h-492z" />
    <glyph glyph-name="afii10041" unicode="&#x427;" horiz-adv-x="637" 
d="M435 0v261q-54 -4 -82 -4q-105 0 -170.5 26.5t-93.5 93.5q-18 43 -18 113v169h121v-161q0 -47 11 -75q26 -65 148 -65q39 0 84 5v296h121v-659h-121z" />
    <glyph glyph-name="afii10042" unicode="&#x428;" horiz-adv-x="948" 
d="M81 0v659h121v-556h212v556h120v-556h212v556h121v-659h-786z" />
    <glyph glyph-name="afii10043" unicode="&#x429;" horiz-adv-x="981" 
d="M81 0v659h121v-556h210v556h121v-556h210v556h121v-556h87v-290h-117v187h-753z" />
    <glyph glyph-name="afii10044" unicode="&#x42a;" horiz-adv-x="712" 
d="M233 0v561h-201l-31 98h353v-244h39q121 0 186 -40q87 -50 87 -165q0 -97 -63.5 -153.5t-202.5 -56.5h-167zM354 99h49q142 0 142 109q0 58 -41 85q-34 23 -109 23h-41v-217z" />
    <glyph glyph-name="afii10045" unicode="&#x42b;" horiz-adv-x="785" 
d="M81 0v659h121v-244h32q114 0 176 -33q98 -51 98 -172q0 -97 -64 -153.5t-203 -56.5h-160zM202 99h42q74 0 108 27t34 82q0 62 -46 88q-33 20 -104 20h-34v-217zM583 0v659h121v-659h-121z" />
    <glyph glyph-name="afii10046" unicode="&#x42c;" horiz-adv-x="569" 
d="M202 99h58q73 0 107 27t34 82q0 60 -41 86q-34 22 -110 22h-48v-217zM81 0v659h121v-244h45q112 0 177 -33q99 -51 99 -172q0 -97 -63.5 -153.5t-202.5 -56.5h-176z" />
    <glyph glyph-name="afii10047" unicode="&#x42d;" horiz-adv-x="618" 
d="M235 -10q-100 0 -175 31v105q77 -36 169 -36q95 0 148.5 50.5t60.5 144.5h-308v97h307q-9 82 -62 132.5t-145 50.5q-80 0 -155 -39l-32 92q96 47 198 47q152 0 238 -95.5t86 -243.5q0 -153 -85 -244.5t-245 -91.5z" />
    <glyph glyph-name="afii10048" unicode="&#x42e;" horiz-adv-x="1016" 
d="M81 0v659h121v-272h148q17 126 98 202t207 76q141 0 224.5 -94t83.5 -244q0 -151 -84 -244t-224 -93q-130 0 -212.5 80.5t-94.5 214.5h-146v-285h-121zM655 91q84 0 131.5 62.5t47.5 173.5t-46.5 174t-132.5 63q-85 0 -132.5 -63t-47.5 -174t47.5 -173.5t132.5 -62.5z
" />
    <glyph glyph-name="afii10049" unicode="&#x42f;" horiz-adv-x="607" 
d="M25 0l110 218q20 38 33 55.5t32 27.5v2q-54 19 -82.5 61.5t-28.5 98.5q0 93 63 144.5t164 51.5h211v-659h-121v257h-95q-16 0 -29.5 -15.5t-32.5 -56.5l-84 -185h-140zM215 455q0 -51 32.5 -75.5t88.5 -24.5h70v206h-73q-53 0 -85.5 -27t-32.5 -79z" />
    <glyph glyph-name="afii10065" unicode="&#x430;" horiz-adv-x="495" 
d="M345 0l-18 45q-60 -55 -136 -55q-68 0 -112.5 42t-44.5 109q0 88 80 129q46 24 122 27l81 3v15q0 79 -91 79q-62 0 -124 -33l-39 77q85 47 183 47q190 0 190 -172v-192q0 -89 9 -121h-100zM317 220l-64 -2q-45 -1 -69 -15q-29 -16 -29 -54q0 -31 19 -48t51 -17
q49 0 92 35v101z" />
    <glyph glyph-name="afii10066" unicode="&#x431;" horiz-adv-x="537" 
d="M268 -10q-108 0 -168.5 75t-60.5 235q0 87 22.5 166.5t59.5 116.5q11 12 24.5 22.5t24 18t32 15.5t33.5 12.5t44.5 12.5t49.5 12.5t63 15t72 16.5v-107q-188 -46 -215 -57q-37 -14 -54 -36q-24 -31 -34 -91h2q65 38 137 38q99 0 149.5 -61.5t50.5 -157.5q0 -110 -60 -178
t-172 -68zM271 86q55 0 81 39t26 102q0 59 -23.5 97.5t-77.5 38.5q-55 0 -119 -34q-1 -13 -1 -34q0 -104 30 -156.5t84 -52.5z" />
    <glyph glyph-name="afii10067" unicode="&#x432;" horiz-adv-x="486" 
d="M59 0v473h189q99 0 145 -37t46 -90q0 -78 -80 -102v-2q40 -8 66 -35.5t26 -70.5q0 -57 -46.5 -96.5t-149.5 -39.5h-196zM174 85h86q73 0 73 57q0 58 -70 58h-89v-115zM174 279h79q68 0 68 54q0 55 -72 55h-75v-109z" />
    <glyph glyph-name="afii10068" unicode="&#x433;" horiz-adv-x="421" 
d="M59 0v473h345l-34 -106h-192v-367h-119z" />
    <glyph glyph-name="afii10069" unicode="&#x434;" horiz-adv-x="580" 
d="M23 -167v263h31q49 60 77.5 142.5t56.5 234.5h291v-377h67v-263h-110v167h-303v-167h-110zM360 96v280h-85q-30 -177 -93 -278v-2h178z" />
    <glyph glyph-name="afii10070" unicode="&#x435;" horiz-adv-x="496" 
d="M460 204h-303q2 -55 38.5 -87.5t95.5 -32.5q62 0 119 32l36 -82q-71 -44 -167 -44q-121 0 -181.5 70.5t-60.5 175.5q0 109 57 179t156 70t154.5 -67.5t55.5 -185.5v-28zM156 287h183q-1 45 -24 76t-67 31q-42 0 -66.5 -31t-25.5 -76z" />
    <glyph glyph-name="afii10072" unicode="&#x436;" horiz-adv-x="723" 
d="M18 0l83 179q22 47 55 58v2q-23 14 -40.5 65t-25.5 62q-12 16 -33 16q-14 0 -27 -5v101q18 7 49 7q56 0 84 -41q15 -21 28.5 -64.5t28.5 -69.5t41 -26h43v189h116v-189h43q26 0 40.5 26t28 69.5t28.5 64.5q30 41 84 41q31 0 49 -7v-101q-13 5 -27 5q-21 0 -33 -16
q-9 -11 -26 -62t-39 -65v-2q32 -11 54 -58l83 -179h-127l-59 149q-18 46 -41 46h-58v-195h-116v195h-59q-21 0 -41 -46l-59 -149h-127z" />
    <glyph glyph-name="afii10073" unicode="&#x437;" horiz-adv-x="441" 
d="M200 -10q-81 0 -149 32v91q71 -33 139 -33q97 0 97 63q0 57 -115 57q-28 0 -59 -3v85q24 -1 65 -1q99 0 99 59q0 25 -21 39.5t-59 14.5q-59 0 -121 -29l-32 82q78 38 162 38q86 0 137 -38t51 -98q0 -36 -19 -63t-54 -39v-2q84 -23 84 -104q0 -61 -52.5 -106t-152.5 -45z
" />
    <glyph glyph-name="afii10074" unicode="&#x438;" horiz-adv-x="560" 
d="M59 0v473h117v-210q0 -46 -4 -102h2q27 45 63 99l148 213h116v-473h-117v210q0 46 4 102h-2q-34 -58 -63 -99l-148 -213h-116z" />
    <glyph glyph-name="afii10075" unicode="&#x439;" horiz-adv-x="560" 
d="M59 0v473h117v-210q0 -46 -4 -102h2q27 45 63 99l148 213h116v-473h-117v210q0 46 4 102h-2q-34 -58 -63 -99l-148 -213h-116zM284 541q-83 0 -127.5 46.5t-42.5 122.5h99q0 -84 71 -84q72 0 72 84h99q2 -76 -43 -122.5t-128 -46.5z" />
    <glyph glyph-name="afii10076" unicode="&#x43a;" horiz-adv-x="496" 
d="M59 0v473h119v-186h55q26 0 41 25t28.5 67.5t27.5 63.5q31 42 87 42q29 0 49 -7v-101q-11 4 -27 4q-21 0 -33 -15q-7 -10 -26 -60.5t-42 -64.5v-2q33 -12 55 -58l86 -181h-129l-60 151q-20 45 -41 45h-71v-196h-119z" />
    <glyph glyph-name="afii10077" unicode="&#x43b;" horiz-adv-x="527" 
d="M41 -7q-19 0 -30 3v105q7 -1 16 -1q30 0 50 31q62 90 94 342h297v-473h-119v368h-88q-27 -225 -102 -320q-43 -55 -118 -55z" />
    <glyph glyph-name="afii10078" unicode="&#x43c;" horiz-adv-x="623" 
d="M59 0v473h117l72 -118q17 -26 63 -112h2q38 73 63 112l71 118h117v-473h-116v208q0 34 3 91h-3q-12 -26 -44 -78l-67 -109h-51l-67 110q-32 51 -44 77h-3q3 -29 3 -95v-204h-116z" />
    <glyph glyph-name="afii10079" unicode="&#x43d;" horiz-adv-x="543" 
d="M59 0v473h119v-170h186v170h120v-473h-120v199h-186v-199h-119z" />
    <glyph glyph-name="afii10080" unicode="&#x43e;" horiz-adv-x="545" 
d="M272 -10q-105 0 -170.5 70t-65.5 178q0 107 65.5 177t170.5 70t171 -70t66 -177t-66 -177.5t-171 -70.5zM272 86q55 0 84.5 42t29.5 110t-29.5 109.5t-84.5 41.5t-84.5 -41.5t-29.5 -109.5t29.5 -110t84.5 -42z" />
    <glyph glyph-name="afii10081" unicode="&#x43f;" horiz-adv-x="534" 
d="M59 0v473h416v-473h-119v367h-178v-367h-119z" />
    <glyph glyph-name="afii10082" unicode="&#x440;" horiz-adv-x="530" 
d="M56 -237v692q87 30 179 30q125 0 192 -66t67 -181q0 -110 -68 -179t-178 -69q-37 0 -73 11v-238h-119zM175 101q31 -12 64 -12q65 0 99 39.5t34 109.5q0 74 -37.5 111.5t-103.5 37.5q-27 0 -56 -8v-278z" />
    <glyph glyph-name="afii10083" unicode="&#x441;" horiz-adv-x="450" 
d="M275 -10q-112 0 -175.5 68.5t-63.5 174.5q0 109 71.5 180.5t178.5 71.5q77 0 127 -32v-101q-51 37 -115 37q-65 0 -102.5 -43t-37.5 -110q0 -72 36 -111t98 -39q51 0 110 32l35 -82q-67 -46 -162 -46z" />
    <glyph glyph-name="afii10084" unicode="&#x442;" horiz-adv-x="469" 
d="M167 0v374h-144v99h434l-31 -99h-140v-374h-119z" />
    <glyph glyph-name="afii10085" unicode="&#x443;" horiz-adv-x="521" 
d="M514 473l-181 -488q-27 -71 -55.5 -117.5t-60 -68t-58.5 -29t-64 -7.5q-56 0 -106 22l30 94q35 -19 71 -19q42 0 73.5 32.5t58.5 110.5l-213 470h127l140 -334h2l113 334h123z" />
    <glyph glyph-name="afii10086" unicode="&#x444;" horiz-adv-x="669" 
d="M277 -237v228q-115 11 -177.5 79t-62.5 167t62.5 167t177.5 79v205h114v-205q115 -11 178 -79t63 -167t-63 -167t-178 -79v-228h-114zM278 89v297q-58 -8 -91 -49.5t-33 -99.5t33 -99.5t91 -48.5zM391 89q58 7 91 48.5t33 99.5t-33 100t-91 49v-297z" />
    <glyph glyph-name="afii10087" unicode="&#x445;" horiz-adv-x="497" 
d="M8 0l177 238l-171 235h125l111 -154l112 154h124l-173 -235l175 -238h-125l-114 158l-116 -158h-125z" />
    <glyph glyph-name="afii10088" unicode="&#x446;" horiz-adv-x="568" 
d="M59 0v473h119v-370h170v370h120v-370h66v-270h-110v167h-365z" />
    <glyph glyph-name="afii10089" unicode="&#x447;" horiz-adv-x="511" 
d="M333 0v172q-45 -7 -85 -7q-97 0 -147 38t-50 110v160h119v-144q0 -34 21 -51t69 -17q37 0 73 7v205h119v-473h-119z" />
    <glyph glyph-name="afii10090" unicode="&#x448;" horiz-adv-x="738" 
d="M59 0v473h116v-371h136v371h116v-371h135v371h117v-473h-620z" />
    <glyph glyph-name="afii10091" unicode="&#x449;" horiz-adv-x="767" 
d="M59 0v473h116v-371h130v371h115v-371h130v371h117v-371h66v-269h-110v167h-564z" />
    <glyph glyph-name="afii10092" unicode="&#x44a;" horiz-adv-x="609" 
d="M194 0v374h-156l-28 99h303v-168q34 2 54 2q110 0 159 -42t49 -109q0 -156 -210 -156h-171zM313 91h49q55 0 74.5 16.5t19.5 46.5q0 29 -20 45t-74 16q-19 0 -49 -2v-122z" />
    <glyph glyph-name="afii10093" unicode="&#x44b;" horiz-adv-x="673" 
d="M59 0v473h119v-168q36 2 52 2q106 0 154.5 -42t48.5 -109q0 -71 -48.5 -113.5t-158.5 -42.5h-167zM178 91h45q54 0 72.5 16.5t18.5 46.5q0 29 -19 45t-71 16q-14 0 -46 -2v-122zM494 0v473h120v-473h-120z" />
    <glyph glyph-name="afii10094" unicode="&#x44c;" horiz-adv-x="482" 
d="M59 0v473h119v-168q36 2 55 2q114 0 164.5 -42.5t50.5 -108.5q0 -156 -216 -156h-173zM178 91h51q58 0 79 16.5t21 46.5q0 29 -22 45t-79 16q-18 0 -50 -2v-122z" />
    <glyph glyph-name="afii10095" unicode="&#x44d;" horiz-adv-x="460" 
d="M187 -10q-71 0 -130 28v91q58 -30 118 -30q120 0 132 121h-189v83h186q-8 50 -40.5 80.5t-86.5 30.5q-49 0 -99 -26l-32 82q70 35 144 35q104 0 168.5 -69.5t64.5 -178.5q0 -110 -62 -178.5t-174 -68.5z" />
    <glyph glyph-name="afii10096" unicode="&#x44e;" horiz-adv-x="749" 
d="M59 0v473h119v-176h95q16 85 73 136.5t144 51.5q102 0 162 -69t60 -178t-60 -178.5t-162 -69.5q-90 0 -148.5 56t-70.5 147h-93v-193h-119zM490 86q101 0 101 152q0 151 -101 151t-101 -151q0 -152 101 -152z" />
    <glyph glyph-name="afii10097" unicode="&#x44f;" horiz-adv-x="495" 
d="M25 0l66 142q22 47 51 59v2q-81 33 -81 123q0 65 43.5 106t133.5 41h198v-473h-119v166h-74q-24 0 -42 -45l-47 -121h-129zM179 316q0 -28 18 -45t52 -17h68v128h-67q-36 0 -53.5 -18t-17.5 -48z" />
    <glyph glyph-name="uni0450" unicode="&#x450;" horiz-adv-x="496" 
d="M460 204h-303q2 -55 38.5 -87.5t95.5 -32.5q62 0 119 32l36 -82q-71 -44 -167 -44q-121 0 -181.5 70.5t-60.5 175.5q0 109 57 179t156 70t154.5 -67.5t55.5 -185.5v-28zM156 287h183q-1 45 -24 76t-67 31q-42 0 -66.5 -31t-25.5 -76zM222 531l-97 147h130l58 -147h-91z
" />
    <glyph glyph-name="afii10071" unicode="&#x451;" horiz-adv-x="496" 
d="M460 204h-303q2 -55 38.5 -87.5t95.5 -32.5q62 0 119 32l36 -82q-71 -44 -167 -44q-121 0 -181.5 70.5t-60.5 175.5q0 109 57 179t156 70t154.5 -67.5t55.5 -185.5v-28zM156 287h183q-1 45 -24 76t-67 31q-42 0 -66.5 -31t-25.5 -76zM157 544q-25 0 -43 18t-18 43
q0 26 18 44t43 18q26 0 44 -18t18 -44q0 -25 -18 -43t-44 -18zM348 544q-26 0 -43.5 18t-17.5 43q0 26 17.5 44t43.5 18q25 0 43 -18t18 -44q0 -25 -18 -43t-43 -18z" />
    <glyph glyph-name="afii10099" unicode="&#x452;" horiz-adv-x="547" 
d="M64 0v544h-57v91h57v73h119v-73h143v-91h-143v-143q70 65 142 65q83 0 133.5 -74t50.5 -202q0 -126 -47 -211t-143 -136l-58 86q72 41 99 102.5t27 151.5q0 84 -25.5 131.5t-75.5 47.5q-48 0 -103 -50v-312h-119z" />
    <glyph glyph-name="afii10100" unicode="&#x453;" horiz-adv-x="421" 
d="M178 531l58 147h129l-96 -147h-91zM59 0v473h345l-34 -106h-192v-367h-119z" />
    <glyph glyph-name="afii10101" unicode="&#x454;" horiz-adv-x="463" 
d="M270 -10q-110 0 -171.5 67.5t-61.5 175.5q0 112 67 182t174 70q80 0 132 -32v-96q-51 37 -119 37q-57 0 -92 -30t-44 -81h185v-83h-187q5 -58 39 -89.5t93 -31.5q57 0 114 33l36 -76q-67 -46 -165 -46z" />
    <glyph glyph-name="afii10102" unicode="&#x455;" horiz-adv-x="422" 
d="M22 36l37 87q61 -39 129 -39q83 0 83 50q0 22 -23 37t-55.5 26t-65 26t-55.5 45t-23 74q0 64 48.5 103.5t130.5 39.5q75 0 139 -23v-101q-71 30 -134 30q-67 0 -67 -43q0 -20 23 -34t55.5 -25.5t65 -27t55.5 -47t23 -77.5q0 -74 -54.5 -110.5t-137.5 -36.5q-99 0 -174 46
z" />
    <glyph glyph-name="afii10103" unicode="&#x456;" horiz-adv-x="238" 
d="M59 0v473h120v-473h-120zM119 550q-31 0 -52 20.5t-21 50.5t21 51t52 21q32 0 53 -20.5t21 -51.5q0 -29 -21.5 -50t-52.5 -21z" />
    <glyph glyph-name="afii10104" unicode="&#x457;" horiz-adv-x="238" 
d="M24 544q-25 0 -43 18t-18 43q0 26 18 44t43 18q26 0 44 -18t18 -44q0 -25 -18 -43t-44 -18zM215 544q-25 0 -43 18t-18 43q0 26 17.5 44t43.5 18q25 0 43 -18t18 -44q0 -25 -18 -43t-43 -18zM59 0v473h120v-473h-120z" />
    <glyph glyph-name="afii10105" unicode="&#x458;" horiz-adv-x="252" 
d="M-61 -220l22 98q23 -11 51 -11q33 0 47 19t14 62v525h120v-543q0 -79 -43.5 -123t-119.5 -44q-52 0 -91 17zM133 550q-31 0 -52 20.5t-21 50.5t21 51t52 21q32 0 53 -20.5t21 -51.5q0 -29 -21.5 -50t-52.5 -21z" />
    <glyph glyph-name="afii10106" unicode="&#x459;" horiz-adv-x="754" 
d="M456 91h52q53 0 72.5 16.5t19.5 46.5q0 29 -20.5 45t-73.5 16q-20 0 -50 -2v-122zM41 -7q-19 0 -30 3v105q7 -1 16 -1q30 0 50 31q62 90 94 342h285v-168q34 2 55 2q110 0 159 -42t49 -109q0 -71 -49.5 -113.5t-159.5 -42.5h-170v368h-79q-27 -225 -102 -320
q-43 -55 -118 -55z" />
    <glyph glyph-name="afii10107" unicode="&#x45a;" horiz-adv-x="770" 
d="M59 0v473h119v-170h175v170h119v-168q34 2 54 2q110 0 159.5 -42t49.5 -109q0 -71 -49 -113.5t-160 -42.5h-173v199h-175v-199h-119zM472 91h51q54 0 73.5 16.5t19.5 46.5q0 29 -20.5 45t-74.5 16q-19 0 -49 -2v-122z" />
    <glyph glyph-name="afii10108" unicode="&#x45b;" horiz-adv-x="554" 
d="M64 0v544h-57v91h57v73h119v-73h133v-91h-133v-143q76 65 159 65q67 0 110 -39.5t43 -133.5v-293h-119v259q0 50 -15.5 76.5t-58.5 26.5q-59 0 -119 -50v-312h-119z" />
    <glyph glyph-name="afii10109" unicode="&#x45c;" horiz-adv-x="496" 
d="M202 531l58 147h129l-96 -147h-91zM59 0v473h119v-186h55q26 0 41 25t28.5 67.5t27.5 63.5q31 42 87 42q29 0 49 -7v-101q-11 4 -27 4q-21 0 -33 -15q-7 -10 -26 -60.5t-42 -64.5v-2q33 -12 55 -58l86 -181h-129l-60 151q-20 45 -41 45h-71v-196h-119z" />
    <glyph glyph-name="uni045D" unicode="&#x45d;" horiz-adv-x="560" 
d="M248 531l-97 147h130l58 -147h-91zM59 0v473h117v-210q0 -46 -4 -102h2q27 45 63 99l148 213h116v-473h-117v210q0 46 4 102h-2q-34 -58 -63 -99l-148 -213h-116z" />
    <glyph glyph-name="afii10110" unicode="&#x45e;" horiz-adv-x="521" 
d="M514 473l-181 -488q-27 -71 -55.5 -117.5t-60 -68t-58.5 -29t-64 -7.5q-56 0 -106 22l30 94q35 -19 71 -19q42 0 73.5 32.5t58.5 110.5l-213 470h127l140 -334h2l113 334h123zM266 541q-83 0 -127.5 46.5t-42.5 122.5h99q0 -84 71 -84q72 0 72 84h99q2 -76 -43 -122.5
t-128 -46.5z" />
    <glyph glyph-name="afii10193" unicode="&#x45f;" horiz-adv-x="536" 
d="M212 -167v167h-153v473h119v-370h179v370h120v-473h-154v-167h-111z" />
    <glyph glyph-name="afii10146" unicode="&#x462;" horiz-adv-x="623" 
d="M135 0v507h-127v98h127v87h121v-87h171l-31 -98h-140v-108h48q108 0 171 -28q102 -47 102 -169q0 -94 -63.5 -148t-202.5 -54h-176zM256 99h58q73 0 107.5 24.5t34.5 75.5q0 59 -42 82q-31 19 -108 19h-50v-201z" />
    <glyph glyph-name="afii10194" unicode="&#x463;" horiz-adv-x="550" 
d="M126 0v385h-126v88h126v135h120v-135h173l-28 -88h-145v-89q34 2 54 2q215 0 215 -146q0 -152 -216 -152h-173zM246 90h50q57 0 78.5 15.5t21.5 44.5t-22 44.5t-79 15.5q-19 0 -49 -2v-118z" />
    <glyph glyph-name="afii10147" unicode="&#x472;" horiz-adv-x="766" 
d="M383 -10q-150 0 -240 91t-90 246q0 154 90 246t240 92t240 -92.5t90 -245.5q0 -155 -90 -246t-240 -91zM383 90q88 0 141 50.5t60 144.5h-402q7 -95 60 -145t141 -50zM184 387h398q-11 85 -62.5 131.5t-136.5 46.5q-83 0 -135 -46.5t-64 -131.5z" />
    <glyph glyph-name="afii10195" unicode="&#x473;" horiz-adv-x="541" 
d="M270 -10q-108 0 -170.5 68t-62.5 180q0 111 62.5 179t171.5 68q107 0 170 -68t63 -179q0 -112 -63 -180t-171 -68zM270 82q51 0 80 31.5t34 86.5h-228q5 -55 34 -86.5t80 -31.5zM156 281h227q-5 52 -33.5 82t-78.5 30t-79.5 -30t-35.5 -82z" />
    <glyph glyph-name="afii10148" unicode="&#x474;" horiz-adv-x="666" 
d="M255 -4l-246 663h130l125 -358q23 -66 43 -134h2q63 248 107 360q29 72 68 105t100 33q40 0 71 -9v-106q-24 8 -45 8q-29 0 -48 -20t-37 -63q-25 -57 -163 -479h-107z" />
    <glyph glyph-name="afii10196" unicode="&#x475;" horiz-adv-x="500" 
d="M193 -3l-186 476h120l112 -322h2q33 147 51 202q24 72 56 102t87 30q29 0 58 -8v-100q-14 6 -32 6q-24 0 -40.5 -20t-32.5 -63q-31 -83 -95 -303h-100z" />
    <glyph glyph-name="afii10050" unicode="&#x490;" horiz-adv-x="512" 
d="M81 0v659h294v152l109 28v-278h-282v-561h-121z" />
    <glyph glyph-name="afii10098" unicode="&#x491;" horiz-adv-x="433" 
d="M59 0v473h243v140l107 27v-272h-231v-368h-119z" />
    <glyph glyph-name="Wgrave" unicode="&#x1e80;" horiz-adv-x="944" 
d="M240 -4l-233 663h136l121 -379q10 -30 32 -111h2q13 46 34 110l89 265l-41 115h122l127 -373q27 -76 37 -116h3q22 88 30 114l114 375h124l-222 -663h-102l-99 279q-27 76 -36 110h-3q-14 -51 -35 -109l-100 -280h-100zM430 696l-97 147h130l58 -147h-91z" />
    <glyph glyph-name="wgrave" unicode="&#x1e81;" horiz-adv-x="748" 
d="M178 -3l-171 476h121l100 -321h2l100 321h93l104 -321h2l98 321h118l-175 -476h-88l-104 321h-2l-106 -321h-92zM346 531l-97 147h130l58 -147h-91z" />
    <glyph glyph-name="Wacute" unicode="&#x1e82;" horiz-adv-x="944" 
d="M240 -4l-233 663h136l121 -379q10 -30 32 -111h2q13 46 34 110l89 265l-41 115h122l127 -373q27 -76 37 -116h3q22 88 30 114l114 375h124l-222 -663h-102l-99 279q-27 76 -36 110h-3q-14 -51 -35 -109l-100 -280h-100zM416 696l58 147h129l-96 -147h-91z" />
    <glyph glyph-name="wacute" unicode="&#x1e83;" horiz-adv-x="748" 
d="M178 -3l-171 476h121l100 -321h2l100 321h93l104 -321h2l98 321h118l-175 -476h-88l-104 321h-2l-106 -321h-92zM316 531l58 147h129l-96 -147h-91z" />
    <glyph glyph-name="Wdieresis" unicode="&#x1e84;" horiz-adv-x="944" 
d="M240 -4l-233 663h136l121 -379q10 -30 32 -111h2q13 46 34 110l89 265l-41 115h122l127 -373q27 -76 37 -116h3q22 88 30 114l114 375h124l-222 -663h-102l-99 279q-27 76 -36 110h-3q-14 -51 -35 -109l-100 -280h-100zM381 701q-25 0 -43 18t-18 43t18 43.5t43 18.5
t43.5 -18t18.5 -44q0 -25 -18 -43t-44 -18zM572 701q-26 0 -43.5 17.5t-17.5 43.5t18 44t43 18t43 -18.5t18 -43.5t-18 -43t-43 -18z" />
    <glyph glyph-name="wdieresis" unicode="&#x1e85;" horiz-adv-x="748" 
d="M178 -3l-171 476h121l100 -321h2l100 321h93l104 -321h2l98 321h118l-175 -476h-88l-104 321h-2l-106 -321h-92zM281 544q-25 0 -43 18t-18 43q0 26 18 44t43 18q26 0 44 -18t18 -44q0 -25 -18 -43t-44 -18zM472 544q-26 0 -43.5 18t-17.5 43q0 26 17.5 44t43.5 18
q25 0 43 -18t18 -44q0 -25 -18 -43t-43 -18z" />
    <glyph glyph-name="Ygrave" unicode="&#x1ef2;" horiz-adv-x="586" 
d="M232 0v261l-225 398h132l154 -291h2l153 291h130l-225 -399v-260h-121zM264 696l-97 147h130l58 -147h-91z" />
    <glyph glyph-name="ygrave" unicode="&#x1ef3;" horiz-adv-x="518" 
d="M513 473l-181 -488q-27 -71 -55.5 -117.5t-60 -68t-58.5 -29t-64 -7.5q-56 0 -106 22l30 94q35 -19 71 -19q42 0 73.5 32.5t58.5 110.5l-213 470h127l140 -334h2l113 334h123zM237 531l-97 147h130l58 -147h-91z" />
    <glyph glyph-name="endash" unicode="&#x2013;" horiz-adv-x="450" 
d="M0 207v88h450v-88h-450z" />
    <glyph glyph-name="emdash" unicode="&#x2014;" horiz-adv-x="800" 
d="M0 207v88h800v-88h-800z" />
    <glyph glyph-name="quoteleft" unicode="&#x2018;" horiz-adv-x="230" 
d="M81 436q-35 64 -35 135q0 73 38 149l75 -12q-12 -41 -12 -86q0 -65 34 -138z" />
    <glyph glyph-name="quoteright" unicode="&#x2019;" horiz-adv-x="230" 
d="M150 720q35 -67 35 -135q0 -73 -38 -149l-75 12q12 46 12 86q0 63 -35 138z" />
    <glyph glyph-name="quotesinglbase" unicode="&#x201a;" horiz-adv-x="230" 
d="M150 120q35 -67 35 -135q0 -73 -38 -149l-75 12q12 47 12 86q0 63 -35 138z" />
    <glyph glyph-name="quotedblleft" unicode="&#x201c;" horiz-adv-x="419" 
d="M81 436q-35 64 -35 135q0 73 38 149l75 -12q-12 -41 -12 -86q0 -65 34 -138zM270 436q-35 64 -35 135q0 73 38 149l75 -12q-12 -41 -12 -86q0 -65 34 -138z" />
    <glyph glyph-name="quotedblright" unicode="&#x201d;" horiz-adv-x="419" 
d="M339 720q35 -67 35 -135q0 -73 -38 -149l-75 12q12 47 12 86q0 63 -35 138zM150 720q35 -67 35 -135q0 -73 -38 -149l-75 12q12 46 12 86q0 63 -35 138z" />
    <glyph glyph-name="quotedblbase" unicode="&#x201e;" horiz-adv-x="419" 
d="M339 120q35 -67 35 -135q0 -73 -38 -149l-75 12q12 46 12 86q0 63 -35 138zM150 120q35 -67 35 -135q0 -73 -38 -149l-75 12q12 47 12 86q0 63 -35 138z" />
    <glyph glyph-name="dagger" unicode="&#x2020;" horiz-adv-x="526" 
d="M206 -49v160q0 79 3.5 165.5t2.5 109.5q-15 0 -71.5 -6.5t-80.5 -6.5v120q24 -1 80.5 -8t72.5 -8q1 21 -5 78.5t-6 80.5h122q0 -23 -6 -80.5t-5 -78.5q16 1 73 8t81 8v-120q-25 0 -81.5 6.5t-71.5 6.5q-1 -23 2.5 -109.5t3.5 -165.5v-160h-114z" />
    <glyph glyph-name="daggerdbl" unicode="&#x2021;" horiz-adv-x="526" 
d="M202 -49q0 22 6 79.5t5 78.5q-14 -1 -71.5 -8t-81.5 -7v120q24 0 80.5 -7t71.5 -7q1 13 -0.5 43t-1.5 48q0 19 1.5 50.5t0.5 44.5q-15 0 -71.5 -6.5t-80.5 -6.5v120q24 -1 80.5 -8t72.5 -8q1 21 -5 78.5t-6 80.5h122q0 -23 -6 -80.5t-5 -78.5q16 1 73 8t81 8v-120
q-25 0 -81.5 6.5t-71.5 6.5q-1 -12 1 -43.5t2 -51.5q0 -19 -2 -49t-1 -42q15 0 71.5 7t81.5 7v-120q-25 0 -82.5 7t-71.5 8q-1 -21 5 -78.5t6 -79.5h-122z" />
    <glyph glyph-name="bullet" unicode="&#x2022;" horiz-adv-x="327" 
d="M163 194q-51 0 -85.5 36t-34.5 87q0 54 34 90t86 36t86.5 -36t34.5 -90q0 -52 -34.5 -87.5t-86.5 -35.5z" />
    <glyph glyph-name="ellipsis" unicode="&#x2026;" horiz-adv-x="902" 
d="M173 -9q-28 0 -47.5 20t-19.5 49t19.5 48.5t47.5 19.5t47.5 -19.5t19.5 -48.5t-19.5 -49t-47.5 -20zM451 -9q-28 0 -47.5 20t-19.5 49t19.5 48.5t47.5 19.5t47.5 -19.5t19.5 -48.5t-19.5 -49t-47.5 -20zM729 -9q-28 0 -47.5 20t-19.5 49t19.5 48.5t47.5 19.5t47.5 -19.5
t19.5 -48.5t-19.5 -49t-47.5 -20z" />
    <glyph glyph-name="perthousand" unicode="&#x2030;" horiz-adv-x="1257" 
d="M214 312q-71 0 -115.5 45.5t-44.5 131.5q0 85 44.5 130.5t115.5 45.5t115.5 -45.5t44.5 -130.5q0 -86 -44.5 -131.5t-115.5 -45.5zM214 384q32 0 48.5 28.5t16.5 76.5t-16.5 76t-48.5 28t-49 -28t-17 -76t17 -76.5t49 -28.5zM675 -10q-71 0 -115.5 45.5t-44.5 131.5
q0 85 44.5 130.5t115.5 45.5t115.5 -45.5t44.5 -130.5q0 -86 -44.5 -131.5t-115.5 -45.5zM675 62q32 0 48.5 28.5t16.5 76.5t-16.5 76t-48.5 28t-49 -28t-17 -76t17 -76.5t49 -28.5zM1043 -10q-71 0 -115.5 45.5t-44.5 131.5q0 85 44.5 130.5t115.5 45.5t115.5 -45.5
t44.5 -130.5q0 -86 -44.5 -131.5t-115.5 -45.5zM1043 62q32 0 48.5 28.5t16.5 76.5t-16.5 76t-48.5 28t-49 -28t-17 -76t17 -76.5t49 -28.5zM187 0l416 659h97l-415 -659h-98z" />
    <glyph glyph-name="guilsinglleft" unicode="&#x2039;" horiz-adv-x="358" 
d="M293 402l-124 -161l124 -161l-86 -48l-170 209l170 209z" />
    <glyph glyph-name="guilsinglright" unicode="&#x203a;" horiz-adv-x="358" 
d="M189 241l-124 161l86 48l170 -209l-170 -209l-86 48z" />
    <glyph glyph-name="fraction" unicode="&#x2044;" horiz-adv-x="157" 
d="M-178 0l415 659h98l-416 -659h-97z" />
    <glyph glyph-name="zerosuperior" unicode="&#x2070;" horiz-adv-x="387" 
d="M193 396q-71 0 -114 52.5t-43 149.5q0 96 43 148t115 52q71 0 114.5 -52.5t43.5 -148.5t-43.5 -148.5t-115.5 -52.5zM194 473q57 0 57 123q0 125 -58 125q-57 0 -57 -122q0 -126 58 -126z" />
    <glyph glyph-name="foursuperior" unicode="&#x2074;" horiz-adv-x="387" 
d="M28 486v57l193 253h89v-240h53v-70h-53v-84h-93v84h-189zM127 555q17 1 66 1h24v27q0 47 3 96z" />
    <glyph glyph-name="fivesuperior" unicode="&#x2075;" horiz-adv-x="356" 
d="M23 422l26 73q49 -22 93 -22q69 0 69 53q0 32 -31 43q-16 6 -56 6h-72v214h262l-19 -79h-150v-65h19q47 0 77 -12q72 -25 72 -107q0 -58 -42 -94t-127 -36q-69 0 -121 26z" />
    <glyph glyph-name="sixsuperior" unicode="&#x2076;" horiz-adv-x="368" 
d="M194 396q-69 0 -113.5 47t-44.5 140t51 154t137 61q53 0 99 -20l-24 -73q-34 16 -69 16q-34 0 -59.5 -21t-32.5 -62h2q34 18 75 18q55 0 90 -33.5t35 -90.5q0 -62 -41.5 -99t-104.5 -37zM196 471q23 0 36 15t13 40t-15 40t-39 15q-27 0 -54 -19q-1 -43 15.5 -67t43.5 -24
z" />
    <glyph glyph-name="sevensuperior" unicode="&#x2077;" horiz-adv-x="333" 
d="M53 402q40 177 142 308h-159l-21 79h303v-52q-65 -74 -100.5 -151.5t-56.5 -183.5h-108z" />
    <glyph glyph-name="eightsuperior" unicode="&#x2078;" horiz-adv-x="387" 
d="M189 396q-72 0 -113 29.5t-41 80.5q0 70 68 97v2q-55 27 -55 83q0 49 39 79.5t104 30.5q69 0 107 -30.5t38 -80.5q0 -58 -53 -80v-2q69 -24 69 -91q0 -54 -44 -86t-119 -32zM192 473q23 0 40.5 11t17.5 32q0 36 -74 55q-17 -5 -29.5 -18.5t-12.5 -33.5q0 -22 16.5 -34
t41.5 -12zM203 635q36 18 36 49q0 17 -13 28t-33 11q-21 0 -33.5 -10t-12.5 -27q0 -35 56 -51z" />
    <glyph glyph-name="ninesuperior" unicode="&#x2079;" horiz-adv-x="368" 
d="M143 396q-57 0 -104 21l24 75q33 -19 77 -19q85 0 95 87h-2q-35 -22 -80 -22q-53 0 -88.5 31t-35.5 91q0 62 40.5 100t104.5 38q72 0 115.5 -47.5t43.5 -142.5q0 -101 -50.5 -156.5t-139.5 -55.5zM177 612q34 0 58 26q-1 85 -60 85q-24 0 -38 -15t-14 -40q0 -26 14.5 -41
t39.5 -15z" />
    <glyph glyph-name="plussuperior" unicode="&#x207a;" horiz-adv-x="399" 
d="M159 434v125h-114v74h114v121h80v-121h115v-74h-115v-125h-80z" />
    <glyph glyph-name="minussuperior" unicode="&#x207b;" horiz-adv-x="399" 
d="M45 559v74h309v-74h-309z" />
    <glyph glyph-name="equalsuperior" unicode="&#x207c;" horiz-adv-x="399" 
d="M45 491v74h309v-74h-309zM45 627v74h309v-74h-309z" />
    <glyph glyph-name="parenleftsuperior" unicode="&#x207d;" horiz-adv-x="229" 
d="M143 357q-103 88 -103 239t103 239l57 -45q-68 -77 -68 -194q0 -119 68 -194z" />
    <glyph glyph-name="parenrightsuperior" unicode="&#x207e;" horiz-adv-x="229" 
d="M29 402q68 75 68 194q0 117 -68 194l57 45q103 -88 103 -239t-103 -239z" />
    <glyph glyph-name="n.superior" unicode="&#x207f;" horiz-adv-x="394" 
d="M45 270v332h78l7 -34q56 43 113 43q46 0 77.5 -29.5t31.5 -92.5v-219h-91v198q0 62 -48 62q-34 0 -77 -30v-230h-91z" />
    <glyph glyph-name="zeroinferior" unicode="&#x2080;" horiz-adv-x="387" 
d="M193 -186q-71 0 -114 52.5t-43 149.5q0 96 43 148t115 52q71 0 114.5 -52.5t43.5 -148.5t-43.5 -148.5t-115.5 -52.5zM194 -109q57 0 57 123q0 125 -58 125q-57 0 -57 -122q0 -126 58 -126z" />
    <glyph glyph-name="oneinferior" unicode="&#x2081;" horiz-adv-x="349" 
d="M176 -180v297l-116 -43l-31 75l165 65h75v-394h-93z" />
    <glyph glyph-name="twoinferior" unicode="&#x2082;" horiz-adv-x="349" 
d="M22 -180q2 51 21.5 92t46.5 66t54 45t45.5 38.5t18.5 35.5q0 38 -49 38q-36 0 -101 -29l-24 73q78 37 147 37q63 0 96 -29t33 -78q0 -30 -15 -55t-37.5 -43t-45.5 -34t-42.5 -35.5t-25.5 -40.5h169v-81h-291z" />
    <glyph glyph-name="threeinferior" unicode="&#x2083;" horiz-adv-x="348" 
d="M15 -160l25 71q43 -20 91 -20q70 0 70 48q0 28 -29 38q-16 6 -51 6h-49v69h38q30 0 49 7q29 12 29 40q0 39 -50 39q-37 0 -90 -22l-23 71q73 29 136 29q61 0 95 -28t34 -72q0 -64 -66 -91v-2q38 -7 59 -30.5t21 -60.5q0 -52 -43.5 -85t-124.5 -33q-67 0 -121 26z" />
    <glyph glyph-name="fourinferior" unicode="&#x2084;" horiz-adv-x="387" 
d="M28 -96v57l193 253h89v-240h53v-70h-53v-84h-93v84h-189zM127 -27q17 1 66 1h24v27q0 47 3 96z" />
    <glyph glyph-name="fiveinferior" unicode="&#x2085;" horiz-adv-x="356" 
d="M23 -160l26 73q49 -22 93 -22q69 0 69 53q0 32 -31 43q-16 6 -56 6h-72v214h262l-19 -79h-150v-65h19q47 0 77 -12q72 -25 72 -107q0 -58 -42 -94t-127 -36q-69 0 -121 26z" />
    <glyph glyph-name="sixinferior" unicode="&#x2086;" horiz-adv-x="368" 
d="M194 -186q-69 0 -113.5 47t-44.5 140t51 154t137 61q53 0 99 -20l-24 -73q-34 16 -69 16q-34 0 -59.5 -21t-32.5 -62h2q34 18 75 18q55 0 90 -33.5t35 -90.5q0 -62 -41.5 -99t-104.5 -37zM196 -111q23 0 36 15t13 40t-15 40t-39 15q-27 0 -54 -19q-1 -43 15.5 -67
t43.5 -24z" />
    <glyph glyph-name="seveninferior" unicode="&#x2087;" horiz-adv-x="333" 
d="M53 -180q40 177 142 308h-159l-21 79h303v-52q-65 -74 -100.5 -151.5t-56.5 -183.5h-108z" />
    <glyph glyph-name="eightinferior" unicode="&#x2088;" horiz-adv-x="387" 
d="M189 -186q-72 0 -113 29.5t-41 80.5q0 70 68 97v2q-55 27 -55 83q0 49 39 79.5t104 30.5q69 0 107 -30.5t38 -80.5q0 -58 -53 -80v-2q69 -24 69 -91q0 -54 -44 -86t-119 -32zM192 -109q23 0 40.5 11t17.5 32q0 36 -74 55q-17 -5 -29.5 -18.5t-12.5 -33.5q0 -22 16.5 -34
t41.5 -12zM203 53q36 18 36 49q0 17 -13 28t-33 11q-21 0 -33.5 -10t-12.5 -27q0 -35 56 -51z" />
    <glyph glyph-name="nineinferior" unicode="&#x2089;" horiz-adv-x="368" 
d="M143 -186q-57 0 -104 21l24 75q33 -19 77 -19q85 0 95 87h-2q-35 -22 -80 -22q-53 0 -88.5 31t-35.5 91q0 62 40.5 100t104.5 38q72 0 115.5 -47.5t43.5 -142.5q0 -101 -50.5 -156.5t-139.5 -55.5zM177 30q34 0 58 26q-1 85 -60 85q-24 0 -38 -15t-14 -40q0 -26 14.5 -41
t39.5 -15z" />
    <glyph glyph-name="parenleftinferior" unicode="&#x208d;" horiz-adv-x="229" 
d="M143 -225q-103 88 -103 239t103 239l57 -45q-68 -77 -68 -194q0 -119 68 -194z" />
    <glyph glyph-name="parenrightinferior" unicode="&#x208e;" horiz-adv-x="229" 
d="M29 -180q68 75 68 194q0 117 -68 194l57 45q103 -88 103 -239t-103 -239z" />
    <glyph glyph-name="Euro" unicode="&#x20ac;" horiz-adv-x="545" 
d="M484 129l45 -94q-69 -45 -170 -45q-109 0 -177.5 58.5t-91.5 160.5h-69v75h58q-2 26 -2 39q0 24 3 48h-59v75h73q28 99 98.5 159t171.5 60q79 0 136 -30v-112q-62 38 -123 38q-52 0 -91 -30t-59 -85h243l-25 -75h-236q-3 -18 -3 -45q0 -24 2 -42h230l-26 -75h-188
q40 -115 146 -115q63 0 114 35z" />
    <glyph glyph-name="afii61289" unicode="&#x2113;" horiz-adv-x="513" 
d="M35 125l-26 103q46 10 94 26v134q0 144 55.5 210.5t141.5 66.5q77 0 116 -42.5t39 -110.5q0 -96 -62 -177.5t-168 -137.5q12 -101 92 -101q57 0 110 41l45 -93q-82 -54 -174 -54q-74 0 -123 40t-64 118q-21 -8 -76 -23zM221 387v-75q114 77 114 200q0 58 -38 58
q-33 0 -54.5 -46t-21.5 -137z" />
    <glyph glyph-name="afii61352" unicode="&#x2116;" horiz-adv-x="1071" 
d="M66 0v659h119l225 -344q36 -57 64 -108h3q-4 47 -4 113v339h120v-659h-110l-234 359q-36 55 -65 107h-3q5 -41 5 -104v-362h-120zM673 132v71h329v-71h-329zM837 263q-74 0 -121.5 49t-47.5 125t47.5 125t121.5 49q75 0 122.5 -49t47.5 -125t-47.5 -125t-122.5 -49z
M837 339q35 0 56 27.5t21 70.5t-21 70.5t-56 27.5t-55.5 -27.5t-20.5 -70.5t20.5 -70.5t55.5 -27.5z" />
    <glyph glyph-name="uni2117" unicode="&#x2117;" horiz-adv-x="770" 
d="M385 -10q-146 0 -239 96t-93 241t93 241t239 96q145 0 238 -96t93 -241t-93 -241t-238 -96zM385 51q114 0 188 77.5t74 198.5t-74 198.5t-188 77.5t-188.5 -77.5t-74.5 -198.5t74.5 -198.5t188.5 -77.5zM279 130v391h109q73 0 111.5 -35t38.5 -97q0 -59 -38.5 -95
t-110.5 -36h-38v-128h-72zM351 323h41q73 0 73 66q0 29 -15.5 48.5t-51.5 19.5h-47v-134z" />
    <glyph glyph-name="trademark" unicode="&#x2122;" horiz-adv-x="868" 
d="M128 264v316h-112v79h334l-19 -79h-106v-316h-97zM376 264v395h84l85 -120q21 -30 44 -70h2q17 31 41 67l84 123h89v-395h-97v176q0 40 3 72h-2q-14 -27 -34 -56l-63 -90h-43l-62 90q-24 35 -35 56h-2q3 -21 3 -72v-176h-97z" />
    <glyph glyph-name="estimated" unicode="&#x212e;" horiz-adv-x="754" 
d="M590 119h90q-103 -129 -304 -129q-146 0 -248.5 84.5t-102.5 226.5q0 143 103 226.5t252 83.5q86 0 154.5 -28t110.5 -74.5t63.5 -104t19.5 -119.5h-556v-160q32 -46 88 -71.5t121 -25.5q134 0 209 91zM172 324h414v152q-68 97 -206 97q-139 0 -208 -97v-152z" />
    <glyph glyph-name="onethird" unicode="&#x2153;" horiz-adv-x="943" 
d="M205 0l415 659h98l-416 -659h-97zM202 270v297l-116 -43l-31 75l165 65h75v-394h-93zM595 17l25 71q43 -20 91 -20q70 0 70 48q0 28 -29 38q-16 6 -51 6h-49v69h38q30 0 49 7q29 12 29 40q0 39 -50 39q-37 0 -90 -22l-23 71q73 29 136 29q61 0 95 -28t34 -72
q0 -64 -66 -91v-2q38 -7 59 -30.5t21 -60.5q0 -52 -43.5 -85t-124.5 -33q-67 0 -121 26z" />
    <glyph glyph-name="twothirds" unicode="&#x2154;" horiz-adv-x="943" 
d="M215 0l415 659h98l-416 -659h-97zM37 270q2 51 21.5 92t46.5 66t54 45t45.5 38.5t18.5 35.5q0 38 -49 38q-36 0 -101 -29l-24 73q78 37 147 37q63 0 96 -29t33 -78q0 -30 -15 -55t-37.5 -43t-45.5 -34t-42.5 -35.5t-25.5 -40.5h169v-81h-291zM595 17l25 71q43 -20 91 -20
q70 0 70 48q0 28 -29 38q-16 6 -51 6h-49v69h38q30 0 49 7q29 12 29 40q0 39 -50 39q-37 0 -90 -22l-23 71q73 29 136 29q61 0 95 -28t34 -72q0 -64 -66 -91v-2q38 -7 59 -30.5t21 -60.5q0 -52 -43.5 -85t-124.5 -33q-67 0 -121 26z" />
    <glyph glyph-name="oneeighth" unicode="&#x215b;" horiz-adv-x="943" 
d="M180 0l415 659h98l-416 -659h-97zM183 270v297l-116 -43l-31 75l165 65h75v-394h-93zM703 -9q-72 0 -113 29.5t-41 80.5q0 70 68 97v2q-55 28 -55 83q0 49 39 79.5t104 30.5q69 0 107 -30.5t38 -80.5q0 -58 -53 -80v-2q69 -24 69 -91q0 -54 -44 -86t-119 -32zM706 68
q23 0 40.5 11t17.5 32q0 36 -74 55q-17 -5 -29.5 -18.5t-12.5 -33.5q0 -22 16.5 -34t41.5 -12zM717 230q36 18 36 49q0 17 -13 28t-33 11q-21 0 -33.5 -10t-12.5 -27q0 -35 56 -51z" />
    <glyph glyph-name="threeeighths" unicode="&#x215c;" horiz-adv-x="943" 
d="M206 0l415 659h98l-416 -659h-97zM723 -9q-72 0 -113 29.5t-41 80.5q0 70 68 97v2q-55 28 -55 83q0 49 39 79.5t104 30.5q69 0 107 -30.5t38 -80.5q0 -58 -53 -80v-2q69 -24 69 -91q0 -54 -44 -86t-119 -32zM726 68q23 0 40.5 11t17.5 32q0 36 -74 55q-17 -5 -29.5 -18.5
t-12.5 -33.5q0 -22 16.5 -34t41.5 -12zM737 230q36 18 36 49q0 17 -13 28t-33 11q-21 0 -33.5 -10t-12.5 -27q0 -35 56 -51zM51 289l25 71q43 -20 91 -20q70 0 70 48q0 28 -29 38q-16 6 -51 6h-49v69h38q30 0 49 7q29 12 29 40q0 39 -50 39q-37 0 -90 -22l-23 71
q73 29 136 29q61 0 95 -28t34 -72q0 -64 -66 -91v-2q38 -7 59 -30.5t21 -60.5q0 -52 -43.5 -85t-124.5 -33q-67 0 -121 26z" />
    <glyph glyph-name="fiveeighths" unicode="&#x215d;" horiz-adv-x="943" 
d="M199 0l415 659h98l-416 -659h-97zM43 289l26 73q49 -22 93 -22q69 0 69 53q0 32 -31 43q-16 6 -56 6h-72v214h262l-19 -79h-150v-65h19q47 0 77 -12q72 -25 72 -107q0 -58 -42 -94t-127 -36q-69 0 -121 26zM722 -9q-72 0 -113 29.5t-41 80.5q0 70 68 97v2q-55 28 -55 83
q0 49 39 79.5t104 30.5q69 0 107 -30.5t38 -80.5q0 -58 -53 -80v-2q69 -24 69 -91q0 -54 -44 -86t-119 -32zM725 68q23 0 40.5 11t17.5 32q0 36 -74 55q-17 -5 -29.5 -18.5t-12.5 -33.5q0 -22 16.5 -34t41.5 -12zM736 230q36 18 36 49q0 17 -13 28t-33 11q-21 0 -33.5 -10
t-12.5 -27q0 -35 56 -51z" />
    <glyph glyph-name="seveneighths" unicode="&#x215e;" horiz-adv-x="943" 
d="M185 0l415 659h98l-416 -659h-97zM717 -9q-72 0 -113 29.5t-41 80.5q0 70 68 97v2q-55 28 -55 83q0 49 39 79.5t104 30.5q69 0 107 -30.5t38 -80.5q0 -58 -53 -80v-2q69 -24 69 -91q0 -54 -44 -86t-119 -32zM720 68q23 0 40.5 11t17.5 32q0 36 -74 55q-17 -5 -29.5 -18.5
t-12.5 -33.5q0 -22 16.5 -34t41.5 -12zM731 230q36 18 36 49q0 17 -13 28t-33 11q-21 0 -33.5 -10t-12.5 -27q0 -35 56 -51zM134 270q40 177 142 308h-159l-21 79h303v-52q-65 -74 -100.5 -151.5t-56.5 -183.5h-108z" />
    <glyph glyph-name="partialdiff" unicode="&#x2202;" horiz-adv-x="534" 
d="M228 -10q-91 0 -144.5 53.5t-53.5 146.5q0 109 67.5 177t169.5 68q54 0 97 -21l2 1q-11 72 -49 113.5t-98 41.5q-65 0 -129 -35l-33 85q79 45 171 45q128 0 197.5 -85t69.5 -227q0 -165 -74 -264t-193 -99zM238 85q53 0 91.5 58.5t42.5 172.5q-40 24 -88 24
q-58 0 -95 -41t-37 -107q0 -51 24 -79t62 -28z" />
    <glyph glyph-name="Delta" unicode="&#x2206;" horiz-adv-x="645" 
d="M9 0l260 662h107l260 -662h-627zM295 420l-117 -318h290l-116 318q-20 54 -28 90h-1q-11 -40 -28 -90z" />
    <glyph glyph-name="product" unicode="&#x220f;" horiz-adv-x="687" 
d="M103 -180v737h-89v102h671l-32 -102h-87v-737h-121v737h-222v-737h-120z" />
    <glyph glyph-name="summation" unicode="&#x2211;" horiz-adv-x="609" 
d="M9 -181l276 429l-260 411h567l-32 -102h-323l190 -307l-204 -328h354v-103h-568z" />
    <glyph glyph-name="minus" unicode="&#x2212;" horiz-adv-x="550" 
d="M40 201v99h471v-99h-471z" />
    <glyph glyph-name="radical" unicode="&#x221a;" horiz-adv-x="694" 
d="M313 -122l-136 416l-98 -35l-32 92l207 76l83 -267q23 -79 36 -142h2q12 69 32 143l173 666h119l-263 -949h-123z" />
    <glyph glyph-name="infinity" unicode="&#x221e;" horiz-adv-x="768" 
d="M205 95q-81 0 -128 51t-47 125q0 75 47 126t128 51q92 0 178 -101q40 47 82.5 74t97.5 27q81 0 128 -51t47 -126q0 -74 -47 -125t-128 -51q-96 0 -180 101q-41 -48 -82.5 -74.5t-95.5 -26.5zM217 201q50 0 107 70q-58 71 -107 71q-30 0 -48.5 -19.5t-18.5 -51.5
q0 -31 19 -50.5t48 -19.5zM551 201q29 0 48 19.5t19 50.5q0 32 -18.5 51.5t-48.5 19.5q-29 0 -54 -18t-54 -53q59 -70 108 -70z" />
    <glyph glyph-name="integral" unicode="&#x222b;" horiz-adv-x="333" 
d="M-51 -216l23 98q33 -13 59 -13q58 0 58 65v605q0 82 43 125.5t117 43.5q56 0 99 -21l-23 -98q-33 13 -59 13q-58 0 -58 -65v-605q0 -82 -43 -125.5t-117 -43.5q-56 0 -99 21z" />
    <glyph glyph-name="approxequal" unicode="&#x2248;" horiz-adv-x="550" 
d="M81 77l-57 76q71 71 152 71q40 0 105 -28.5t97 -28.5q45 0 91 42l58 -76q-72 -71 -153 -71q-40 0 -105 28.5t-97 28.5q-25 0 -45 -9.5t-46 -32.5zM81 287l-57 76q71 71 152 71q40 0 105 -28.5t97 -28.5q45 0 91 42l58 -76q-72 -71 -153 -71q-40 0 -105 28.5t-97 28.5
q-25 0 -45 -9.5t-46 -32.5z" />
    <glyph glyph-name="notequal" unicode="&#x2260;" horiz-adv-x="550" 
d="M101 8l44 91h-105v99h153l50 103h-203v99h251l42 85h119l-41 -85h100v-99h-148l-50 -103h198v-99h-246l-44 -91h-120z" />
    <glyph glyph-name="lessequal" unicode="&#x2264;" horiz-adv-x="550" 
d="M60 283v102l428 142v-99l-312 -93v-2l312 -94v-100zM40 0v99h471v-99h-471z" />
    <glyph glyph-name="greaterequal" unicode="&#x2265;" horiz-adv-x="550" 
d="M63 139v100l311 94v2l-311 93v99l427 -142v-102zM40 0v99h471v-99h-471z" />
    <glyph glyph-name="lozenge" unicode="&#x25ca;" horiz-adv-x="480" 
d="M187 0l-137 289l137 289h106l137 -289l-137 -289h-106zM240 98h2l88 191l-89 191h-2l-88 -191z" />
    <glyph glyph-name="Imacron" horiz-adv-x="280" 
d="M80 0v659h120v-659h-120zM-4 704v91h285v-91h-285z" />
    <glyph glyph-name="ibreve" horiz-adv-x="238" 
d="M184 680h82q-4 -65 -43.5 -102t-103.5 -37q-63 0 -102.5 37t-43.5 102h83q3 -30 19.5 -47.5t44.5 -17.5t44.5 17.5t19.5 47.5zM59 0v473h120v-473h-120z" />
    <glyph glyph-name="zero.numr" horiz-adv-x="387" 
d="M193 263q-71 0 -114 52.5t-43 149.5q0 96 43 148t115 52q71 0 114.5 -52.5t43.5 -148.5t-43.5 -148.5t-115.5 -52.5zM194 340q57 0 57 123q0 125 -58 125q-57 0 -57 -122q0 -126 58 -126z" />
    <glyph glyph-name="Adieresis.small" horiz-adv-x="552" 
d="M7 0l220 534h98l220 -534h-127l-40 107h-206l-40 -107h-125zM206 198h138l-38 102q-21 60 -29 88h-3q-17 -52 -30 -88zM179 576q-25 0 -43 18t-18 43q0 26 18 44t43 18q26 0 44 -18t18 -44q0 -25 -18 -43t-44 -18zM370 576q-26 0 -43.5 18t-17.5 43q0 26 17.5 44t43.5 18
q25 0 43 -18t18 -44q0 -25 -18 -43t-43 -18z" />
    <glyph glyph-name="Atilde.small" horiz-adv-x="552" 
d="M120 582v39q0 39 23 61t59 22q32 0 75.5 -22t55.5 -22q14 0 18 8.5t4 29.5h78v-39q0 -39 -23 -61t-59 -22q-31 0 -75 22t-56 22q-14 0 -18 -8.5t-4 -29.5h-78zM7 0l220 534h98l220 -534h-127l-40 107h-206l-40 -107h-125zM206 198h138l-38 102q-21 60 -29 88h-3
q-17 -52 -30 -88z" />
    <glyph glyph-name="Acircumflex.small" horiz-adv-x="552" 
d="M7 0l220 534h98l220 -534h-127l-40 107h-206l-40 -107h-125zM206 198h138l-38 102q-21 60 -29 88h-3q-17 -52 -30 -88zM128 563l100 147h96l101 -147h-94l-55 79l-54 -79h-94z" />
    <glyph glyph-name="Aacute.small" horiz-adv-x="552" 
d="M226 565l58 147h129l-96 -147h-91zM7 0l220 534h98l220 -534h-127l-40 107h-206l-40 -107h-125zM206 198h138l-38 102q-21 60 -29 88h-3q-17 -52 -30 -88z" />
    <glyph glyph-name="Agrave.small" horiz-adv-x="552" 
d="M233 566l-97 147h130l58 -147h-91zM7 0l220 534h98l220 -534h-127l-40 107h-206l-40 -107h-125zM206 198h138l-38 102q-21 60 -29 88h-3q-17 -52 -30 -88z" />
    <glyph glyph-name="Z.small" horiz-adv-x="480" 
d="M23 0l256 434h-221l-32 96h433l-254 -434h253v-96h-435z" />
    <glyph glyph-name="Y.small" horiz-adv-x="496" 
d="M246 296h2q22 47 49 100l69 134h124l-183 -327v-203h-120v203l-181 327h123l69 -134q24 -47 48 -100z" />
    <glyph glyph-name="X.small" horiz-adv-x="550" 
d="M19 530h129l129 -179l129 179h130l-193 -261l199 -269h-129l-137 190l-139 -190h-129l202 270z" />
    <glyph glyph-name="W.small" horiz-adv-x="793" 
d="M544 154h2q12 53 32 115l83 261h126l-191 -533h-97l-61 173q-17 47 -37 114h-2q-14 -45 -41 -117l-66 -170h-97l-189 533h127l85 -261q17 -52 32 -116h3q15 56 39 118l58 157l-34 102h114l81 -257q21 -69 33 -119z" />
    <glyph glyph-name="V.small" horiz-adv-x="562" 
d="M280 139h2q23 67 42 113l108 278h124l-229 -533h-92l-229 533h125l108 -276q29 -78 41 -115z" />
    <glyph glyph-name="U.small" horiz-adv-x="630" 
d="M552 530v-324q0 -108 -64.5 -162t-173.5 -54q-108 0 -172 54t-64 162v324h119v-318q0 -62 31 -95t87 -33t87 33t31 95v318h119z" />
    <glyph glyph-name="T.small" horiz-adv-x="469" 
d="M172 0v434h-160v96h458l-33 -96h-146v-434h-119z" />
    <glyph glyph-name="S.small" horiz-adv-x="468" 
d="M45 33l39 84q67 -35 127 -35q37 0 63 15t26 47q0 27 -24 47t-58.5 34.5t-69 32.5t-58.5 51.5t-24 80.5q0 67 49.5 108.5t135.5 41.5q78 0 144 -25v-98q-71 32 -134 32q-31 0 -52.5 -13.5t-21.5 -41.5q0 -25 24 -43t58.5 -31.5t69 -31t58.5 -52t24 -84.5q0 -74 -57 -118
t-146 -44q-96 0 -173 43z" />
    <glyph glyph-name="R.small" horiz-adv-x="538" 
d="M361 231v-2q28 -18 64 -78l92 -151h-128l-76 127q-34 57 -58 62h-56v-189h-119v530h190q103 0 149.5 -46t46.5 -112q0 -106 -105 -141zM199 280h62q41 0 64 22t23 58q0 35 -22.5 57t-64.5 22h-62v-159z" />
    <glyph glyph-name="Q.small" horiz-adv-x="651" 
d="M239 1q-88 24 -139 94.5t-51 169.5q0 122 76.5 198.5t199.5 76.5q124 0 200.5 -76.5t76.5 -198.5q0 -109 -62.5 -182t-165.5 -87v-2q38 -50 111 -50q29 0 52 9l26 -87q-40 -14 -89 -14q-153 0 -235 149zM325 85q71 0 113 48t42 132t-42 132t-113 48q-70 0 -112 -48
t-42 -132t42 -132t112 -48z" />
    <glyph glyph-name="P.small" horiz-adv-x="498" 
d="M80 0v530h169q98 0 150.5 -47t52.5 -131q0 -80 -53.5 -129.5t-154.5 -49.5h-45v-173h-119zM199 264h45q46 0 68.5 24t22.5 64t-21.5 63.5t-66.5 23.5h-48v-175z" />
    <glyph glyph-name="O.small" horiz-adv-x="651" 
d="M325 85q71 0 113 48t42 132t-42 132t-113 48q-70 0 -112 -48t-42 -132t42 -132t112 -48zM325 540q124 0 200.5 -76.5t76.5 -198.5t-76.5 -198.5t-200.5 -76.5q-123 0 -199.5 76.5t-76.5 198.5t76.5 198.5t199.5 76.5z" />
    <glyph glyph-name="N.small" horiz-adv-x="669" 
d="M470 173h2q-2 58 -2 124v233h120v-530h-110l-198 251q-52 68 -84 116h-1q2 -76 2 -119v-248h-119v530h115l188 -239q43 -53 87 -118z" />
    <glyph glyph-name="M.small" horiz-adv-x="731" 
d="M80 0v530h104l96 -139q40 -55 85 -127h2q26 44 84 127l95 139h106v-530h-119v230q0 86 3 120h-3q-19 -34 -66 -102l-76 -114h-51l-76 114q-47 68 -66 102h-2q3 -34 3 -120v-230h-119z" />
    <glyph glyph-name="L.small" horiz-adv-x="413" 
d="M80 0v530h119v-434h202v-96h-321z" />
    <glyph glyph-name="K.small" 
d="M80 0v530h119v-233h2l186 233h129l-216 -267l228 -263h-138l-189 221h-2v-221h-119z" />
    <glyph glyph-name="J.small" horiz-adv-x="298" 
d="M-44 -138l24 90q24 -7 47 -7q39 0 55.5 20.5t16.5 62.5v502h120v-520q0 -80 -45 -121.5t-133 -41.5q-51 0 -85 15z" />
    <glyph glyph-name="I.small" horiz-adv-x="278" 
d="M80 0v530h119v-530h-119z" />
    <glyph glyph-name="H.small" horiz-adv-x="647" 
d="M80 0v530h119v-213h250v213h119v-530h-119v220h-250v-220h-119z" />
    <glyph glyph-name="G.small" horiz-adv-x="600" 
d="M527 256v-234q-80 -32 -187 -32q-137 0 -214 72t-77 195q0 128 83 205.5t212 77.5q87 0 158 -29v-101q-62 35 -144 35q-91 0 -139 -52.5t-48 -128.5q0 -84 46 -131.5t125 -47.5q36 0 65 9v162h120z" />
    <glyph glyph-name="F.small" horiz-adv-x="451" 
d="M80 0v530h337l-33 -96h-185v-133h186v-91h-186v-210h-119z" />
    <glyph glyph-name="E.small" horiz-adv-x="472" 
d="M80 0v530h337l-32 -91h-186v-126h186v-91h-186v-131h211v-91h-330z" />
    <glyph glyph-name="D.small" horiz-adv-x="607" 
d="M80 0v530h173q144 0 224.5 -70.5t80.5 -193.5q0 -122 -82.5 -194t-223.5 -72h-172zM199 97h55q95 0 138.5 45.5t43.5 122.5q0 168 -187 168h-50v-336z" />
    <glyph glyph-name="C.small" horiz-adv-x="532" 
d="M470 119l33 -86q-79 -43 -176 -43q-129 0 -203.5 73t-74.5 193q0 130 81 207t204 77q86 0 141 -30v-95q-59 30 -124 30q-86 0 -133 -52t-47 -132t45 -128t121 -48q75 0 133 34z" />
    <glyph glyph-name="B.small" horiz-adv-x="528" 
d="M383 280v-2q49 -12 75.5 -44t26.5 -78q0 -65 -51 -110.5t-155 -45.5h-199v530h208q79 0 124 -41t45 -97q0 -75 -74 -112zM199 85h69q95 0 95 73q0 70 -86 70h-78v-143zM199 307h60q38 0 58.5 19t20.5 50t-20.5 50t-57.5 19h-61v-138z" />
    <glyph glyph-name="A.small" horiz-adv-x="552" 
d="M7 0l220 534h98l220 -534h-127l-40 107h-206l-40 -107h-125zM206 198h138l-38 102q-21 60 -29 88h-3q-17 -52 -30 -88z" />
    <glyph glyph-name="four.OT" 
d="M35 0v67l296 419h96v-393h89v-93h-89v-159l-118 -36v195h-274zM156 87q52 4 87 4h66v91q0 70 4 134z" />
    <glyph glyph-name="three.OT" 
d="M42 -174l26 92q54 -18 123 -18t114.5 28.5t45.5 84.5q0 93 -146 93h-91v91h31q51 0 90 9q102 27 102 110q0 40 -26 61.5t-66 21.5q-66 0 -151 -47l-40 82q96 60 209 60q92 0 144 -46.5t52 -119.5q0 -57 -31 -97.5t-76 -56.5v-2q57 -9 89 -51t32 -100q0 -41 -13.5 -76.5
t-44 -68.5t-88 -52t-135.5 -19q-91 0 -150 21z" />
    <glyph glyph-name="two.OT" 
d="M63 0q6 63 35.5 112t66.5 78.5t73.5 53.5t61 48.5t24.5 51.5q0 25 -18.5 40t-54.5 15q-65 0 -141 -47l-38 83q88 59 203 59q79 0 125.5 -37.5t46.5 -105.5q0 -36 -18 -66t-46.5 -52.5t-58 -43t-58 -45.5t-41.5 -51h234v-93h-396z" />
    <glyph glyph-name="one.OT" 
d="M283 0v372l-165 -68l-35 89l226 93h92v-486h-118z" />
    <glyph glyph-name="zero.OT" 
d="M271 -10q-103 0 -164.5 70.5t-61.5 181.5t61.5 181.5t164.5 70.5t164.5 -70.5t61.5 -181.5t-61.5 -181.5t-164.5 -70.5zM271 85q104 0 104 157t-104 157t-104 -157t104 -157z" />
    <glyph glyph-name="yen.OP" 
d="M212 0v75h-116v74h116v59h-116v73h77l-122 229h120l99 -203h2l99 203h119l-122 -229h78v-73h-117v-59h117v-74h-117v-75h-117z" />
    <glyph glyph-name="sterling.OP" 
d="M87 0v68q65 20 67 150h-57v80h57v48q0 74 49 123.5t145 49.5q65 0 117 -23l-23 -91q-40 19 -81 19q-40 0 -65.5 -23t-25.5 -71v-32h158l-27 -80h-131q-2 -92 -35 -135l1 -2q34 6 85 6h139v-87h-373z" />
    <glyph glyph-name="dollar.OP" 
d="M219 -68v83q-78 8 -136 39l37 83q59 -34 129 -34q85 0 85 49q0 22 -24 38.5t-58.5 29t-68.5 28.5t-58 46.5t-24 73.5q0 52 34.5 86.5t100.5 44.5v77h81v-76q55 -3 107 -21v-98q-71 32 -133 32q-74 0 -74 -42q0 -20 24 -34.5t58.5 -26.5t68.5 -27.5t58 -47t24 -75.5
q0 -58 -41 -96t-109 -47v-85h-81z" />
    <glyph glyph-name="Euro.OP" 
d="M467 112l31 -83q-62 -39 -147 -39q-89 0 -147.5 43.5t-81.5 120.5h-61v67h49q-2 22 -2 32q0 9 2 35h-49v67h62q24 78 85.5 121t144.5 43q70 0 124 -25v-96q-52 29 -112 29q-86 0 -120 -72h192l-26 -67h-185q-2 -13 -2 -34q0 -20 2 -33h185l-26 -67h-142q31 -72 115 -72
q61 0 109 30z" />
    <glyph glyph-name="nine.OP" horiz-adv-x="564" 
d="M116 -118q86 29 155 82.5t91 126.5l-2 1q-54 -30 -115 -30q-85 0 -143 54t-58 150q0 104 65.5 166t166.5 62q108 0 172.5 -70.5t64.5 -191.5q0 -146 -88 -262t-274 -175zM280 157q51 0 105 34q4 19 4 47q0 74 -32 117.5t-83 43.5q-49 0 -78.5 -33.5t-29.5 -89.5t30 -87.5
t84 -31.5z" />
    <glyph glyph-name="eight.OP" horiz-adv-x="572" 
d="M282 -10q-111 0 -173 50t-62 133q0 58 31.5 101t83.5 65v2q-96 54 -96 145q0 78 61 128.5t163 50.5q100 0 156.5 -50.5t56.5 -119.5q0 -98 -100 -150v-2q122 -47 122 -159q0 -86 -63.5 -140t-179.5 -54zM289 83q47 0 78.5 24t31.5 67q0 27 -12 47.5t-37.5 34.5
t-43.5 20.5t-51 16.5q-33 -14 -57 -42t-24 -65q0 -49 33 -76t82 -27zM308 386q69 36 69 98q0 38 -25.5 63t-68.5 25q-40 0 -65.5 -23t-25.5 -58q0 -43 31 -66t85 -39z" />
    <glyph glyph-name="seven.OP" horiz-adv-x="490" 
d="M85 -199q67 338 229 592h-277l-26 93h463v-42q-168 -220 -255 -598z" />
    <glyph glyph-name="six.OP" horiz-adv-x="564" 
d="M287 -10q-106 0 -171 71t-65 205q0 157 97 269.5t264 150.5l27 -89q-99 -26 -166 -82.5t-86 -136.5l1 -1q66 46 139 46q80 0 136.5 -54.5t56.5 -151.5q0 -103 -65.5 -165t-167.5 -62zM291 85q49 0 77.5 32.5t28.5 89.5q0 55 -27.5 86.5t-76.5 31.5q-66 0 -119 -46v-22
q0 -83 33.5 -127.5t83.5 -44.5z" />
    <glyph glyph-name="five.OP" horiz-adv-x="495" 
d="M12 -172l27 93q57 -21 117 -21q79 0 122.5 37t43.5 94q0 60 -43 84q-38 24 -123 24h-83l32 347h369l-22 -93h-237l-15 -167h17q88 0 139 -29q89 -49 89 -158q0 -41 -14.5 -80t-45 -75t-89 -57.5t-136.5 -21.5q-86 0 -148 23z" />
    <glyph glyph-name="four.OP" 
d="M35 0v67l296 419h96v-393h89v-93h-89v-159l-118 -36v195h-274zM156 87q52 4 87 4h66v91q0 70 4 134z" />
    <glyph glyph-name="three.OP" horiz-adv-x="524" 
d="M31 -174l26 92q54 -18 123 -18t114.5 28.5t45.5 84.5q0 93 -146 93h-92v91h32q52 0 89 9q103 27 103 110q0 40 -26.5 61.5t-65.5 21.5q-66 0 -151 -47l-40 82q96 60 209 60q92 0 144 -46.5t52 -119.5q0 -57 -31 -97.5t-76 -56.5v-2q57 -9 89 -51t32 -100
q0 -41 -13.5 -76.5t-44 -68.5t-88 -52t-135.5 -19q-92 0 -150 21z" />
    <glyph glyph-name="two.OP" horiz-adv-x="494" 
d="M40 0q6 63 35.5 112t66.5 78.5t73.5 53.5t61 48.5t24.5 51.5q0 25 -18.5 40t-54.5 15q-65 0 -141 -47l-38 83q89 59 203 59q79 0 125.5 -37.5t46.5 -105.5q0 -36 -18 -66t-46.5 -52.5t-58 -43t-58 -45.5t-41.5 -51h234v-93h-396z" />
    <glyph glyph-name="one.OP" horiz-adv-x="430" 
d="M207 0v372l-130 -57l-35 88l190 83h93v-486h-118z" />
    <glyph glyph-name="zero.OP" 
d="M271 -10q-102 0 -162.5 70.5t-60.5 181.5q0 112 60 182t163 70t163 -70t60 -182q0 -111 -60.5 -181.5t-162.5 -70.5zM271 85q101 0 101 157t-101 157t-101 -157t101 -157z" />
    <glyph glyph-name="yen.LT" horiz-adv-x="545" 
d="M213 0v112h-156v75h156v74h-156v75h120l-153 323h128l120 -290h1l119 290h129l-154 -323h121v-75h-156v-74h156v-75h-156v-112h-119z" />
    <glyph glyph-name="sterling.LT" horiz-adv-x="545" 
d="M60 0v76q91 28 91 211h-71v98h71v60q0 52 14.5 92.5t37 64t52.5 38.5t56.5 20t54.5 5q67 0 134 -26l-26 -96q-40 21 -91 21q-52 0 -83 -33t-31 -100v-46h188l-31 -98h-157q-2 -149 -59 -198v-2q64 11 123 11h163v-98h-436z" />
    <glyph glyph-name="five.OT" 
d="M31 -172l27 93q57 -21 117 -21q79 0 122.5 37t43.5 94q0 59 -43 84q-38 24 -124 24h-82l32 347h369l-23 -93h-236l-16 -167h18q87 0 139 -29q88 -49 88 -158q0 -33 -8 -64t-29 -62.5t-52 -55t-81.5 -38t-113.5 -14.5q-86 0 -148 23z" />
    <glyph glyph-name="six.OT" 
d="M275 -10q-106 0 -171.5 71t-65.5 205q0 157 97 269.5t264 150.5l27 -89q-99 -26 -166 -82.5t-86 -136.5l1 -1q68 46 139 46q81 0 137 -54.5t56 -151.5q0 -103 -65.5 -165t-166.5 -62zM279 85q49 0 77.5 32.5t28.5 89.5q0 55 -28 86.5t-77 31.5q-64 0 -119 -46v-22
q0 -83 34 -127.5t84 -44.5z" />
    <glyph glyph-name="seven.OT" 
d="M111 -199q59 300 244 592h-287l-27 93h474v-42q-95 -125 -165 -283.5t-106 -314.5z" />
    <glyph glyph-name="eight.OT" 
d="M270 -10q-112 0 -173.5 50t-61.5 133q0 58 31.5 101t82.5 65v2q-96 54 -96 145q0 78 61 128.5t163 50.5q100 0 157 -50.5t57 -119.5q0 -98 -100 -150v-2q121 -48 121 -159q0 -86 -63.5 -140t-178.5 -54zM276 83q47 0 78.5 24t31.5 67q0 27 -12 47.5t-37 34.5t-43.5 20.5
t-51.5 16.5q-33 -14 -57 -42t-24 -65q0 -49 33 -76t82 -27zM295 386q69 36 69 98q0 38 -25 63t-69 25q-40 0 -65.5 -23t-25.5 -58q0 -43 31 -66t85 -39z" />
    <glyph glyph-name="nine.OT" 
d="M107 -118q85 29 154.5 82.5t92.5 126.5l-2 1q-54 -30 -116 -30q-85 0 -143 54t-58 150q0 104 66 166t166 62q108 0 173 -70.5t65 -191.5q0 -94 -35 -175.5t-118 -151.5t-209 -110zM272 157q52 0 104 34q5 17 5 47q0 74 -32.5 117.5t-83.5 43.5q-49 0 -78 -33.5t-29 -89.5
t30 -87.5t84 -31.5z" />
    <glyph glyph-name="Euro.OT" 
d="M467 112l31 -83q-62 -39 -147 -39q-89 0 -147.5 43.5t-81.5 120.5h-61v67h49q-2 22 -2 32q0 9 2 35h-49v67h62q24 78 85.5 121t144.5 43q70 0 124 -25v-96q-52 29 -112 29q-86 0 -120 -72h192l-26 -67h-185q-2 -13 -2 -34q0 -20 2 -33h185l-26 -67h-142q31 -72 115 -72
q61 0 109 30z" />
    <glyph glyph-name="dollar.OT" 
d="M219 -68v83q-78 8 -136 39l37 83q59 -34 129 -34q85 0 85 49q0 22 -24 38.5t-58.5 29t-68.5 28.5t-58 46.5t-24 73.5q0 52 34.5 86.5t100.5 44.5v77h81v-76q55 -3 107 -21v-98q-71 32 -133 32q-74 0 -74 -42q0 -20 24 -34.5t58.5 -26.5t68.5 -27.5t58 -47t24 -75.5
q0 -58 -41 -96t-109 -47v-85h-81z" />
    <glyph glyph-name="sterling.OT" 
d="M87 0v68q65 20 67 150h-57v80h57v48q0 74 49 123.5t145 49.5q65 0 117 -23l-23 -91q-40 19 -81 19q-40 0 -65.5 -23t-25.5 -71v-32h158l-27 -80h-131q-2 -92 -35 -135l1 -2q34 6 85 6h139v-87h-373z" />
    <glyph glyph-name="yen.OT" 
d="M212 0v75h-116v74h116v59h-116v73h77l-122 229h120l99 -203h2l99 203h119l-122 -229h78v-73h-117v-59h117v-74h-117v-75h-117z" />
    <glyph glyph-name="zero.small" horiz-adv-x="506" 
d="M252 -10q-98 0 -153 71.5t-55 203.5t55 203.5t153 71.5t153 -71.5t55 -203.5t-55 -203.5t-153 -71.5zM252 85q87 0 87 180t-87 180t-87 -180t87 -180z" />
    <glyph glyph-name="one.small" horiz-adv-x="392" 
d="M183 0v411l-126 -56l-39 91l196 88h87v-534h-118z" />
    <glyph glyph-name="two.small" horiz-adv-x="472" 
d="M420 0h-395q3 54 19.5 99.5t40 75.5t52 54.5t56 43t50.5 35.5t37 36t14 41q0 29 -21.5 44.5t-57.5 15.5q-62 0 -142 -39l-32 88q98 46 190 46q91 0 137.5 -40t46.5 -107q0 -42 -20.5 -76t-52 -59t-64.5 -48t-64.5 -53.5t-45.5 -65.5h252v-91z" />
    <glyph glyph-name="three.small" horiz-adv-x="463" 
d="M317 278v-2q45 -13 69 -44t24 -74q0 -74 -57 -121t-171 -47q-88 0 -167 32l34 88q59 -25 125 -25q115 0 115 73q0 35 -27.5 50t-81.5 15h-85v89h71q107 0 107 70q0 28 -19.5 46t-56.5 18q-62 0 -135 -35l-33 86q90 43 181 43t137.5 -42.5t46.5 -102.5q0 -79 -77 -117z
" />
    <glyph glyph-name="four.small" horiz-adv-x="517" 
d="M39 119v73l262 342h94v-322h82v-93h-82v-119h-117v119h-239zM284 378l-127 -168q36 2 63 2h61v82q0 36 3 84z" />
    <glyph glyph-name="five.small" horiz-adv-x="459" 
d="M19 22l33 88q56 -25 118 -25q52 0 85.5 21.5t33.5 61.5q0 49 -47 64q-31 10 -91 10h-86v288h355l-30 -91h-210v-109h13q73 0 118 -18q99 -38 99 -140q0 -81 -59 -131.5t-176 -50.5q-84 0 -156 32z" />
    <glyph glyph-name="six.small" horiz-adv-x="490" 
d="M260 -10q-98 0 -157 67.5t-59 185.5q0 126 69 211.5t186 85.5q71 0 136 -28l-34 -86q-49 22 -96 22q-56 0 -95.5 -37.5t-46.5 -100.5q55 32 120 32q73 0 122.5 -44.5t49.5 -122.5q0 -84 -55.5 -134.5t-139.5 -50.5zM262 82q36 0 55.5 22t19.5 62t-22.5 63.5t-58.5 23.5
q-51 0 -93 -31q1 -62 28 -101t71 -39z" />
    <glyph glyph-name="seven.small" horiz-adv-x="438" 
d="M185 0h-121q52 245 201 434h-225l-30 96h414v-45q-179 -189 -239 -485z" />
    <glyph glyph-name="eight.small" horiz-adv-x="498" 
d="M355 278v-2q98 -38 98 -130q0 -67 -54.5 -111.5t-152.5 -44.5q-92 0 -146.5 42.5t-54.5 109.5q0 90 93 131v2q-77 40 -77 117q0 64 51.5 106t139.5 42t135 -42.5t47 -101.5q0 -78 -79 -118zM251 79q36 0 60 17t24 47q0 59 -110 89q-26 -11 -44.5 -32.5t-18.5 -49.5
q0 -34 25 -52.5t64 -18.5zM178 391q0 -57 87 -80q23 11 37.5 31.5t14.5 45.5q0 26 -18.5 44.5t-51.5 18.5q-31 0 -50 -16.5t-19 -43.5z" />
    <glyph glyph-name="nine.small" horiz-adv-x="487" 
d="M45 20l30 86q54 -24 109 -24q59 0 99 37.5t42 106.5q-54 -38 -121 -38q-70 0 -119 42.5t-49 121.5q0 83 54.5 135.5t137.5 52.5q97 0 156 -67.5t59 -194.5q0 -129 -65 -208.5t-190 -79.5q-78 0 -143 30zM233 277q51 0 91 38q-1 65 -28 99t-67 34q-36 0 -56.5 -24.5
t-20.5 -62.5q0 -40 21.5 -62t59.5 -22z" />
    <glyph glyph-name="Euro.small" horiz-adv-x="473" 
d="M425 111l35 -85q-62 -36 -150 -36q-89 0 -147.5 45.5t-81.5 125.5h-63v68h51q-3 37 1 70h-52v69h64q24 82 85.5 127t144.5 45q71 0 124 -23v-98q-54 26 -113 26q-40 0 -71.5 -20t-44.5 -57h187l-26 -69h-179q-5 -36 0 -70h178l-27 -68h-135q27 -76 113 -76q62 0 107 26z
" />
    <glyph glyph-name="dollar.small" horiz-adv-x="475" 
d="M176 -71v85q-70 9 -126 44l42 82q63 -36 123 -36q74 0 74 49q0 24 -23 42t-56 32.5t-66 32t-56 49t-23 74.5q0 49 32.5 88t96.5 47v81h89v-79q58 -6 98 -27v-96q-74 34 -136 34q-60 0 -60 -43q0 -22 23 -39.5t56 -32.5t66 -32.5t56 -49t23 -73.5q0 -59 -37.5 -97.5
t-106.5 -48.5v-86h-89z" />
    <glyph glyph-name="sterling.small" horiz-adv-x="478" 
d="M45 0v75q77 22 77 148h-60v91h60v45q0 94 57 137.5t133 43.5q62 0 124 -25l-28 -89q-40 20 -82 20t-65 -25t-23 -70v-37h161l-32 -91h-129q-2 -90 -42 -134l1 -2q28 4 105 4h129v-91h-386z" />
    <glyph glyph-name="yen.small" horiz-adv-x="464" 
d="M230 310h2l86 220h125l-120 -252h97v-71h-131v-56h131v-71h-131v-80h-116v80h-131v71h131v56h-131v71h98l-120 252h125z" />
    <glyph glyph-name="six.LT" horiz-adv-x="545" 
d="M289 -10q-110 0 -180.5 79t-70.5 233q0 156 81 259.5t217 103.5q81 0 147 -31l-31 -93q-53 27 -110 27q-70 0 -119 -48.5t-61 -145.5q71 48 156 48q86 0 142.5 -54.5t56.5 -149.5q0 -104 -64 -166t-164 -62zM291 87q48 0 74 30t26 84q0 59 -29 91t-77 32q-30 0 -64 -13
t-56 -32q2 -92 38 -142t88 -50z" />
    <glyph glyph-name="seven.LT" horiz-adv-x="545" 
d="M120 0q68 332 243 557h-274l-30 102h468v-42q-209 -241 -282 -617h-125z" />
    <glyph glyph-name="eight.LT" horiz-adv-x="545" 
d="M274 -10q-112 0 -173.5 50t-61.5 133q0 58 31.5 101t82.5 65v2q-96 55 -96 145q0 78 61 128.5t163 50.5q100 0 157 -50.5t57 -119.5q0 -98 -100 -150v-2q122 -48 122 -159q0 -86 -63.5 -140t-179.5 -54zM281 83q47 0 78 24t31 67q0 22 -9.5 40t-21.5 29.5t-34.5 22
t-37 15t-40.5 12.5q-34 -14 -58 -41.5t-24 -65.5q0 -49 33.5 -76t82.5 -27zM300 386q68 36 68 98q0 38 -25 63t-69 25q-40 0 -65.5 -23t-25.5 -58q0 -43 31 -66t86 -39z" />
    <glyph glyph-name="nine.LT" horiz-adv-x="545" 
d="M217 -10q-88 0 -157 33l29 96q62 -32 125 -32q154 0 175 194h-2q-60 -47 -144 -47q-86 0 -143.5 51.5t-57.5 152.5q0 102 64 164.5t164 62.5q112 0 178 -77.5t66 -233.5q0 -174 -75.5 -269t-221.5 -95zM270 331q70 0 120 56q0 80 -33.5 130.5t-89.5 50.5q-46 0 -74 -33
t-28 -87q0 -56 27.5 -86.5t77.5 -30.5z" />
    <glyph glyph-name="Euro.LT" horiz-adv-x="545" 
d="M484 129l45 -94q-69 -45 -170 -45q-109 0 -177.5 58.5t-91.5 160.5h-69v75h58q-2 26 -2 39q0 24 3 48h-59v75h73q28 99 98.5 159t171.5 60q79 0 136 -30v-112q-62 38 -123 38q-52 0 -91 -30t-59 -85h243l-25 -75h-236q-3 -18 -3 -45q0 -24 2 -42h230l-26 -75h-188
q40 -115 146 -115q63 0 114 35z" />
    <glyph glyph-name="dollar.LT" horiz-adv-x="545" 
d="M211 -86v103q-83 9 -150 53l47 89q72 -47 138 -47q101 0 101 70q0 32 -27.5 57t-67 45t-79 43t-67 62.5t-27.5 91.5q0 61 40 108t114 56v98h87v-96q68 -7 116 -33v-100q-78 40 -149 40q-39 0 -62 -16.5t-23 -47.5t27.5 -55.5t67 -44t78.5 -42t66.5 -62t27.5 -92.5
q0 -71 -45 -117.5t-126 -58.5v-104h-87z" />
    <glyph glyph-name="plusinferior" horiz-adv-x="399" 
d="M159 -148v125h-114v74h114v121h80v-121h115v-74h-115v-125h-80z" />
    <glyph glyph-name="minusinferior" horiz-adv-x="399" 
d="M45 -23v74h309v-74h-309z" />
    <glyph glyph-name="equalinferior" horiz-adv-x="399" 
d="M45 -91v74h309v-74h-309zM45 45v74h309v-74h-309z" />
    <glyph glyph-name="five.LT" horiz-adv-x="545" 
d="M48 26l33 94q63 -29 132 -29q66 0 107 29t41 85q0 69 -61 92q-38 15 -120 15h-82v347h395l-30 -102h-248v-150h26q74 0 126 -20q60 -24 90.5 -70.5t30.5 -104.5q0 -99 -67.5 -160.5t-203.5 -61.5q-99 0 -169 36z" />
    <glyph glyph-name="four.LT" horiz-adv-x="545" 
d="M37 161v80l309 423h89v-405h91v-98h-91v-161h-118v161h-280zM165 257q6 0 37.5 1t44.5 1h70v94q0 34 5 129z" />
    <glyph glyph-name="three.LT" horiz-adv-x="545" 
d="M34 27l33 95q71 -31 148 -31q149 0 149 102q0 65 -70 83q-28 8 -80 8h-88v96h71q147 0 147 96q0 41 -26 64.5t-75 23.5q-75 0 -160 -45l-32 93q104 53 207 53q104 0 158 -51t54 -126q0 -100 -101 -143v-2q57 -11 89 -50.5t32 -97.5q0 -91 -68 -148t-199 -57
q-108 0 -189 37z" />
    <glyph glyph-name="two.LT" horiz-adv-x="545" 
d="M37 0q8 92 44.5 162.5t83 110.5t91.5 72t76 65t31 70q0 43 -29 63.5t-73 20.5q-76 0 -170 -45l-31 93q108 53 219 53q104 0 157.5 -47.5t53.5 -125.5q0 -52 -26.5 -95.5t-66.5 -75.5t-81.5 -62.5t-76.5 -71t-46 -85.5h304v-102h-460z" />
    <glyph glyph-name="Amacron.small" horiz-adv-x="552" 
d="M133 604v90h285v-90h-285zM7 0l220 534h98l220 -534h-127l-40 107h-206l-40 -107h-125zM206 198h138l-38 102q-21 60 -29 88h-3q-17 -52 -30 -88z" />
    <glyph glyph-name="Ccircumflex.small" horiz-adv-x="532" 
d="M470 119l33 -86q-79 -43 -176 -43q-129 0 -203.5 73t-74.5 193q0 130 81 207t204 77q86 0 141 -30v-95q-59 30 -124 30q-86 0 -133 -52t-47 -132t45 -128t121 -48q75 0 133 34zM165 566l100 147h96l101 -147h-94l-55 79l-54 -79h-94z" />
    <glyph glyph-name="Abreve.small" horiz-adv-x="552" 
d="M339 715h82q-4 -65 -43.5 -102t-103.5 -37q-63 0 -102.5 37t-43.5 102h83q3 -30 19.5 -47.5t44.5 -17.5t44.5 17.5t19.5 47.5zM7 0l220 534h98l220 -534h-127l-40 107h-206l-40 -107h-125zM206 198h138l-38 102q-21 60 -29 88h-3q-17 -52 -30 -88z" />
    <glyph glyph-name="Ccaron.small" horiz-adv-x="532" 
d="M260 566l-101 147h95l55 -78l54 78h93l-100 -147h-96zM470 119l33 -86q-79 -43 -176 -43q-129 0 -203.5 73t-74.5 193q0 130 81 207t204 77q86 0 141 -30v-95q-59 30 -124 30q-86 0 -133 -52t-47 -132t45 -128t121 -48q75 0 133 34z" />
    <glyph glyph-name="Cdotaccent.small" horiz-adv-x="532" 
d="M470 119l33 -86q-79 -43 -176 -43q-129 0 -203.5 73t-74.5 193q0 130 81 207t204 77q86 0 141 -30v-95q-59 30 -124 30q-86 0 -133 -52t-47 -132t45 -128t121 -48q75 0 133 34zM306 582q-31 0 -52.5 20.5t-21.5 50.5t21.5 51t52.5 21t52 -20.5t21 -51.5q0 -30 -21 -50.5
t-52 -20.5z" />
    <glyph glyph-name="Ccedilla.small" horiz-adv-x="532" 
d="M195 -201l16 55q26 -8 48 -8q49 0 49 32q0 20 -20.5 27t-61.5 7l26 85q-95 19 -149 88.5t-54 170.5q0 130 81 207t204 77q86 0 141 -30v-95q-59 30 -124 30q-86 0 -133 -52t-47 -132t45 -128t121 -48q75 0 133 34l33 -86q-77 -41 -165 -43l-12 -39q84 -7 84 -74
q0 -40 -35.5 -64.5t-104.5 -24.5q-42 0 -75 11z" />
    <glyph glyph-name="Dcaron.small" horiz-adv-x="607" 
d="M240 566l-101 147h95l55 -78l54 78h93l-100 -147h-96zM80 0v530h173q144 0 224.5 -70.5t80.5 -193.5q0 -122 -82.5 -194t-223.5 -72h-172zM199 97h55q95 0 138.5 45.5t43.5 122.5q0 168 -187 168h-50v-336z" />
    <glyph glyph-name="Dcroat.small" horiz-adv-x="607" 
d="M80 0v221h-61v91h61v218h173q144 0 224.5 -70.5t80.5 -193.5q0 -122 -82.5 -194t-223.5 -72h-172zM199 97h55q95 0 138.5 45.5t43.5 122.5q0 168 -187 168h-50v-121h111v-91h-111v-124z" />
    <glyph glyph-name="Egrave.small" horiz-adv-x="472" 
d="M212 566l-97 147h130l58 -147h-91zM80 0v530h337l-32 -91h-186v-126h186v-91h-186v-131h211v-91h-330z" />
    <glyph glyph-name="Eacute.small" horiz-adv-x="472" 
d="M187 566l58 147h129l-96 -147h-91zM80 0v530h337l-32 -91h-186v-126h186v-91h-186v-131h211v-91h-330z" />
    <glyph glyph-name="Ecircumflex.small" horiz-adv-x="472" 
d="M80 0v530h337l-32 -91h-186v-126h186v-91h-186v-131h211v-91h-330zM97 566l100 147h96l101 -147h-94l-55 79l-54 -79h-94z" />
    <glyph glyph-name="Ecaron.small" horiz-adv-x="472" 
d="M196 566l-101 147h95l55 -78l54 78h93l-100 -147h-96zM80 0v530h337l-32 -91h-186v-126h186v-91h-186v-131h211v-91h-330z" />
    <glyph glyph-name="Edieresis.small" horiz-adv-x="472" 
d="M80 0v530h337l-32 -91h-186v-126h186v-91h-186v-131h211v-91h-330zM151 576q-25 0 -43 18t-18 43q0 26 18 44t43 18q26 0 44 -18t18 -44q0 -25 -18 -43t-44 -18zM342 576q-26 0 -43.5 18t-17.5 43q0 26 17.5 44t43.5 18q25 0 43 -18t18 -44q0 -25 -18 -43t-43 -18z" />
    <glyph glyph-name="Emacron.small" horiz-adv-x="472" 
d="M100 604v90h285v-90h-285zM80 0v530h337l-32 -91h-186v-126h186v-91h-186v-131h211v-91h-330z" />
    <glyph glyph-name="Aring.small" horiz-adv-x="552" 
d="M132 0h-125l219 533q-31 9 -49 32.5t-18 56.5q0 45 32.5 71t84.5 26t84 -26.5t32 -70.5q0 -68 -67 -89l220 -533h-127l-40 107h-206zM277 388h-3q-17 -52 -30 -88l-38 -102h138l-38 102q-21 60 -29 88zM276 576q18 0 29 12t11 34t-11 34t-29 12q-19 0 -30 -12t-11 -34
t11 -34t30 -12z" />
    <glyph glyph-name="Ebreve.small" horiz-adv-x="472" 
d="M310 715h82q-4 -65 -43.5 -102t-103.5 -37q-63 0 -102.5 37t-43.5 102h83q3 -30 19.5 -47.5t44.5 -17.5t44.5 17.5t19.5 47.5zM80 0v530h337l-32 -91h-186v-126h186v-91h-186v-131h211v-91h-330z" />
    <glyph glyph-name="Aringacute.small" horiz-adv-x="552" 
d="M7 0l219 533q-31 9 -49 32.5t-18 56.5q0 39 25.5 64.5t68.5 30.5l49 128h130l-93 -140q53 -24 53 -83q0 -68 -67 -89l220 -533h-127l-40 107h-206l-40 -107h-125zM206 198h138l-38 102q-21 60 -29 88h-3q-17 -52 -30 -88zM235 622q0 -22 11 -34t30 -12q18 0 29 12t11 34
t-11 34t-29 12q-19 0 -30 -12t-11 -34z" />
    <glyph glyph-name="Aogonek.small" horiz-adv-x="552" 
d="M7 0l220 534h98l220 -534q-54 -15 -88 -46.5t-34 -62.5q0 -35 34 -35q16 0 37 6l14 -64q-42 -12 -80 -12q-49 0 -76.5 23t-27.5 62q0 66 93 132l-39 104h-206l-40 -107h-125zM206 198h138l-38 102q-21 60 -29 88h-3q-17 -52 -30 -88z" />
    <glyph glyph-name="Edotaccent.small" horiz-adv-x="472" 
d="M80 0v530h337l-32 -91h-186v-126h186v-91h-186v-131h211v-91h-330zM247 582q-31 0 -52.5 20.5t-21.5 50.5t21.5 51t52.5 21t52 -20.5t21 -51.5q0 -30 -21 -50.5t-52 -20.5z" />
    <glyph glyph-name="Eogonek.small" horiz-adv-x="472" 
d="M410 0h-22q-45 -22 -72 -50.5t-27 -58.5q0 -35 34 -35q16 0 37 6l13 -64q-40 -12 -79 -12q-49 0 -76.5 23t-27.5 62q0 68 88 129h-198v530h337l-32 -91h-186v-126h186v-91h-186v-131h211v-91z" />
    <glyph glyph-name="Gcircumflex.small" horiz-adv-x="600" 
d="M527 256v-234q-80 -32 -187 -32q-137 0 -214 72t-77 195q0 128 83 205.5t212 77.5q87 0 158 -29v-101q-62 35 -144 35q-91 0 -139 -52.5t-48 -128.5q0 -84 46 -131.5t125 -47.5q36 0 65 9v162h120zM165 566l100 147h96l101 -147h-94l-55 79l-54 -79h-94z" />
    <glyph glyph-name="Gbreve.small" horiz-adv-x="600" 
d="M379 715h82q-4 -65 -43.5 -102t-103.5 -37q-63 0 -102.5 37t-43.5 102h83q3 -30 19.5 -47.5t44.5 -17.5t44.5 17.5t19.5 47.5zM527 256v-234q-80 -32 -187 -32q-137 0 -214 72t-77 195q0 128 83 205.5t212 77.5q87 0 158 -29v-101q-62 35 -144 35q-91 0 -139 -52.5
t-48 -128.5q0 -84 46 -131.5t125 -47.5q36 0 65 9v162h120z" />
    <glyph glyph-name="Gdotaccent.small" horiz-adv-x="600" 
d="M527 256v-234q-80 -32 -187 -32q-137 0 -214 72t-77 195q0 128 83 205.5t212 77.5q87 0 158 -29v-101q-62 35 -144 35q-91 0 -139 -52.5t-48 -128.5q0 -84 46 -131.5t125 -47.5q36 0 65 9v162h120zM321 582q-31 0 -52.5 20.5t-21.5 50.5t21.5 51t52.5 21t52 -20.5
t21 -51.5q0 -30 -21 -50.5t-52 -20.5z" />
    <glyph glyph-name="Gcommaaccent.small" horiz-adv-x="600" 
d="M527 256v-234q-80 -32 -187 -32q-137 0 -214 72t-77 195q0 128 83 205.5t212 77.5q87 0 158 -29v-101q-62 35 -144 35q-91 0 -139 -52.5t-48 -128.5q0 -84 46 -131.5t125 -47.5q36 0 65 9v162h120zM254 -237l-29 72q74 15 74 61q0 25 -20 52h102q23 -34 23 -72
q0 -95 -150 -113z" />
    <glyph glyph-name="Hcircumflex.small" horiz-adv-x="647" 
d="M80 0v530h119v-213h250v213h119v-530h-119v220h-250v-220h-119zM175 566l100 147h96l101 -147h-94l-55 79l-54 -79h-94z" />
    <glyph glyph-name="Hbar.small" horiz-adv-x="647" 
d="M80 0v388h-53v77h53v65h119v-65h250v65h119v-65h53v-77h-53v-388h-119v220h-250v-220h-119zM199 317h250v71h-250v-71z" />
    <glyph glyph-name="Igrave.small" horiz-adv-x="278" 
d="M106 566l-97 147h130l58 -147h-91zM80 0v530h119v-530h-119z" />
    <glyph glyph-name="Iacute.small" horiz-adv-x="278" 
d="M81 566l58 147h129l-96 -147h-91zM80 0v530h119v-530h-119z" />
    <glyph glyph-name="Icircumflex.small" horiz-adv-x="278" 
d="M80 0v530h119v-530h-119zM-10 566l100 147h96l101 -147h-94l-55 79l-54 -79h-94z" />
    <glyph glyph-name="Itilde.small" horiz-adv-x="278" 
d="M-18 582v39q0 39 23 61t59 22q32 0 75.5 -22t55.5 -22q14 0 18 8.5t4 29.5h78v-39q0 -39 -23 -61t-59 -22q-31 0 -75 22t-56 22q-14 0 -18 -8.5t-4 -29.5h-78zM80 0v530h119v-530h-119z" />
    <glyph glyph-name="AE.small" horiz-adv-x="760" 
d="M6 0l294 530h405l-33 -91h-245l29 -126h217v-91h-196l30 -131h191v-91h-282l-23 107h-205l-56 -107h-126zM236 198h137l-22 102q-13 52 -17 88h-2q-12 -28 -42 -88z" />
    <glyph glyph-name="Idieresis.small" horiz-adv-x="278" 
d="M80 0v530h119v-530h-119zM44 576q-25 0 -43 18t-18 43q0 26 18 44t43 18q26 0 44 -18t18 -44q0 -25 -18 -43t-44 -18zM235 576q-25 0 -43 18t-18 43q0 26 17.5 44t43.5 18q25 0 43 -18t18 -44q0 -25 -18 -43t-43 -18z" />
    <glyph glyph-name="Imacron.small" horiz-adv-x="278" 
d="M-3 604v90h285v-90h-285zM80 0v530h119v-530h-119z" />
    <glyph glyph-name="AEacute.small" horiz-adv-x="760" 
d="M371 566l58 147h129l-96 -147h-91zM6 0l294 530h405l-33 -91h-245l29 -126h217v-91h-196l30 -131h191v-91h-282l-23 107h-205l-56 -107h-126zM236 198h137l-22 102q-13 52 -17 88h-2q-12 -28 -42 -88z" />
    <glyph glyph-name="Ibreve.small" horiz-adv-x="278" 
d="M202 715h82q-4 -65 -43.5 -102t-103.5 -37q-63 0 -102.5 37t-43.5 102h83q3 -30 19.5 -47.5t44.5 -17.5t44.5 17.5t19.5 47.5zM80 0v530h119v-530h-119z" />
    <glyph glyph-name="Iogonek.small" horiz-adv-x="278" 
d="M80 2v528h119v-530q-41 -22 -63.5 -50t-22.5 -57q0 -37 36 -37q15 0 36 6l13 -64q-39 -12 -76 -12q-51 0 -79 24t-28 68q0 69 65 124z" />
    <glyph glyph-name="IJ.small" horiz-adv-x="576" 
d="M80 0v530h119v-530h-119zM234 -138l24 90q24 -7 47 -7q39 0 55.5 20.5t16.5 62.5v502h120v-520q0 -80 -45 -121.5t-133 -41.5q-51 0 -85 15z" />
    <glyph glyph-name="Jcircumflex.small" horiz-adv-x="298" 
d="M-44 -138l24 90q24 -7 47 -7q39 0 55.5 20.5t16.5 62.5v502h120v-520q0 -80 -45 -121.5t-133 -41.5q-51 0 -85 15zM9 566l100 147h96l101 -147h-94l-55 79l-54 -79h-94z" />
    <glyph glyph-name="Kcommaaccent.small" 
d="M80 0v530h119v-233h2l186 233h129l-216 -267l228 -263h-138l-189 221h-2v-221h-119zM201 -237l-29 72q74 15 74 61q0 25 -20 52h102q23 -34 23 -72q0 -95 -150 -113z" />
    <glyph glyph-name="Lacute.small" horiz-adv-x="413" 
d="M82 566l58 147h129l-96 -147h-91zM80 0v530h119v-434h202v-96h-321z" />
    <glyph glyph-name="Lcaron.small" horiz-adv-x="413" 
d="M80 0v530h119v-434h202v-96h-321zM254 383l36 196h118l-64 -196h-90z" />
    <glyph glyph-name="Lcommaaccent.small" horiz-adv-x="413" 
d="M80 0v530h119v-434h202v-96h-321zM168 -237l-29 72q74 15 74 61q0 25 -20 52h102q23 -34 23 -72q0 -95 -150 -113z" />
    <glyph glyph-name="Lslash.small" horiz-adv-x="412" 
d="M198 359l113 65v-106l-113 -65v-157h202v-96h-321v186l-56 -33v106l56 32v239h119v-171z" />
    <glyph glyph-name="Ldot.small" horiz-adv-x="413" 
d="M344 229q-27 0 -46.5 20t-19.5 49t19.5 48.5t46.5 19.5q28 0 47.5 -19.5t19.5 -48.5t-19.5 -49t-47.5 -20zM80 0v530h119v-434h202v-96h-321z" />
    <glyph glyph-name="Nacute.small" horiz-adv-x="669" 
d="M282 566l58 147h129l-96 -147h-91zM470 173h2q-2 58 -2 124v233h120v-530h-110l-198 251q-52 68 -84 116h-1q2 -76 2 -119v-248h-119v530h115l188 -239q43 -53 87 -118z" />
    <glyph glyph-name="Ncaron.small" horiz-adv-x="669" 
d="M283 566l-101 147h95l55 -78l54 78h93l-100 -147h-96zM470 173h2q-2 58 -2 124v233h120v-530h-110l-198 251q-52 68 -84 116h-1q2 -76 2 -119v-248h-119v530h115l188 -239q43 -53 87 -118z" />
    <glyph glyph-name="Cacute.small" horiz-adv-x="532" 
d="M269 566l58 147h129l-96 -147h-91zM470 119l33 -86q-79 -43 -176 -43q-129 0 -203.5 73t-74.5 193q0 130 81 207t204 77q86 0 141 -30v-95q-59 30 -124 30q-86 0 -133 -52t-47 -132t45 -128t121 -48q75 0 133 34z" />
    <glyph glyph-name="Ntilde.small" horiz-adv-x="669" 
d="M178 582v39q0 39 23 61t59 22q32 0 75.5 -22t55.5 -22q14 0 18 8.5t4 29.5h78v-39q0 -39 -23 -61t-59 -22q-31 0 -75 22t-56 22q-14 0 -18 -8.5t-4 -29.5h-78zM470 173h2q-2 58 -2 124v233h120v-530h-110l-198 251q-52 68 -84 116h-1q2 -76 2 -119v-248h-119v530h115
l188 -239q43 -53 87 -118z" />
    <glyph glyph-name="Ncommaaccent.small" horiz-adv-x="669" 
d="M470 173h2q-2 58 -2 124v233h120v-530h-110l-198 251q-52 68 -84 116h-1q2 -76 2 -119v-248h-119v530h115l188 -239q43 -53 87 -118zM260 -237l-29 72q74 15 74 61q0 25 -20 52h102q23 -34 23 -72q0 -95 -150 -113z" />
    <glyph glyph-name="Ograve.small" horiz-adv-x="651" 
d="M279 566l-97 147h130l58 -147h-91zM325 85q71 0 113 48t42 132t-42 132t-113 48q-70 0 -112 -48t-42 -132t42 -132t112 -48zM325 540q124 0 200.5 -76.5t76.5 -198.5t-76.5 -198.5t-200.5 -76.5q-123 0 -199.5 76.5t-76.5 198.5t76.5 198.5t199.5 76.5z" />
    <glyph glyph-name="Oacute.small" horiz-adv-x="651" 
d="M280 566l58 147h129l-96 -147h-91zM325 85q71 0 113 48t42 132t-42 132t-113 48q-70 0 -112 -48t-42 -132t42 -132t112 -48zM325 540q124 0 200.5 -76.5t76.5 -198.5t-76.5 -198.5t-200.5 -76.5q-123 0 -199.5 76.5t-76.5 198.5t76.5 198.5t199.5 76.5z" />
    <glyph glyph-name="Ocircumflex.small" horiz-adv-x="651" 
d="M325 85q71 0 113 48t42 132t-42 132t-113 48q-70 0 -112 -48t-42 -132t42 -132t112 -48zM325 540q124 0 200.5 -76.5t76.5 -198.5t-76.5 -198.5t-200.5 -76.5q-123 0 -199.5 76.5t-76.5 198.5t76.5 198.5t199.5 76.5zM175 566l100 147h96l101 -147h-94l-55 79l-54 -79
h-94z" />
    <glyph glyph-name="Otilde.small" horiz-adv-x="651" 
d="M166 582v39q0 39 23 61t59 22q32 0 75.5 -22t55.5 -22q14 0 18 8.5t4 29.5h78v-39q0 -39 -23 -61t-59 -22q-31 0 -75 22t-56 22q-14 0 -18 -8.5t-4 -29.5h-78zM325 85q71 0 113 48t42 132t-42 132t-113 48q-70 0 -112 -48t-42 -132t42 -132t112 -48zM325 540
q124 0 200.5 -76.5t76.5 -198.5t-76.5 -198.5t-200.5 -76.5q-123 0 -199.5 76.5t-76.5 198.5t76.5 198.5t199.5 76.5z" />
    <glyph glyph-name="Odieresis.small" horiz-adv-x="651" 
d="M325 85q71 0 113 48t42 132t-42 132t-113 48q-70 0 -112 -48t-42 -132t42 -132t112 -48zM325 540q124 0 200.5 -76.5t76.5 -198.5t-76.5 -198.5t-200.5 -76.5q-123 0 -199.5 76.5t-76.5 198.5t76.5 198.5t199.5 76.5zM227 576q-25 0 -43 18t-18 43q0 26 18 44t43 18
q26 0 44 -18t18 -44q0 -25 -18 -43t-44 -18zM418 576q-26 0 -43.5 18t-17.5 43q0 26 17.5 44t43.5 18q25 0 43 -18t18 -44q0 -25 -18 -43t-43 -18z" />
    <glyph glyph-name="Omacron.small" horiz-adv-x="651" 
d="M182 604v90h285v-90h-285zM325 85q71 0 113 48t42 132t-42 132t-113 48q-70 0 -112 -48t-42 -132t42 -132t112 -48zM325 540q124 0 200.5 -76.5t76.5 -198.5t-76.5 -198.5t-200.5 -76.5q-123 0 -199.5 76.5t-76.5 198.5t76.5 198.5t199.5 76.5z" />
    <glyph glyph-name="Obreve.small" horiz-adv-x="651" 
d="M386 715h82q-4 -65 -43.5 -102t-103.5 -37q-63 0 -102.5 37t-43.5 102h83q3 -30 19.5 -47.5t44.5 -17.5t44.5 17.5t19.5 47.5zM325 85q71 0 113 48t42 132t-42 132t-113 48q-70 0 -112 -48t-42 -132t42 -132t112 -48zM325 540q124 0 200.5 -76.5t76.5 -198.5
t-76.5 -198.5t-200.5 -76.5q-123 0 -199.5 76.5t-76.5 198.5t76.5 198.5t199.5 76.5z" />
    <glyph glyph-name="Ohungarumlaut.small" horiz-adv-x="651" 
d="M325 85q71 0 113 48t42 132t-42 132t-113 48q-70 0 -112 -48t-42 -132t42 -132t112 -48zM325 540q124 0 200.5 -76.5t76.5 -198.5t-76.5 -198.5t-200.5 -76.5q-123 0 -199.5 76.5t-76.5 198.5t76.5 198.5t199.5 76.5zM191 566l58 147h130l-97 -147h-91zM364 566l58 147
h130l-97 -147h-91z" />
    <glyph glyph-name="Oslash.small" horiz-adv-x="651" 
d="M77 15l44 56q-72 75 -72 194q0 122 76.5 198.5t199.5 76.5q82 0 147 -38l45 55l57 -42l-45 -56q73 -75 73 -194q0 -122 -76.5 -198.5t-200.5 -76.5q-82 0 -147 37l-44 -54zM170 265q0 -59 24 -104l213 261q-35 23 -82 23q-70 0 -112.5 -48.5t-42.5 -131.5zM325 85
q70 0 113 48.5t43 131.5q0 59 -25 103l-213 -261q36 -22 82 -22z" />
    <glyph glyph-name="Oslashacute.small" horiz-adv-x="651" 
d="M277 566l58 147h129l-96 -147h-91zM77 15l44 56q-72 75 -72 194q0 122 76.5 198.5t199.5 76.5q82 0 147 -38l45 55l57 -42l-45 -56q73 -75 73 -194q0 -122 -76.5 -198.5t-200.5 -76.5q-82 0 -147 37l-44 -54zM170 265q0 -59 24 -104l213 261q-35 23 -82 23
q-70 0 -112.5 -48.5t-42.5 -131.5zM325 85q70 0 113 48.5t43 131.5q0 59 -25 103l-213 -261q36 -22 82 -22z" />
    <glyph glyph-name="OE.small" horiz-adv-x="808" 
d="M746 0h-223q-47 0 -111.5 -4t-88.5 -4q-125 0 -199.5 76t-74.5 196q0 119 76 196.5t202 77.5q25 0 81.5 -4t102.5 -4h242l-33 -92h-185v-126h186v-91h-186v-130h211v-91zM415 102v324q-37 18 -85 18q-75 0 -117 -49.5t-42 -130.5q0 -82 40.5 -130t119.5 -48q40 0 84 16z
" />
    <glyph glyph-name="Racute.small" horiz-adv-x="538" 
d="M198 566l58 147h129l-96 -147h-91zM361 231v-2q28 -18 64 -78l92 -151h-128l-76 127q-34 57 -58 62h-56v-189h-119v530h190q103 0 149.5 -46t46.5 -112q0 -106 -105 -141zM199 280h62q41 0 64 22t23 58q0 35 -22.5 57t-64.5 22h-62v-159z" />
    <glyph glyph-name="Rcaron.small" horiz-adv-x="538" 
d="M210 566l-101 147h95l55 -78l54 78h93l-100 -147h-96zM361 231v-2q28 -18 64 -78l92 -151h-128l-76 127q-34 57 -58 62h-56v-189h-119v530h190q103 0 149.5 -46t46.5 -112q0 -106 -105 -141zM199 280h62q41 0 64 22t23 58q0 35 -22.5 57t-64.5 22h-62v-159z" />
    <glyph glyph-name="Rcommaaccent.small" horiz-adv-x="538" 
d="M361 231v-2q28 -18 64 -78l92 -151h-128l-76 127q-34 57 -58 62h-56v-189h-119v530h190q103 0 149.5 -46t46.5 -112q0 -106 -105 -141zM199 280h62q41 0 64 22t23 58q0 35 -22.5 57t-64.5 22h-62v-159zM205 -237l-29 72q74 15 74 61q0 25 -20 52h102q23 -34 23 -72
q0 -95 -150 -113z" />
    <glyph glyph-name="Sacute.small" horiz-adv-x="468" 
d="M198 566l58 147h129l-96 -147h-91zM45 33l39 84q67 -35 127 -35q37 0 63 15t26 47q0 27 -24 47t-58.5 34.5t-69 32.5t-58.5 51.5t-24 80.5q0 67 49.5 108.5t135.5 41.5q78 0 144 -25v-98q-71 32 -134 32q-31 0 -52.5 -13.5t-21.5 -41.5q0 -25 24 -43t58.5 -31.5t69 -31
t58.5 -52t24 -84.5q0 -74 -57 -118t-146 -44q-96 0 -173 43z" />
    <glyph glyph-name="Scircumflex.small" horiz-adv-x="468" 
d="M45 33l39 84q67 -35 127 -35q37 0 63 15t26 47q0 27 -24 47t-58.5 34.5t-69 32.5t-58.5 51.5t-24 80.5q0 67 49.5 108.5t135.5 41.5q78 0 144 -25v-98q-71 32 -134 32q-31 0 -52.5 -13.5t-21.5 -41.5q0 -25 24 -43t58.5 -31.5t69 -31t58.5 -52t24 -84.5q0 -74 -57 -118
t-146 -44q-96 0 -173 43zM89 566l100 147h96l101 -147h-94l-55 79l-54 -79h-94z" />
    <glyph glyph-name="Scaron.small" horiz-adv-x="468" 
d="M195 566l-101 147h95l55 -78l54 78h93l-100 -147h-96zM45 33l39 84q67 -35 127 -35q37 0 63 15t26 47q0 27 -24 47t-58.5 34.5t-69 32.5t-58.5 51.5t-24 80.5q0 67 49.5 108.5t135.5 41.5q78 0 144 -25v-98q-71 32 -134 32q-31 0 -52.5 -13.5t-21.5 -41.5q0 -25 24 -43
t58.5 -31.5t69 -31t58.5 -52t24 -84.5q0 -74 -57 -118t-146 -44q-96 0 -173 43z" />
    <glyph glyph-name="Scedilla.small" horiz-adv-x="468" 
d="M116 -201l17 55q24 -8 47 -8q49 0 49 32q0 20 -20 27t-61 7l25 81q-74 8 -128 40l39 84q67 -35 127 -35q37 0 63 15t26 47q0 27 -24 47t-58.5 34.5t-69 32.5t-58.5 51.5t-24 80.5q0 67 49.5 108.5t135.5 41.5q78 0 144 -25v-98q-71 32 -134 32q-31 0 -52.5 -13.5
t-21.5 -41.5q0 -25 24 -43t58.5 -31.5t69 -31t58.5 -52t24 -84.5q0 -65 -44 -107t-117 -52l-13 -42q84 -7 84 -74q0 -40 -35.5 -64.5t-104.5 -24.5q-42 0 -75 11z" />
    <glyph glyph-name="Scommaaccent.small" horiz-adv-x="468" 
d="M45 33l39 84q67 -35 127 -35q37 0 63 15t26 47q0 27 -24 47t-58.5 34.5t-69 32.5t-58.5 51.5t-24 80.5q0 67 49.5 108.5t135.5 41.5q78 0 144 -25v-98q-71 32 -134 32q-31 0 -52.5 -13.5t-21.5 -41.5q0 -25 24 -43t58.5 -31.5t69 -31t58.5 -52t24 -84.5q0 -74 -57 -118
t-146 -44q-96 0 -173 43zM156 -237l-29 72q74 15 74 61q0 25 -20 52h102q23 -34 23 -72q0 -95 -150 -113z" />
    <glyph glyph-name="Tcaron.small" horiz-adv-x="469" 
d="M183 566l-101 147h95l55 -78l54 78h93l-100 -147h-96zM172 0v434h-160v96h458l-33 -96h-146v-434h-119z" />
    <glyph glyph-name="Tcommaaccent.small" horiz-adv-x="469" 
d="M172 0v434h-160v96h458l-33 -96h-146v-434h-119zM155 -237l-29 72q74 15 74 61q0 25 -20 52h102q23 -34 23 -72q0 -95 -150 -113z" />
    <glyph glyph-name="Tbar.small" horiz-adv-x="469" 
d="M81 197v91h91v146h-160v96h458l-33 -96h-146v-146h91v-91h-91v-197h-119v197h-91z" />
    <glyph glyph-name="Ugrave.small" horiz-adv-x="630" 
d="M277 566l-97 147h130l58 -147h-91zM552 530v-324q0 -108 -64.5 -162t-173.5 -54q-108 0 -172 54t-64 162v324h119v-318q0 -62 31 -95t87 -33t87 33t31 95v318h119z" />
    <glyph glyph-name="Uacute.small" horiz-adv-x="630" 
d="M267 566l58 147h129l-96 -147h-91zM552 530v-324q0 -108 -64.5 -162t-173.5 -54q-108 0 -172 54t-64 162v324h119v-318q0 -62 31 -95t87 -33t87 33t31 95v318h119z" />
    <glyph glyph-name="Ucircumflex.small" horiz-adv-x="630" 
d="M552 530v-324q0 -108 -64.5 -162t-173.5 -54q-108 0 -172 54t-64 162v324h119v-318q0 -62 31 -95t87 -33t87 33t31 95v318h119zM168 566l100 147h96l101 -147h-94l-55 79l-54 -79h-94z" />
    <glyph glyph-name="Utilde.small" horiz-adv-x="630" 
d="M160 582v39q0 39 23 61t59 22q32 0 75.5 -22t55.5 -22q14 0 18 8.5t4 29.5h78v-39q0 -39 -23 -61t-59 -22q-31 0 -75 22t-56 22q-14 0 -18 -8.5t-4 -29.5h-78zM552 530v-324q0 -108 -64.5 -162t-173.5 -54q-108 0 -172 54t-64 162v324h119v-318q0 -62 31 -95t87 -33
t87 33t31 95v318h119z" />
    <glyph glyph-name="Udieresis.small" horiz-adv-x="630" 
d="M552 530v-324q0 -108 -64.5 -162t-173.5 -54q-108 0 -172 54t-64 162v324h119v-318q0 -62 31 -95t87 -33t87 33t31 95v318h119zM222 576q-25 0 -43 18t-18 43q0 26 18 44t43 18q26 0 44 -18t18 -44q0 -25 -18 -43t-44 -18zM413 576q-25 0 -43 18t-18 43q0 26 17.5 44
t43.5 18q25 0 43 -18t18 -44q0 -25 -18 -43t-43 -18z" />
    <glyph glyph-name="Umacron.small" horiz-adv-x="630" 
d="M173 604v90h285v-90h-285zM552 530v-324q0 -108 -64.5 -162t-173.5 -54q-108 0 -172 54t-64 162v324h119v-318q0 -62 31 -95t87 -33t87 33t31 95v318h119z" />
    <glyph glyph-name="Ubreve.small" horiz-adv-x="630" 
d="M381 715h82q-4 -65 -43.5 -102t-103.5 -37q-63 0 -102.5 37t-43.5 102h83q3 -30 19.5 -47.5t44.5 -17.5t44.5 17.5t19.5 47.5zM552 530v-324q0 -108 -64.5 -162t-173.5 -54q-108 0 -172 54t-64 162v324h119v-318q0 -62 31 -95t87 -33t87 33t31 95v318h119z" />
    <glyph glyph-name="Uring.small" horiz-adv-x="630" 
d="M315 558q-52 0 -84.5 26t-32.5 71t32.5 71t84.5 26t84.5 -26t32.5 -71t-32.5 -71t-84.5 -26zM315 609q18 0 29.5 12.5t11.5 33.5t-11.5 33.5t-29.5 12.5q-19 0 -30 -12t-11 -34t11 -34t30 -12zM552 530v-324q0 -108 -64.5 -162t-173.5 -54q-108 0 -172 54t-64 162v324
h119v-318q0 -62 31 -95t87 -33t87 33t31 95v318h119z" />
    <glyph glyph-name="Uhungarumlaut.small" horiz-adv-x="630" 
d="M552 530v-324q0 -108 -64.5 -162t-173.5 -54q-108 0 -172 54t-64 162v324h119v-318q0 -62 31 -95t87 -33t87 33t31 95v318h119zM183 566l58 147h130l-97 -147h-91zM356 566l58 147h130l-97 -147h-91z" />
    </font>
</defs>
</svg>
