<?xml version="1.0" standalone="no"?>
<!DOCTYPE svg PUBLIC "-//W3C//DTD SVG 1.1//EN" "http://www.w3.org/Graphics/SVG/1.1/DTD/svg11.dtd" >
<svg xmlns="http://www.w3.org/2000/svg" xmlns:xlink="http://www.w3.org/1999/xlink" version="1.1">
<metadata>
Created by FontForge 20170910 at (null) By Jimmy Wärting
(c)1996 Designed by Jeremy Tankard for Agfa Division Bayer Corporation. All Rights Reserved.
</metadata>
<defs>
<font id="BlissLight" horiz-adv-x="515" >
  <font-face 
    font-family="BlissLight"
    font-weight="300"
    font-stretch="normal"
    units-per-em="1000"
    panose-1="0 0 3 0 0 0 0 0 0 0"
    ascent="800"
    descent="-200"
    x-height="473"
    cap-height="659"
    bbox="-49 -237 1115 855"
    underline-thickness="20"
    underline-position="-163"
    unicode-range="U+0020-F002"
  />
<missing-glyph horiz-adv-x="500" 
d="M63 0v767h375v-767h-375zM125 63h250v642h-250v-642z" />
    <glyph glyph-name=".notdef" horiz-adv-x="500" 
d="M63 0v767h375v-767h-375zM125 63h250v642h-250v-642z" />
    <glyph glyph-name=".null" horiz-adv-x="0" 
 />
    <glyph glyph-name="nonmarkingreturn" horiz-adv-x="250" 
 />
    <glyph glyph-name="space" unicode=" " horiz-adv-x="250" 
 />
    <glyph glyph-name="exclam" unicode="!" horiz-adv-x="278" 
d="M178 598q0 -273 -23 -431h-30q-22 152 -22 432v60h75v-61zM194 45q0 -23 -15.5 -39.5t-38.5 -16.5t-38.5 16.5t-15.5 39.5t15.5 39.5t38.5 16.5t38.5 -16.5t15.5 -39.5z" />
    <glyph glyph-name="quotedbl" unicode="&#x22;" horiz-adv-x="344" 
d="M285 708l-11 -213h-54l-13 213h78zM139 708l-11 -213h-54l-13 213h78z" />
    <glyph glyph-name="numbersign" unicode="#" horiz-adv-x="660" 
d="M626 424h-146l-38 -178h132v-66h-146l-38 -180h-73l38 180h-117l-38 -180h-73l38 180h-129v66h143l38 178h-129v66h143l36 169h73l-36 -169h117l36 169h73l-36 -169h132v-66zM407 424h-117l-38 -178h117z" />
    <glyph glyph-name="dollar" unicode="$" 
d="M441 175q0 -62 -42 -103.5t-112 -53.5v-96h-68v94q-83 5 -146 47l34 60q61 -43 134 -43q48 0 82 21q39 25 39 71t-41 82q-20 17 -91 57q-64 37 -92 67q-47 51 -47 118q0 57 38 98t104 51v93h68v-91q64 -5 110 -29v-77q-63 42 -136 42q-49 0 -79 -21q-33 -23 -33 -66
q0 -51 72 -99q67 -42 134 -85q72 -58 72 -137z" />
    <glyph glyph-name="percent" unicode="%" horiz-adv-x="817" 
d="M758 169q0 -84 -45 -133q-43 -45 -109 -45t-106 45q-44 48 -44 132t46 133q42 45 108 45t107 -45q43 -48 43 -132zM672 676l-446 -696h-79l446 696h79zM365 491q0 -84 -45 -133q-43 -45 -109 -45t-106 45q-44 48 -44 132t46 133q42 45 108 45t107 -45q43 -48 43 -132z
M685 168q0 124 -81 124q-77 0 -77 -122q0 -125 81 -125q77 0 77 123zM292 490q0 124 -81 124q-77 0 -77 -122q0 -125 81 -125q77 0 77 123z" />
    <glyph glyph-name="ampersand" unicode="&#x26;" horiz-adv-x="706" 
d="M692 5q-20 -11 -53 -11q-63 0 -159 86q-103 -91 -229 -91q-90 0 -145 58q-50 52 -50 128q0 130 149 191q-43 48 -58 76q-22 39 -22 85q0 58 46 98.5t118 40.5t116 -39.5t44 -102.5q0 -103 -139 -176q80 -99 176 -183q33 35 63 82t38 77l63 -15q-22 -84 -118 -186
q77 -74 128 -74q9 0 17 2zM377 517q0 32 -19 55q-24 31 -72 31q-43 0 -68 -26q-21 -22 -21 -51t18 -60q13 -23 55 -73q107 53 107 124zM432 120q-105 97 -188 199q-110 -46 -110 -139q0 -55 37 -91t99 -36q91 0 162 67z" />
    <glyph glyph-name="quotesingle" unicode="'" horiz-adv-x="198" 
d="M139 708l-11 -213h-54l-13 213h78z" />
    <glyph glyph-name="parenleft" unicode="(" horiz-adv-x="310" 
d="M286 -202l-54 -35q-156 192 -156 505q0 315 156 507l53 -35q-73 -109 -100 -198q-31 -105 -31 -274q0 -168 32 -273q27 -87 100 -197z" />
    <glyph glyph-name="parenright" unicode=")" horiz-adv-x="310" 
d="M236 268q0 -313 -156 -505l-54 35q73 110 100 197q32 105 32 273q0 169 -31 274q-27 89 -100 198l53 35q156 -192 156 -507z" />
    <glyph glyph-name="asterisk" unicode="*" horiz-adv-x="480" 
d="M416 465l-35 -59q-21 12 -66 48t-56 43q0 -14 8.5 -70.5t8.5 -81.5l-67 -1q-1 26 7 80q8 63 9 72q-43 -34 -124 -91l-35 59q21 12 74.5 33.5t66.5 28.5q-51 20 -141 62l34 59q47 -36 122 -91q0 14 -8 72q-7 55 -7 80h68q0 -24 -8 -78q-8 -59 -9 -72q43 33 123 89l34 -59
q-22 -13 -73 -33q-57 -22 -67 -27q50 -20 141 -63z" />
    <glyph glyph-name="plus" unicode="+" horiz-adv-x="626" 
d="M550 220h-199v-220h-73v220h-202v68h202v215h73v-215h199v-68z" />
    <glyph glyph-name="comma" unicode="," horiz-adv-x="198" 
d="M139 115q5 -28 5 -55q0 -104 -71 -179l-37 24q31 62 31 128q0 28 -5 65z" />
    <glyph glyph-name="hyphen" unicode="-" horiz-adv-x="363" 
d="M314 214h-263v66h263v-66z" />
    <glyph glyph-name="hyphen" unicode="&#x2010;" horiz-adv-x="363" 
d="M314 214h-263v66h263v-66z" />
    <glyph glyph-name="period" unicode="." horiz-adv-x="198" 
d="M156 45q0 -23 -15.5 -39.5t-38.5 -16.5t-38.5 16.5t-15.5 39.5t15.5 39.5t38.5 16.5t38.5 -16.5t15.5 -39.5z" />
    <glyph glyph-name="slash" unicode="/" horiz-adv-x="345" 
d="M336 696l-254 -728h-71l254 728h71z" />
    <glyph glyph-name="zero" unicode="0" 
d="M484 326q0 -158 -65 -249q-63 -87 -166 -87q-102 0 -162 88.5t-60 247.5q0 160 64 250q61 88 164 88q102 0 163.5 -89t61.5 -249zM410 319q0 132 -44 209q-43 73 -111 73q-71 0 -112 -78q-38 -73 -38 -187q0 -132 45 -209q42 -73 110 -73q71 0 112 78q38 73 38 187z" />
    <glyph glyph-name="one" unicode="1" 
d="M361 0h-71v584l-157 -76l-21 58l192 98h57v-664z" />
    <glyph glyph-name="two" unicode="2" 
d="M448 0h-397q14 158 98 257q28 32 149 123q76 58 76 121q0 97 -113 97q-85 0 -163 -47l-25 60q94 53 198 53q87 0 136 -47q45 -44 45 -112q0 -87 -72 -152q-71 -54 -143 -109q-82 -74 -98 -177l309 5v-72z" />
    <glyph glyph-name="three" unicode="3" 
d="M463 193q0 -89 -63 -144q-67 -59 -189 -59q-94 0 -164 33l22 58q68 -30 152 -30q65 0 112 33q53 36 53 96q0 121 -174 121h-82v64l67 2q173 5 173 130q0 45 -32.5 73.5t-86.5 28.5q-79 0 -165 -47l-21 58q103 54 195 54q88 0 138 -48q46 -44 46 -113q0 -109 -105 -158v-1
q55 -9 89.5 -49t34.5 -102z" />
    <glyph glyph-name="four" unicode="4" 
d="M505 174h-98v-176h-71v176h-294v59l319 431h46v-423h98v-67zM339 531l-216 -293q39 0 97 1l115 2l1 193q0 47 3 97z" />
    <glyph glyph-name="five" unicode="5" 
d="M459 657l-17 -71l-259 4v-195q19 1 36 1q122 0 185 -60q54 -52 54 -135q0 -92 -62 -149q-68 -62 -191 -62q-85 0 -137 27l23 60q46 -25 124 -25q70 0 116 36q50 38 50 104q0 138 -183 138h-86v327h347z" />
    <glyph glyph-name="six" unicode="6" 
d="M479 208q0 -100 -60 -160.5t-152 -60.5q-103 0 -164 72q-68 80 -68 237q0 152 75 257q80 111 207 111q70 0 125 -26l-22 -62q-49 25 -96 25q-85 0 -142.5 -66t-64.5 -176q86 53 157 53q86 0 143 -51q62 -56 62 -153zM404 203q0 65 -38 103.5t-94 38.5q-79 0 -158 -53
q-5 -103 39.5 -171.5t115.5 -68.5q60 0 97.5 39.5t37.5 111.5z" />
    <glyph glyph-name="seven" unicode="7" 
d="M494 626q-229 -331 -277 -628h-74q42 271 253 598l-297 -5l-17 68h412v-33z" />
    <glyph glyph-name="eight" unicode="8" 
d="M482 173q0 -79 -63 -131t-166 -52q-105 0 -162 47.5t-57 133.5q0 115 121 167v1q-94 57 -94 152q0 75 55.5 124t152.5 49q96 0 148 -55q44 -47 44 -113q0 -95 -103 -158v-1q124 -42 124 -164zM384 494q0 45 -31 77q-35 34 -91 34t-92 -30.5t-36 -77.5q0 -104 152 -137
q98 55 98 134zM405 171q0 58 -52 95q-46 33 -123 44q-44 -13 -77 -43q-44 -41 -44 -94q0 -59 42 -91t107 -32q61 0 104 33t43 88z" />
    <glyph glyph-name="nine" unicode="9" 
d="M478 352q0 -166 -74.5 -264t-205.5 -98q-74 0 -141 28l22 63q59 -28 121 -28q89 0 143.5 67.5t58.5 184.5h-1q-78 -63 -159 -63q-80 0 -134 45q-66 55 -66 159q0 93 59 155.5t151 62.5q104 0 164 -78q62 -82 62 -234zM399 381q0 101 -41 161t-108 60q-62 0 -97.5 -41
t-35.5 -106q0 -69 35.5 -108t102.5 -39q44 0 86 23q37 20 58 50z" />
    <glyph glyph-name="colon" unicode=":" horiz-adv-x="198" 
d="M156 399q0 -23 -15.5 -39.5t-38.5 -16.5t-38.5 16.5t-15.5 39.5t15.5 39.5t38.5 16.5t38.5 -16.5t15.5 -39.5zM156 45q0 -23 -15.5 -39.5t-38.5 -16.5t-38.5 16.5t-15.5 39.5t15.5 39.5t38.5 16.5t38.5 -16.5t15.5 -39.5z" />
    <glyph glyph-name="semicolon" unicode=";" horiz-adv-x="198" 
d="M156 399q0 -23 -15.5 -39.5t-38.5 -16.5t-38.5 16.5t-15.5 39.5t15.5 39.5t38.5 16.5t38.5 -16.5t15.5 -39.5zM139 115q5 -28 5 -55q0 -104 -71 -179l-37 24q31 62 31 128q0 28 -5 65z" />
    <glyph glyph-name="less" unicode="&#x3c;" horiz-adv-x="626" 
d="M510 33l-434 194v66l434 194v-75l-304 -131l-56 -20v-2l56 -20l304 -131v-75z" />
    <glyph glyph-name="equal" unicode="=" horiz-adv-x="626" 
d="M550 309h-474v68h474v-68zM550 133h-474v68h474v-68z" />
    <glyph glyph-name="greater" unicode="&#x3e;" horiz-adv-x="626" 
d="M550 227l-434 -194v75l304 131l56 20v2l-56 20l-304 131v75l434 -194v-66z" />
    <glyph glyph-name="question" unicode="?" horiz-adv-x="456" 
d="M397 535q0 -63 -53 -121q-19 -20 -98 -83q-53 -41 -53 -67q0 -25 30 -61l-51 -42q-50 47 -50 102q0 46 52 93q48 40 97 79q52 48 52 98q0 38 -24 59.5t-63 21.5q-70 0 -134 -62l-36 47q72 77 179 77q70 0 111 -37.5t41 -103.5zM255 45q0 -23 -15.5 -39.5t-38.5 -16.5
t-38.5 16.5t-15.5 39.5t15.5 39.5t38.5 16.5t38.5 -16.5t15.5 -39.5z" />
    <glyph glyph-name="at" unicode="@" horiz-adv-x="776" 
d="M732 369q0 -110 -48 -171q-46 -57 -125 -57q-38 0 -64 23t-31 60h-1q-12 -27 -48 -52q-42 -29 -86 -29q-118 0 -118 158q0 96 58 157.5t143 61.5q67 0 135 -43l-23 -168q-4 -29 -4 -48q0 -63 49 -63q41 0 67.5 47.5t26.5 125.5q0 100 -67 170q-74 79 -199 79
q-126 0 -203.5 -85t-77.5 -231q0 -128 68 -201q65 -71 172 -71q80 0 127 25l24 -59q-69 -27 -159 -27q-138 0 -220 90.5t-82 240.5q0 170 102 276q99 103 251 103q143 0 238 -87t95 -225zM476 441q-34 22 -68 22q-53 0 -90 -46t-37 -118q0 -95 63 -95q41 0 71 29
q43 41 53 132z" />
    <glyph glyph-name="A" unicode="A" horiz-adv-x="580" 
d="M565 0h-77l-68 176h-265l-63 -176h-73l252 661h41zM394 241l-78 223q-18 52 -25 82h-1q-8 -31 -26 -81l-82 -224h212z" />
    <glyph glyph-name="B" unicode="B" horiz-adv-x="525" 
d="M481 193q0 -79 -49 -130q-60 -63 -181 -63h-165v659h184q84 0 131 -51q41 -45 41 -108q0 -109 -91 -146v-1q50 -8 88 -51q42 -47 42 -109zM363 486q0 105 -120 105h-84v-220h85q47 0 81 29q38 32 38 86zM401 191q0 48 -38 80.5t-100 32.5h-104v-236h98q68 0 106 34.5
t38 88.5z" />
    <glyph glyph-name="C" unicode="C" horiz-adv-x="581" 
d="M547 39q-88 -49 -185 -49q-144 0 -230 93t-86 239q0 145 92 243.5t236 98.5q106 0 168 -39v-78q-80 51 -171 51q-109 0 -178 -77.5t-69 -193.5q0 -120 66 -195t180 -75q78 0 155 42z" />
    <glyph glyph-name="D" unicode="D" horiz-adv-x="632" 
d="M588 336q0 -147 -84 -236q-95 -100 -271 -100h-147v659h143q180 0 274 -93q85 -85 85 -230zM513 337q0 111 -65 179q-72 75 -206 75h-83v-523h81q142 0 213 81q60 69 60 188z" />
    <glyph glyph-name="E" unicode="E" horiz-adv-x="466" 
d="M412 0h-326v659h323l-28 -68h-222v-220h220v-67h-220v-236h253v-68z" />
    <glyph glyph-name="F" unicode="F" horiz-adv-x="458" 
d="M409 659l-28 -68h-222v-223h220v-67h-220v-301h-73v659h323z" />
    <glyph glyph-name="G" unicode="G" horiz-adv-x="664" 
d="M590 42q-94 -52 -216 -52q-145 0 -236.5 91.5t-91.5 237.5q0 155 95 250t249 95q105 0 183 -40v-79q-95 51 -187 51q-123 0 -192.5 -73t-69.5 -194q0 -127 71.5 -199t195.5 -72q81 0 126 27v233h73v-276z" />
    <glyph glyph-name="H" unicode="H" horiz-adv-x="677" 
d="M593 0h-73v301h-361v-301h-73v659h73v-291h361v291h73v-659z" />
    <glyph glyph-name="I" unicode="I" horiz-adv-x="243" 
d="M159 0h-73v659h73v-659z" />
    <glyph glyph-name="J" unicode="J" horiz-adv-x="293" 
d="M209 26q0 -104 -32 -151q-38 -56 -134 -56q-36 0 -61 9l14 62q21 -8 54 -8q49 0 69 38q17 33 17 106v633h73v-633z" />
    <glyph glyph-name="K" unicode="K" horiz-adv-x="534" 
d="M520 0h-97l-263 298h-1v-298h-73v659h73v-303h1l245 301h91l-271 -324z" />
    <glyph glyph-name="L" unicode="L" horiz-adv-x="421" 
d="M409 0h-323v659h73v-591h250v-68z" />
    <glyph glyph-name="M" unicode="M" horiz-adv-x="792" 
d="M708 0h-73v476q0 36 3 70h-2q-12 -31 -33 -65l-177 -285h-48l-187 285q-22 33 -34 65h-2q4 -34 4 -70v-476h-73v659h75l208 -314q22 -34 33 -58h1q13 29 31 58l198 314h76v-659z" />
    <glyph glyph-name="N" unicode="N" horiz-adv-x="714" 
d="M630 0h-68l-334 444q-56 74 -69 103h-2q2 -44 2 -80v-467h-73v659h76l320 -428q62 -83 75 -111h2q-2 44 -2 80v459h73v-659z" />
    <glyph glyph-name="O" unicode="O" horiz-adv-x="742" 
d="M698 326q0 -154 -99 -250q-89 -86 -227 -86q-146 0 -236 94.5t-90 241.5q0 145 91 241.5t235 96.5q145 0 237 -97q89 -95 89 -241zM619 326q0 119 -63 191q-66 77 -184 77q-114 0 -180.5 -72.5t-66.5 -195.5t66.5 -195.5t180.5 -72.5t180.5 72.5t66.5 195.5z" />
    <glyph glyph-name="P" unicode="P" horiz-adv-x="482" 
d="M443 454q0 -91 -54 -148q-62 -65 -175 -65h-55v-241h-73v659h135q103 0 162.5 -54t59.5 -151zM364 455q0 63 -38 99.5t-111 36.5h-56v-284h62q143 0 143 148z" />
    <glyph glyph-name="Q" unicode="Q" horiz-adv-x="742" 
d="M698 326q0 -142 -86.5 -236.5t-227.5 -102.5q42 -43 76 -61q41 -21 95 -21q47 0 81 15l16 -57q-47 -19 -116 -19q-79 0 -144 47q-46 33 -103 106q-114 29 -180 120q-63 88 -63 209q0 146 90.5 242t235.5 96q144 0 235 -96t91 -242zM619 326q0 119 -63 191q-66 77 -184 77
q-114 0 -180.5 -72.5t-66.5 -195.5t66.5 -195.5t180.5 -72.5t180.5 72.5t66.5 195.5z" />
    <glyph glyph-name="R" unicode="R" horiz-adv-x="528" 
d="M514 0h-87q-115 183 -127 201q-51 75 -70 79h-71v-280h-73v659h136q110 0 167 -52q51 -46 51 -126q0 -66 -39 -115q-34 -43 -90 -63v-1q14 -7 69 -91q13 -19 134 -211zM361 473q0 118 -139 118h-63v-246h67q57 0 96 38t39 90z" />
    <glyph glyph-name="S" unicode="S" horiz-adv-x="478" 
d="M434 161q0 -76 -59 -123.5t-149 -47.5q-102 0 -180 52l35 59q64 -46 144 -46q51 0 88 23q43 27 43 76q0 64 -74 114l-138 88q-74 60 -74 144q0 72 51 118t139 46q84 0 146 -32v-78q-63 43 -144 43q-52 0 -84 -21q-36 -24 -36 -69q0 -60 76 -111l140 -90q76 -61 76 -145z
" />
    <glyph glyph-name="T" unicode="T" horiz-adv-x="501" 
d="M497 659l-26 -68h-187v-591h-73v591h-189v68h475z" />
    <glyph glyph-name="U" unicode="U" horiz-adv-x="661" 
d="M571 220q0 -112 -68 -173q-65 -57 -179 -57t-174 58q-64 62 -64 189v422h73v-423q0 -89 47 -137q42 -43 120 -43q172 0 172 174v429h73v-439z" />
    <glyph glyph-name="V" unicode="V" horiz-adv-x="613" 
d="M599 659l-282 -662h-41l-260 662h78l169 -439q12 -31 37 -102h2q16 48 38 102l183 439h76z" />
    <glyph glyph-name="W" unicode="W" horiz-adv-x="909" 
d="M895 659l-225 -662h-53l-121 340q-20 55 -34 103h-2q-16 -50 -35 -103l-126 -340h-54l-229 662h79l147 -440q21 -64 32 -103h2q6 23 35 101l114 312l-45 130h77l151 -436q13 -35 35 -102h2q10 41 29 99l144 439h77z" />
    <glyph glyph-name="X" unicode="X" horiz-adv-x="576" 
d="M562 659l-219 -326l216 -333h-84l-182 282l-193 -282h-84l232 335l-220 324h87l182 -272l180 272h85z" />
    <glyph glyph-name="Y" unicode="Y" horiz-adv-x="534" 
d="M520 659l-212 -395v-264h-73v266l-219 393h80l117 -211q22 -38 59 -110h2q20 45 55 110l114 211h77z" />
    <glyph glyph-name="Z" unicode="Z" horiz-adv-x="551" 
d="M517 0h-466l332 592l-308 -3l-23 70h449l-330 -592l346 2v-69z" />
    <glyph glyph-name="bracketleft" unicode="[" horiz-adv-x="277" 
d="M253 -232h-162v1002h162v-62h-94v-878h94v-62z" />
    <glyph glyph-name="backslash" unicode="\" horiz-adv-x="357" 
d="M343 -32h-73l-254 728h73z" />
    <glyph glyph-name="bracketright" unicode="]" horiz-adv-x="277" 
d="M188 -232h-162v62h94v878h-94v62h162v-1002z" />
    <glyph glyph-name="asciicircum" unicode="^" horiz-adv-x="626" 
d="M512 287h-74l-104 242l-20 56h-2l-20 -56l-104 -242h-74l166 372h66z" />
    <glyph glyph-name="underscore" unicode="_" horiz-adv-x="450" 
d="M450 -124h-450v60h450v-60z" />
    <glyph glyph-name="grave" unicode="`" horiz-adv-x="535" 
d="M372 531h-67l-123 147h101z" />
    <glyph glyph-name="a" unicode="a" horiz-adv-x="460" 
d="M410 0h-60l-19 46q-58 -56 -145 -56q-60 0 -101 39q-44 41 -44 106q0 71 48.5 111t141.5 43l96 3v22q0 108 -102 108q-66 0 -124 -44l-30 53q75 54 167 54q162 0 162 -160v-144q0 -156 10 -181zM327 107v120l-94 -3q-119 -4 -119 -84q0 -38 23 -61q24 -26 69 -26
q69 0 121 54z" />
    <glyph glyph-name="b" unicode="b" horiz-adv-x="493" 
d="M454 253q0 -120 -76 -194q-72 -69 -180 -69q-87 0 -132 30v688h73v-245q56 22 107 22q88 0 145 -57q63 -63 63 -175zM381 250q0 75 -38 121t-107 46q-47 0 -97 -24v-327q30 -13 75 -13q70 0 118.5 57.5t48.5 139.5z" />
    <glyph glyph-name="c" unicode="c" horiz-adv-x="421" 
d="M411 36q-70 -46 -150 -46q-104 0 -164 73q-56 66 -56 168q0 106 58 176q64 78 176 78q67 0 120 -30v-69q-55 35 -123 35q-73 0 -115 -52t-42 -134q0 -80 42 -131t113 -51q62 0 118 35z" />
    <glyph glyph-name="d" unicode="d" horiz-adv-x="499" 
d="M435 24q-58 -34 -151 -34q-105 0 -171 59q-72 64 -72 181q0 109 71 182t173 73q47 0 77 -8v231h73v-684zM362 64v345q-33 12 -73 12q-72 0 -123 -52t-51 -134q0 -83 46.5 -133t135.5 -50q39 0 65 12z" />
    <glyph glyph-name="e" unicode="e" horiz-adv-x="461" 
d="M422 224h-303q0 -72 39 -119q43 -51 118 -51q59 0 112 34l22 -50q-58 -48 -149 -48q-106 0 -165 77q-55 71 -55 179q0 104 53.5 171.5t138.5 67.5q90 0 139.5 -66t49.5 -178v-17zM343 286q0 54 -27 93q-31 44 -82 44t-82.5 -39.5t-31.5 -97.5h223z" />
    <glyph glyph-name="f" unicode="f" horiz-adv-x="301" 
d="M307 692l-15 -59q-24 14 -57 14q-63 0 -63 -83v-91h123l-26 -62h-97v-411h-73v411h-59v62h59v84q0 83 47 122q36 29 91 29q39 0 70 -16z" />
    <glyph glyph-name="g" unicode="g" horiz-adv-x="473" 
d="M474 -84q0 -64 -56 -106q-63 -47 -179 -47q-104 0 -163.5 40t-59.5 101q0 71 90 118q-33 18 -33 58q0 45 54 90q-78 45 -78 143q0 73 51.5 122.5t124.5 49.5q52 0 83 -16q7 -4 12 1q38 36 102 36q15 0 30 -3l-21 -66q-44 11 -69 -2q55 -50 55 -123q0 -77 -51.5 -125.5
t-134.5 -48.5q-34 0 -60 10q-24 -26 -24 -55q0 -26 85 -37q119 -15 157 -30q85 -32 85 -110zM341 312q0 49 -30.5 79.5t-78.5 30.5t-78 -30t-30 -79q0 -50 30 -81.5t78 -31.5t78.5 29.5t30.5 82.5zM393 -91q0 53 -93 71l-140 20q-68 -42 -68 -88q0 -38 42 -63t110 -25
q69 0 109 23t40 62z" />
    <glyph glyph-name="h" unicode="h" horiz-adv-x="505" 
d="M441 0h-73v294q0 122 -85 122q-61 0 -144 -74v-342h-73v708h73v-291q88 68 165 68q57 0 94 -38q43 -46 43 -135v-312z" />
    <glyph glyph-name="i" unicode="i" horiz-adv-x="230" 
d="M166 623q0 -21 -15 -36t-36 -15t-36 15t-15 36t15 36t36 15t36 -15t15 -36zM152 0h-73v473h73v-473z" />
    <glyph glyph-name="j" unicode="j" horiz-adv-x="241" 
d="M177 623q0 -21 -15 -36t-36 -15t-36 15t-15 36t15 36t36 15t36 -15t15 -36zM162 -69q0 -168 -136 -168q-46 0 -75 17l18 57q24 -13 51 -13q69 0 69 116v533h73v-542z" />
    <glyph glyph-name="k" unicode="k" horiz-adv-x="426" 
d="M436 0h-93l-203 246h-1v-246h-73v708h73v-402h1l174 167h95l-208 -193z" />
    <glyph glyph-name="l" unicode="l" horiz-adv-x="226" 
d="M212 6q-32 -16 -63 -16q-83 0 -83 87v631h73v-598q0 -29 6 -39q8 -15 33 -15q13 0 25 3z" />
    <glyph glyph-name="m" unicode="m" horiz-adv-x="800" 
d="M736 0h-73v312q0 53 -14 77q-18 30 -62 30q-67 0 -150 -73q1 -8 1 -27v-319h-73v310q0 109 -77 109q-66 0 -149 -74v-345h-73v473h61l10 -57q87 69 170 69q89 0 116 -79q86 79 173 79q140 0 140 -148v-337z" />
    <glyph glyph-name="n" unicode="n" horiz-adv-x="505" 
d="M441 0h-73v291q0 125 -82 125q-64 0 -147 -74v-342h-73v473h60l10 -56q93 68 169 68q56 0 94 -39q42 -45 42 -128v-318z" />
    <glyph glyph-name="o" unicode="o" horiz-adv-x="510" 
d="M471 237q0 -106 -55 -174q-59 -73 -162 -73q-90 0 -147 58q-66 68 -66 189q0 104 54 173q59 75 160 75q102 0 162 -74q54 -69 54 -174zM397 239q0 85 -37.5 134.5t-104.5 49.5q-66 0 -103 -49.5t-37 -134.5t38 -135.5t103 -50.5t103 50.5t38 135.5z" />
    <glyph glyph-name="p" unicode="p" horiz-adv-x="494" 
d="M455 242q0 -117 -74 -188q-68 -64 -163 -64q-41 0 -79 15v-242h-73v690q93 32 155 32q108 0 171 -65t63 -178zM381 241q0 88 -48 136q-43 42 -113 42q-43 0 -81 -12v-335q41 -19 76 -19q75 0 120.5 50.5t45.5 137.5z" />
    <glyph glyph-name="q" unicode="q" horiz-adv-x="505" 
d="M441 -237h-73v265q-55 -38 -128 -38q-81 0 -137 60q-62 66 -62 177q0 116 77 189q73 69 179 69q79 0 144 -30v-692zM368 98v311q-32 13 -76 13q-80 0 -128 -55t-48 -139q0 -81 41 -129q38 -45 96 -45q60 0 115 44z" />
    <glyph glyph-name="r" unicode="r" horiz-adv-x="313" 
d="M319 471l-31 -71q-20 8 -45 8q-21 0 -51.5 -16.5t-52.5 -40.5v-351h-73v473h60l10 -54q73 66 135 66q27 0 48 -14z" />
    <glyph glyph-name="s" unicode="s" horiz-adv-x="373" 
d="M339 130q0 -70 -53 -107q-48 -33 -126 -33t-140 36l28 57q53 -34 115 -34q44 0 72 19t28 51q0 47 -56 77q-51 27 -103 54q-56 39 -56 110q0 54 38 88q42 37 119 37q64 0 119 -25v-64q-66 28 -116 28q-88 0 -88 -60q0 -43 57 -73q52 -28 105 -55q57 -40 57 -106z" />
    <glyph glyph-name="t" unicode="t" horiz-adv-x="342" 
d="M324 37q-63 -47 -125 -47q-101 0 -101 101v320h-77v62h77v104l73 25v-129h145l-26 -62h-119v-298q0 -58 46 -58q41 0 84 34z" />
    <glyph glyph-name="u" unicode="u" horiz-adv-x="504" 
d="M440 0h-58l-19 49q-69 -59 -153 -59q-59 0 -96 33q-48 43 -48 133v317h73v-310q0 -110 92 -110q76 0 126 63v357h73v-275q0 -169 10 -198z" />
    <glyph glyph-name="v" unicode="v" horiz-adv-x="448" 
d="M442 473l-196 -476h-58l-180 476h75l135 -379h2l151 379h71z" />
    <glyph glyph-name="w" unicode="w" horiz-adv-x="696" 
d="M690 473l-156 -476h-66l-118 382h-3l-117 -382h-64l-158 476h74l116 -376h3l117 376h66l118 -377h3l114 377h71z" />
    <glyph glyph-name="x" unicode="x" horiz-adv-x="444" 
d="M438 0h-82l-132 197l-134 -197h-82l171 244l-157 229h85l124 -186l127 186h79l-161 -232z" />
    <glyph glyph-name="y" unicode="y" horiz-adv-x="477" 
d="M461 473l-180 -518q-39 -112 -95 -157q-45 -35 -112 -35q-47 0 -86 17l18 57q30 -15 69 -15q99 0 147 173l-213 478h78l169 -387h3l129 387h73z" />
    <glyph glyph-name="z" unicode="z" horiz-adv-x="380" 
d="M369 0h-348l231 411l-210 -2l-20 64h340l-224 -410l231 2v-65z" />
    <glyph glyph-name="braceleft" unicode="{" horiz-adv-x="303" 
d="M279 -152l-15 -70q-86 17 -122 63q-33 41 -33 120v215q0 42 -22 57q-12 8 -41 9v62q29 1 41 9q22 15 22 57v215q0 79 33 120q36 46 122 63l15 -70q-53 -9 -74 -35t-21 -77v-190q0 -59 -22 -92q-17 -25 -42 -30v-2q25 -5 42 -30q22 -33 22 -92v-190q0 -51 21 -77t74 -35z
" />
    <glyph glyph-name="bar" unicode="|" horiz-adv-x="238" 
d="M153 -237h-68v1017h68v-1017z" />
    <glyph glyph-name="braceright" unicode="}" horiz-adv-x="303" 
d="M259 242q-29 -1 -41 -9q-22 -15 -22 -57v-215q0 -79 -33 -120q-36 -46 -122 -63l-15 70q53 9 74 35t21 77v190q0 59 22 92q17 25 42 30v2q-25 5 -42 30q-22 33 -22 92v190q0 51 -21 77t-74 35l15 70q86 -17 122 -63q33 -41 33 -120v-215q0 -42 22 -57q12 -8 41 -9v-62z
" />
    <glyph glyph-name="asciitilde" unicode="~" horiz-adv-x="626" 
d="M537 241q-76 -58 -126 -58q-34 0 -84 19l-50 19q-39 15 -62 15q-29 0 -87 -42l-40 58q76 58 126 58q34 0 84 -19l50 -19q39 -15 62 -15q29 0 87 42z" />
    <glyph glyph-name="nonbreakingspace" unicode="&#xa0;" horiz-adv-x="250" 
 />
    <glyph glyph-name="exclamdown" unicode="&#xa1;" horiz-adv-x="278" 
d="M194 429q0 -23 -15.5 -39.5t-38.5 -16.5t-38.5 16.5t-15.5 39.5t15.5 39.5t38.5 16.5t38.5 -16.5t15.5 -39.5zM178 -186h-75v61q0 280 22 432h30q23 -158 23 -431v-62z" />
    <glyph glyph-name="cent" unicode="&#xa2;" 
d="M431 145q-38 -34 -116 -42v-94h-68v97q-75 13 -123 72.5t-48 147.5q0 85 46.5 149t127.5 83v93h68v-86q62 -1 100 -21v-67q-46 23 -107 23q-76 0 -123 -53q-42 -49 -42 -117q0 -74 44.5 -119t111.5 -45q65 0 110 31z" />
    <glyph glyph-name="sterling" unicode="&#xa3;" 
d="M448 644l-15 -59q-31 18 -74 18q-131 0 -131 -153v-79h189l-26 -65h-163q-2 -187 -63 -240v-1q23 3 90 3h190v-68h-379v59q89 29 89 247h-76v65h76v82q0 122 75 175q51 36 123 36q55 0 95 -20z" />
    <glyph glyph-name="currency" unicode="&#xa4;" 
d="M501 49l-48 -48l-63 63q-61 -43 -134 -43q-74 0 -134 44l-63 -64l-48 48l63 63q-44 62 -44 135q0 74 44 134l-64 63l48 48l63 -63q62 44 135 44q74 0 134 -44l64 63l48 -48l-63 -63q43 -61 43 -134q0 -74 -44 -134zM418 247q0 69 -46.5 118t-115.5 49t-115.5 -49
t-46.5 -118t46.5 -118t115.5 -49t115.5 49t46.5 118z" />
    <glyph glyph-name="yen" unicode="&#xa5;" 
d="M508 659l-177 -327h126v-65h-163v-80h163v-65h-163v-122h-73v122h-166v65h166v80h-166v65h130l-179 327h80l114 -211q40 -74 58 -110h2q17 38 56 110l115 211h77z" />
    <glyph glyph-name="brokenbar" unicode="&#xa6;" horiz-adv-x="238" 
d="M153 429h-68v351h68v-351zM153 -237h-68v351h68v-351z" />
    <glyph glyph-name="section" unicode="&#xa7;" horiz-adv-x="504" 
d="M465 250q0 -86 -95 -142q49 -49 49 -113q0 -73 -56 -116.5t-143 -43.5q-97 0 -169 48l34 60q61 -43 134 -43q48 0 82 21q39 25 39 71q0 56 -74 102q-68 40 -137 81q-74 57 -74 139q0 91 94 139q-48 48 -48 118q0 66 50 109t133 43q79 0 137 -30v-77q-61 41 -136 41
q-49 0 -79 -20q-33 -22 -33 -63q0 -53 76 -101l140 -86q76 -58 76 -137zM386 243q0 58 -69 102q-65 38 -130 75q-60 -38 -60 -97q0 -55 70 -102q68 -40 135 -81q54 44 54 103z" />
    <glyph glyph-name="dieresis" unicode="&#xa8;" horiz-adv-x="386" 
d="M326 610q0 -20 -13.5 -34t-33.5 -14t-33.5 14t-13.5 34t13.5 34t33.5 14t33.5 -14t13.5 -34zM156 610q0 -20 -13.5 -34t-33.5 -14t-33.5 14t-13.5 34t13.5 34t33.5 14t33.5 -14t13.5 -34z" />
    <glyph glyph-name="copyright" unicode="&#xa9;" horiz-adv-x="793" 
d="M728 327q0 -145 -95.5 -241t-238.5 -96q-147 0 -238 95t-91 242q0 146 92 241.5t239 95.5q143 0 237.5 -96t94.5 -241zM668 327q0 124 -78 206t-194 82q-115 0 -193 -82t-78 -206t78 -206t193 -82q116 0 194 82t78 206zM520 156q-54 -32 -119 -32q-82 0 -134.5 56
t-52.5 143t55.5 146t142.5 59q63 0 101 -23v-62q-50 31 -103 31q-61 0 -98.5 -41.5t-37.5 -106.5q0 -66 36.5 -107.5t98.5 -41.5q45 0 92 27z" />
    <glyph glyph-name="ordfeminine" unicode="&#xaa;" horiz-adv-x="404" 
d="M330 352h-48l-10 30q-38 -36 -99 -36q-42 0 -69.5 25.5t-27.5 67.5q0 46 31 72.5t86 28.5l68 2v12q0 56 -64 56q-42 0 -79 -28l-23 44q51 38 115 38q113 0 113 -103v-93q0 -98 7 -116zM261 426v65l-59 -1q-62 -1 -62 -47q0 -47 47 -47q46 0 74 30z" />
    <glyph glyph-name="guillemotleft" unicode="&#xab;" horiz-adv-x="540" 
d="M466 47l-58 -37l-164 231l164 232l58 -37l-140 -195zM273 47l-58 -37l-164 231l164 232l58 -37l-140 -195z" />
    <glyph glyph-name="logicalnot" unicode="&#xac;" horiz-adv-x="626" 
d="M550 88h-73v220h-401v68h474v-288z" />
    <glyph glyph-name="minus" unicode="&#xad;" horiz-adv-x="626" 
d="M550 220h-474v68h474v-68z" />
    <glyph glyph-name="minus" unicode="&#x2212;" horiz-adv-x="626" 
d="M550 220h-474v68h474v-68z" />
    <glyph glyph-name="registered" unicode="&#xae;" horiz-adv-x="594" 
d="M529 429q0 -100 -67.5 -167.5t-166.5 -67.5q-102 0 -166 66.5t-64 168.5q0 101 64.5 168t166.5 67q100 0 166.5 -67t66.5 -168zM476 429q0 82 -51.5 137t-129.5 55t-129.5 -55t-51.5 -137t51.5 -137t129.5 -55t129.5 55t51.5 137zM401 300h-53l-48 80q-18 29 -26 29h-14
v-109h-45v264h71q42 0 65.5 -20t23.5 -52q0 -51 -56 -70h1q13 -7 81 -122zM328 487q0 38 -47 38h-21v-78h18q50 0 50 40z" />
    <glyph glyph-name="macron" unicode="&#xaf;" horiz-adv-x="390" 
d="M322 572h-252v51h252v-51z" />
    <glyph glyph-name="macron" unicode="&#x2c9;" horiz-adv-x="390" 
d="M322 572h-252v51h252v-51z" />
    <glyph glyph-name="degree" unicode="&#xb0;" horiz-adv-x="396" 
d="M351 506q0 -65 -44 -109t-109 -44t-109 44t-44 109t44 109t109 44t109 -44t44 -109zM286 506q0 40 -25 66.5t-63 26.5t-63 -26.5t-25 -66.5t25 -66.5t63 -26.5t63 26.5t25 66.5z" />
    <glyph glyph-name="plusminus" unicode="&#xb1;" horiz-adv-x="624" 
d="M550 275h-199v-150h-73v150h-202v68h202v150h73v-150h199v-68zM550 0h-474v68h474v-68z" />
    <glyph glyph-name="twosuperior" unicode="&#xb2;" horiz-adv-x="346" 
d="M292 266h-261q7 94 57 154q20 24 89 74q46 33 46 66q0 49 -53 49q-38 0 -100 -36l-24 53q70 40 137 40q53 0 83 -29t30 -74q0 -55 -40 -91q-40 -28 -80 -57q-48 -37 -61 -89l177 4v-64z" />
    <glyph glyph-name="threesuperior" unicode="&#xb3;" horiz-adv-x="346" 
d="M306 383q0 -55 -38 -87q-40 -35 -115 -35q-71 0 -116 22l21 55q49 -19 94 -19q37 0 59.5 15t22.5 42q0 60 -101 60h-48v61l51 1q43 1 67 22q20 17 20 42q0 47 -55 47q-41 0 -99 -26l-20 53q65 30 130 30q56 0 85.5 -27t29.5 -70q0 -34 -19.5 -59.5t-48.5 -35.5v-1
q33 -5 56.5 -29t23.5 -61z" />
    <glyph glyph-name="acute" unicode="&#xb4;" horiz-adv-x="535" 
d="M372 678l-123 -147h-67l89 147h101z" />
    <glyph glyph-name="mu" unicode="&#xb5;" horiz-adv-x="524" 
d="M450 0h-59l-19 49q-67 -59 -144 -59q-61 0 -81 28h-1q2 -20 2 -105v-149h-73v709h73v-310q0 -110 92 -110q76 0 126 63v357h73v-292q0 -150 11 -181z" />
    <glyph glyph-name="mu" unicode="&#x3bc;" horiz-adv-x="524" 
d="M450 0h-59l-19 49q-67 -59 -144 -59q-61 0 -81 28h-1q2 -20 2 -105v-149h-73v709h73v-310q0 -110 92 -110q76 0 126 63v357h73v-292q0 -150 11 -181z" />
    <glyph glyph-name="paragraph" unicode="&#xb6;" horiz-adv-x="586" 
d="M502 -160h-73v757h-113v-757h-73v446h-14q-76 0 -127 54.5t-51 131.5q0 79 51 133t127 54h273v-819z" />
    <glyph glyph-name="periodcentered" unicode="&#xb7;" horiz-adv-x="198" 
d="M156 255q0 -23 -15.5 -39.5t-38.5 -16.5t-38.5 16.5t-15.5 39.5t15.5 39.5t38.5 16.5t38.5 -16.5t15.5 -39.5z" />
    <glyph glyph-name="periodcentered" unicode="&#x2219;" horiz-adv-x="198" 
d="M156 255q0 -23 -15.5 -39.5t-38.5 -16.5t-38.5 16.5t-15.5 39.5t15.5 39.5t38.5 16.5t38.5 -16.5t15.5 -39.5z" />
    <glyph glyph-name="cedilla" unicode="&#xb8;" horiz-adv-x="520" 
d="M329 -107q0 -34 -32 -55q-28 -18 -65 -18q-39 0 -61 13l15 40q21 -12 45 -12q40 0 40 30q0 26 -42 27l-32 1l26 81h54l-15 -47q67 -6 67 -60z" />
    <glyph glyph-name="onesuperior" unicode="&#xb9;" horiz-adv-x="346" 
d="M232 266h-67v325l-88 -41l-20 55l117 59h58v-398z" />
    <glyph glyph-name="ordmasculine" unicode="&#xba;" horiz-adv-x="443" 
d="M369 504q0 -77 -48 -123q-37 -36 -103 -36q-59 0 -98 38q-44 43 -44 121q0 74 44 119q40 41 104 41q69 0 107 -45t38 -115zM302 504q0 106 -78 106q-36 0 -58 -27.5t-22 -77.5t22 -78t58 -28q78 0 78 105z" />
    <glyph glyph-name="guillemotright" unicode="&#xbb;" horiz-adv-x="540" 
d="M491 241l-164 -231l-58 37l140 194l-140 195l58 37zM298 241l-164 -231l-58 37l140 194l-140 195l58 37z" />
    <glyph glyph-name="onequarter" unicode="&#xbc;" horiz-adv-x="790" 
d="M731 90h-53v-90h-67v90h-193v49l192 259h68v-248h53v-60zM647 676l-446 -696h-79l446 696h79zM210 266h-67v325l-88 -41l-20 55l117 59h58v-398zM611 300l-113 -154q48 4 78 4h34v46q0 88 1 104z" />
    <glyph glyph-name="onehalf" unicode="&#xbd;" horiz-adv-x="790" 
d="M753 0h-261q7 94 57 154q20 24 89 74q46 33 46 66q0 49 -53 49q-38 0 -100 -36l-24 53q70 40 137 40q53 0 83 -29t30 -74q0 -55 -40 -91q-40 -28 -80 -57q-48 -37 -61 -89l177 4v-64zM647 676l-446 -696h-79l446 696h79zM210 266h-67v325l-88 -41l-20 55l117 59h58v-398z
" />
    <glyph glyph-name="threequarters" unicode="&#xbe;" horiz-adv-x="790" 
d="M754 90h-53v-90h-67v90h-193v49l192 259h68v-248h53v-60zM670 676l-446 -696h-79l446 696h79zM296 383q0 -55 -38 -87q-40 -35 -115 -35q-71 0 -116 22l21 55q49 -19 94 -19q37 0 59.5 15t22.5 42q0 60 -101 60h-48v61l51 1q43 1 67 22q20 17 20 42q0 47 -55 47
q-41 0 -99 -26l-20 53q65 30 130 30q56 0 85.5 -27t29.5 -70q0 -34 -19.5 -59.5t-48.5 -35.5v-1q33 -5 56.5 -29t23.5 -61zM634 300l-113 -154q48 4 78 4h34v46q0 88 1 104z" />
    <glyph glyph-name="questiondown" unicode="&#xbf;" horiz-adv-x="456" 
d="M294 429q0 -23 -15.5 -39.5t-38.5 -16.5t-38.5 16.5t-15.5 39.5t15.5 39.5t38.5 16.5t38.5 -16.5t15.5 -39.5zM392 -125q-71 -77 -179 -77q-70 0 -111 37.5t-41 103.5q0 63 53 121q19 20 98 83q53 41 53 67q0 25 -30 61l51 42q50 -47 50 -102q0 -46 -52 -93
q-48 -40 -97 -79q-52 -48 -52 -98q0 -38 24 -59.5t63 -21.5q70 0 134 62z" />
    <glyph glyph-name="Agrave" unicode="&#xc0;" horiz-adv-x="580" 
d="M347 696h-67l-123 147h101zM565 0h-77l-68 176h-265l-63 -176h-73l252 661h41zM394 241l-78 223q-18 52 -25 82h-1q-8 -31 -26 -81l-82 -224h212z" />
    <glyph glyph-name="Aacute" unicode="&#xc1;" horiz-adv-x="580" 
d="M437 843l-123 -147h-67l89 147h101zM565 0h-77l-68 176h-265l-63 -176h-73l252 661h41zM394 241l-78 223q-18 52 -25 82h-1q-8 -31 -26 -81l-82 -224h212z" />
    <glyph glyph-name="Acircumflex" unicode="&#xc2;" horiz-adv-x="580" 
d="M434 696h-74l-67 98l-65 -98h-73l104 147h69zM565 0h-77l-68 176h-265l-63 -176h-73l252 661h41zM394 241l-78 223q-18 52 -25 82h-1q-8 -31 -26 -81l-82 -224h212z" />
    <glyph glyph-name="Atilde" unicode="&#xc3;" horiz-adv-x="580" 
d="M425 792q0 -30 -19.5 -49.5t-48.5 -19.5q-23 0 -55 14v0l-33 15q-26 12 -39 12q-22 0 -22 -25v-10h-51v24q0 30 20 49.5t49 19.5q23 0 54 -14l33 -15q26 -12 39 -12q22 0 22 25v10h51v-24zM565 0h-77l-68 176h-265l-63 -176h-73l252 661h41zM394 241l-78 223
q-18 52 -25 82h-1q-8 -31 -26 -81l-82 -224h212z" />
    <glyph glyph-name="Adieresis" unicode="&#xc4;" horiz-adv-x="580" 
d="M428 756q0 -20 -13.5 -34t-33.5 -14t-33.5 14t-13.5 34t13.5 34t33.5 14t33.5 -14t13.5 -34zM258 756q0 -20 -13.5 -34t-33.5 -14t-33.5 14t-13.5 34t13.5 34t33.5 14t33.5 -14t13.5 -34zM565 0h-77l-68 176h-265l-63 -176h-73l252 661h41zM394 241l-78 223
q-18 52 -25 82h-1q-8 -31 -26 -81l-82 -224h212z" />
    <glyph glyph-name="Aring" unicode="&#xc5;" horiz-adv-x="580" 
d="M565 0h-77l-68 176h-265l-63 -176h-73l249 654q-72 16 -72 93q0 42 27 68t70 26q42 0 69 -26t27 -68q0 -36 -20.5 -61t-54.5 -32zM342 748q0 56 -50 56t-50 -56t50 -56t50 56zM394 241l-78 223q-18 52 -25 82h-1q-8 -31 -26 -81l-82 -224h212z" />
    <glyph glyph-name="AE" unicode="&#xc6;" horiz-adv-x="792" 
d="M738 0h-275l-31 176h-245l-92 -176h-76l342 659h374l-28 -68h-273l37 -220h234v-67h-221l41 -236h213v-68zM417 241l-32 213q-1 3 -12 93h-1q-7 -17 -45 -93l-106 -213h196z" />
    <glyph glyph-name="Ccedilla" unicode="&#xc7;" horiz-adv-x="581" 
d="M547 39q-86 -47 -177 -49l-12 -37q67 -6 67 -60q0 -34 -32 -55q-28 -18 -65 -18q-39 0 -61 13l15 40q21 -12 45 -12q40 0 40 30q0 26 -42 27l-32 1l24 74q-125 14 -198 104t-73 225q0 145 92 243.5t236 98.5q106 0 168 -39v-78q-80 51 -171 51q-109 0 -178 -77.5
t-69 -193.5q0 -120 66 -195t180 -75q78 0 155 42z" />
    <glyph glyph-name="Egrave" unicode="&#xc8;" horiz-adv-x="466" 
d="M318 696h-67l-123 147h101zM412 0h-326v659h323l-28 -68h-222v-220h220v-67h-220v-236h253v-68z" />
    <glyph glyph-name="Eacute" unicode="&#xc9;" horiz-adv-x="466" 
d="M372 843l-123 -147h-67l89 147h101zM412 0h-326v659h323l-28 -68h-222v-220h220v-67h-220v-236h253v-68z" />
    <glyph glyph-name="Ecircumflex" unicode="&#xca;" horiz-adv-x="466" 
d="M384 696h-74l-67 98l-65 -98h-73l104 147h69zM412 0h-326v659h323l-28 -68h-222v-220h220v-67h-220v-236h253v-68z" />
    <glyph glyph-name="Edieresis" unicode="&#xcb;" horiz-adv-x="466" 
d="M378 756q0 -20 -13.5 -34t-33.5 -14t-33.5 14t-13.5 34t13.5 34t33.5 14t33.5 -14t13.5 -34zM208 756q0 -20 -13.5 -34t-33.5 -14t-33.5 14t-13.5 34t13.5 34t33.5 14t33.5 -14t13.5 -34zM412 0h-326v659h323l-28 -68h-222v-220h220v-67h-220v-236h253v-68z" />
    <glyph glyph-name="Igrave" unicode="&#xcc;" horiz-adv-x="243" 
d="M186 696h-67l-123 147h101zM159 0h-73v659h73v-659z" />
    <glyph glyph-name="Iacute" unicode="&#xcd;" horiz-adv-x="243" 
d="M248 843l-123 -147h-67l89 147h101zM159 0h-73v659h73v-659z" />
    <glyph glyph-name="Icircumflex" unicode="&#xce;" horiz-adv-x="243" 
d="M263 696h-74l-67 98l-65 -98h-73l104 147h69zM159 0h-73v659h73v-659z" />
    <glyph glyph-name="Idieresis" unicode="&#xcf;" horiz-adv-x="243" 
d="M256 756q0 -20 -13.5 -34t-33.5 -14t-33.5 14t-13.5 34t13.5 34t33.5 14t33.5 -14t13.5 -34zM86 756q0 -20 -13.5 -34t-33.5 -14t-33.5 14t-13.5 34t13.5 34t33.5 14t33.5 -14t13.5 -34zM159 0h-73v659h73v-659z" />
    <glyph glyph-name="Eth" unicode="&#xd0;" horiz-adv-x="667" 
d="M623 336q0 -147 -84 -236q-95 -100 -271 -100h-147v297h-80v67h80v295h143q180 0 274 -93q85 -85 85 -230zM548 337q0 111 -65 179q-72 75 -206 75h-83v-227h170v-67h-170v-229h81q142 0 213 81q60 69 60 188z" />
    <glyph glyph-name="Ntilde" unicode="&#xd1;" horiz-adv-x="714" 
d="M488 791q0 -30 -19.5 -49.5t-48.5 -19.5q-24 0 -55 14l-33 15q-26 12 -39 12q-22 0 -22 -25v-10h-51v24q0 30 20 49.5t49 19.5q23 0 54 -14l33 -15q26 -12 39 -12q22 0 22 25v10h51v-24zM630 0h-68l-334 444q-56 74 -69 103h-2q2 -44 2 -80v-467h-73v659h76l320 -428
q62 -83 75 -111h2q-2 44 -2 80v459h73v-659z" />
    <glyph glyph-name="Ograve" unicode="&#xd2;" horiz-adv-x="742" 
d="M419 696h-67l-123 147h101zM698 326q0 -154 -99 -250q-89 -86 -227 -86q-146 0 -236 94.5t-90 241.5q0 145 91 241.5t235 96.5q145 0 237 -97q89 -95 89 -241zM619 326q0 119 -63 191q-66 77 -184 77q-114 0 -180.5 -72.5t-66.5 -195.5t66.5 -195.5t180.5 -72.5
t180.5 72.5t66.5 195.5z" />
    <glyph glyph-name="Oacute" unicode="&#xd3;" horiz-adv-x="742" 
d="M520 843l-123 -147h-67l89 147h101zM698 326q0 -154 -99 -250q-89 -86 -227 -86q-146 0 -236 94.5t-90 241.5q0 145 91 241.5t235 96.5q145 0 237 -97q89 -95 89 -241zM619 326q0 119 -63 191q-66 77 -184 77q-114 0 -180.5 -72.5t-66.5 -195.5t66.5 -195.5t180.5 -72.5
t180.5 72.5t66.5 195.5z" />
    <glyph glyph-name="Ocircumflex" unicode="&#xd4;" horiz-adv-x="742" 
d="M506 696h-74l-67 98l-65 -98h-73l104 147h69zM698 326q0 -154 -99 -250q-89 -86 -227 -86q-146 0 -236 94.5t-90 241.5q0 145 91 241.5t235 96.5q145 0 237 -97q89 -95 89 -241zM619 326q0 119 -63 191q-66 77 -184 77q-114 0 -180.5 -72.5t-66.5 -195.5t66.5 -195.5
t180.5 -72.5t180.5 72.5t66.5 195.5z" />
    <glyph glyph-name="Otilde" unicode="&#xd5;" horiz-adv-x="742" 
d="M505 791q0 -30 -19.5 -49.5t-48.5 -19.5q-23 0 -55 14v0l-33 15q-26 12 -39 12q-22 0 -22 -25v-10h-51v24q0 30 20 49.5t49 19.5q23 0 54 -14l33 -15q26 -12 39 -12q22 0 22 25v10h51v-24zM698 326q0 -154 -99 -250q-89 -86 -227 -86q-146 0 -236 94.5t-90 241.5
q0 145 91 241.5t235 96.5q145 0 237 -97q89 -95 89 -241zM619 326q0 119 -63 191q-66 77 -184 77q-114 0 -180.5 -72.5t-66.5 -195.5t66.5 -195.5t180.5 -72.5t180.5 72.5t66.5 195.5z" />
    <glyph glyph-name="Odieresis" unicode="&#xd6;" horiz-adv-x="742" 
d="M503 756q0 -20 -13.5 -34t-33.5 -14t-33.5 14t-13.5 34t13.5 34t33.5 14t33.5 -14t13.5 -34zM333 756q0 -20 -13.5 -34t-33.5 -14t-33.5 14t-13.5 34t13.5 34t33.5 14t33.5 -14t13.5 -34zM698 326q0 -154 -99 -250q-89 -86 -227 -86q-146 0 -236 94.5t-90 241.5
q0 145 91 241.5t235 96.5q145 0 237 -97q89 -95 89 -241zM619 326q0 119 -63 191q-66 77 -184 77q-114 0 -180.5 -72.5t-66.5 -195.5t66.5 -195.5t180.5 -72.5t180.5 72.5t66.5 195.5z" />
    <glyph glyph-name="multiply" unicode="&#xd7;" horiz-adv-x="626" 
d="M567 40l-48 -48l-206 207l-206 -207l-48 48l206 207l-207 206l48 48l207 -206l207 206l48 -48l-207 -206z" />
    <glyph glyph-name="Oslash" unicode="&#xd8;" horiz-adv-x="742" 
d="M698 326q0 -146 -91 -242t-235 -96q-102 0 -182 52l-50 -67l-53 39l53 69q-94 94 -94 245q0 145 91 241.5t235 96.5q98 0 173 -46l53 70l54 -38l-54 -72q100 -94 100 -252zM621 326q0 123 -66 195l-323 -426q59 -39 140 -39q114 0 181.5 73.5t67.5 196.5zM503 563
q-55 33 -131 33q-114 0 -181.5 -73.5t-67.5 -196.5q0 -116 60 -188z" />
    <glyph glyph-name="Ugrave" unicode="&#xd9;" horiz-adv-x="661" 
d="M383 696h-67l-123 147h101zM571 220q0 -112 -68 -173q-65 -57 -179 -57t-174 58q-64 62 -64 189v422h73v-423q0 -89 47 -137q42 -43 120 -43q172 0 172 174v429h73v-439z" />
    <glyph glyph-name="Uacute" unicode="&#xda;" horiz-adv-x="661" 
d="M473 843l-123 -147h-67l89 147h101zM571 220q0 -112 -68 -173q-65 -57 -179 -57t-174 58q-64 62 -64 189v422h73v-423q0 -89 47 -137q42 -43 120 -43q172 0 172 174v429h73v-439z" />
    <glyph glyph-name="Ucircumflex" unicode="&#xdb;" horiz-adv-x="661" 
d="M470 696h-74l-67 98l-65 -98h-73l104 147h69zM571 220q0 -112 -68 -173q-65 -57 -179 -57t-174 58q-64 62 -64 189v422h73v-423q0 -89 47 -137q42 -43 120 -43q172 0 172 174v429h73v-439z" />
    <glyph glyph-name="Udieresis" unicode="&#xdc;" horiz-adv-x="661" 
d="M461 756q0 -20 -13.5 -34t-33.5 -14t-33.5 14t-13.5 34t13.5 34t33.5 14t33.5 -14t13.5 -34zM291 756q0 -20 -13.5 -34t-33.5 -14t-33.5 14t-13.5 34t13.5 34t33.5 14t33.5 -14t13.5 -34zM571 220q0 -112 -68 -173q-65 -57 -179 -57t-174 58q-64 62 -64 189v422h73v-423
q0 -89 47 -137q42 -43 120 -43q172 0 172 174v429h73v-439z" />
    <glyph glyph-name="Yacute" unicode="&#xdd;" horiz-adv-x="534" 
d="M414 855l-123 -147h-67l89 147h101zM520 659l-212 -395v-264h-73v266l-219 393h80l117 -211q22 -38 59 -110h2q20 45 55 110l114 211h77z" />
    <glyph glyph-name="Thorn" unicode="&#xde;" horiz-adv-x="487" 
d="M438 342q0 -90 -53 -148q-60 -65 -173 -65h-53v-129h-73v659h73v-112h55q103 0 163.5 -54.5t60.5 -150.5zM364 343q0 63 -38 99.5t-111 36.5h-56v-284h62q143 0 143 148z" />
    <glyph glyph-name="germandbls" unicode="&#xdf;" horiz-adv-x="560" 
d="M526 151q0 -81 -53 -124q-47 -37 -126 -37q-78 0 -140 36l28 57q53 -34 115 -34q100 0 100 94q0 46 -44 87l-80 68q-44 43 -44 96q0 93 108 126q-2 57 -34.5 92t-85.5 35q-58 0 -92 -34q-39 -40 -39 -119v-635h-73v635q0 115 70 171q53 43 135 43q78 0 130 -46
q61 -54 61 -157q0 -19 -1 -29q-105 -21 -105 -75q0 -30 44 -68q74 -66 82 -74q44 -51 44 -108z" />
    <glyph glyph-name="agrave" unicode="&#xe0;" horiz-adv-x="460" 
d="M294 531h-67l-123 147h101zM410 0h-60l-19 46q-58 -56 -145 -56q-60 0 -101 39q-44 41 -44 106q0 71 48.5 111t141.5 43l96 3v22q0 108 -102 108q-66 0 -124 -44l-30 53q75 54 167 54q162 0 162 -160v-144q0 -156 10 -181zM327 107v120l-94 -3q-119 -4 -119 -84
q0 -38 23 -61q24 -26 69 -26q69 0 121 54z" />
    <glyph glyph-name="aacute" unicode="&#xe1;" horiz-adv-x="460" 
d="M372 678l-123 -147h-67l89 147h101zM410 0h-60l-19 46q-58 -56 -145 -56q-60 0 -101 39q-44 41 -44 106q0 71 48.5 111t141.5 43l96 3v22q0 108 -102 108q-66 0 -124 -44l-30 53q75 54 167 54q162 0 162 -160v-144q0 -156 10 -181zM327 107v120l-94 -3q-119 -4 -119 -84
q0 -38 23 -61q24 -26 69 -26q69 0 121 54z" />
    <glyph glyph-name="acircumflex" unicode="&#xe2;" horiz-adv-x="460" 
d="M379 531h-74l-67 98l-65 -98h-73l104 147h69zM410 0h-60l-19 46q-58 -56 -145 -56q-60 0 -101 39q-44 41 -44 106q0 71 48.5 111t141.5 43l96 3v22q0 108 -102 108q-66 0 -124 -44l-30 53q75 54 167 54q162 0 162 -160v-144q0 -156 10 -181zM327 107v120l-94 -3
q-119 -4 -119 -84q0 -38 23 -61q24 -26 69 -26q69 0 121 54z" />
    <glyph glyph-name="atilde" unicode="&#xe3;" horiz-adv-x="460" 
d="M379 618q0 -30 -19.5 -49.5t-48.5 -19.5q-23 0 -55 14v0l-33 15q-26 12 -39 12q-22 0 -22 -25v-10h-51v24q0 30 20 49.5t49 19.5q23 0 54 -14l33 -15q26 -12 39 -12q22 0 22 25v10h51v-24zM410 0h-60l-19 46q-58 -56 -145 -56q-60 0 -101 39q-44 41 -44 106
q0 71 48.5 111t141.5 43l96 3v22q0 108 -102 108q-66 0 -124 -44l-30 53q75 54 167 54q162 0 162 -160v-144q0 -156 10 -181zM327 107v120l-94 -3q-119 -4 -119 -84q0 -38 23 -61q24 -26 69 -26q69 0 121 54z" />
    <glyph glyph-name="adieresis" unicode="&#xe4;" horiz-adv-x="460" 
d="M368 610q0 -20 -13.5 -34t-33.5 -14t-33.5 14t-13.5 34t13.5 34t33.5 14t33.5 -14t13.5 -34zM198 610q0 -20 -13.5 -34t-33.5 -14t-33.5 14t-13.5 34t13.5 34t33.5 14t33.5 -14t13.5 -34zM410 0h-60l-19 46q-58 -56 -145 -56q-60 0 -101 39q-44 41 -44 106q0 71 48.5 111
t141.5 43l96 3v22q0 108 -102 108q-66 0 -124 -44l-30 53q75 54 167 54q162 0 162 -160v-144q0 -156 10 -181zM327 107v120l-94 -3q-119 -4 -119 -84q0 -38 23 -61q24 -26 69 -26q69 0 121 54z" />
    <glyph glyph-name="aring" unicode="&#xe5;" horiz-adv-x="460" 
d="M336 618q0 -42 -27.5 -68.5t-69.5 -26.5q-43 0 -69.5 26t-26.5 69q0 42 27 68t70 26q42 0 69 -26t27 -68zM410 0h-60l-19 46q-58 -56 -145 -56q-60 0 -101 39q-44 41 -44 106q0 71 48.5 111t141.5 43l96 3v22q0 108 -102 108q-66 0 -124 -44l-30 53q75 54 167 54
q162 0 162 -160v-144q0 -156 10 -181zM289 619q0 56 -50 56t-50 -56t50 -56t50 56zM327 107v120l-94 -3q-119 -4 -119 -84q0 -38 23 -61q24 -26 69 -26q69 0 121 54z" />
    <glyph glyph-name="ae" unicode="&#xe6;" horiz-adv-x="743" 
d="M704 225h-303q0 -73 39 -120q43 -51 118 -51q59 0 112 34l22 -50q-58 -48 -149 -48q-108 0 -168 84q-43 -40 -73 -57q-48 -27 -107 -27q-66 0 -110 39.5t-44 105.5q0 152 202 152h86v27q0 108 -104 108q-66 0 -124 -44l-29 51q74 56 166 56q104 0 141 -70q56 70 136 70
q90 0 139.5 -66t49.5 -178v-16zM624 287q0 54 -27 93q-31 44 -82 44t-82.5 -39.5t-31.5 -97.5h223zM349 121q-21 43 -24 104h-70q-141 0 -141 -85q0 -38 23 -61q26 -26 73 -26q76 0 139 68z" />
    <glyph glyph-name="ccedilla" unicode="&#xe7;" horiz-adv-x="421" 
d="M411 36q-60 -38 -128 -45l-12 -38q67 -6 67 -60q0 -34 -32 -55q-28 -18 -65 -18q-39 0 -61 13l15 40q21 -12 45 -12q40 0 40 30q0 26 -42 27l-32 1l23 73q-89 11 -140 81q-48 65 -48 158q0 106 58 176q64 78 176 78q67 0 120 -30v-69q-55 35 -123 35q-73 0 -115 -52
t-42 -133q0 -80 42 -131.5t113 -51.5q62 0 118 35z" />
    <glyph glyph-name="egrave" unicode="&#xe8;" horiz-adv-x="461" 
d="M313 531h-67l-123 147h101zM422 224h-303q0 -72 39 -119q43 -51 118 -51q59 0 112 34l22 -50q-58 -48 -149 -48q-106 0 -165 77q-55 71 -55 179q0 104 53.5 171.5t138.5 67.5q90 0 139.5 -66t49.5 -178v-17zM343 286q0 54 -27 93q-31 44 -82 44t-82.5 -39.5t-31.5 -97.5
h223z" />
    <glyph glyph-name="eacute" unicode="&#xe9;" horiz-adv-x="461" 
d="M390 678l-123 -147h-67l89 147h101zM422 224h-303q0 -72 39 -119q43 -51 118 -51q59 0 112 34l22 -50q-58 -48 -149 -48q-106 0 -165 77q-55 71 -55 179q0 104 53.5 171.5t138.5 67.5q90 0 139.5 -66t49.5 -178v-17zM343 286q0 54 -27 93q-31 44 -82 44t-82.5 -39.5
t-31.5 -97.5h223z" />
    <glyph glyph-name="ecircumflex" unicode="&#xea;" horiz-adv-x="461" 
d="M380 531h-74l-67 98l-65 -98h-73l104 147h69zM422 224h-303q0 -72 39 -119q43 -51 118 -51q59 0 112 34l22 -50q-58 -48 -149 -48q-106 0 -165 77q-55 71 -55 179q0 104 53.5 171.5t138.5 67.5q90 0 139.5 -66t49.5 -178v-17zM343 286q0 54 -27 93q-31 44 -82 44
t-82.5 -39.5t-31.5 -97.5h223z" />
    <glyph glyph-name="edieresis" unicode="&#xeb;" horiz-adv-x="461" 
d="M370 610q0 -20 -13.5 -34t-33.5 -14t-33.5 14t-13.5 34t13.5 34t33.5 14t33.5 -14t13.5 -34zM200 610q0 -20 -13.5 -34t-33.5 -14t-33.5 14t-13.5 34t13.5 34t33.5 14t33.5 -14t13.5 -34zM422 224h-303q0 -72 39 -119q43 -51 118 -51q59 0 112 34l22 -50
q-58 -48 -149 -48q-106 0 -165 77q-55 71 -55 179q0 104 53.5 171.5t138.5 67.5q90 0 139.5 -66t49.5 -178v-17zM343 286q0 54 -27 93q-31 44 -82 44t-82.5 -39.5t-31.5 -97.5h223z" />
    <glyph glyph-name="igrave" unicode="&#xec;" horiz-adv-x="230" 
d="M178 531h-67l-123 147h101zM152 0h-73v473h73v-473z" />
    <glyph glyph-name="iacute" unicode="&#xed;" horiz-adv-x="230" 
d="M252 678l-123 -147h-67l89 147h101zM152 0h-73v473h73v-473z" />
    <glyph glyph-name="icircumflex" unicode="&#xee;" horiz-adv-x="230" 
d="M259 531h-74l-67 98l-65 -98h-73l104 147h69zM152 0h-73v473h73v-473z" />
    <glyph glyph-name="idieresis" unicode="&#xef;" horiz-adv-x="230" 
d="M251 610q0 -20 -13.5 -34t-33.5 -14t-33.5 14t-13.5 34t13.5 34t33.5 14t33.5 -14t13.5 -34zM81 610q0 -20 -13.5 -34t-33.5 -14t-33.5 14t-13.5 34t13.5 34t33.5 14t33.5 -14t13.5 -34zM152 0h-73v473h73v-473z" />
    <glyph glyph-name="eth" unicode="&#xf0;" horiz-adv-x="552" 
d="M503 295q0 -149 -63 -229q-61 -76 -167 -76q-105 0 -165 74q-57 69 -57 176q0 109 59.5 177t153.5 68q71 0 114 -32q28 -21 52 -65h1q-11 133 -91 208l-131 -57l-23 55l100 43q-56 31 -139 40l19 61q116 -16 194 -69l120 51l23 -55l-93 -40q93 -102 93 -330zM424 244
q0 76 -40 127q-43 53 -110 53q-70 0 -109 -48.5t-39 -133.5q0 -86 40 -137t110 -51q71 0 109.5 52t38.5 138z" />
    <glyph glyph-name="ntilde" unicode="&#xf1;" horiz-adv-x="505" 
d="M397 618q0 -30 -19.5 -49.5t-48.5 -19.5q-24 0 -55 14l-33 15q-26 12 -39 12q-22 0 -22 -25v-10h-51v24q0 30 20 49.5t49 19.5q23 0 54 -14l33 -15q26 -12 39 -12q22 0 22 25v10h51v-24zM441 0h-73v291q0 125 -82 125q-64 0 -147 -74v-342h-73v473h60l10 -56
q93 68 169 68q56 0 94 -39q42 -45 42 -128v-318z" />
    <glyph glyph-name="ograve" unicode="&#xf2;" horiz-adv-x="510" 
d="M319 531h-67l-123 147h101zM471 237q0 -106 -55 -174q-59 -73 -162 -73q-90 0 -147 58q-66 68 -66 189q0 104 54 173q59 75 160 75q102 0 162 -74q54 -69 54 -174zM397 239q0 85 -37.5 134.5t-104.5 49.5q-66 0 -103 -49.5t-37 -134.5t38 -135.5t103 -50.5t103 50.5
t38 135.5z" />
    <glyph glyph-name="oacute" unicode="&#xf3;" horiz-adv-x="510" 
d="M419 678l-123 -147h-67l89 147h101zM471 237q0 -106 -55 -174q-59 -73 -162 -73q-90 0 -147 58q-66 68 -66 189q0 104 54 173q59 75 160 75q102 0 162 -74q54 -69 54 -174zM397 239q0 85 -37.5 134.5t-104.5 49.5q-66 0 -103 -49.5t-37 -134.5t38 -135.5t103 -50.5
t103 50.5t38 135.5z" />
    <glyph glyph-name="ocircumflex" unicode="&#xf4;" horiz-adv-x="510" 
d="M400 531h-74l-67 98l-65 -98h-73l104 147h69zM471 237q0 -106 -55 -174q-59 -73 -162 -73q-90 0 -147 58q-66 68 -66 189q0 104 54 173q59 75 160 75q102 0 162 -74q54 -69 54 -174zM397 239q0 85 -37.5 134.5t-104.5 49.5q-66 0 -103 -49.5t-37 -134.5t38 -135.5
t103 -50.5t103 50.5t38 135.5z" />
    <glyph glyph-name="otilde" unicode="&#xf5;" horiz-adv-x="510" 
d="M406 618q0 -30 -19.5 -49.5t-48.5 -19.5q-23 0 -55 14v0l-33 15q-26 12 -39 12q-22 0 -22 -25v-10h-51v24q0 30 20 49.5t49 19.5q23 0 54 -14l33 -15q26 -12 39 -12q22 0 22 25v10h51v-24zM471 237q0 -106 -55 -174q-59 -73 -162 -73q-90 0 -147 58q-66 68 -66 189
q0 104 54 173q59 75 160 75q102 0 162 -74q54 -69 54 -174zM397 239q0 85 -37.5 134.5t-104.5 49.5q-66 0 -103 -49.5t-37 -134.5t38 -135.5t103 -50.5t103 50.5t38 135.5z" />
    <glyph glyph-name="odieresis" unicode="&#xf6;" horiz-adv-x="510" 
d="M389 610q0 -20 -13.5 -34t-33.5 -14t-33.5 14t-13.5 34t13.5 34t33.5 14t33.5 -14t13.5 -34zM219 610q0 -20 -13.5 -34t-33.5 -14t-33.5 14t-13.5 34t13.5 34t33.5 14t33.5 -14t13.5 -34zM471 237q0 -106 -55 -174q-59 -73 -162 -73q-90 0 -147 58q-66 68 -66 189
q0 104 54 173q59 75 160 75q102 0 162 -74q54 -69 54 -174zM397 239q0 85 -37.5 134.5t-104.5 49.5q-66 0 -103 -49.5t-37 -134.5t38 -135.5t103 -50.5t103 50.5t38 135.5z" />
    <glyph glyph-name="divide" unicode="&#xf7;" horiz-adv-x="626" 
d="M367 429q0 -23 -15.5 -39.5t-38.5 -16.5t-38.5 16.5t-15.5 39.5t15.5 39.5t38.5 16.5t38.5 -16.5t15.5 -39.5zM550 220h-474v68h474v-68zM367 79q0 -23 -15.5 -39.5t-38.5 -16.5t-38.5 16.5t-15.5 39.5t15.5 39.5t38.5 16.5t38.5 -16.5t15.5 -39.5z" />
    <glyph glyph-name="oslash" unicode="&#xf8;" horiz-adv-x="513" 
d="M474 471l-51 -67q50 -66 50 -167q0 -106 -55 -174q-59 -73 -162 -73q-70 0 -120 35l-46 -62l-49 37l51 68q-49 66 -49 169q0 104 54 173q59 75 160 75q70 0 122 -37l46 58zM340 396q-33 27 -83 27q-66 0 -103 -49.5t-37 -134.5q0 -63 22 -110zM399 239q0 61 -20 106
l-201 -265q33 -27 80 -27q65 0 103 50.5t38 135.5z" />
    <glyph glyph-name="ugrave" unicode="&#xf9;" horiz-adv-x="504" 
d="M300 531h-67l-123 147h101zM440 0h-58l-19 49q-69 -59 -153 -59q-59 0 -96 33q-48 43 -48 133v317h73v-310q0 -110 92 -110q76 0 126 63v357h73v-275q0 -169 10 -198z" />
    <glyph glyph-name="uacute" unicode="&#xfa;" horiz-adv-x="504" 
d="M400 678l-123 -147h-67l89 147h101zM440 0h-58l-19 49q-69 -59 -153 -59q-59 0 -96 33q-48 43 -48 133v317h73v-310q0 -110 92 -110q76 0 126 63v357h73v-275q0 -169 10 -198z" />
    <glyph glyph-name="ucircumflex" unicode="&#xfb;" horiz-adv-x="504" 
d="M387 531h-74l-67 98l-65 -98h-73l104 147h69zM440 0h-58l-19 49q-69 -59 -153 -59q-59 0 -96 33q-48 43 -48 133v317h73v-310q0 -110 92 -110q76 0 126 63v357h73v-275q0 -169 10 -198z" />
    <glyph glyph-name="udieresis" unicode="&#xfc;" horiz-adv-x="504" 
d="M381 610q0 -20 -13.5 -34t-33.5 -14t-33.5 14t-13.5 34t13.5 34t33.5 14t33.5 -14t13.5 -34zM211 610q0 -20 -13.5 -34t-33.5 -14t-33.5 14t-13.5 34t13.5 34t33.5 14t33.5 -14t13.5 -34zM440 0h-58l-19 49q-69 -59 -153 -59q-59 0 -96 33q-48 43 -48 133v317h73v-310
q0 -110 92 -110q76 0 126 63v357h73v-275q0 -169 10 -198z" />
    <glyph glyph-name="yacute" unicode="&#xfd;" horiz-adv-x="507" 
d="M394 678l-123 -147h-67l89 147h101zM471 473l-180 -518q-39 -112 -95 -157q-45 -35 -112 -35q-47 0 -86 17l18 57q30 -15 69 -15q99 0 147 173l-213 478h78l169 -387h3l129 387h73z" />
    <glyph glyph-name="thorn" unicode="&#xfe;" horiz-adv-x="514" 
d="M465 243q0 -107 -66.5 -180t-170.5 -73q-41 0 -79 15v-241h-73v944h73v-232q43 9 82 9q108 0 171 -64.5t63 -177.5zM391 241q0 88 -48 136q-43 42 -113 42q-43 0 -81 -12v-335q41 -19 76 -19q75 0 120.5 50.5t45.5 137.5z" />
    <glyph glyph-name="ydieresis" unicode="&#xff;" horiz-adv-x="477" 
d="M376 610q0 -20 -13.5 -34t-33.5 -14t-33.5 14t-13.5 34t13.5 34t33.5 14t33.5 -14t13.5 -34zM206 610q0 -20 -13.5 -34t-33.5 -14t-33.5 14t-13.5 34t13.5 34t33.5 14t33.5 -14t13.5 -34zM461 473l-180 -518q-39 -112 -95 -157q-45 -35 -112 -35q-47 0 -86 17l18 57
q30 -15 69 -15q99 0 147 173l-213 478h78l169 -387h3l129 387h73z" />
    <glyph glyph-name="dotlessi" unicode="&#x131;" horiz-adv-x="252" 
d="M164 0h-73v473h73v-473z" />
    <glyph glyph-name="Lslash" unicode="&#x141;" horiz-adv-x="456" 
d="M444 0h-323v211l-80 -46v73l80 46v375h73v-333l169 98v-73l-169 -98v-185h250v-68z" />
    <glyph glyph-name="lslash" unicode="&#x142;" horiz-adv-x="317" 
d="M278 348l-88 -51v-187q0 -29 6 -39q8 -15 33 -15q13 0 25 3l9 -53q-32 -16 -63 -16q-83 0 -83 87v178l-76 -44v74l76 44v379h73v-337l88 51v-74z" />
    <glyph glyph-name="OE" unicode="&#x152;" horiz-adv-x="853" 
d="M799 0h-249q-14 0 -86 -5.5t-92 -5.5q-145 0 -235.5 95.5t-90.5 241.5q0 148 91.5 243t234.5 95q9 0 66 -2.5t73 -2.5h285l-28 -68h-222v-220h220v-67h-220v-236h253v-68zM473 65v524q-84 7 -101 7q-114 0 -181.5 -73.5t-67.5 -196.5t67.5 -196.5t181.5 -73.5q18 0 101 9
z" />
    <glyph glyph-name="oe" unicode="&#x153;" horiz-adv-x="812" 
d="M773 224h-303q0 -72 39 -119q43 -51 118 -51q59 0 112 34l22 -50q-58 -48 -149 -48q-120 0 -180 99q-58 -100 -178 -100q-89 0 -147 59q-66 68 -66 189q0 104 54 173q59 75 160 75q116 0 174 -95q53 95 155 95q90 0 139.5 -66t49.5 -178v-17zM694 286q0 54 -27 93
q-31 44 -82 44t-82.5 -39.5t-31.5 -97.5h223zM397 239q0 85 -37.5 134.5t-104.5 49.5q-66 0 -103 -49.5t-37 -134.5t38 -135.5t103 -50.5t103 50.5t38 135.5z" />
    <glyph glyph-name="Scaron" unicode="&#x160;" horiz-adv-x="478" 
d="M391 843l-104 -147h-69l-106 147h74l67 -98l65 98h73zM434 161q0 -76 -59 -123.5t-149 -47.5q-102 0 -180 52l35 59q64 -46 144 -46q51 0 88 23q43 27 43 76q0 64 -74 114l-138 88q-74 60 -74 144q0 72 51 118t139 46q84 0 146 -32v-78q-63 43 -144 43q-52 0 -84 -21
q-36 -24 -36 -69q0 -60 76 -111l140 -90q76 -61 76 -145z" />
    <glyph glyph-name="scaron" unicode="&#x161;" horiz-adv-x="405" 
d="M357 678l-104 -147h-69l-106 147h74l67 -98l65 98h73zM361 130q0 -70 -53 -107q-48 -33 -126 -33t-140 36l28 57q53 -34 115 -34q44 0 72 19t28 51q0 47 -56 77q-51 27 -103 54q-56 39 -56 110q0 54 38 88q42 37 119 37q64 0 119 -25v-64q-66 28 -116 28q-88 0 -88 -60
q0 -43 57 -73q52 -28 105 -55q57 -40 57 -106z" />
    <glyph glyph-name="Ydieresis" unicode="&#x178;" horiz-adv-x="534" 
d="M401 756q0 -20 -13.5 -34t-33.5 -14t-33.5 14t-13.5 34t13.5 34t33.5 14t33.5 -14t13.5 -34zM231 756q0 -20 -13.5 -34t-33.5 -14t-33.5 14t-13.5 34t13.5 34t33.5 14t33.5 -14t13.5 -34zM520 659l-212 -395v-264h-73v266l-219 393h80l117 -211q22 -38 59 -110h2
q20 45 55 110l114 211h77z" />
    <glyph glyph-name="Zcaron" unicode="&#x17d;" horiz-adv-x="551" 
d="M417 855l-104 -147h-69l-106 147h74l67 -98l65 98h73zM517 0h-466l332 592l-308 -3l-23 70h449l-330 -592l346 2v-69z" />
    <glyph glyph-name="zcaron" unicode="&#x17e;" horiz-adv-x="415" 
d="M350 678l-104 -147h-69l-106 147h74l67 -98l65 98h73zM379 0h-348l231 411l-210 -2l-20 64h340l-224 -410l231 2v-65z" />
    <glyph glyph-name="florin" unicode="&#x192;" 
d="M494 684l-31 -57q-27 20 -65 20q-94 0 -108 -146l-11 -118h133l-26 -62h-112l-26 -285q-15 -160 -113 -195q-30 -11 -68 -11q-55 0 -95 24l31 57q27 -20 65 -20q95 0 108 146l26 284h-100v62h105l12 129q18 196 184 196q51 0 91 -24z" />
    <glyph glyph-name="circumflex" unicode="&#x2c6;" horiz-adv-x="417" 
d="M349 531h-74l-67 98l-65 -98h-73l104 147h69z" />
    <glyph glyph-name="caron" unicode="&#x2c7;" horiz-adv-x="417" 
d="M350 678l-104 -147h-69l-106 147h74l67 -98l65 98h73z" />
    <glyph glyph-name="breve" unicode="&#x2d8;" horiz-adv-x="348" 
d="M305 654q0 -51 -31 -79.5t-87 -28.5h-4q-110 0 -110 108h50q5 -53 61 -53h9q57 0 62 53h50z" />
    <glyph glyph-name="dotaccent" unicode="&#x2d9;" horiz-adv-x="390" 
d="M243 610q0 -20 -13.5 -34t-33.5 -14t-33.5 14t-13.5 34t13.5 34t33.5 14t33.5 -14t13.5 -34z" />
    <glyph glyph-name="ring" unicode="&#x2da;" horiz-adv-x="415" 
d="M305 618q0 -42 -27.5 -68.5t-69.5 -26.5q-43 0 -69.5 26t-26.5 69q0 42 27 68t70 26q42 0 69 -26t27 -68zM258 619q0 56 -50 56t-50 -56t50 -56t50 56z" />
    <glyph glyph-name="ogonek" unicode="&#x2db;" horiz-adv-x="520" 
d="M327 -166q-26 -14 -74 -14q-33 0 -57 13q-33 18 -33 55q0 64 84 112h55q-80 -44 -80 -98q0 -38 48 -38q25 0 44 11z" />
    <glyph glyph-name="tilde" unicode="&#x2dc;" horiz-adv-x="400" 
d="M335 618q0 -30 -19.5 -49.5t-48.5 -19.5q-24 0 -55 14l-33 15q-26 12 -39 12q-22 0 -22 -25v-10h-51v24q0 30 20 49.5t49 19.5q23 0 54 -14l33 -15q26 -12 39 -12q22 0 22 25v10h51v-24z" />
    <glyph glyph-name="hungarumlaut" unicode="&#x2dd;" horiz-adv-x="695" 
d="M517 678l-116 -147h-64l84 147h96zM362 678l-116 -147h-64l84 147h96z" />
    <glyph glyph-name="endash" unicode="&#x2013;" horiz-adv-x="500" 
d="M500 219h-500v61h500v-61z" />
    <glyph glyph-name="emdash" unicode="&#x2014;" horiz-adv-x="1000" 
d="M1000 219h-1000v61h1000v-61z" />
    <glyph glyph-name="quoteleft" unicode="&#x2018;" horiz-adv-x="229" 
d="M165 512l-71 -37q-28 62 -28 122q0 64 32 121l41 -13q-6 -31 -6 -59q0 -59 32 -134z" />
    <glyph glyph-name="quoteright" unicode="&#x2019;" horiz-adv-x="238" 
d="M169 715q5 -28 5 -55q0 -104 -71 -179l-37 24q31 62 31 128q0 28 -5 65z" />
    <glyph glyph-name="quotesinglbase" unicode="&#x201a;" horiz-adv-x="238" 
d="M169 115q5 -28 5 -55q0 -104 -71 -179l-37 24q31 62 31 128q0 28 -5 65z" />
    <glyph glyph-name="quotedblleft" unicode="&#x201c;" horiz-adv-x="386" 
d="M322 512l-71 -37q-28 62 -28 122q0 64 32 121l41 -13q-6 -31 -6 -59q0 -59 32 -134zM165 512l-71 -37q-28 62 -28 122q0 64 32 121l41 -13q-6 -31 -6 -59q0 -59 32 -134z" />
    <glyph glyph-name="quotedblright" unicode="&#x201d;" horiz-adv-x="395" 
d="M326 715q5 -28 5 -55q0 -104 -71 -179l-37 24q31 62 31 128q0 28 -5 65zM169 715q5 -28 5 -55q0 -104 -71 -179l-37 24q31 62 31 128q0 28 -5 65z" />
    <glyph glyph-name="quotedblbase" unicode="&#x201e;" horiz-adv-x="395" 
d="M326 115q5 -28 5 -55q0 -104 -71 -179l-37 24q31 62 31 128q0 28 -5 65zM169 115q5 -28 5 -55q0 -104 -71 -179l-37 24q31 62 31 128q0 28 -5 65z" />
    <glyph glyph-name="dagger" unicode="&#x2020;" horiz-adv-x="514" 
d="M440 397q-25 0 -80 7q-58 8 -72 8q-1 -18 2 -87q5 -84 5 -148v-221h-73v221q0 64 4 149q3 68 2 86q-14 0 -70.5 -7.5t-81.5 -7.5v82q24 0 80 -8q60 -8 73 -9q1 20 -5 76q-7 60 -7 81h83q0 -21 -7.5 -79t-6.5 -78q13 1 74 9q56 8 80 8v-82z" />
    <glyph glyph-name="daggerdbl" unicode="&#x2021;" horiz-adv-x="514" 
d="M440 96q-24 0 -80 8q-61 8 -74 9q-1 -20 6.5 -78t7.5 -79h-83q0 21 7 81q6 56 5 76q-13 -1 -73 -9q-56 -8 -80 -8v82q25 0 81.5 -7.5t70.5 -7.5q-3 32 -4 124q3 50 4 125q-14 0 -70.5 -7.5t-81.5 -7.5v82q24 0 80 -8q60 -8 73 -9q1 20 -5 76q-7 60 -7 81h83
q0 -21 -7.5 -79t-6.5 -78q13 1 74 9q56 8 80 8v-82q-25 0 -80 7q-58 8 -72 8q-1 -12 1 -50q3 -45 3 -75q0 -29 -3 -74q-2 -38 -1 -50q14 0 72 8q55 7 80 7v-82z" />
    <glyph glyph-name="bullet" unicode="&#x2022;" horiz-adv-x="297" 
d="M242 318q0 -40 -27 -68t-67 -28q-39 0 -66 28t-27 68q0 41 26.5 69t66.5 28t67 -28t27 -69z" />
    <glyph glyph-name="ellipsis" unicode="&#x2026;" horiz-adv-x="702" 
d="M660 45q0 -23 -15.5 -39.5t-38.5 -16.5t-38.5 16.5t-15.5 39.5t15.5 39.5t38.5 16.5t38.5 -16.5t15.5 -39.5zM408 45q0 -23 -15.5 -39.5t-38.5 -16.5t-38.5 16.5t-15.5 39.5t15.5 39.5t38.5 16.5t38.5 -16.5t15.5 -39.5zM156 45q0 -23 -15.5 -39.5t-38.5 -16.5
t-38.5 16.5t-15.5 39.5t15.5 39.5t38.5 16.5t38.5 -16.5t15.5 -39.5z" />
    <glyph glyph-name="perthousand" unicode="&#x2030;" horiz-adv-x="1174" 
d="M1115 169q0 -84 -45 -133q-43 -45 -109 -45t-106 45q-44 48 -44 132t46 133q42 45 108 45t107 -45q43 -48 43 -132zM758 169q0 -84 -45 -133q-43 -45 -109 -45t-106 45q-44 48 -44 132t46 133q42 45 108 45t107 -45q43 -48 43 -132zM672 676l-446 -696h-79l446 696h79z
M365 491q0 -84 -45 -133q-43 -45 -109 -45t-106 45q-44 48 -44 132t46 133q42 45 108 45t107 -45q43 -48 43 -132zM1042 168q0 124 -81 124q-77 0 -77 -122q0 -125 81 -125q77 0 77 123zM685 168q0 124 -81 124q-77 0 -77 -122q0 -125 81 -125q77 0 77 123zM292 490
q0 124 -81 124q-77 0 -77 -122q0 -125 81 -125q77 0 77 123z" />
    <glyph glyph-name="guilsinglleft" unicode="&#x2039;" horiz-adv-x="347" 
d="M273 47l-58 -37l-164 231l164 232l58 -37l-140 -195z" />
    <glyph glyph-name="guilsinglright" unicode="&#x203a;" horiz-adv-x="347" 
d="M298 241l-164 -231l-58 37l140 194l-140 195l58 37z" />
    <glyph glyph-name="fraction" unicode="&#x2044;" horiz-adv-x="460" 
d="M493 676l-446 -696h-79l446 696h79z" />
    <glyph glyph-name="trademark" unicode="&#x2122;" horiz-adv-x="800" 
d="M726 264h-57v249q0 31 2 52h-1q-7 -18 -27 -49l-89 -139h-37l-94 139q-18 27 -27 49h-1q2 -21 2 -52v-249h-58v395h60l111 -168q8 -12 25 -44h2q6 13 24 45l105 167h60v-395zM317 659l-21 -55h-102v-340h-58v340h-110v55h291z" />
    <glyph glyph-name="fi" unicode="&#xf001;" horiz-adv-x="531" 
d="M467 623q0 -21 -15 -36t-36 -15t-36 15t-15 36t15 36t36 15t36 -15t15 -36zM453 0h-73v473h73v-473zM307 692l-15 -59q-24 14 -57 14q-63 0 -63 -83v-91h123l-26 -62h-97v-411h-73v411h-59v62h59v84q0 83 47 122q36 29 91 29q39 0 70 -16z" />
    <glyph glyph-name="fl" unicode="&#xf002;" horiz-adv-x="525" 
d="M511 6q-32 -16 -63 -16q-83 0 -83 87v631h73v-598q0 -29 6 -39q8 -15 33 -15q13 0 25 3zM307 692l-15 -59q-24 14 -57 14q-63 0 -63 -83v-91h123l-26 -62h-97v-411h-73v411h-59v62h59v84q0 83 47 122q36 29 91 29q39 0 70 -16z" />
    </font>
</defs>
</svg>
