<?xml version="1.0" standalone="no"?>
<!DOCTYPE svg PUBLIC "-//W3C//DTD SVG 1.1//EN" "http://www.w3.org/Graphics/SVG/1.1/DTD/svg11.dtd" >
<svg xmlns="http://www.w3.org/2000/svg" xmlns:xlink="http://www.w3.org/1999/xlink" version="1.1">
<metadata></metadata>
<defs>
<font id="blissregular" horiz-adv-x="1073" >
<font-face units-per-em="2048" ascent="1638" descent="-410" />
<missing-glyph horiz-adv-x="503" />
<glyph horiz-adv-x="0" />
<glyph unicode="&#xd;" horiz-adv-x="503" />
<glyph unicode=" "  horiz-adv-x="503" />
<glyph unicode="&#x09;" horiz-adv-x="503" />
<glyph unicode="&#xa0;" horiz-adv-x="503" />
<glyph unicode="!" horiz-adv-x="565" d="M164 100q0 53 34.5 90t86.5 37q51 0 86 -37t35 -90q0 -51 -35 -88t-86 -37t-86 37t-35 88zM193 1233v117h184v-119q0 -571 -49 -875h-86q-49 297 -49 877z" />
<glyph unicode="&#x22;" horiz-adv-x="741" d="M119 1450h184l-22 -449h-136zM442 1450h185l-23 -449h-135z" />
<glyph unicode="#" horiz-adv-x="1388" d="M78 358v156h284l74 344h-252v156h285l74 336h176l-72 -336h234l71 336h176l-71 -336h258v-156h-291l-74 -344h258v-156h-290l-78 -358h-176l75 358h-231l-78 -358h-176l76 358h-252zM541 514h231l74 344h-232z" />
<glyph unicode="$" d="M145 133l80 143q131 -92 277 -92q96 0 157 39q76 47 76 135t-84 156q-37 31 -186 115q-131 72 -189 137q-94 102 -94 240q0 119 80 205.5t219 109.5v195h154v-191q133 -10 229 -61v-177q-143 86 -289 87q-211 0 -210 -162q0 -98 145 -191q137 -84 272 -168 q146 -118 146 -282q0 -133 -89 -221.5t-237 -112.5v-201h-156v197q-168 12 -301 100z" />
<glyph unicode="%" horiz-adv-x="1726" d="M131 1001q0 174 94 275q88 92 228 92q139 0 223 -92q92 -98 92 -270q0 -174 -96 -273q-88 -92 -228 -92q-137 0 -223 90q-90 98 -90 270zM299 1008q0 -244 154 -244q147 -1 147 237q0 242 -156 242q-145 0 -145 -235zM317 -41l914 1425h182l-915 -1425h-181zM963 344 q0 174 94 272q88 92 227 93q139 0 226 -94.5t87 -268.5t-91 -269t-230 -95t-223 92q-90 96 -90 270zM1128 348q0 -244 156 -244q148 0 148 240q0 242 -156 242q-147 0 -148 -238z" />
<glyph unicode="&#x26;" horiz-adv-x="1482" d="M113 365q0 262 299 387q-86 94 -117 149q-45 78 -45 172q0 121 99.5 206t256.5 85q156 0 252 -83t96 -214q0 -209 -280 -356q156 -186 338 -346q154 160 194 315l154 -39q-51 -182 -236 -377q152 -137 254 -137q18 0 35 2l35 -115q-47 -27 -123 -26q-135 0 -330 168 q-209 -178 -467 -179q-190 0 -307 117q-109 111 -108 271zM303 377q0 -106 73 -176t195 -70q170 0 303 123q-201 184 -366 383q-205 -86 -205 -260zM432 1073q0 -92 139 -254q201 103 201 238q0 61 -37 104q-47 57 -135 58q-82 0 -129 -50q-39 -41 -39 -96z" />
<glyph unicode="'" horiz-adv-x="417" d="M119 1450h184l-22 -449h-136z" />
<glyph unicode="(" horiz-adv-x="659" d="M154 549q0 649 327 1038l127 -88q-145 -209 -200 -395q-61 -211 -62 -555q0 -342 64 -553q55 -184 200 -393l-129 -88q-328 389 -327 1034z" />
<glyph unicode=")" horiz-adv-x="659" d="M53 -397q145 209 201 393q63 211 63 553q0 344 -61 555q-55 186 -201 395l127 88q328 -389 328 -1038q0 -645 -328 -1034z" />
<glyph unicode="*" horiz-adv-x="991" d="M129 952q47 29 158.5 71t134.5 54q-104 35 -293 123l78 133q47 -27 137 -102.5t113 -89.5q-2 25 -21 147q-16 113 -16 168h153q2 -55 -16 -166q-23 -125 -22 -145q84 70 251 188l78 -133q-49 -31 -155 -67q-119 -43 -138 -54q103 -37 293 -125l-78 -133q-49 27 -137 99 q-96 82 -114 94q2 -25 22 -148q18 -113 18 -168l-153 -2q-2 57 16 168q23 129 23 148q-84 -72 -254 -193z" />
<glyph unicode="+" horiz-adv-x="1259" d="M145 436v162h398v428h178v-428h393v-162h-393v-436h-178v436h-398z" />
<glyph unicode="," horiz-adv-x="428" d="M72 -199q66 131 65 267q0 57 -10 133l180 37q12 -59 12 -115q0 -215 -147 -377z" />
<glyph unicode="-" horiz-adv-x="743" d="M104 430v154h539v-154h-539z" />
<glyph unicode="." horiz-adv-x="428" d="M96 100q0 53 35 90t86 37t86 -37t35 -90q0 -51 -35 -88t-86 -37t-86 37t-35 88z" />
<glyph unicode="/" horiz-adv-x="739" d="M23 -68l520 1493h178l-520 -1493h-178z" />
<glyph unicode="0" d="M61 668q0 328 134 514q129 178 346 178t342 -178q129 -184 129 -514q0 -326 -132 -507t-352 -181q-215 0 -341 180t-126 508zM250 686q0 -262 79 -407.5t214 -145.5q141 0 215 152q67 139 67 366q0 262 -79.5 409.5t-213.5 147.5q-141 0 -215 -153q-68 -141 -67 -369z " />
<glyph unicode="1" d="M217 1157l410 203h139v-1360h-176v1165l-322 -145z" />
<glyph unicode="2" d="M96 0q27 315 199 516q59 70 305 256q156 119 156 240q0 188 -221 188q-168 0 -338 -96l-56 147q209 109 422 109q188 0 293 -96q96 -92 96 -238q0 -172 -145 -307q-143 -113 -287 -225q-166 -145 -201 -334l631 12v-172h-854z" />
<glyph unicode="3" d="M90 51l53 142q143 -63 310 -64q129 0 221 59q106 68 106 187q0 229 -338 229h-176v152l142 4q338 10 337 246q0 86 -62 140t-169 54q-152 0 -338 -94l-47 143q225 111 420 111q184 0 289 -100q96 -92 96 -236q0 -219 -211 -315v-2q113 -18 182.5 -101.5t69.5 -206.5 q0 -182 -131 -295q-143 -125 -402 -124q-197 0 -352 71z" />
<glyph unicode="4" d="M74 348v135l659 877h121v-852h203v-160h-203v-352h-178v352h-602zM276 502q74 0 173 2l227 4l2 371q0 90 6 172z" />
<glyph unicode="5" d="M131 41l55 143q102 -55 260 -55q139 0 230 68q98 74 98 202q0 266 -371 267h-178v680h746l-41 -168l-524 10v-371q37 2 69 2q256 0 385 -125q106 -106 107 -274q0 -190 -129 -309q-143 -131 -406 -131q-184 0 -301 61z" />
<glyph unicode="6" d="M70 608q0 315 157 529q166 223 432 223q147 0 273 -55l-51 -150q-104 53 -207 53q-164 0 -275.5 -123.5t-130.5 -339.5q166 106 320 107q174 0 291 -107q127 -114 127 -313q0 -207 -129 -332t-322 -125q-213 0 -342 148q-143 166 -143 485zM266 590q-8 -203 78 -332 t219 -129q115 0 186.5 76t71.5 211q0 127 -76 205q-71 71 -180 71q-156 0 -299 -102z" />
<glyph unicode="7" d="M154 1350h884v-74q-459 -618 -575 -1280h-187q96 578 519 1202l-600 -10z" />
<glyph unicode="8" d="M66 354q0 231 243 338v2q-186 115 -186 307q0 156 117.5 257.5t320.5 101.5q201 0 311 -113q94 -98 95 -235q0 -195 -205 -316v-2q250 -88 250 -332q0 -168 -129 -272q-133 -111 -355 -110q-221 0 -341.5 99t-120.5 275zM254 365q0 -115 84 -181q78 -59 203 -59 q117 0 197.5 62.5t80.5 164.5q0 217 -344 271q-80 -25 -141 -84q-80 -76 -80 -174zM307 1014q0 -195 291 -262q178 106 178 249q0 88 -62.5 152t-168.5 64q-104 0 -171 -57.5t-67 -145.5z" />
<glyph unicode="9" d="M82 907q0 195 127 324t319 129q217 0 342 -154q134 -168 134 -479q0 -346 -159 -546.5t-437 -200.5q-150 0 -291 57l51 151q119 -57 244 -57q176 0 283.5 127t117.5 352h-2q-154 -121 -322 -121q-164 0 -274 95q-133 113 -133 323zM266 930q0 -133 70 -209t196 -76 q84 0 164 43q72 39 115 96q0 197 -80 311.5t-211 114.5q-119 0 -186.5 -77.5t-67.5 -202.5z" />
<glyph unicode=":" horiz-adv-x="428" d="M96 100q0 53 35 90t86 37t86 -37t35 -90q0 -51 -35 -88t-86 -37t-86 37t-35 88zM96 807q0 53 35 90t86 37t86 -37t35 -90q0 -51 -35 -88t-86 -37t-86 37t-35 88z" />
<glyph unicode=";" horiz-adv-x="428" d="M72 -199q66 131 65 267q0 57 -10 133l180 37q12 -59 12 -115q0 -215 -149 -377zM96 807q0 53 35 90t86 37t86 -37t35 -90q0 -51 -35 -88t-86 -37t-86 37t-35 88z" />
<glyph unicode="&#x3c;" horiz-adv-x="1234" d="M137 455v155l889 387v-174l-600 -250l-115 -38v-5l115 -38l600 -250v-174z" />
<glyph unicode="=" horiz-adv-x="1259" d="M145 248v162h969v-162h-969zM145 629v162h969v-162h-969z" />
<glyph unicode="&#x3e;" horiz-adv-x="1234" d="M209 68v174l600 250l115 38v5l-115 38l-600 250v174l889 -387v-155z" />
<glyph unicode="?" horiz-adv-x="946" d="M125 1225q162 162 381 161q156 0 244 -79.5t88 -214.5q0 -127 -111 -242q-35 -39 -203 -168q-109 -86 -108 -139q0 -47 53 -113l-137 -86q-92 92 -92 203q0 96 104 192q98 78 197 158q106 94 106 186q0 70 -46 111t-120 41q-139 0 -270 -125zM289 100q0 53 34.5 90 t86.5 37q51 0 85.5 -37t34.5 -90q0 -51 -34.5 -88t-85.5 -37t-86 37t-35 88z" />
<glyph unicode="@" horiz-adv-x="1591" d="M88 618q0 350 213 566q205 211 520 211q297 0 491.5 -178t194.5 -465q0 -225 -98 -349q-94 -115 -256 -114q-78 0 -132 46t-67 122h-2q-27 -57 -100 -107q-86 -59 -178 -59q-106 0 -172 71q-80 84 -80 254q0 199 122 325t302 126q147 0 289 -88l-48 -338q-8 -61 -8 -100 q0 -125 97 -125q80 0 131 91t51 243q0 211 -135 352q-147 160 -406 160q-256 0 -416.5 -171t-160.5 -466q0 -260 139 -408q131 -143 346 -143q170 0 268 51l49 -129q-145 -55 -333 -55q-279 0 -450 185t-171 492zM584 614q0 -188 127 -188q80 0 141 63q82 82 100 256l17 152 q-63 41 -131 41q-106 0 -180 -90t-74 -234z" />
<glyph unicode="A" horiz-adv-x="1218" d="M33 0l518 1354h117l526 -1354h-195l-137 352h-522l-127 -352h-180zM403 510h398l-142 408q-39 106 -51 167h-2q-16 -63 -53 -165z" />
<glyph unicode="B" horiz-adv-x="1085" d="M164 0v1350h393q176 0 277 -107q88 -92 88 -223q0 -215 -181 -293v-2q106 -18 183 -107q82 -94 82 -219q0 -162 -105 -270q-125 -129 -371 -129h-366zM346 162h186q133 0 206 64.5t73 168.5q0 94 -72.5 153.5t-195.5 59.5h-197v-446zM346 770h164q88 0 154.5 58.5 t66.5 156.5q0 203 -231 203h-154v-418z" />
<glyph unicode="C" horiz-adv-x="1208" d="M88 659q0 299 193.5 500t498.5 201q215 0 346 -78l-2 -180q-162 100 -346 100q-223 0 -362 -153q-131 -150 -131 -377q0 -233 131 -381t354 -148q162 0 322 86l53 -141q-188 -108 -396 -108h-4q-301 0 -483 194q-174 186 -174 485z" />
<glyph unicode="D" horiz-adv-x="1318" d="M164 0v1350h332q365 0 559 -189q180 -174 180 -473q0 -303 -184 -487q-197 -201 -555 -201h-332zM346 162h162q279 0 416 157q120 138 120 369q0 221 -129 354q-143 145 -405 146h-164v-1026z" />
<glyph unicode="E" horiz-adv-x="960" d="M164 0v1350h690l-59 -162h-449v-418h445v-160h-445v-448h512v-162h-694z" />
<glyph unicode="F" horiz-adv-x="944" d="M164 0v1350h692l-61 -162h-449v-424h445v-160h-445v-604h-182z" />
<glyph unicode="G" horiz-adv-x="1372" d="M88 655q0 313 198.5 509t520.5 196q211 0 383 -78l-2 -184q-193 102 -377 102q-252 0 -393 -149q-133 -141 -133 -375q0 -246 140 -390.5t382 -144.5q154 0 242 49v472h182v-570q-203 -112 -464 -112h-5q-301 0 -487.5 189t-186.5 486z" />
<glyph unicode="H" horiz-adv-x="1398" d="M164 0v1350h182v-584h711v584h182v-1350h-182v604h-711v-604h-182z" />
<glyph unicode="I" horiz-adv-x="505" d="M164 0v1350h182v-1350h-182z" />
<glyph unicode="J" horiz-adv-x="626" d="M-35 -348l35 147q45 -16 117 -16q96 0 135 76q33 63 33 209v1282h182v-1299q0 -207 -74 -307q-84 -115 -284 -115q-80 0 -144 23z" />
<glyph unicode="K" horiz-adv-x="1124" d="M164 0v1350h180v-607h4l488 603h219l-549 -660l594 -686h-234l-518 604h-2v-604h-182z" />
<glyph unicode="L" horiz-adv-x="870" d="M164 0v1350h182v-1188h502v-162h-684z" />
<glyph unicode="M" horiz-adv-x="1626" d="M164 0v1350h178l410 -609q49 -74 73 -127h4q29 63 70 129l385 607h182v-1350h-182v918q0 80 4 143h-2q-23 -53 -74 -135l-333 -533h-107l-356 535q-25 37 -74 133h-4q8 -63 8 -141v-920h-182z" />
<glyph unicode="N" horiz-adv-x="1472" d="M164 0v1350h186l633 -838q117 -154 147 -215h5q-4 84 -5 176v877h183v-1350h-170l-660 870q-104 137 -139 201h-4q6 -70 6 -168v-903h-182z" />
<glyph unicode="O" horiz-adv-x="1521" d="M88 666q0 299 188.5 496.5t485.5 197.5q317 0 506 -211q170 -190 170 -479q0 -313 -199 -508q-188 -182 -477 -182q-281 0 -463 167q-211 195 -211 519zM283 668q0 -242 130 -385.5t349 -143.5t349 143.5t130 385.5q0 238 -125 379q-128 149 -351 149h-3 q-219 0 -349 -142.5t-130 -385.5z" />
<glyph unicode="P" horiz-adv-x="1001" d="M164 0v1350h299q215 0 340 -111.5t125 -312.5q0 -182 -113 -301q-131 -139 -373 -140h-96v-485h-182zM346 641h111q280 0 280 283q0 121 -74.5 192.5t-216.5 71.5h-100v-547z" />
<glyph unicode="Q" horiz-adv-x="1521" d="M88 666q0 299 187.5 496.5t486.5 197.5q301 0 488.5 -194.5t187.5 -495.5q0 -285 -171 -476.5t-452 -216.5q153 -153 322 -153h2q86 0 159 29l39 -134q-98 -43 -245 -43q-162 0 -297 99q-100 72 -213 221q-233 57 -365 244q-129 178 -129 426zM283 668q0 -244 130 -386.5 t349 -142.5t349 142.5t130 386.5q0 236 -127 382t-352 146q-219 0 -349 -143.5t-130 -384.5z" />
<glyph unicode="R" horiz-adv-x="1105" d="M164 0v1350h307q233 0 352 -109q104 -96 105 -262q0 -133 -78 -231q-70 -86 -180 -130v-2q31 -16 143 -188q41 -61 268 -428h-213q-225 360 -254 406q-96 145 -133 153h-135v-559h-182zM346 711h133q109 0 183.5 72.5t74.5 174.5q0 229 -264 230h-127v-477z" />
<glyph unicode="S" horiz-adv-x="995" d="M86 92l82 141q137 -98 297 -98q100 0 170 45q84 51 84 144q0 119 -152 219q-139 86 -280 174q-152 121 -152 297q0 150 108.5 248t297.5 98q180 0 311 -68l-2 -180q-143 90 -301 90q-100 0 -162 -41q-68 -45 -68 -129q0 -115 154 -213q143 -90 287 -178 q153 -125 153 -299q0 -162 -125.5 -262t-316.5 -100q-217 0 -385 112z" />
<glyph unicode="T" horiz-adv-x="1052" d="M41 1188v162h1003l-55 -162h-377v-1188h-184v1188h-387z" />
<glyph unicode="U" horiz-adv-x="1370" d="M164 489v861h182v-856q0 -166 84 -260.5t246 -94.5q176 0 262 88q80 84 80 254v869h182v-881q0 -240 -145 -369q-136 -120 -379 -120h-4q-250 0 -379 125.5t-129 383.5z" />
<glyph unicode="V" horiz-adv-x="1286" d="M27 1350h196l330 -854q29 -78 78 -220h4q35 104 82 218l356 856h189l-582 -1356h-115z" />
<glyph unicode="W" horiz-adv-x="1888" d="M27 1350h200l289 -873q37 -111 62 -203h4q14 51 67 201l221 612l-92 263h189l297 -861q27 -70 71 -206h4q23 92 58 200l278 867h191l-461 -1356h-141l-238 661q-43 121 -68 205h-4q-27 -90 -67 -203l-246 -663h-141z" />
<glyph unicode="X" horiz-adv-x="1210" d="M27 0l475 688l-441 662h213l351 -535l354 535h207l-449 -670l439 -680h-209l-357 555l-377 -555h-206z" />
<glyph unicode="Y" horiz-adv-x="1128" d="M27 1350h200l232 -418q41 -76 114 -217h5q43 94 108 215l227 420h193l-444 -811v-539h-183v543z" />
<glyph unicode="Z" horiz-adv-x="1142" d="M88 0l680 1192l-616 -6l-54 164h959l-672 -1190l696 4v-164h-993z" />
<glyph unicode="[" horiz-adv-x="585" d="M172 -477v2056h367v-147h-197v-1760h197v-149h-367z" />
<glyph unicode="\" horiz-adv-x="759" d="M31 1425h182l520 -1493h-182z" />
<glyph unicode="]" horiz-adv-x="585" d="M51 -328h197v1760h-197v147h367v-2056h-367v149z" />
<glyph unicode="^" horiz-adv-x="1220" d="M199 588l333 762h156l334 -762h-172l-199 473l-39 115h-4l-39 -115l-198 -473h-172z" />
<glyph unicode="_" horiz-adv-x="921" d="M0 -131h922v-123h-922v123z" />
<glyph unicode="`" horiz-adv-x="1110" d="M365 1389h231l180 -302h-158z" />
<glyph unicode="a" horiz-adv-x="964" d="M80 281q0 145 102.5 228t292.5 89l189 6v37q0 203 -201 203q-133 0 -254 -84l-68 123q157 110 351 110h4q350 0 350 -336v-325q0 -279 20 -332h-151l-39 92q-118 -112 -290 -112h-3q-127 0 -215 82.5t-88 218.5zM262 295q0 -74 46 -119t132 -45q128 0 224 94v234l-177 -6 q-225 -8 -225 -158z" />
<glyph unicode="b" horiz-adv-x="1034" d="M129 43v1407h180v-498q109 41 209 41q184 0 305 -116q133 -132 133 -359q0 -246 -159 -397q-154 -141 -381 -141q-182 0 -287 63zM309 156q59 -23 144 -23q137 0 230 108.5t93 266.5q0 143 -76.5 233t-212.5 90q-84 0 -178 -43v-632z" />
<glyph unicode="c" horiz-adv-x="878" d="M80 475q0 217 127 363q134 155 357 155h3q145 0 256 -63l-2 -162q-109 74 -250 74q-139 0 -224 -100.5t-85 -256.5t80 -252q84 -102 227 -102q121 0 238 72l51 -125q-145 -98 -319 -98q-217 0 -342 147q-117 137 -117 348z" />
<glyph unicode="d" horiz-adv-x="1042" d="M227.5 845.5q147.5 147.5 364.5 147.5q86 0 145 -14v471h183v-1399q-129 -71 -327 -71h-5q-221 0 -359 122q-149 132 -149 368q0 228 147.5 375.5zM262 483q0 -158 88 -252q94 -100 262 -100q74 0 125 23v665q-61 20 -137 21q-143 0 -238 -97q-100 -100 -100 -260z" />
<glyph unicode="e" horiz-adv-x="968" d="M80 498q0 213 112.5 354t296.5 141q188 0 295 -136t107 -363v-48h-621q0 -133 82 -223t223 -90q121 0 236 68l51 -121q-133 -100 -321 -100q-223 0 -348 157q-113 141 -113 361zM268 588h430q0 104 -53 176q-59 82 -158 82q-98 0 -158.5 -75t-60.5 -183z" />
<glyph unicode="f" horiz-adv-x="647" d="M72 821v148h127v159q0 176 104 261q80 61 199 61q88 0 160 -37l-37 -139q-53 26 -114 26h-5q-125 0 -125 -155v-176h254l-57 -148h-197v-821h-182v821h-127z" />
<glyph unicode="g" horiz-adv-x="989" d="M31 -197q0 150 182 238q-68 39 -68 121q0 94 115 182q-162 90 -162 295q0 150 105.5 252t267.5 102q109 0 176 -35q12 -8 25 3q79 75 212 75h3q33 0 65 -4l-45 -151q-43 10 -76 10q-37 0 -63 -12q104 -102 104 -250q0 -158 -108.5 -256.5t-276.5 -98.5q-74 0 -127 21 q-41 -49 -41 -100q0 -53 175 -78q246 -33 321 -62q172 -65 172 -223q0 -133 -119 -219q-135 -98 -381 -98q-211 0 -337 86q-119 80 -119 202zM205 -172q0 -74 82 -123t215 -49q131 0 207.5 43t76.5 115q0 96 -184 133q-139 20 -278 43q-119 -76 -119 -162zM279 639 q0 -94 56 -155.5t148 -61.5q90 0 147.5 56.5t57.5 156.5q0 92 -58.5 151.5t-150.5 59.5q-90 0 -145 -56.5t-55 -150.5z" />
<glyph unicode="h" horiz-adv-x="1054" d="M129 0v1450h180v-592q174 135 334 135q121 0 197 -75q92 -92 92 -281v-637h-182v590q0 237 -163 237h-1q-121 0 -277 -135v-692h-180z" />
<glyph unicode="i" horiz-adv-x="491" d="M125 1274q0 49 35 84t86 35q49 0 85 -35t36 -84t-36 -85t-85 -36q-51 0 -86 35t-35 86zM156 0v969h180v-969h-180z" />
<glyph unicode="j" horiz-adv-x="514" d="M-102 -446l41 135q55 -27 106 -27q133 0 133 223v1084h182v-1102q0 -182 -88 -275q-75 -77 -199 -77h-3q-100 0 -172 39zM150 1274q0 49 35.5 84t84.5 35t85 -35t36 -84t-36 -85t-85 -36t-84.5 35t-35.5 86z" />
<glyph unicode="k" horiz-adv-x="913" d="M129 0v1450h180v-819h4l340 338h226l-416 -402l465 -567h-223l-392 485h-4v-485h-180z" />
<glyph unicode="l" horiz-adv-x="493" d="M129 170v1280h180v-1200q0 -53 13 -76q14 -31 63 -31q29 0 57 9l23 -134q-72 -38 -146 -38h-4q-186 0 -186 190z" />
<glyph unicode="m" horiz-adv-x="1660" d="M129 0v969h152l22 -113q174 137 342 137q182 0 244 -157q173 157 348 157h2q299 0 299 -313v-680h-182v623q0 102 -27 151q-35 59 -123 60q-131 0 -282 -134q2 -14 2 -49v-651h-183v618q0 215 -151 216q-127 0 -281 -136v-698h-182z" />
<glyph unicode="n" horiz-adv-x="1056" d="M129 0v969h152l22 -111q182 135 344 135q119 0 197 -80q90 -92 90 -264v-649h-182v588q0 239 -159 239h-1q-123 0 -283 -135v-692h-180z" />
<glyph unicode="o" horiz-adv-x="1067" d="M80 483q0 215 117 359q127 151 338 151q213 0 337 -149q119 -139 119 -359q0 -219 -119 -358q-125 -147 -340 -147q-193 0 -313 118q-139 139 -139 385zM264 487q0 -162 73 -260t200 -98q125 0 196.5 98.5t71.5 259.5q0 164 -72 260.5t-201 96.5q-127 0 -197.5 -96.5 t-70.5 -260.5z" />
<glyph unicode="p" horiz-adv-x="1036" d="M129 -485v1413q185 65 332 65h4q231 0 362 -133t131 -362q0 -236 -149 -383q-141 -135 -344 -135q-82 0 -156 28v-493h-180zM309 164q80 -33 148 -33q143 0 229 97.5t86 263.5q0 170 -92 260q-84 84 -221 84q-80 0 -150 -23v-649z" />
<glyph unicode="q" horiz-adv-x="1054" d="M80 465q0 238 162 387q152 141 379 141q172 0 311 -63v-1415h-182v538q-110 -73 -252 -73h-4q-166 0 -283 120q-131 135 -131 365zM264 473q0 -158 78 -248t193 -90q109 0 215 80v602q-63 23 -146 23q-154 0 -247 -104.5t-93 -262.5z" />
<glyph unicode="r" horiz-adv-x="675" d="M129 0v969h152l22 -109q145 133 272 133h4q62 0 107 -32l-72 -168q-41 22 -95 22h-5q-100 0 -203 -106v-709h-182z" />
<glyph unicode="s" horiz-adv-x="794" d="M41 59l65 138q113 -76 244 -76q86 0 138.5 34.5t52.5 96.5q0 86 -115 143q-106 53 -213 107q-115 82 -115 225q0 117 87 191.5t251 74.5q139 0 256 -51v-156q-141 59 -250 60q-166 0 -166 -111q0 -78 117 -135q211 -104 217 -108q117 -83 117 -222q0 -145 -113 -223 q-97 -67 -257 -67h-5q-178 0 -311 79z" />
<glyph unicode="t" horiz-adv-x="729" d="M39 823v146h162v217l182 57v-274h299l-59 -146h-240v-569q0 -117 94 -117q82 0 168 64l53 -123q-135 -98 -278 -98q-219 0 -219 213v630h-162z" />
<glyph unicode="u" horiz-adv-x="1052" d="M129 332v637h182v-623q0 -215 183 -215q135 0 235 113v725h180v-609q1 -303 21 -360h-148l-39 98q-136 -118 -306 -118h-3q-121 0 -201 69q-104 90 -104 283z" />
<glyph unicode="v" horiz-adv-x="944" d="M14 969h187l264 -738h4l289 738h176l-404 -975h-137z" />
<glyph unicode="w" horiz-adv-x="1462" d="M14 969h185l227 -731h6l230 731h153l234 -733h6l223 733h174l-332 -975h-151l-234 741h-6l-233 -741h-150z" />
<glyph unicode="x" horiz-adv-x="940" d="M14 0l348 500l-321 469h207l241 -365l246 365h193l-330 -477l332 -492h-203l-258 385l-258 -385h-197z" />
<glyph unicode="y" horiz-adv-x="1007" d="M-25 -446l45 139q66 -33 146 -33q190 0 289 336l-439 973h193l332 -758h6l254 758h180l-371 -1043q-86 -244 -207 -338q-91 -73 -229 -73h-4q-106 0 -195 39z" />
<glyph unicode="z" horiz-adv-x="829" d="M39 0l463 821l-408 -4l-45 152h723l-450 -819l460 4v-154h-743z" />
<glyph unicode="{" horiz-adv-x="659" d="M100 489v140q59 2 84 18q45 31 45 117l-2 442q0 160 74 246q80 96 266 125l35 -170q-104 -14 -146 -63.5t-42 -149.5v-184q2 -172 2 -197q0 -229 -140 -252v-4q139 -23 140 -252q0 -25 -2 -196v-185q0 -100 42 -149.5t146 -63.5l-35 -170q-186 29 -266 125 q-74 86 -74 246v211q2 207 2 231q0 86 -45 117q-25 16 -84 18z" />
<glyph unicode="|" horiz-adv-x="516" d="M172 -485v2082h172v-2082h-172z" />
<glyph unicode="}" horiz-adv-x="659" d="M59 -289q104 14 146.5 63.5t42.5 149.5v185q-2 172 -2 196q0 229 139 252v4q-139 23 -139 252q0 25 2 197v184q0 100 -42 149.5t-147 63.5l35 170q186 -29 266 -125q74 -86 74 -246v-211q-2 -207 -2 -231q0 -86 45 -117q25 -16 84 -18v-140q-59 -2 -84 -18 q-45 -31 -45 -117q0 -25 2 -231v-211q0 -160 -74 -246q-80 -96 -266 -125z" />
<glyph unicode="~" horiz-adv-x="1251" d="M158 532q162 117 270 117q70 0 168 -37l102 -39q78 -31 125 -30q68 0 187 86l84 -135q-162 -117 -273 -117q-70 0 -166 37l-102 39q-78 29 -125 28q-68 0 -188 -84z" />
<glyph unicode="&#xa1;" horiz-adv-x="565" d="M164 868q0 51 34.5 88t86.5 37q51 0 86 -37t35 -88q0 -53 -35 -90t-86 -37t-86 37t-35 90zM193 -264q0 580 49 876h86q49 -303 49 -874v-121h-184v119z" />
<glyph unicode="&#xa2;" d="M156 670q0 170 94 299t260 170v196h154v-180q131 -4 208 -47v-156q-94 53 -221 54q-147 0 -234 -97.5t-87 -228.5q0 -145 86 -232.5t219 -87.5q129 0 223 62l45 -123q-84 -70 -248 -88v-197h-153v203q-154 31 -250 154t-96 299z" />
<glyph unicode="&#xa3;" d="M131 0v135q182 53 182 479h-151v156h151v152q0 250 156 362q109 76 264 76q121 0 217 -45l-39 -144q-70 41 -159 41q-258 0 -258 -301v-141h387l-60 -156h-327q-4 -360 -125 -462v-2q68 12 204 12h369v-162h-811z" />
<glyph unicode="&#xa4;" d="M20 901l115 115l131 -131q123 84 269 84q145 0 266 -84l131 131l115 -115l-132 -131q82 -121 82 -264q0 -147 -84 -266l131 -131l-114 -115l-131 131q-123 -82 -264 -82q-145 0 -265 84l-133 -135l-114 114l133 134q-84 123 -84 266q0 145 84 264zM217 506 q0 -135 92 -230.5t226 -95.5q133 0 224 95.5t91 230.5t-91 230t-224 95t-225.5 -95t-92.5 -230z" />
<glyph unicode="&#xa5;" d="M-4 1350h201l225 -418q76 -139 115 -217h4q37 82 110 215l228 420h192l-364 -664h256v-143h-338v-158h338v-143h-338v-242h-183v242h-344v143h344v158h-344v143h264z" />
<glyph unicode="&#xa6;" horiz-adv-x="516" d="M172 242h172v-727h-172v727zM172 870v727h172v-727h-172z" />
<glyph unicode="&#xa7;" horiz-adv-x="1062" d="M113 -233l77 141q131 -90 281 -90q96 0 160 39q76 47 76 133q0 109 -154 196q-139 80 -281 160q-154 113 -153 283q0 186 184 286q-100 98 -100 244q0 141 103.5 231.5t277.5 90.5t299 -66v-178q-141 86 -291 86q-213 0 -213 -154q0 -104 158 -196q143 -84 288 -168 q156 -117 156 -281q0 -182 -190 -291q104 -102 104 -233q0 -158 -118 -248t-304 -90q-213 0 -360 105zM289 659q0 -106 139 -198q133 -78 268 -156q103 82 103 195q0 109 -137 194q-131 74 -265 148q-109 -74 -108 -183z" />
<glyph unicode="&#xa8;" horiz-adv-x="784" d="M106 1247q0 45 32 77t75 32q45 0 77 -32t32 -77t-32 -76.5t-77 -31.5q-43 0 -75 31.5t-32 76.5zM467 1247q0 45 31.5 77t74.5 32q45 0 76 -32t31 -77t-31 -76.5t-76 -31.5q-43 0 -74.5 31.5t-31.5 76.5z" />
<glyph unicode="&#xa9;" horiz-adv-x="1611" d="M127 670q0 299 188.5 494.5t489.5 195.5q293 0 486.5 -196.5t193.5 -493.5t-195.5 -493.5t-488.5 -196.5q-301 0 -487.5 194.5t-186.5 495.5zM258 670q0 -250 156.5 -415t390.5 -165q233 0 391 165t158 415t-158 414.5t-391 164.5t-390 -164.5t-157 -414.5zM432 662 q0 178 113.5 298.5t292.5 120.5q129 0 206 -47v-135q-102 63 -210 64q-121 0 -195 -83t-74 -212q0 -131 73 -214t193 -83q92 0 189 55l41 -107q-115 -66 -248 -65q-166 0 -273.5 114.5t-107.5 293.5z" />
<glyph unicode="&#xaa;" horiz-adv-x="813" d="M137 901q0 94 65.5 148.5t180.5 58.5l135 4v21q0 109 -127 108q-82 0 -166 -55l-49 98q111 76 242 76q242 0 241 -217v-209q1 -178 15 -215h-113l-22 61q-78 -74 -199 -73q-86 0 -144.5 53t-58.5 141zM283 911q0 -92 94 -92q86 0 141 53v132l-115 -3q-121 -2 -120 -90z " />
<glyph unicode="&#xab;" horiz-adv-x="1146" d="M96 494l340 475l144 -86l-283 -389l283 -388l-144 -86zM524 494l340 475l144 -86l-283 -389l283 -388l-144 -86z" />
<glyph unicode="&#xac;" horiz-adv-x="1259" d="M145 608v162h969v-598h-178v436h-791z" />
<glyph unicode="&#xad;" horiz-adv-x="743" d="M104 430v154h539v-154h-539z" />
<glyph unicode="&#xae;" horiz-adv-x="1206" d="M127 879q0 209 132 346t343 137q205 0 341 -138t136 -345t-138 -345.5t-341 -138.5q-209 0 -341 137.5t-132 346.5zM231 879q0 -166 104.5 -278t264.5 -112q158 0 262.5 112t104.5 278t-104.5 277.5t-262.5 111.5q-160 0 -264.5 -112t-104.5 -277zM432 614v541h152 q86 0 134 -41t48 -106q0 -102 -115 -144v-2q29 -10 166 -248h-115q-47 80 -94 162q-39 59 -53 60h-25v-222h-98zM530 915h33q101 0 101 82q0 76 -97 76h-37v-158z" />
<glyph unicode="&#xaf;" horiz-adv-x="790" d="M133 1169v117h529v-117h-529z" />
<glyph unicode="&#xb0;" horiz-adv-x="794" d="M82 1036q0 135 90 224.5t225 89.5t225.5 -89.5t90.5 -224.5t-91.5 -224t-226.5 -89t-224 89t-89 224zM227 1036q0 -78 49.5 -128t120.5 -50q72 0 120 50t48 128q0 76 -48 127t-120 51t-121 -51t-49 -127z" />
<glyph unicode="&#xb1;" horiz-adv-x="1255" d="M145 0v162h969v-162h-969zM145 569v162h398v297h178v-297h393v-162h-393v-295h-178v295h-398z" />
<glyph unicode="&#xb2;" horiz-adv-x="751" d="M76 545q12 186 112 307q43 53 183 156q94 70 94 131q0 92 -103 92q-76 0 -208 -72l-48 125q152 80 289 80q115 0 178.5 -59.5t63.5 -153.5q0 -109 -80 -184q-82 -59 -162 -117q-96 -74 -119 -166l357 8v-147h-557z" />
<glyph unicode="&#xb3;" horiz-adv-x="751" d="M82 582l49 125q98 -39 193 -39q158 0 157 108q0 113 -188 113h-105v133l103 2q82 2 127 39q39 33 39 80q0 88 -105 88q-84 0 -200 -51l-43 123q141 61 276 61q117 0 182 -59q59 -55 60 -142q0 -143 -140 -192v-2q72 -10 117 -58q49 -53 49 -127q0 -113 -82 -178 q-86 -72 -243 -71q-143 0 -246 47z" />
<glyph unicode="&#xb4;" horiz-adv-x="1110" d="M365 1087l180 302h231l-254 -302h-157z" />
<glyph unicode="&#xb5;" horiz-adv-x="1085" d="M143 -483v1452h183v-623q0 -215 182 -215q135 0 235 113v725h181v-637q-1 -269 22 -332h-149l-39 98q-131 -119 -285 -118q-113 0 -151 49h-3q6 -55 7 -226v-286h-183z" />
<glyph unicode="&#xb6;" horiz-adv-x="1224" d="M102 948q0 168 110 285t271 117h578v-1678h-168v1538h-219v-1538h-166v875h-25q-162 0 -271.5 117.5t-109.5 283.5z" />
<glyph unicode="&#xb7;" horiz-adv-x="428" d="M96 520q0 53 35 89t86 36t86 -36t35 -89t-35 -89t-86 -36t-86 36t-35 89z" />
<glyph unicode="&#xb8;" horiz-adv-x="1042" d="M330 -342l30 86q43 -25 95 -25q80 0 80 60q0 51 -93 53l-59 2l51 166h123l-29 -92q140 -10 140 -125q0 -72 -70 -115q-59 -37 -137 -37t-131 27z" />
<glyph unicode="&#xb9;" horiz-adv-x="751" d="M117 1237l258 123h133v-815h-158v645l-184 -80z" />
<glyph unicode="&#xba;" horiz-adv-x="878" d="M137 1032q0 143 82 235.5t223 92.5q143 0 226 -94q75 -91 75 -234q0 -158 -98 -252q-78 -74 -213 -73q-139 0 -219 94q-76 88 -76 231zM287 1034q0 -96 43 -152.5t114 -56.5q70 0 111 54.5t41 152.5q0 207 -154 207q-70 0 -112.5 -53t-42.5 -152z" />
<glyph unicode="&#xbb;" horiz-adv-x="1146" d="M143 106l283 388l-283 389l144 86l340 -475l-340 -474zM571 106l283 388l-283 389l144 86l340 -475l-340 -474z" />
<glyph unicode="&#xbc;" horiz-adv-x="1703" d="M80 1237l258 123h133v-815h-156v645l-186 -80zM283 -41l911 1425h184l-915 -1425h-180zM905 180v109l395 526h162v-502h109v-133h-109v-180h-157v180h-400zM1087 305q88 8 154 8h64v84q0 160 2 203z" />
<glyph unicode="&#xbd;" horiz-adv-x="1703" d="M80 1237l258 123h133v-815h-156v645l-186 -80zM283 -41l911 1425h184l-915 -1425h-180zM1063 0q12 186 115 307q43 53 180 156q96 70 96 131q0 92 -102 92q-76 0 -209 -72l-49 125q154 80 290 80q113 0 176.5 -59.5t63.5 -153.5q0 -109 -80 -184q-80 -59 -160 -117 q-96 -74 -120 -166l356 8v-147h-557z" />
<glyph unicode="&#xbe;" horiz-adv-x="1703" d="M66 582l49 125q98 -39 192 -39q158 0 158 108q0 113 -189 113h-104v133l102 2q82 2 127 39q39 33 39 80q0 88 -104 88q-84 0 -201 -51l-43 123q141 61 277 61q117 0 182 -59q59 -55 59 -142q0 -143 -139 -192v-2q72 -10 117 -58q49 -53 49 -127q0 -113 -82 -178 q-86 -72 -244 -71q-143 0 -245 47zM324 -41l911 1425h184l-915 -1425h-180zM942 180v109l397 526h160v-502h109v-133h-109v-180h-156v180h-401zM1124 305q90 8 154 8h63v84q0 160 2 203z" />
<glyph unicode="&#xbf;" horiz-adv-x="946" d="M113 -123q0 127 108 242q37 39 203 168q111 86 111 139q0 47 -54 113l137 86q92 -92 93 -203q0 -96 -105 -193q-98 -78 -196 -157q-106 -94 -107 -187q0 -70 45 -110.5t121 -40.5q139 0 270 125l86 -115q-162 -162 -383 -162q-154 0 -241.5 80t-87.5 215zM383 868 q0 51 35 88t88 37q51 0 86 -37t35 -88q0 -53 -35 -90t-86 -37q-53 0 -88 37t-35 90z" />
<glyph unicode="&#xc0;" horiz-adv-x="1218" d="M33 0l518 1354h117l526 -1354h-195l-137 352h-522l-127 -352h-180zM324 1726h231l180 -301h-157zM403 510h398l-142 408q-39 106 -51 167h-2q-16 -63 -53 -165z" />
<glyph unicode="&#xc1;" horiz-adv-x="1218" d="M33 0l518 1354h117l526 -1354h-195l-137 352h-522l-127 -352h-180zM403 510h398l-142 408q-39 106 -51 167h-2q-16 -63 -53 -165zM502 1425l180 301h231l-254 -301h-157z" />
<glyph unicode="&#xc2;" horiz-adv-x="1218" d="M33 0l518 1354h117l526 -1354h-195l-137 352h-522l-127 -352h-180zM322 1425l210 301h160l217 -301h-170l-127 187l-125 -187h-165zM403 510h398l-142 408q-39 106 -51 167h-2q-16 -63 -53 -165z" />
<glyph unicode="&#xc3;" horiz-adv-x="1218" d="M33 0l518 1354h117l526 -1354h-195l-137 352h-522l-127 -352h-180zM330 1491v47q0 70 41 112t104 42q51 0 115 -29l61 -27q55 -27 82 -26q45 0 45 51v20h113v-49q0 -68 -41 -110.5t-105 -42.5q-49 0 -116 30l-60 27q-55 25 -82 25q-45 0 -45 -52v-18h-112zM403 510h398 l-142 408q-39 106 -51 167h-2q-16 -63 -53 -165z" />
<glyph unicode="&#xc4;" horiz-adv-x="1218" d="M33 0l518 1354h117l526 -1354h-195l-137 352h-522l-127 -352h-180zM332 1554q0 45 31.5 77t74.5 32q45 0 76 -32t31 -77t-31 -76.5t-76 -31.5q-43 0 -74.5 31.5t-31.5 76.5zM403 510h398l-142 408q-39 106 -51 167h-2q-16 -63 -53 -165zM692 1554q0 45 31 77t76 32 t75.5 -32t30.5 -77t-30.5 -76.5t-75.5 -31.5t-76 31.5t-31 76.5z" />
<glyph unicode="&#xc5;" horiz-adv-x="1218" d="M35 0l514 1341q-137 39 -137 189q0 86 57 140t145 54q90 0 145.5 -53t55.5 -141q0 -152 -143 -189l524 -1341h-195l-137 352h-522l-127 -352h-180zM403 510h400l-144 408q-37 106 -51 167h-2q-14 -63 -51 -165zM516 1532q0 -111 96 -111q99 0 99 111q0 109 -99 108 q-96 0 -96 -108z" />
<glyph unicode="&#xc6;" horiz-adv-x="1642" d="M33 0l708 1350h795l-61 -162h-545l69 -418h474v-160h-443l78 -448h432v-162h-590l-61 352h-483l-187 -352h-186zM489 510h367l-59 399q-6 45 -23 176h-2q-16 -43 -82 -176z" />
<glyph unicode="&#xc7;" horiz-adv-x="1208" d="M88 659q0 299 193.5 500t498.5 201q215 0 346 -78l-2 -180q-162 100 -346 100q-223 0 -362 -153q-131 -150 -131 -377q0 -233 131 -381t354 -148q162 0 322 86l53 -141q-186 -104 -383 -108l-23 -72q139 -10 140 -125q0 -72 -70 -115q-59 -37 -137 -37t-131 27l30 86 q43 -25 95 -25q80 0 79 60q0 51 -92 53l-59 2l49 154q-258 31 -406.5 215t-148.5 456z" />
<glyph unicode="&#xc8;" horiz-adv-x="960" d="M164 0v1350h690l-59 -162h-449v-418h445v-160h-445v-448h512v-162h-694zM244 1726h231l180 -301h-157z" />
<glyph unicode="&#xc9;" horiz-adv-x="960" d="M164 0v1350h690l-59 -162h-449v-418h445v-160h-445v-448h512v-162h-694zM367 1425l178 301h231l-254 -301h-155z" />
<glyph unicode="&#xca;" horiz-adv-x="960" d="M164 0v1350h690l-59 -162h-449v-418h445v-160h-445v-448h512v-162h-694zM209 1425l211 301h160l215 -301h-168l-129 187l-123 -187h-166z" />
<glyph unicode="&#xcb;" horiz-adv-x="960" d="M164 0v1350h690l-59 -162h-449v-418h445v-160h-445v-448h512v-162h-694zM217 1554q0 45 32 77t75 32q45 0 75.5 -32t30.5 -77t-30.5 -76.5t-75.5 -31.5q-43 0 -75 31.5t-32 76.5zM578 1554q0 45 30.5 77t75.5 32t76 -32t31 -77t-31 -76.5t-76 -31.5t-75.5 31.5 t-30.5 76.5z" />
<glyph unicode="&#xcc;" horiz-adv-x="505" d="M-14 1726h231l178 -301h-155zM164 0v1350h182v-1350h-182z" />
<glyph unicode="&#xcd;" horiz-adv-x="505" d="M115 1425l178 301h231l-254 -301h-155zM164 0v1350h182v-1350h-182z" />
<glyph unicode="&#xce;" horiz-adv-x="505" d="M-39 1425l211 301h162l215 -301h-168l-129 187l-125 -187h-166zM164 0v1350h182v-1350h-182z" />
<glyph unicode="&#xcf;" horiz-adv-x="505" d="M-31 1554q0 45 32 77t75 32q45 0 76.5 -32t31.5 -77t-31.5 -76.5t-76.5 -31.5q-43 0 -75 31.5t-32 76.5zM164 0v1350h182v-1350h-182zM330 1554q0 45 31.5 77t74.5 32q45 0 76 -32t31 -77t-31 -76.5t-76 -31.5q-43 0 -74.5 31.5t-31.5 76.5z" />
<glyph unicode="&#xd0;" horiz-adv-x="1392" d="M78 598v162h160v590h331q365 0 559 -189q181 -174 181 -473q0 -303 -185 -487q-197 -201 -555 -201h-331v598h-160zM420 162h162q279 0 415 157q121 138 121 369q0 221 -129 354q-143 145 -405 146h-164v-428h336v-162h-336v-436z" />
<glyph unicode="&#xd1;" horiz-adv-x="1472" d="M164 0v1350h186l633 -838q117 -154 147 -215h5q-4 84 -5 176v877h183v-1350h-170l-660 870q-104 137 -139 201h-4q6 -70 6 -168v-903h-182zM444 1489v47q0 70 41 112t105 42q49 0 115 -29l59 -27q57 -25 82 -24q45 0 45 51v18h113v-49q0 -68 -41 -109.5t-103 -41.5 q-53 0 -117 28l-59 27q-55 25 -82 25q-45 0 -45 -52v-18h-113z" />
<glyph unicode="&#xd2;" horiz-adv-x="1521" d="M88 666q0 299 188.5 496.5t485.5 197.5q317 0 506 -211q170 -190 170 -479q0 -313 -199 -508q-188 -182 -477 -182q-281 0 -463 167q-211 195 -211 519zM283 668q0 -242 130 -385.5t349 -143.5t349 143.5t130 385.5q0 238 -125 379q-129 150 -354 149q-219 0 -349 -142.5 t-130 -385.5zM459 1726h231l180 -301h-157z" />
<glyph unicode="&#xd3;" horiz-adv-x="1521" d="M88 666q0 299 188.5 496.5t485.5 197.5q317 0 506 -211q170 -190 170 -479q0 -313 -199 -508q-188 -182 -477 -182q-281 0 -463 167q-211 195 -211 519zM283 668q0 -242 130 -385.5t349 -143.5t349 143.5t130 385.5q0 238 -125 379q-129 150 -354 149q-219 0 -349 -142.5 t-130 -385.5zM666 1425l180 301h231l-254 -301h-157z" />
<glyph unicode="&#xd4;" horiz-adv-x="1521" d="M88 666q0 299 188.5 496.5t485.5 197.5q317 0 506 -211q170 -190 170 -479q0 -313 -199 -508q-188 -182 -477 -182q-281 0 -463 167q-211 195 -211 519zM283 668q0 -242 130 -385.5t349 -143.5t349 143.5t130 385.5q0 238 -125 379q-129 150 -354 149q-219 0 -349 -142.5 t-130 -385.5zM459 1425l211 301h159l215 -301h-167l-129 187l-123 -187h-166z" />
<glyph unicode="&#xd5;" horiz-adv-x="1521" d="M88 666q0 299 188.5 496.5t485.5 197.5q317 0 506 -211q170 -190 170 -479q0 -313 -199 -508q-188 -182 -477 -182q-281 0 -463 167q-211 195 -211 519zM283 668q0 -242 130 -385.5t349 -143.5t349 143.5t130 385.5q0 238 -125 379q-129 150 -354 149q-219 0 -349 -142.5 t-130 -385.5zM479 1489v47q0 70 41 112t105 42q49 0 114 -29l60 -27q55 -25 82 -24q45 0 45 51v18h112v-49q0 -68 -41 -109.5t-102 -41.5q-51 0 -117 28l-59 27q-55 25 -82 25q-45 0 -45 -52v-18h-113z" />
<glyph unicode="&#xd6;" horiz-adv-x="1521" d="M88 666q0 299 188.5 496.5t485.5 197.5q317 0 506 -211q170 -190 170 -479q0 -313 -199 -508q-188 -182 -477 -182q-281 0 -463 167q-211 195 -211 519zM283 668q0 -242 130 -385.5t349 -143.5t349 143.5t130 385.5q0 238 -125 379q-129 150 -354 149q-219 0 -349 -142.5 t-130 -385.5zM473 1554q0 45 32 77t75 32q45 0 75.5 -32t30.5 -77t-30.5 -76.5t-75.5 -31.5q-43 0 -75 31.5t-32 76.5zM834 1554q0 45 30.5 77t75.5 32t76 -32t31 -77t-31 -76.5t-76 -31.5t-75.5 31.5t-30.5 76.5z" />
<glyph unicode="&#xd7;" horiz-adv-x="1286" d="M115 918l114 114l414 -411l414 409l112 -115l-411 -409l411 -414l-114 -115l-412 414l-412 -414l-114 115l411 414z" />
<glyph unicode="&#xd8;" horiz-adv-x="1521" d="M84 666q0 299 189.5 496.5t486.5 197.5q197 0 348 -88l109 143l129 -92l-111 -145q199 -188 199 -508q0 -301 -187.5 -498t-486.5 -197q-203 0 -363 99l-102 -137l-127 92l106 139q-190 193 -190 498zM276 668q0 -215 107 -355l623 826q-106 59 -246 59 q-219 0 -351.5 -144.5t-132.5 -385.5zM498 207q113 -72 262 -72q219 0 350 144.5t131 388.5q0 227 -117 364z" />
<glyph unicode="&#xd9;" horiz-adv-x="1370" d="M164 489v861h182v-856q0 -166 84 -260.5t246 -94.5q176 0 262 88q80 84 80 254v869h182v-881q0 -240 -145 -369q-137 -121 -383 -120q-250 0 -379 125.5t-129 383.5zM389 1726h232l180 -301h-158z" />
<glyph unicode="&#xda;" horiz-adv-x="1370" d="M164 489v861h182v-856q0 -166 84 -260.5t246 -94.5q176 0 262 88q80 84 80 254v869h182v-881q0 -240 -145 -369q-137 -121 -383 -120q-250 0 -379 125.5t-129 383.5zM582 1425l178 301h231l-254 -301h-155z" />
<glyph unicode="&#xdb;" horiz-adv-x="1370" d="M164 489v861h182v-856q0 -166 84 -260.5t246 -94.5q176 0 262 88q80 84 80 254v869h182v-881q0 -240 -145 -369q-137 -121 -383 -120q-250 0 -379 125.5t-129 383.5zM391 1425l211 301h160l217 -301h-170l-127 187l-125 -187h-166z" />
<glyph unicode="&#xdc;" horiz-adv-x="1370" d="M164 489v861h182v-856q0 -166 84 -260.5t246 -94.5q176 0 262 88q80 84 80 254v869h182v-881q0 -240 -145 -369q-137 -121 -383 -120q-250 0 -379 125.5t-129 383.5zM395 1554q0 45 32 77t75 32q45 0 76.5 -32t31.5 -77t-31.5 -76.5t-76.5 -31.5q-43 0 -75 31.5t-32 76.5 zM756 1554q0 45 31.5 77t74.5 32q45 0 76 -32t31 -77t-31 -76.5t-76 -31.5q-43 0 -74.5 31.5t-31.5 76.5z" />
<glyph unicode="&#xdd;" horiz-adv-x="1128" d="M27 1350h200l232 -418q41 -76 114 -217h5q43 94 108 215l227 420h193l-444 -811v-539h-183v543zM465 1446l180 301h232l-254 -301h-158z" />
<glyph unicode="&#xde;" horiz-adv-x="1011" d="M164 0v1350h182v-226h105q217 0 343 -112.5t126 -311.5q0 -180 -111 -301q-129 -139 -369 -139h-94v-260h-182zM346 416h111q280 -1 280 282q0 121 -74.5 192t-216.5 71h-100v-545z" />
<glyph unicode="&#xdf;" horiz-adv-x="1181" d="M129 -289v1288q0 244 147 361q115 90 289 90q166 0 279 -98q133 -117 133 -336q0 -39 -2 -60q-205 -43 -205 -149q0 -59 90 -133q145 -123 166 -146q88 -100 88 -219q0 -168 -115 -254q-98 -76 -264 -75q-166 0 -297 77l66 138q104 -74 233 -74q190 0 191 170 q0 86 -88 164q-82 68 -166 135q-88 88 -88 201q0 186 211 258q-2 113 -65.5 183.5t-170.5 70.5q-252 0 -252 -295v-1297h-180z" />
<glyph unicode="&#xe0;" horiz-adv-x="964" d="M80 281q0 145 102.5 228t292.5 89l189 6v37q0 203 -203 203q-133 0 -252 -84l-68 123q158 111 355 110q350 0 350 -336v-325q0 -279 18 -332h-149l-41 92q-119 -113 -291 -112q-127 0 -215 82.5t-88 218.5zM207 1389h231l180 -302h-157zM260 295q0 -74 46 -119t132 -45 q130 0 224 94v234l-175 -6q-227 -8 -227 -158z" />
<glyph unicode="&#xe1;" horiz-adv-x="964" d="M80 281q0 145 102.5 228t292.5 89l189 6v37q0 203 -203 203q-133 0 -252 -84l-68 123q158 111 355 110q350 0 350 -336v-325q0 -279 18 -332h-149l-41 92q-119 -113 -291 -112q-127 0 -215 82.5t-88 218.5zM260 295q0 -74 46 -119t132 -45q130 0 224 94v234l-175 -6 q-227 -8 -227 -158zM375 1087l178 302h231l-254 -302h-155z" />
<glyph unicode="&#xe2;" horiz-adv-x="964" d="M80 281q0 145 102.5 228t292.5 89l189 6v37q0 203 -203 203q-133 0 -252 -84l-68 123q158 111 355 110q350 0 350 -336v-325q0 -279 18 -332h-149l-41 92q-119 -113 -291 -112q-127 0 -215 82.5t-88 218.5zM207 1087l211 302h160l215 -302h-168l-129 187l-123 -187h-166z M260 295q0 -74 46 -119t132 -45q130 0 224 94v234l-175 -6q-227 -8 -227 -158z" />
<glyph unicode="&#xe3;" horiz-adv-x="964" d="M80 281q0 145 102.5 228t292.5 89l189 6v37q0 203 -203 203q-133 0 -252 -84l-68 123q158 111 355 110q350 0 350 -336v-325q0 -279 18 -332h-149l-41 92q-119 -113 -291 -112q-127 0 -215 82.5t-88 218.5zM229 1135v47q0 70 41 111.5t105 41.5q49 0 114 -28l60 -27 q55 -27 82 -27q45 0 45 52v20h112v-49q0 -68 -40.5 -111t-102.5 -43q-51 0 -117 31l-59 27q-55 25 -82 24q-45 0 -45 -51v-18h-113zM260 295q0 -74 46 -119t132 -45q130 0 224 94v234l-175 -6q-227 -8 -227 -158z" />
<glyph unicode="&#xe4;" horiz-adv-x="964" d="M80 281q0 145 102.5 228t292.5 89l189 6v37q0 203 -203 203q-133 0 -252 -84l-68 123q158 111 355 110q350 0 350 -336v-325q0 -279 18 -332h-149l-41 92q-119 -113 -291 -112q-127 0 -215 82.5t-88 218.5zM207 1247q0 45 30.5 77t75.5 32t76 -32t31 -77t-31 -76.5 t-76 -31.5t-75.5 31.5t-30.5 76.5zM260 295q0 -74 46 -119t132 -45q130 0 224 94v234l-175 -6q-227 -8 -227 -158zM567 1247q0 45 31 77t76 32q43 0 74.5 -32t31.5 -77t-31.5 -76.5t-74.5 -31.5q-45 0 -76 31.5t-31 76.5z" />
<glyph unicode="&#xe5;" horiz-adv-x="964" d="M80 281q0 145 102.5 228t292.5 89l189 6v37q0 203 -203 203q-133 0 -252 -84l-68 123q158 111 355 110q350 0 350 -336v-325q0 -279 18 -332h-149l-41 92q-119 -113 -291 -112q-127 0 -215 82.5t-88 218.5zM260 295q0 -74 46 -119t132 -45q130 0 224 94v234l-175 -6 q-227 -8 -227 -158zM297 1268q0 86 57.5 139t145.5 53q90 0 146 -53t56 -139q0 -88 -58 -142.5t-146 -54.5q-90 0 -145.5 54.5t-55.5 142.5zM401 1270q0 -111 97 -111q98 0 98 111q0 109 -98 108q-96 0 -97 -108z" />
<glyph unicode="&#xe6;" horiz-adv-x="1544" d="M80 281q0 147 105.5 229t306.5 82h174v47q0 205 -205 205q-133 0 -252 -84l-66 121q156 113 353 112q211 0 290 -133q117 133 279 133q188 0 294.5 -136t106.5 -363v-43h-622q0 -135 83 -226.5t224 -91.5q121 0 235 68l52 -121q-133 -100 -322 -100q-225 0 -350 165 q-86 -80 -145 -112q-100 -53 -224 -53q-137 0 -227 81.5t-90 219.5zM260 293q0 -72 48 -117t138 -45q142 0 259 119q-39 88 -46 201h-135q-264 0 -264 -158zM844 592h430q-2 100 -53 174q-59 82 -160 82q-96 0 -156.5 -75t-60.5 -181z" />
<glyph unicode="&#xe7;" horiz-adv-x="878" d="M80 475q0 217 125 363q135 156 364 155q150 0 258 -63v-162q-113 76 -252 76q-143 0 -228 -100.5t-85 -256.5t80 -251q84 -102 229 -103q123 0 240 70l51 -123q-123 -82 -270 -98l-25 -74q139 -10 140 -125q0 -72 -68 -115q-59 -37 -137 -37q-80 0 -133 29l30 84 q43 -25 95 -25q80 0 79 60q0 51 -90 53l-61 2l47 150q-186 23 -291 168q-98 133 -98 323z" />
<glyph unicode="&#xe8;" horiz-adv-x="968" d="M80 498q0 213 112.5 354t296.5 141q188 0 295 -136t107 -363v-48h-621q0 -133 82 -223t223 -90q121 0 236 68l51 -121q-133 -100 -321 -100q-223 0 -348 157q-113 141 -113 361zM236 1389h231l178 -302h-156zM268 588h430q0 104 -53 176q-59 82 -158 82q-98 0 -158.5 -75 t-60.5 -183z" />
<glyph unicode="&#xe9;" horiz-adv-x="968" d="M80 498q0 213 112.5 354t296.5 141q188 0 295 -136t107 -363v-48h-621q0 -133 82 -223t223 -90q121 0 236 68l51 -121q-133 -100 -321 -100q-223 0 -348 157q-113 141 -113 361zM268 588h430q0 104 -53 176q-59 82 -158 82q-98 0 -158.5 -75t-60.5 -183zM403 1087 l181 302h231l-254 -302h-158z" />
<glyph unicode="&#xea;" horiz-adv-x="968" d="M80 498q0 213 112.5 354t296.5 141q188 0 295 -136t107 -363v-48h-621q0 -133 82 -223t223 -90q121 0 236 68l51 -121q-133 -100 -321 -100q-223 0 -348 157q-113 141 -113 361zM209 1087l211 302h162l215 -302h-168l-129 187l-125 -187h-166zM268 588h430q0 104 -53 176 q-59 82 -158 82q-98 0 -158.5 -75t-60.5 -183z" />
<glyph unicode="&#xeb;" horiz-adv-x="968" d="M80 498q0 213 112.5 354t296.5 141q188 0 295 -136t107 -363v-48h-621q0 -133 82 -223t223 -90q121 0 236 68l51 -121q-133 -100 -321 -100q-223 0 -348 157q-113 141 -113 361zM209 1247q0 45 31.5 77t76.5 32q43 0 75 -32t32 -77t-32 -76.5t-75 -31.5q-45 0 -76.5 31.5 t-31.5 76.5zM268 588h430q0 104 -53 176q-59 82 -158 82q-98 0 -158.5 -75t-60.5 -183zM569 1247q0 45 32 77t75 32q45 0 76.5 -32t31.5 -77t-31.5 -76.5t-76.5 -31.5q-43 0 -75 31.5t-32 76.5z" />
<glyph unicode="&#xec;" horiz-adv-x="491" d="M-27 1389h232l180 -302h-158zM156 0v969h182v-969h-182z" />
<glyph unicode="&#xed;" horiz-adv-x="491" d="M121 1087l180 302h231l-253 -302h-158zM156 0v969h182v-969h-182z" />
<glyph unicode="&#xee;" horiz-adv-x="491" d="M-41 1087l211 302h160l217 -302h-170l-127 187l-125 -187h-166zM156 0v969h182v-969h-182z" />
<glyph unicode="&#xef;" horiz-adv-x="491" d="M-35 1247q0 45 32 77t75 32q45 0 75.5 -32t30.5 -77t-30.5 -76.5t-75.5 -31.5q-43 0 -75 31.5t-32 76.5zM156 0v969h182v-969h-182zM326 1247q0 45 30.5 77t75.5 32t76 -32t31 -77t-31 -76.5t-76 -31.5t-75.5 31.5t-30.5 76.5z" />
<glyph unicode="&#xf0;" horiz-adv-x="1136" d="M96 489q0 221 123 362.5t316 141.5q225 0 329 -188h2q-23 262 -180 409l-285 -122l-49 118l211 90q-115 57 -287 72l48 141q254 -31 417 -139l244 103l47 -119l-182 -78q192 -211 192 -670q0 -313 -135 -479q-127 -152 -344 -151q-217 0 -346 147q-121 141 -121 362z M281 494q0 -166 76.5 -264.5t209.5 -98.5q135 0 211 102q70 98 70 263q0 150 -78 250t-207 100q-135 0 -208.5 -95.5t-73.5 -256.5z" />
<glyph unicode="&#xf1;" horiz-adv-x="1056" d="M129 0v969h152l22 -111q182 135 344 135q119 0 197 -80q90 -92 90 -264v-649h-182v588q0 240 -160 239q-123 0 -283 -135v-692h-180zM266 1135v47q0 70 41 111.5t105 41.5q49 0 114 -28l60 -27q57 -27 82 -27q45 0 45 52v20h112v-49q0 -68 -41 -111t-102 -43 q-53 0 -117 31l-59 27q-55 25 -82 24q-45 0 -45 -51v-18h-113z" />
<glyph unicode="&#xf2;" horiz-adv-x="1067" d="M80 483q0 215 117 359q127 151 338 151q213 0 337 -149q119 -139 119 -359q0 -219 -119 -358q-125 -147 -340 -147q-193 0 -313 118q-139 139 -139 385zM254 1389h231l181 -302h-158zM264 487q0 -162 73 -260t200 -98q125 0 196.5 98.5t71.5 259.5q0 164 -72 260.5 t-201 96.5q-127 0 -197.5 -96.5t-70.5 -260.5z" />
<glyph unicode="&#xf3;" horiz-adv-x="1067" d="M80 483q0 215 117 359q127 151 338 151q213 0 337 -149q119 -139 119 -359q0 -219 -119 -358q-125 -147 -340 -147q-193 0 -313 118q-139 139 -139 385zM264 487q0 -162 73 -260t200 -98q125 0 196.5 98.5t71.5 259.5q0 164 -72 260.5t-201 96.5q-127 0 -197.5 -96.5 t-70.5 -260.5zM467 1087l180 302h232l-254 -302h-158z" />
<glyph unicode="&#xf4;" horiz-adv-x="1067" d="M80 483q0 215 117 359q127 151 338 151q213 0 337 -149q119 -139 119 -359q0 -219 -119 -358q-125 -147 -340 -147q-193 0 -313 118q-139 139 -139 385zM250 1087l211 302h160l215 -302h-168l-129 187l-123 -187h-166zM264 487q0 -162 73 -260t200 -98q125 0 196.5 98.5 t71.5 259.5q0 164 -72 260.5t-201 96.5q-127 0 -197.5 -96.5t-70.5 -260.5z" />
<glyph unicode="&#xf5;" horiz-adv-x="1067" d="M80 483q0 215 117 359q127 151 338 151q213 0 337 -149q119 -139 119 -359q0 -219 -119 -358q-125 -147 -340 -147q-193 0 -313 118q-139 139 -139 385zM264 487q0 -162 73 -260t200 -98q125 0 196.5 98.5t71.5 259.5q0 164 -72 260.5t-201 96.5q-127 0 -197.5 -96.5 t-70.5 -260.5zM285 1135v47q0 70 41 111.5t104 41.5q49 0 115 -28l59 -27q57 -27 82 -27q45 0 45 52v20h113v-49q0 -68 -41 -111t-103 -43q-51 0 -116 31l-60 27q-55 25 -82 24q-45 0 -45 -51v-18h-112z" />
<glyph unicode="&#xf6;" horiz-adv-x="1067" d="M80 483q0 215 117 359q127 151 338 151q213 0 337 -149q119 -139 119 -359q0 -219 -119 -358q-125 -147 -340 -147q-193 0 -313 118q-139 139 -139 385zM252 1247q0 45 31.5 77t74.5 32q45 0 77 -32t32 -77t-32 -76.5t-77 -31.5q-43 0 -74.5 31.5t-31.5 76.5zM264 487 q0 -162 73 -260t200 -98q125 0 196.5 98.5t71.5 259.5q0 164 -72 260.5t-201 96.5q-127 0 -197.5 -96.5t-70.5 -260.5zM612 1247q0 45 32 77t75 32q45 0 75.5 -32t30.5 -77t-30.5 -76.5t-75.5 -31.5q-43 0 -75 31.5t-32 76.5z" />
<glyph unicode="&#xf7;" horiz-adv-x="1259" d="M145 436v162h969v-162h-969zM514 160q0 51 34 86t83 35q51 0 85 -35t34 -86t-34 -86t-85 -35q-49 0 -83 35t-34 86zM514 874q0 51 34 87t83 36q51 0 85 -36t34 -87q0 -49 -34 -84.5t-85 -35.5q-49 0 -83 35.5t-34 84.5z" />
<glyph unicode="&#xf8;" d="M82 483q0 215 119 359q125 152 336 151q141 0 249 -71l91 112l104 -73l-96 -130q109 -131 108 -346q0 -219 -119 -358q-125 -147 -339 -147q-141 0 -246 67l-90 -121l-105 80l96 129q-109 135 -108 348zM266 487q0 -115 41 -202l383 510q-61 49 -155 49 q-127 0 -198 -96.5t-71 -260.5zM389 178q61 -49 150 -49q127 0 198.5 98t71.5 260q0 113 -37 197z" />
<glyph unicode="&#xf9;" horiz-adv-x="1052" d="M129 332v637h180v-623q0 -215 185 -215q135 0 235 113v725h180v-609q1 -303 21 -360h-148l-39 98q-139 -119 -309 -118q-121 0 -201 69q-104 90 -104 283zM225 1389h232l180 -302h-158z" />
<glyph unicode="&#xfa;" horiz-adv-x="1052" d="M129 332v637h180v-623q0 -215 185 -215q135 0 235 113v725h180v-609q1 -303 21 -360h-148l-39 98q-139 -119 -309 -118q-121 0 -201 69q-104 90 -104 283zM428 1087l180 302h232l-254 -302h-158z" />
<glyph unicode="&#xfb;" horiz-adv-x="1052" d="M129 332v637h180v-623q0 -215 185 -215q135 0 235 113v725h180v-609q1 -303 21 -360h-148l-39 98q-139 -119 -309 -118q-121 0 -201 69q-104 90 -104 283zM225 1087l211 302h160l217 -302h-170l-127 187l-125 -187h-166z" />
<glyph unicode="&#xfc;" horiz-adv-x="1052" d="M129 332v637h180v-623q0 -215 185 -215q135 0 235 113v725h180v-609q1 -303 21 -360h-148l-39 98q-139 -119 -309 -118q-121 0 -201 69q-104 90 -104 283zM233 1247q0 45 31 77t76 32q43 0 74.5 -32t31.5 -77t-31.5 -76.5t-74.5 -31.5q-45 0 -76 31.5t-31 76.5zM592 1247 q0 45 31.5 77t76.5 32q43 0 75 -32t32 -77t-32 -76.5t-75 -31.5q-45 0 -76.5 31.5t-31.5 76.5z" />
<glyph unicode="&#xfd;" horiz-adv-x="1056" d="M-8 -446l45 139q66 -33 147 -33q188 0 287 336l-438 973h192l332 -758h6l254 758h180l-370 -1043q-86 -244 -205 -338q-92 -74 -236 -73q-106 0 -194 39zM422 1087l180 302h232l-254 -302h-158z" />
<glyph unicode="&#xfe;" horiz-adv-x="1069" d="M145 -483v1933h181v-475q90 18 166 18q219 0 348 -129q135 -135 135 -366q0 -219 -139.5 -368.5t-354.5 -149.5q-82 0 -155 28v-491h-181zM326 164q80 -33 147 -33q143 0 229 97.5t86 263.5q0 168 -92 260q-84 82 -219 82q-80 0 -151 -23v-647z" />
<glyph unicode="&#xff;" horiz-adv-x="1007" d="M-25 -446l45 139q66 -33 148 -33q188 0 287 336l-439 973h193l332 -758h6l254 758h180l-371 -1043q-86 -244 -204 -338q-92 -74 -236 -73q-106 0 -195 39zM229 1247q0 45 31 77t76 32t75.5 -32t30.5 -77t-30.5 -76.5t-75.5 -31.5t-76 31.5t-31 76.5zM590 1247 q0 45 30.5 77t75.5 32q43 0 75 -32t32 -77t-32 -76.5t-75 -31.5q-45 0 -75.5 31.5t-30.5 76.5z" />
<glyph unicode="&#x152;" horiz-adv-x="1765" d="M88 668q0 299 191.5 495.5t486.5 196.5q16 0 128 -5t155 -5h612l-62 -162h-448v-418h444v-160h-444v-448h514v-162h-537q-45 0 -187 -11.5t-181 -11.5q-299 0 -485.5 195t-186.5 496zM281 674q0 -242 131 -389.5t352 -147.5q55 1 205 21v1020q-135 20 -211 20 q-219 0 -348 -143.5t-129 -380.5z" />
<glyph unicode="&#x153;" horiz-adv-x="1683" d="M80 483q0 215 117 359q127 152 338 151q231 0 354 -180q113 180 315 180q188 0 295 -136t107 -363v-48h-621q0 -133 82 -223t223 -90q121 0 236 68l51 -121q-133 -100 -322 -100q-240 0 -364 186q-121 -188 -359 -189q-190 0 -313 121q-139 139 -139 385zM264 487 q0 -162 73 -260t200 -98q125 0 196.5 98.5t71.5 259.5q0 164 -72 260.5t-201 96.5q-127 0 -197.5 -96.5t-70.5 -260.5zM985 588h430q-2 104 -53 176q-59 82 -160 82q-98 0 -157.5 -75t-59.5 -183z" />
<glyph unicode="&#x178;" horiz-adv-x="1128" d="M27 1350h200l232 -418q41 -76 114 -217h5q43 94 108 215l227 420h193l-444 -811v-539h-183v543zM281 1554q0 45 31.5 77t74.5 32q45 0 77 -32t32 -77t-32 -76.5t-77 -31.5q-43 0 -74.5 31.5t-31.5 76.5zM641 1554q0 45 32 77t75 32q45 0 75.5 -32t30.5 -77t-30.5 -76.5 t-75.5 -31.5q-43 0 -75 31.5t-32 76.5z" />
<glyph unicode="&#x2c6;" horiz-adv-x="841" d="M131 1087l211 302h160l215 -302h-168l-127 187l-125 -187h-166z" />
<glyph unicode="&#x2dc;" horiz-adv-x="808" d="M127 1135v47q0 70 41 111.5t104 41.5q49 0 115 -28l59 -27q55 -27 82 -27q45 0 45 52v20h113v-49q0 -68 -41 -111t-102 -43q-53 0 -117 31l-61 27q-55 25 -80 24q-47 0 -47 -51v-18h-111z" />
<glyph unicode="&#x2000;" horiz-adv-x="873" />
<glyph unicode="&#x2001;" horiz-adv-x="1747" />
<glyph unicode="&#x2002;" horiz-adv-x="873" />
<glyph unicode="&#x2003;" horiz-adv-x="1747" />
<glyph unicode="&#x2004;" horiz-adv-x="582" />
<glyph unicode="&#x2005;" horiz-adv-x="436" />
<glyph unicode="&#x2006;" horiz-adv-x="291" />
<glyph unicode="&#x2007;" horiz-adv-x="291" />
<glyph unicode="&#x2008;" horiz-adv-x="218" />
<glyph unicode="&#x2009;" horiz-adv-x="349" />
<glyph unicode="&#x200a;" horiz-adv-x="97" />
<glyph unicode="&#x2010;" horiz-adv-x="743" d="M104 430v154h539v-154h-539z" />
<glyph unicode="&#x2011;" horiz-adv-x="743" d="M104 430v154h539v-154h-539z" />
<glyph unicode="&#x2012;" horiz-adv-x="743" d="M104 430v154h539v-154h-539z" />
<glyph unicode="&#x2013;" horiz-adv-x="1024" d="M0 438v146h1024v-146h-1024z" />
<glyph unicode="&#x2014;" horiz-adv-x="2048" d="M0 438v146h2048v-146h-2048z" />
<glyph unicode="&#x2018;" horiz-adv-x="462" d="M121 1212q0 135 69 261l109 -27q-16 -72 -16 -133q0 -117 63 -269l-168 -81q-57 125 -57 249z" />
<glyph unicode="&#x2019;" horiz-adv-x="485" d="M121 1030q66 131 65 266q0 57 -10 134l180 36q12 -59 13 -114q0 -215 -148 -377z" />
<glyph unicode="&#x201a;" horiz-adv-x="485" d="M121 -199q66 131 65 267q0 57 -10 133l180 37q12 -59 13 -115q0 -215 -148 -377z" />
<glyph unicode="&#x201c;" horiz-adv-x="806" d="M121 1212q0 135 69 261l109 -27q-16 -72 -16 -133q0 -117 63 -269l-168 -81q-57 125 -57 249zM465 1212q0 135 70 261l108 -27q-16 -72 -16 -133q0 -117 63 -269l-168 -81q-57 125 -57 249z" />
<glyph unicode="&#x201d;" horiz-adv-x="829" d="M121 1030q66 131 65 266q0 57 -10 134l180 36q12 -59 13 -114q0 -215 -148 -377zM465 1030q66 131 65 266q0 57 -10 134l180 36q12 -59 13 -114q0 -215 -150 -377z" />
<glyph unicode="&#x201e;" horiz-adv-x="829" d="M121 -199q66 131 65 267q0 57 -10 133l180 37q12 -59 13 -115q0 -215 -148 -377zM465 -199q66 131 65 267q0 57 -10 133l180 37q12 -59 13 -115q0 -215 -150 -377z" />
<glyph unicode="&#x2022;" horiz-adv-x="628" d="M106 651q0 90 59.5 152.5t147.5 62.5q90 0 149.5 -62.5t59.5 -152.5t-59.5 -151.5t-149.5 -61.5q-88 0 -147.5 61.5t-59.5 151.5z" />
<glyph unicode="&#x2026;" horiz-adv-x="1454" d="M96 100q0 53 35 90t86 37t86 -37t35 -90q0 -51 -35 -88t-86 -37t-86 37t-35 88zM608 100q0 53 35 90t88 37q51 0 86 -37t35 -90q0 -51 -35 -88t-86 -37q-53 0 -88 37t-35 88zM1122 100q0 53 35 90t86 37t86 -37t35 -90q0 -51 -35 -88t-86 -37t-86 37t-35 88z" />
<glyph unicode="&#x202f;" horiz-adv-x="349" />
<glyph unicode="&#x2039;" horiz-adv-x="718" d="M96 494l340 475l144 -86l-283 -389l283 -388l-144 -86z" />
<glyph unicode="&#x203a;" horiz-adv-x="718" d="M143 106l283 388l-283 389l144 86l340 -475l-340 -474z" />
<glyph unicode="&#x205f;" horiz-adv-x="436" />
<glyph unicode="&#x2122;" horiz-adv-x="1677" d="M47 1219v131h627l-45 -131h-211v-678h-146v678h-225zM717 541v809h141l213 -318q25 -37 59 -100h5q29 57 55 100l203 318h145v-809h-145v467q0 70 4 112h-2q-16 -39 -58 -102l-163 -254h-82l-174 254q-37 55 -58 102h-2q4 -43 4 -112v-467h-145z" />
<glyph unicode="&#x25fc;" horiz-adv-x="972" d="M0 0v973h973v-973h-973z" />
</font>
</defs>
</svg>
